<svg xmlns="http://www.w3.org/2000/svg" width="226.772" height="60mm" viewBox="0 0 23.38 23.38" shape-rendering="geometricPrecision" text-rendering="geometricPrecision" image-rendering="optimizeQuality" fill-rule="evenodd" clip-rule="evenodd"><defs><style>.str0{stroke:#59656c;stroke-width:.39;stroke-miterlimit:22.9256}.fil0{fill:none}</style></defs><g id="Слой_x0020_1"><g id="_5110117280"><path class="fil0 str0" d="M8.11 13.65c0 .5.93.89 1.19.04l.55-2.24c.12-.48.11-.57.11-.01-.03 2.59-.3 5.21-.3 7.8 0 .45.7.89 1.18.29.2-.25.71-4.4.86-5.38l.89 5.4c.37.5 1.13.28 1.2-.37l-.33-7.68c-.03-.44.03-.35.11 0l.73 2.53c.51.4.98-.05.98-.43 0-.35-.69-4.6-.78-5.1-.07-.39-.17-.57-.43-.77-.3-.24-.99-.52-1.39-.61-.43.51-1.61.45-1.97 0-.44.1-.89.33-1.27.55-.55.31-.52.73-.7 1.83-.07.41-.63 3.81-.63 4.16zm2.09-8.64c0 .46.19.84.41 1.08.77.86 2.58.5 2.58-1.08 0-1-1.09-1.79-2.14-1.3-.1.05-.33.21-.41.29-.19.19-.44.64-.44 1.01z"/><rect class="fil0 str0" x="5.51" y="9.2" width="1.17" height="10.62" rx=".58" ry=".53"/><rect class="fil0 str0" x="16.71" y="9.2" width="1.17" height="10.62" rx=".58" ry=".53"/></g><path class="fil0" d="M0 0h23.38v23.38H0z"/></g></svg>