<svg xmlns="http://www.w3.org/2000/svg" width="227.011" height="47mm" viewBox="0 0 57.24 44.79" shape-rendering="geometricPrecision" text-rendering="geometricPrecision" image-rendering="optimizeQuality" fill-rule="evenodd" clip-rule="evenodd"><defs><style>.str0{stroke:#fff;stroke-width:.95;stroke-miterlimit:22.9256}.fil1{fill:#59656c}</style></defs><g id="Слой_x0020_1"><g id="_1632695264"><path d="M37.04 36.3h3.36v-3.36c0-.19.15-.34.34-.34.19 0 .34.15.34.34v3.81c0 .01-.01.02-.01.02v.01c0 .01 0 .01-.01.01 0 .01-.01.02-.02.03-.05.09-.14.15-.25.16h-3.74c-.18 0-.34-.15-.34-.34 0-.19.15-.34.34-.34zm0-27.81h3.36v3.36c0 .19.15.34.34.34.19 0 .34-.15.34-.34V8.04c0-.01-.01-.02-.01-.02v-.01c0-.01 0-.01-.01-.01 0-.01-.01-.02-.02-.03a.313.313 0 00-.25-.16h-3.74c-.18 0-.34.15-.34.34 0 .19.15.34.34.34zM20.21 36.3h-3.36v-3.36c0-.19-.15-.34-.34-.34-.19 0-.34.15-.34.34v3.81c0 .01.01.02.01.02v.01c0 .01 0 .01.01.01 0 .01.01.02.02.03.05.09.14.15.25.16h3.74c.18 0 .34-.15.34-.34 0-.19-.15-.34-.34-.34zm0-27.81h-3.36v3.36c0 .19-.15.34-.34.34-.19 0-.34-.15-.34-.34V8.04c0-.01.01-.02.01-.02v-.01c0-.01 0-.01.01-.01 0-.01.01-.02.02-.03.05-.09.14-.15.25-.16h3.74c.18 0 .34.15.34.34 0 .19-.15.34-.34.34z" fill="#55adad"/><path class="fil1 str0" d="M11.03 22.4c.16-.33.53-.71.75-.99 1.63-2.03 4.19-4.25 6.34-5.6 6.82-4.26 14.17-4.27 20.99 0 1.57.98 4.34 3.23 5.57 4.7.33.39 1.33 1.49 1.53 1.88-.16.33-.53.71-.75.99-1.63 2.03-4.19 4.25-6.34 5.6-6.83 4.27-14.17 4.27-20.99 0-2.08-1.3-4.8-3.64-6.37-5.63-.23-.3-.55-.6-.73-.95zm-1.97.26c.13.99 1.8 2.64 2.48 3.41.29.33.63.66.96.97 9.14 8.66 20.41 9.69 30.45 1.59 1.9-1.53 2.46-2.23 3.94-3.89.48-.54 1.44-1.5 1.31-2.58-.14-1.08-2.52-3.53-3.43-4.39-9.14-8.66-20.41-9.69-30.45-1.59-.75.6-1.42 1.2-2.07 1.85-.34.34-.64.7-.98 1.02-.35.33-.59.69-.89 1.03-.48.54-1.45 1.5-1.31 2.59z"/><path class="fil1 str0" d="M27.95 16.57c3.41-.44 6.15 2.15 6.5 5.15.4 3.43-2.19 6.17-5.12 6.5-3.46.39-6.18-2.12-6.54-5.16-.21-1.78.47-3.47 1.34-4.45.88-.99 2.01-1.8 3.82-2.04zm8.44 6.78c.41-2.29-.69-4.69-1.74-5.96-.31-.38-.64-.66-1-.99-.31-.3-.72-.54-1.13-.79-2.8-1.69-6.71-1.2-8.9.76-1.36 1.22-2.38 2.57-2.77 5.05-.35 2.27.64 4.74 1.74 5.97 1.19 1.34 2.59 2.4 5.04 2.77 2.3.34 4.74-.63 5.98-1.74 1.44-1.29 2.31-2.5 2.77-5.06z"/></g><path fill="none" d="M0 0h57.24v44.79H0z"/></g></svg>