<svg xmlns="http://www.w3.org/2000/svg" width="159.021" height="115.651" viewBox="0 0 28.17 20.49" shape-rendering="geometricPrecision" text-rendering="geometricPrecision" image-rendering="optimizeQuality" fill-rule="evenodd" clip-rule="evenodd"><defs><style>.fil1{fill:#59656c}.fil2{fill:#fff;fill-rule:nonzero}</style></defs><g id="Слой_x0020_1"><g id="_1280500048"><path d="M20 20.01h2.36v-2.36c0-.13.11-.24.24-.24s.24.11.24.24v2.7c0 .01 0 .01-.01.02v.02c0 .01-.01.01-.01.02-.04.06-.1.1-.17.11h-2.63c-.13 0-.24-.11-.24-.24s.11-.24.24-.24zM20 .47h2.36v2.36c0 .13.11.24.24.24s.24-.11.24-.24V.13c0-.01 0-.01-.01-.02V.09c0-.01-.01-.01-.01-.02-.04-.06-.1-.1-.17-.11h-2.63c-.13 0-.24.11-.24.24s.11.24.24.24zM8.17 20.01H5.81v-2.36c0-.13-.11-.24-.24-.24s-.24.11-.24.24v2.7c0 .01 0 .01.01.02v.02c0 .01.01.01.01.02.04.06.1.1.17.11h2.63c.13 0 .24-.11.24-.24s-.11-.24-.24-.24zm0-19.54H5.81v2.36c0 .13-.11.24-.24.24s-.24-.11-.24-.24V.13c0-.01 0-.01.01-.02V.09c0-.01.01-.01.01-.02.04-.06.1-.1.17-.11h2.63c.13 0 .24.11.24.24s-.11.24-.24.24z" fill="#55adad"/><path class="fil1" d="M1.73 10.24c.12-.23.37-.5.53-.69C3.41 8.13 5.2 6.56 6.72 5.62c4.79-3 9.95-3 14.75 0 1.1.69 3.05 2.27 3.91 3.3.23.27.93 1.05 1.07 1.32-.12.23-.37.5-.53.69-1.15 1.42-2.94 2.99-4.46 3.93-4.79 3-9.95 3-14.75 0-1.46-.92-3.37-2.56-4.48-3.96-.16-.21-.39-.42-.51-.67zm-1.38.18c.09.69 1.26 1.85 1.74 2.4.2.23.44.47.67.68 6.42 6.08 14.34 6.81 21.39 1.12 1.33-1.08 1.73-1.57 2.76-2.74.34-.38 1.01-1.05.92-1.81-.1-.76-1.77-2.48-2.41-3.09C19 .9 11.08.17 4.03 5.86c-.53.42-1 .84-1.45 1.3-.24.24-.45.49-.69.71-.24.23-.41.49-.63.73-.34.38-1.02 1.06-.92 1.82z"/><path class="fil2" d="M1.43 10.09c.1-.21.28-.41.43-.59l.13-.16c.58-.72 1.31-1.46 2.09-2.15.81-.71 1.66-1.36 2.45-1.85 2.45-1.53 5-2.3 7.55-2.3s5.1.77 7.55 2.3c.6.37 1.43 1 2.21 1.66.7.59 1.36 1.21 1.78 1.71.04.05.13.15.22.26.31.36.76.87.89 1.13l.07.15-.07.15c-.1.21-.28.41-.43.59l-.13.16c-.58.72-1.31 1.46-2.09 2.15-.81.71-1.66 1.36-2.45 1.85-2.45 1.53-5 2.3-7.55 2.3s-5.1-.77-7.55-2.3c-.77-.48-1.66-1.16-2.49-1.89-.79-.7-1.53-1.45-2.07-2.14-.05-.07-.1-.12-.15-.18-.14-.16-.29-.33-.39-.54l-.07-.15.07-.15zm.94-.16c-.09.1-.18.21-.25.31.06.09.14.17.21.26l.17.2c.52.67 1.23 1.39 1.99 2.06.8.71 1.66 1.36 2.4 1.83 2.34 1.47 4.77 2.2 7.2 2.2 2.43 0 4.85-.73 7.2-2.2.76-.47 1.58-1.1 2.36-1.78.75-.67 1.46-1.39 2.02-2.07.04-.05.09-.11.15-.17.08-.1.18-.21.25-.31-.16-.22-.47-.58-.7-.84-.09-.1-.16-.19-.23-.27-.39-.47-1.03-1.06-1.7-1.63-.76-.64-1.56-1.24-2.14-1.6-2.34-1.47-4.77-2.2-7.2-2.2-2.43 0-4.86.73-7.2 2.2-.76.47-1.58 1.1-2.36 1.78-.75.67-1.46 1.39-2.02 2.07-.04.05-.09.11-.15.17zm-1.69.45c.06.47.85 1.33 1.37 1.9.12.13.22.24.29.32a9.376 9.376 0 00.65.66c3.19 3.03 6.76 4.7 10.39 4.89 3.54.18 7.15-1.04 10.56-3.79 1.17-.94 1.6-1.43 2.41-2.34l.31-.35c.07-.08.01-.01.09-.1.31-.35.82-.9.75-1.45-.03-.23-.28-.62-.62-1.05-.55-.71-1.31-1.47-1.69-1.84C22 4.2 18.43 2.53 14.8 2.34c-3.54-.18-7.15 1.04-10.56 3.79-.25.21-.5.41-.74.63-.24.21-.47.43-.69.65-.1.1-.2.21-.3.31-.13.14-.25.27-.39.4s-.25.27-.37.42c-.08.1-.16.2-.24.29l-.09.1c-.31.35-.82.91-.75 1.46zm.87 2.35C.97 12.1.1 11.15.01 10.47c-.11-.86.52-1.56.92-1.99l.08-.09c.08-.09.15-.18.22-.26.13-.16.26-.32.42-.48.12-.12.24-.25.36-.38.1-.11.2-.22.32-.33.24-.24.47-.46.71-.67.24-.21.5-.43.77-.65 3.55-2.86 7.31-4.13 11.01-3.94 3.79.2 7.5 1.94 10.82 5.07.4.38 1.18 1.17 1.76 1.91.4.51.71 1.01.75 1.38.11.85-.52 1.55-.92 1.98-.02.02.04-.05-.08.09l-.31.35c-.83.94-1.28 1.45-2.49 2.42-3.55 2.86-7.31 4.13-11.01 3.94-3.79-.2-7.5-1.94-10.82-5.07-.11-.11-.23-.22-.35-.34-.12-.12-.23-.24-.34-.36l-.28-.31z"/><path class="fil1" d="M13.61 6.15c2.4-.31 4.32 1.51 4.57 3.62.28 2.41-1.54 4.33-3.6 4.56-2.43.27-4.34-1.49-4.59-3.62-.14-1.25.33-2.44.94-3.13.62-.7 1.41-1.27 2.68-1.43zm5.93 4.77c.29-1.61-.48-3.29-1.22-4.19-.22-.27-.45-.47-.7-.7-.22-.21-.5-.38-.8-.56-1.96-1.19-4.72-.84-6.25.54-.96.86-1.67 1.8-1.95 3.55-.25 1.59.45 3.33 1.22 4.19.84.94 1.82 1.69 3.54 1.94 1.62.24 3.33-.44 4.2-1.22 1.01-.91 1.62-1.75 1.94-3.56z"/><path class="fil2" d="M13.57 5.82l.06-.01c1.27-.15 2.42.26 3.28.98a4.58 4.58 0 011.59 2.88c0 .02.01.06.01.08.14 1.29-.27 2.46-1 3.33-.73.87-1.77 1.45-2.88 1.58h-.02c-1.27.14-2.41-.23-3.28-.92a4.523 4.523 0 01-1.68-3c-.07-.63 0-1.25.17-1.81.19-.63.5-1.18.86-1.58.33-.37.71-.71 1.18-.98s1.03-.47 1.71-.56zm.14.66l-.06.01c-.59.08-1.06.25-1.46.47-.4.23-.72.52-1.01.85-.29.33-.55.79-.72 1.33-.14.47-.21 1-.14 1.54a3.82 3.82 0 001.43 2.55c.74.58 1.71.9 2.8.78h.02c.94-.11 1.82-.6 2.44-1.34.62-.74.97-1.73.85-2.83l-.01-.07c-.12-.95-.62-1.83-1.35-2.45-.73-.61-1.7-.96-2.77-.83zm5.5 4.38c.12-.66.04-1.34-.14-1.97-.23-.79-.62-1.48-1.01-1.95-.17-.2-.34-.36-.53-.54l-.14-.13c-.1-.09-.21-.18-.33-.26-.11-.08-.26-.17-.41-.26-.9-.54-1.98-.74-3.01-.65-1.08.09-2.11.5-2.84 1.15-.45.41-.85.83-1.16 1.36-.31.53-.55 1.16-.67 1.99-.11.68-.02 1.4.17 2.05.22.76.59 1.44.98 1.87.4.45.83.85 1.36 1.16.53.32 1.16.55 1.98.67.7.1 1.42.02 2.08-.17.76-.22 1.42-.58 1.85-.97.48-.43.87-.85 1.16-1.36.3-.52.52-1.15.67-2zm.5-2.15c.21.72.3 1.5.16 2.27-.17.94-.41 1.64-.75 2.22-.34.58-.77 1.05-1.3 1.52-.5.45-1.26.87-2.11 1.12-.74.22-1.56.31-2.36.19-.91-.13-1.62-.4-2.22-.76-.6-.36-1.08-.8-1.52-1.29-.45-.5-.87-1.26-1.12-2.13-.22-.74-.31-1.56-.19-2.34.14-.92.41-1.63.76-2.23.35-.59.79-1.07 1.29-1.52.84-.75 2.01-1.22 3.23-1.32 1.17-.1 2.39.13 3.41.75.14.09.28.17.44.28.15.1.29.21.41.32l.14.13c.2.19.4.37.59.6.43.53.88 1.31 1.13 2.19z"/></g></g></svg>