<svg xmlns="http://www.w3.org/2000/svg" width="227.011" height="47mm" viewBox="0 0 59.88 46.86" shape-rendering="geometricPrecision" text-rendering="geometricPrecision" image-rendering="optimizeQuality" fill-rule="evenodd" clip-rule="evenodd"><defs><style>.str0{stroke:#59656c;stroke-width:1;stroke-miterlimit:22.9256}.fil0{fill:none}.fil1{fill:#55adad}</style></defs><g id="Слой_x0020_1"><g id="_1629898736"><path class="fil0 str0" d="M28.2 42.18c.35 1.16 1.65 1.23 2.11.31.63-3.22.59-7.6-.39-9.5-.56-1.12-2.88-4.76-2.95-5.58-.09-1.01.49-7.14.77-7.72 1.37.85 2.41 2.41 3.74 3.13.5.27 6.64 1.5 6.46-.42-.11-1.26-3.54-1.13-6.14-2.47-1.57-2.21-2.8-3.71-3.45-4.17-1-.71-5.72-1.5-7.1-1.05-2.57.84-4.87.72-6.18 2.49-.63.84-1.22 1.6-1.85 2.49-.74 1.04-1.51 2.22-.77 2.94 1.29 1.24 3.65-3.65 4.91-4.16.27-.11 4.07-.87 4.79-.55.29 1.09-.33 4.23-.44 5.63-.18 2.22-.58 3.47.67 5.21.81 1.13 1.97 2.32 2.86 3.32 3.71 4.19 1.64 5.68 2.96 10.08z"/><path class="fil0 str0" d="M24.74 34.67c-.35-.68-1.69-2.51-2.34-2.96-.83.77-1.48 2.05-2.12 3.06-1.13 1.79-1.92 2.47-3.73 4.07-.71.63-2.62 1.57-1.93 3 .97 2.01 2.97-.33 5.4-1.98 2.48-1.68 3.07-2.18 4.47-4.7.18-.33.06-.09.25-.5zM23.45 9.76c0 1.01.41 1.85.91 2.4 1.71 1.9 5.7 1.1 5.7-2.4 0-2.21-2.41-3.96-4.74-2.87-.22.1-.73.46-.91.64-.43.43-.96 1.41-.96 2.23z"/><path class="fil1" d="M34.27 11.41l-.89-.82c-.55-.54-1.11.07-.59.59l1.59 1.57c.25.25.41.16.64-.07l1.57-1.57c.41-.41-.08-1.06-.61-.56l-.9.86c.27-3.83 3.15-6.83 7.02-6.83 2.82 0 5.18 1.54 6.41 4.05.09.18.28.68.38.76.31.25.69-.02.69-.29 0-.27-.33-.92-.44-1.14-1.26-2.55-4.01-4.16-6.81-4.25h-.56c-4.28.14-7.22 3.58-7.52 7.68zm15.77.45l.89.82c.55.54 1.11-.07.59-.59l-1.59-1.57c-.25-.25-.41-.16-.64.07l-1.57 1.57c-.41.41.08 1.06.61.56l.9-.86c-.27 3.83-3.15 6.83-7.02 6.83-2.82 0-5.18-1.54-6.41-4.05-.09-.18-.28-.68-.38-.76-.31-.25-.69.02-.69.29 0 .27.33.92.44 1.14 1.26 2.55 4.01 4.16 6.81 4.25h.56c4.28-.14 7.22-3.58 7.52-7.68z"/><path class="fil1" d="M41.73 6.32v4.92c0 .14.02.23.02.35.01.35.17.35.37.6.15.19 1.51 1.52 1.83 1.84l.1.1c.22.2.41.42.61.42.23 0 .43-.2.43-.47 0-.13-.37-.5-.47-.6-.03-.03-.06-.05-.09-.09-.5-.54-1.02-1.04-1.54-1.56-.1-.1-.28-.25-.36-.36-.06-.07-.03-.18-.03-.34 0-.64.03-5-.04-5.41-.02-.13-.03-.19-.12-.25-.3-.21-.61-.04-.67.19-.02.08-.03.53-.03.65z"/></g><path class="fil0" d="M0 0h59.88v46.86H0z"/></g></svg>