<svg xmlns="http://www.w3.org/2000/svg" width="227.011" height="47mm" viewBox="0 0 62.82 49.15" shape-rendering="geometricPrecision" text-rendering="geometricPrecision" image-rendering="optimizeQuality" fill-rule="evenodd" clip-rule="evenodd"><defs><style>.str0{stroke:#59656c;stroke-width:1.05;stroke-miterlimit:22.9256}.fil0{fill:none}</style></defs><g id="Слой_x0020_1"><g id="_1633526320"><path class="fil0 str0" d="M43 41.27c0-7.98.8-7.38-7.18-10.7-.85-.35-2.77-1.56-3.56-1-1.68 1.17-3.01 2.15-5.74.59-1.54-.88-.43-1.48-5.2.75-6.24 2.91-6.37 1.72-6.38 8.94 0 .41-.03.9-.01 1.3.04 1.15.29.88 3.06.88h23.1c.87.01 1.9.27 1.9-.75z"/><ellipse class="fil0 str0" cx="28.98" cy="19.44" rx="6.88" ry="7.97"/><circle class="fil0" transform="rotate(-9.574 135.712 -163.073) scale(.80557)" r="16.38" stroke="#55adad" stroke-width="1.05" stroke-miterlimit="22.926"/><path d="M51.95 35.7l-11.78-8.38c-.26.38-.53.76-.8 1.12l11.79 8.38c.19.13.52-.01.74-.32.22-.31.25-.67.06-.81z" fill="#55adad"/></g><path class="fil0" d="M0 0h62.82v49.15H0z"/></g></svg>