<svg xmlns="http://www.w3.org/2000/svg" width="136.117" height="130.086" viewBox="0 0 22.69 21.69" shape-rendering="geometricPrecision" text-rendering="geometricPrecision" image-rendering="optimizeQuality" fill-rule="evenodd" clip-rule="evenodd"><path d="M16.91 20.9c0-.32 0-.78.01-1.2.02-1.57.02-2.4-.34-2.94-.41-.61-1.36-1-3.35-1.83l-.44-.18c-.12-.05-.26-.12-.42-.2-.5-.25-1.2-.6-1.43-.44l-.04.03c-1.08.75-1.96 1.36-3.75.34-.21-.12-.34-.22-.44-.31-.26-.21-.27-.22-2.4.77-.56.26-1.03.47-1.44.64-2.16.93-2.21.95-2.22 4.46 0 .11 0 .21-.01.32 0 .16-.01.32 0 .46.01.25.08.25.73.23.24-.01.54-.01.8-.01h13.92c.1 0 .19.01.28.01.08 0 .16.01.26.01.16 0 .29-.02.29-.16zm.64-1.19c0 .3-.01.63-.01 1.19 0 .67-.41.79-.92.79-.08 0-.19-.01-.29-.01-.09 0-.18-.01-.25-.01H2.16c-.37 0-.6.01-.79.01-1.2.03-1.34.03-1.37-.84-.01-.15 0-.32 0-.49 0-.11.01-.21.01-.3 0-3.92.06-3.94 2.59-5.04.4-.17.87-.38 1.43-.64 2.48-1.16 2.52-1.13 3.06-.69.09.07.2.16.36.25 1.45.83 2.18.32 3.08-.31l.04-.03c.53-.37 1.42.08 2.07.39.15.07.28.14.38.18l.44.18c2.11.88 3.12 1.3 3.64 2.06.47.71.46 1.6.45 3.3zM8.78 2.63c1.24 0 2.36.58 3.17 1.52.8.92 1.29 2.2 1.29 3.6s-.49 2.68-1.29 3.6c-.81.94-1.93 1.52-3.17 1.52s-2.36-.58-3.17-1.52c-.8-.92-1.29-2.2-1.29-3.6s.49-2.68 1.29-3.6c.81-.94 1.93-1.52 3.17-1.52zm2.69 1.93c-.69-.8-1.64-1.3-2.69-1.3s-2 .5-2.69 1.3c-.7.81-1.14 1.94-1.14 3.19s.43 2.37 1.14 3.19c.69.8 1.64 1.3 2.69 1.3s2-.5 2.69-1.3c.7-.81 1.14-1.94 1.14-3.19s-.43-2.37-1.14-3.19z" fill="#59656c" fill-rule="nonzero"/><path d="M7.43.12c2.25-.38 4.44.19 6.16 1.42a8.266 8.266 0 013.36 5.36c.38 2.25-.19 4.44-1.42 6.16a8.266 8.266 0 01-5.36 3.36c-2.25.38-4.44-.19-6.16-1.42A8.266 8.266 0 01.65 9.64C.27 7.39.84 5.2 2.07 3.48A8.266 8.266 0 017.43.12zm5.8 1.93A7.635 7.635 0 007.53.74a7.6 7.6 0 00-4.95 3.1 7.635 7.635 0 00-1.31 5.7 7.6 7.6 0 003.1 4.95 7.635 7.635 0 005.7 1.31 7.6 7.6 0 004.95-3.1A7.635 7.635 0 0016.33 7a7.6 7.6 0 00-3.1-4.95z" fill="#55adad" fill-rule="nonzero"/><path d="M22.62 17.55l-7.1-5.05c-.16.23-.32.45-.48.68l7.1 5.05c.11.08.32-.01.45-.19.13-.19.15-.41.03-.49z" fill="#55adad"/></svg>