<svg xmlns="http://www.w3.org/2000/svg" width="227.011" height="47mm" viewBox="0 0 57.24 44.79" shape-rendering="geometricPrecision" text-rendering="geometricPrecision" image-rendering="optimizeQuality" fill-rule="evenodd" clip-rule="evenodd"><defs><style>.str0{stroke:#59656c;stroke-width:.95;stroke-miterlimit:22.9256}.fil1{fill:none}</style></defs><g id="Слой_x0020_1"><g id="_1637059456"><path d="M35.43 27.11h3.36v-3.36c0-.19.15-.34.34-.34.19 0 .34.15.34.34v3.81c0 .01-.01.02-.01.02v.01c0 .01 0 .01-.01.01 0 .01-.01.02-.02.03-.05.09-.14.15-.25.16h-3.74c-.18 0-.34-.15-.34-.34 0-.19.15-.34.34-.34zm0-16.53h3.36v3.36c0 .19.15.34.34.34.19 0 .34-.15.34-.34v-3.81c0-.01-.01-.02-.01-.02v-.01c0-.01 0-.01-.01-.01 0-.01-.01-.02-.02-.03a.313.313 0 00-.25-.16h-3.74c-.18 0-.34.15-.34.34 0 .19.15.34.34.34zm-7.89 16.53h-3.36v-3.36c0-.19-.15-.34-.34-.34-.19 0-.34.15-.34.34v3.81c0 .01.01.02.01.02v.01c0 .01 0 .01.01.01 0 .01.01.02.02.03.05.09.14.15.25.16h3.74c.18 0 .34-.15.34-.34 0-.19-.15-.34-.34-.34zm0-16.53h-3.36v3.36c0 .19-.15.34-.34.34-.19 0-.34-.15-.34-.34v-3.81c0-.01.01-.02.01-.02v-.01c0-.01 0-.01.01-.01 0-.01.01-.02.02-.03.05-.09.14-.15.25-.16h3.74c.18 0 .34.15.34.34 0 .19-.15.34-.34.34z" fill="#55adad"/><rect class="fil1 str0" x="3.66" y="30.1" width="49.93" height="4.79" rx="1.58" ry=".79"/><rect class="fil1 str0" x="6.58" y="10.1" width="2.66" height="17.86" rx=".67" ry=".67"/><rect class="fil1 str0" x="12.23" y="10.1" width="2.66" height="17.86" rx=".67" ry=".67"/><rect class="fil1 str0" x="42.35" y="10.1" width="2.66" height="17.86" rx=".67" ry=".67"/><rect class="fil1 str0" x="17.89" y="10.1" width="2.66" height="17.86" rx=".67" ry=".67"/><rect class="fil1 str0" x="48" y="10.1" width="2.66" height="17.86" rx=".67" ry=".67"/></g><path class="fil1" d="M0 0h57.24v44.79H0z"/></g></svg>