<svg xmlns="http://www.w3.org/2000/svg" width="227.011" height="47mm" viewBox="0 0 59.92 46.89" shape-rendering="geometricPrecision" text-rendering="geometricPrecision" image-rendering="optimizeQuality" fill-rule="evenodd" clip-rule="evenodd"><defs><style>.fil0{fill:none}</style></defs><g id="Слой_x0020_1"><g id="_1632612736"><path class="fil0" d="M41.01 35.05c-2.78 0-4.11-.08-6.46-1.06-1.24-.52-3.04-1.69-3.99-2.61-.08-.08-.09-.08-.17-.14l-.74-.76 3.33-4.16c.51.52 1.18 1.14 1.49 1.39 1.17.92 2.03 1.44 3.51 1.81.9.23 2.01.22 3.02.22v-2.07c0-1.64-.08-1.84 1.49-.5l2.22 1.91c.1.1.15.12.25.21l2.47 2.12 1.05.91c.42.36.44.46.02.84L47 34.44c-.1.1-.15.12-.25.21-1.58 1.35-3.16 2.71-4.73 4.06-1.06.82-1.03.69-1.03-.79v-2.86zM21.33 20.56c-.08-.08-.15-.14-.21-.19l-.69-.62c-.14-.11-.24-.19-.36-.29-1.23-.98-3.05-1.77-4.87-1.77h-2.98c-1.34 0-1.12.21-1.07-1.14V13.5c0-1.21-.27-1.17.83-1.17h3.53c1.61 0 3.22.43 4.39.9 1.53.61 2.5 1.3 3.72 2.23l1.03.9-3.27 4.16-.04.04z" stroke="#55adad" stroke-miterlimit="22.926"/><path class="fil0" d="M41.01 11.84c-2.78 0-4.11.08-6.46 1.06-1.24.52-3.04 1.69-3.99 2.61-.08.08-.09.08-.17.14L28.11 18c-.07.08-.08.11-.15.19-1.11 1.25-2.16 2.76-3.2 4.06-.59.74-1.41 1.86-2.03 2.56-.38.43-1.26 1.44-1.61 1.7l-.69.62c-.14.11-.24.19-.36.29-1.23.98-3.05 1.77-4.87 1.77h-2.98c-1.34 0-1.12-.21-1.07 1.14v3.05c0 1.21-.27 1.17.83 1.17h3.53c1.61 0 3.22-.43 4.39-.9 1.53-.61 2.5-1.3 3.72-2.23l1.05-.92c.47-.48 1.56-1.54 1.94-2.03l.3-.36c.61-.72 1.21-1.45 1.77-2.2l3.78-4.78c.42-.51 1.58-1.61 2.02-1.96 1.17-.92 2.03-1.44 3.51-1.81.9-.23 2.01-.22 3.02-.22v2.07c0 1.64-.08 1.84 1.49.5l2.22-1.91c.1-.1.15-.12.25-.21l2.47-2.12 1.05-.91c.42-.36.44-.46.02-.84l-1.5-1.28c-.1-.1-.15-.12-.25-.21-1.58-1.35-3.16-2.71-4.73-4.06-1.06-.82-1.03-.69-1.03.79v2.86z" stroke="#59656c" stroke-miterlimit="22.926"/></g><path class="fil0" d="M0 0h59.92v46.89H0z"/></g></svg>