<svg xmlns="http://www.w3.org/2000/svg" width="146.65" height="123.396" viewBox="0 0 25.09 21.12" shape-rendering="geometricPrecision" text-rendering="geometricPrecision" image-rendering="optimizeQuality" fill-rule="evenodd" clip-rule="evenodd"><g fill-rule="nonzero"><path d="M19.39 18.4c-.76 0-1.35-.03-1.92-.11-.66-.1-1.28-.28-2.07-.6-.42-.18-.94-.46-1.42-.78s-.94-.67-1.26-.98c-.02-.01-.02-.02-.03-.03a.423.423 0 00-.07-.05l-.69-.71 2.56-3.2.25.26c.16.17.35.35.53.51.17.16.32.29.4.36.37.29.68.51 1.02.69.33.18.69.31 1.14.43.46.12 1.02.13 1.56.13v-1.17c0-.46 0-.74.15-.92.28-.33.61-.13 1.35.5.37.39 1.02.86 1.45 1.25.03.02.04.04.06.05.03.02.05.04.09.08.76.65 1.52 1.31 2.28 1.96.2.18.31.3.32.5.01.2-.09.33-.3.53l-.01.01-.96.82c-.05.04-.07.06-.1.09-.02.01-.03.02-.06.05-1.02.89-2.08 1.75-3.09 2.65-.54.42-.8.56-1.05.23-.13-.17-.13-.44-.13-.92v-1.61zm-1.83-.75c.61.09 1.26.1 2.15.1h.32v2.78c.1.13-.03-.21.15-.35l3.05-2.62c.03-.03.06-.06.09-.08.02-.02.04-.03.06-.05l.98-.84c.05-.04.08.02.08-.02s-.03.02-.1-.04l-.68-.59-1.61-1.38c-.02-.02-.04-.03-.06-.05-.03-.02-.06-.05-.1-.09l-1.43-1.23c-.39-.33-.36-.67-.44-.57 0 .01 0 .19.01.5v1.81h-.42c-.65 0-1.35 0-1.94-.15-.5-.13-.91-.28-1.28-.48-.37-.2-.72-.44-1.11-.75a16.5 16.5 0 01-.45-.39c-.09-.09-.19-.18-.29-.28l-1.76 2.2.26.27.02.01c.03.02.05.04.11.09.29.28.71.61 1.17.9.46.3.93.56 1.32.72.74.31 1.31.47 1.91.56zM6.73 8.92l-.06-.06c-.17-.14-.33-.3-.49-.44l-.24-.19c-.39-.31-.88-.59-1.43-.79-.48-.18-1.01-.28-1.53-.28H.76c-.32.01-.48.01-.62-.15C-.01 6.85 0 6.7.02 6.4c.01-.09.01-.2.02-.31V4.11c0-.16-.01-.27-.01-.36-.01-.23-.02-.37.08-.51.15-.21.32-.21.74-.21h2.34c.49 0 .99.06 1.46.16.56.11 1.07.28 1.5.45.52.21.94.43 1.33.67.39.24.75.51 1.15.82.31.26.61.53.92.8L7.24 8.87c-.09.1-.18.19-.27.29l-.24-.23zm-.14-1l.33.3L8.66 6l-.43-.37c-.38-.29-.73-.55-1.1-.78-.37-.23-.75-.43-1.23-.62-.4-.16-.87-.31-1.39-.42-.43-.09-.88-.14-1.33-.14H.84c-.18 0-.16-.13-.21-.07-.03.04.03.01.04.11.01.11.01.25.01.4V6.1c-.01.15-.01.25-.02.33-.01.12-.11.08-.06.13s.01-.05.14-.06c.11 0 .23-.01.31-.01h1.93c.6 0 1.19.12 1.75.32.61.22 1.16.54 1.61.89l.23.19.02.02z" fill="#55adad"/><path d="M19.71 3.36c-.89 0-1.54.01-2.15.1-.6.09-1.18.26-1.91.56-.38.16-.86.43-1.32.72-.45.3-.88.62-1.17.9-.05.05-.07.07-.1.09l-.02.01-1.45 1.5c-.01.01-.02.03-.03.04-.02.02-.04.05-.07.08-.45.51-.89 1.08-1.32 1.65-.24.31-.47.63-.75.97-.1.13-.26.34-.43.55-.3.39-.63.82-.9 1.12l-.08.09c-.28.31-.77.87-1 1.05l-.45.41-.23.19c-.45.36-1 .67-1.61.89-.55.2-1.15.32-1.75.32H1.04c-.08 0-.2 0-.31-.01-.12 0-.09-.11-.14-.06-.05.05.05.01.06.13.01.08.01.19.02.33v1.99c0 .15-.01.29-.01.4-.01.09-.06.07-.04.11.05.07.03-.07.21-.07h2.34c.46 0 .91-.06 1.33-.14.51-.11.99-.26 1.39-.42.48-.19.87-.39 1.23-.62.37-.23.71-.48 1.1-.78l.66-.57.2-.2c.34-.34.85-.85 1.03-1.08l.2-.24c.2-.24.4-.47.58-.7.18-.23.37-.46.56-.71l.01-.01 2.45-3.1.01-.01c.14-.17.39-.42.65-.67.27-.26.55-.52.71-.64.39-.31.74-.55 1.11-.75.38-.2.78-.36 1.28-.48.59-.15 1.29-.15 1.94-.15h.42v1.81c0 .31-.01.5-.01.5.09.1.06-.24.44-.57l1.43-1.23c.04-.04.07-.06.1-.09.02-.02.04-.03.06-.05l1.61-1.38.68-.59c.07-.06.1.01.1-.04 0-.04-.03.02-.08-.02l-.98-.84c-.02-.02-.04-.04-.06-.05-.03-.02-.06-.05-.09-.08L20.18.9c-.18-.14-.05-.48-.15-.35v2.78h-.32zm-2.25-.54c.57-.08 1.17-.11 1.92-.11V1.1c0-.48 0-.75.13-.92.25-.32.52-.18 1.05.23 1.01.9 2.07 1.76 3.09 2.65.02.02.04.03.06.05.03.02.06.05.1.09l.96.82.01.01c.21.19.31.33.3.53-.01.19-.12.32-.32.5-.76.66-1.52 1.31-2.28 1.96-.04.04-.07.06-.09.08-.02.01-.04.03-.06.05-.43.39-1.08.86-1.45 1.25-.74.63-1.07.83-1.35.5-.15-.17-.15-.46-.15-.92V6.81c-.54 0-1.1.02-1.56.13-.45.12-.81.25-1.14.43-.34.18-.65.4-1.02.69-.14.11-.4.35-.66.6-.24.23-.47.47-.6.62l-2.44 3.09c-.18.24-.37.48-.57.73-.2.25-.4.48-.59.71l-.18.22c-.22.28-.73.8-1.08 1.15l-.2.2-.02.02-.7.61c-.4.31-.76.57-1.15.82-.39.25-.82.46-1.33.67-.43.17-.94.33-1.5.45-.47.1-.97.16-1.46.16H.84c-.41 0-.59 0-.74-.21-.1-.15-.09-.28-.08-.51.01-.09.01-.2.01-.36v-1.98c0-.11-.01-.22-.02-.31-.02-.3-.03-.46.12-.61.15-.16.31-.15.62-.15h2.22c.52 0 1.04-.11 1.53-.28.54-.2 1.04-.48 1.43-.79l.24-.19.45-.41c.18-.14.65-.67.92-.97l.08-.09c.26-.29.58-.7.87-1.08.14-.19.28-.36.44-.56.22-.27.47-.61.74-.96.44-.58.88-1.17 1.35-1.69.02-.02.03-.03.03-.04.02-.02.03-.04.07-.08.51-.51 1-1.03 1.5-1.55.02-.01.05-.04.07-.05.01-.01.02-.01.03-.03.32-.31.78-.67 1.26-.98.48-.32 1-.6 1.42-.78.79-.33 1.41-.51 2.07-.6z" fill="#59656c"/></g></svg>