<svg xmlns="http://www.w3.org/2000/svg" width="227.011" height="47mm" viewBox="0 0 62.77 49.12" shape-rendering="geometricPrecision" text-rendering="geometricPrecision" image-rendering="optimizeQuality" fill-rule="evenodd" clip-rule="evenodd"><path d="M50.29 12.72V9.04h-3.68c-.2 0-.37-.17-.37-.37 0-.2.17-.37.37-.37h4.17c.01 0 .02.01.03.01h.01c.01 0 .01 0 .02.01s.02.01.03.02c.09.06.16.16.18.27v4.1c0 .2-.17.37-.37.37-.2 0-.37-.17-.37-.37zm-37.81 0V9.04h3.68c.2 0 .37-.17.37-.37 0-.2-.17-.37-.37-.37h-4.17c-.01 0-.02.01-.03.01h-.01c-.01 0-.01 0-.02.01s-.02.01-.03.02c-.09.06-.16.16-.18.27v4.1c0 .2.17.37.37.37.2 0 .37-.17.37-.37zM50.29 36.4v3.68h-3.68c-.2 0-.37.17-.37.37 0 .2.17.37.37.37h4.17c.01 0 .02-.01.03-.01h.01c.01 0 .01 0 .02-.01s.02-.01.03-.02c.09-.06.16-.16.18-.27v-4.1c0-.2-.17-.37-.37-.37-.2 0-.37.17-.37.37zm-37.81 0v3.68h3.68c.2 0 .37.17.37.37 0 .2-.17.37-.37.37h-4.17c-.01 0-.02-.01-.03-.01h-.01c-.01 0-.01 0-.02-.01s-.02-.01-.03-.02a.424.424 0 01-.18-.27v-4.1c0-.2.17-.37.37-.37.2 0 .37.17.37.37z" fill="#55adad"/><path d="M31.03 41.81c1.42 0 2.37-.07 3.7-.5l.52-.17c.17-.06.34-.13.5-.2.97-.38 1.8-.92 2.63-1.54.14-.11.25-.2.38-.31.09-.07.1-.08.18-.16.24-.25.55-.46.87-.86.06-.07.1-.1.16-.17.07-.07.09-.12.17-.2.62-.7.94-1.35 1.39-2.1.36-.59.76-1.83.93-2.53.37-1.48.43-3.44.09-4.96-.22-.98-.34-1.34-.7-2.23-.33-.81-.99-1.9-1.55-2.58l-.54-.63c-.15-.19-.4-.41-.58-.59-.37-.38-.5-.37-.89-.87A7.559 7.559 0 0136.81 18c-.03-.15-.08-.34-.1-.5H25.99c0 .44-.4 1.63-.56 2.01-.27.63-.56 1.14-.96 1.64-.4.51-.87.84-1.31 1.29-.07.07-.08.09-.14.16l-.75.88-.28.39c-.18.25-.33.5-.49.77-.26.43-.46.82-.65 1.28-.51 1.24-.78 2.3-.89 3.67-.16 1.93.29 4.15 1.15 5.87.08.17.15.27.23.43.41.8 1.29 1.95 1.93 2.6l1.05.91c.79.59 1.47 1.05 2.44 1.46 1.34.56 2.72.95 4.24.95zM18.81 30.82c0-1.3 0-1.78.27-3.09.4-1.91 1.3-3.7 2.46-5.17.09-.11.19-.24.29-.35l.93-.97c.22-.22.43-.39.65-.62.1-.1.2-.24.28-.35.51-.69.77-1.36 1.01-2.18.09-.32.16-.67.21-1.06.04-.3.12-.71.59-.71h11.72c.7 0 .56.9.81 1.79.24.86.71 1.94 1.33 2.56l.68.62.32.32c.67.67 1.55 1.82 1.96 2.61.07.14.14.25.22.41 1.73 3.47 1.92 7.31.31 10.88-.09.19-.15.33-.24.52-.54 1.09-1.42 2.33-2.29 3.2l-.18.18c-.32.32-1.16 1.01-1.51 1.25l-.95.61c-.33.2-.67.37-1.03.54l-1.11.45c-3.66 1.22-7.6.86-10.83-1.22-1.26-.81-1.53-1.1-2.52-2.08-.32-.32-.78-.92-1.04-1.26l-1.14-1.93c-.31-.62-.64-1.55-.81-2.25-.2-.79-.39-1.75-.39-2.71zm6.13-17.28c0-.32.24-.6.57-.6h11.72c.71 0 .84 1.17-.13 1.17H25.64c-.21 0-.36-.05-.48-.15a.563.563 0 01-.22-.42zm0-3.4c0-.33.24-.6.57-.6H37.3c.41 0 .69.62.34.97a.5.5 0 01-.38.16H25.44c-.24 0-.5-.29-.5-.53zm3.4-3.43c0-.26.25-.57.5-.57h5.03c.73 0 .64 1.13.03 1.13h-5c-.3 0-.57-.28-.57-.57z" fill="#59656c"/><path fill="none" d="M0 0h62.77v49.12H0z"/></svg>