<svg xmlns="http://www.w3.org/2000/svg" width="142.108" height="133.185" viewBox="0 0 24.69 23.14" shape-rendering="geometricPrecision" text-rendering="geometricPrecision" image-rendering="optimizeQuality" fill-rule="evenodd" clip-rule="evenodd"><path d="M24.23 4.13V1.82h-2.31c-.13 0-.23-.1-.23-.23s.1-.23.23-.23h2.66c.01 0 .01 0 .02.01h.02c.01 0 .01.01.02.01.06.04.1.1.11.17v2.59c0 .13-.1.23-.23.23s-.23-.1-.23-.23zm-23.77 0V1.82h2.31c.13 0 .23-.1.23-.23s-.1-.23-.23-.23H.11c-.01 0-.01 0-.02.01H.07c-.01 0-.01.01-.02.01-.06.04-.1.1-.11.17v2.59c0 .13.1.23.23.23s.23-.1.23-.23zm23.77 14.88v2.31h-2.31c-.13 0-.23.1-.23.23s.1.23.23.23h2.66c.01 0 .01 0 .02-.01h.02c.01 0 .01-.01.02-.01.06-.04.1-.1.11-.17V19c0-.13-.1-.23-.23-.23s-.23.1-.23.23zm-23.77 0v2.31h2.31c.13 0 .23.1.23.23s-.1.23-.23.23H.11c-.01 0-.01 0-.02-.01H.07c-.01 0-.01-.01-.02-.01-.06-.04-.1-.1-.11-.17V19c0-.13.1-.23.23-.23s.23.1.23.23z" fill="#55adad"/><path d="M12.13 22.41c.89 0 1.49-.04 2.33-.31l.33-.11c.11-.04.21-.08.32-.12.61-.24 1.13-.58 1.65-.97.09-.07.15-.13.24-.2.06-.04.06-.05.11-.1.15-.16.34-.29.55-.54.04-.04.06-.07.1-.11.04-.05.06-.08.1-.13.39-.44.59-.85.88-1.32.22-.37.48-1.15.59-1.59.23-.93.27-2.16.05-3.11a6.93 6.93 0 00-.44-1.4c-.21-.51-.62-1.19-.97-1.62l-.34-.4c-.09-.12-.25-.26-.36-.37-.23-.24-.31-.23-.56-.55-.46-.58-.78-1.28-.93-2.02-.02-.09-.05-.21-.06-.32H8.98c0 .27-.25 1.03-.35 1.26-.17.4-.35.71-.6 1.03-.25.32-.54.53-.82.81-.05.05-.05.06-.09.1l-.47.55c-.07.09-.11.16-.18.24-.11.16-.21.31-.31.48-.16.27-.29.52-.41.81-.32.78-.49 1.45-.56 2.31-.1 1.21.18 2.61.72 3.69.05.11.09.17.15.27.26.5.81 1.23 1.22 1.63l.66.57c.5.37.92.66 1.53.91.84.35 1.71.6 2.67.6zM4.45 15.5c0-.81 0-1.12.17-1.94.25-1.2.81-2.32 1.55-3.25.06-.07.12-.15.18-.22l.59-.61c.14-.14.27-.24.41-.39.06-.06.12-.15.18-.22.32-.43.48-.86.64-1.37.06-.2.1-.42.13-.66.03-.19.08-.45.37-.45h7.37c.44 0 .35.56.51 1.13.15.54.45 1.22.84 1.61l.43.39.2.2c.42.42.97 1.14 1.23 1.64.05.09.09.16.14.26 1.09 2.18 1.2 4.59.2 6.84-.05.12-.09.21-.15.33-.34.68-.89 1.46-1.44 2.01-.04.04-.07.07-.11.12-.2.2-.73.64-.95.79l-.6.38c-.2.12-.42.23-.65.34l-.7.28c-2.3.77-4.78.54-6.8-.77-.79-.51-.96-.69-1.58-1.31-.2-.2-.49-.58-.65-.79l-.71-1.21c-.2-.39-.4-.98-.51-1.41-.12-.5-.24-1.1-.24-1.7zM8.3 4.65c0-.2.15-.38.36-.38h7.37c.45 0 .53.73-.08.73h-7.2c-.13 0-.22-.03-.3-.09a.339.339 0 01-.14-.26zm0-2.14c0-.21.15-.38.36-.38h7.41c.26 0 .43.39.22.61-.05.05-.13.1-.24.1H8.62c-.15 0-.31-.18-.31-.33zM10.43.36c0-.16.15-.36.31-.36h3.16c.46 0 .41.71.02.71h-3.14c-.19 0-.36-.17-.36-.36z" fill="#59656c"/></svg>