<svg xmlns="http://www.w3.org/2000/svg" width="142.108" height="137.153" viewBox="0 0 22.51 21.73" shape-rendering="geometricPrecision" text-rendering="geometricPrecision" image-rendering="optimizeQuality" fill-rule="evenodd" clip-rule="evenodd"><defs><style>.fil0{fill:#59656c;fill-rule:nonzero}</style></defs><g id="Слой_x0020_1"><g id="_1999839184"><path class="fil0" d="M6.34 4.68h9.84c.72 0 1.37.29 1.85.77.47.47.77 1.13.77 1.85v10.12a2.6 2.6 0 01-.77 1.85c-.47.47-1.13.77-1.85.77H6.34a2.6 2.6 0 01-1.85-.77c-.47-.47-.77-1.13-.77-1.85V7.3c0-.72.29-1.37.77-1.85.47-.47 1.13-.77 1.85-.77zm9.84.6H6.34c-.55 0-1.06.23-1.43.59-.37.37-.59.87-.59 1.43v10.12c0 .55.23 1.06.59 1.43.37.37.87.59 1.43.59h9.84c.55 0 1.06-.23 1.43-.59.37-.37.59-.87.59-1.43V7.3c0-.55-.23-1.06-.59-1.43-.37-.37-.87-.59-1.43-.59z"/><path class="fil0" d="M11.26 0c1.22 0 2.33.56 3.12 1.47.79.9 1.28 2.14 1.28 3.51v.3h-8.8v-.3c0-1.37.49-2.61 1.28-3.51C8.94.56 10.04 0 11.26 0zm2.67 1.87C13.24 1.09 12.3.6 11.26.6s-1.99.48-2.67 1.27c-.64.73-1.05 1.71-1.12 2.81h7.58c-.06-1.1-.48-2.08-1.12-2.81z"/><path d="M22.09 5.63V3.52h-2.11c-.12 0-.21-.1-.21-.21 0-.12.1-.21.21-.21h2.42s.01 0 .01.01h.01c.01 0 .01.01.02.01.05.03.09.09.1.15v2.36c0 .12-.1.21-.21.21-.12 0-.21-.1-.21-.21zm-21.67 0V3.52h2.11c.12 0 .21-.1.21-.21 0-.12-.1-.21-.21-.21H.11s-.01 0-.01.01H.09c-.01 0-.01.01-.02.01-.05.03-.09.09-.1.15v2.36c0 .12.1.21.21.21.12 0 .21-.1.21-.21zm21.67 13.56v2.11h-2.11c-.12 0-.21.1-.21.21 0 .12.1.21.21.21h2.42s.01 0 .01-.01h.01c.01 0 .01-.01.02-.01.05-.03.09-.09.1-.15v-2.36c0-.12-.1-.21-.21-.21-.12 0-.21.1-.21.21zm-21.67 0v2.11h2.11c.12 0 .21.1.21.21 0 .12-.1.21-.21.21H.11s-.01 0-.01-.01H.09c-.01 0-.01-.01-.02-.01a.226.226 0 01-.1-.15v-2.36c0-.12.1-.21.21-.21.12 0 .21.1.21.21z" fill="#55adad"/></g></g></svg>