<svg xmlns="http://www.w3.org/2000/svg" width="227.011" height="47mm" viewBox="0 0 57.24 44.79" shape-rendering="geometricPrecision" text-rendering="geometricPrecision" image-rendering="optimizeQuality" fill-rule="evenodd" clip-rule="evenodd"><defs><style>.str0{stroke:#59656c;stroke-width:.95;stroke-miterlimit:22.9256}.fil0{fill:none}</style></defs><g id="Слой_x0020_1"><g id="_1637061408"><rect class="fil0 str0" x="17.1" y="12.79" width="23.04" height="23.48" rx="3.69" ry="3.69"/><path class="fil0 str0" d="M28.62 5.34c3.6 0 6.53 3.33 6.53 7.45H22.1c0-4.11 2.92-7.45 6.53-7.45z"/><path d="M45.86 13.82v-3.36H42.5c-.19 0-.34-.15-.34-.34 0-.19.15-.34.34-.34h3.81c.01 0 .02.01.02.01h.01c.01 0 .01 0 .01.01.01 0 .02.01.03.02.09.05.15.14.16.25v3.74c0 .18-.15.34-.34.34-.19 0-.34-.15-.34-.34zm-34.48 0v-3.36h3.36c.19 0 .34-.15.34-.34 0-.19-.15-.34-.34-.34h-3.81c-.01 0-.02.01-.02.01h-.01c-.01 0-.01 0-.01.01-.01 0-.02.01-.03.02-.09.05-.15.14-.16.25v3.74c0 .18.15.34.34.34.19 0 .34-.15.34-.34zm34.48 21.6v3.36H42.5c-.19 0-.34.15-.34.34 0 .19.15.34.34.34h3.81c.01 0 .02-.01.02-.01h.01c.01 0 .01 0 .01-.01.01 0 .02-.01.03-.02.09-.05.15-.14.16-.25v-3.74c0-.18-.15-.34-.34-.34-.19 0-.34.15-.34.34zm-34.48 0v3.36h3.36c.19 0 .34.15.34.34 0 .19-.15.34-.34.34h-3.81c-.01 0-.02-.01-.02-.01h-.01c-.01 0-.01 0-.01-.01-.01 0-.02-.01-.03-.02a.313.313 0 01-.16-.25v-3.74c0-.18.15-.34.34-.34.19 0 .34.15.34.34z" fill="#55adad"/></g><path class="fil0" d="M0 0h57.24v44.79H0z"/></g></svg>