<svg xmlns="http://www.w3.org/2000/svg" width="213.767" height="117.611" viewBox="0 0 53.16 29.25" shape-rendering="geometricPrecision" text-rendering="geometricPrecision" image-rendering="optimizeQuality" fill-rule="evenodd" clip-rule="evenodd"><path d="M52.5 3.98V.67h-3.31c-.18 0-.33-.15-.33-.33 0-.18.15-.33.33-.33h3.76c.01 0 .02.01.02.01h.01s.01 0 .01.01c.01 0 .02.01.03.02.08.05.14.14.16.24v3.69c0 .18-.15.33-.33.33-.18 0-.33-.15-.33-.33zm-27.43 0V.67h3.31c.18 0 .33-.15.33-.33 0-.18-.15-.33-.33-.33h-3.76c-.01 0-.02.01-.02.01h-.01s-.01 0-.01.01c-.01 0-.02.01-.03.02-.08.05-.14.14-.16.24v3.69c0 .18.15.33.33.33.18 0 .33-.15.33-.33zM52.5 25.27v3.31h-3.31c-.18 0-.33.15-.33.33 0 .18.15.33.33.33h3.76c.01 0 .02-.01.02-.01h.01s.01 0 .01-.01c.01 0 .02-.01.03-.02.08-.05.14-.14.16-.24v-3.69c0-.18-.15-.33-.33-.33-.18 0-.33.15-.33.33zm-27.43 0v3.31h3.31c.18 0 .33.15.33.33 0 .18-.15.33-.33.33h-3.76c-.01 0-.02-.01-.02-.01h-.01s-.01 0-.01-.01c-.01 0-.02-.01-.03-.02a.372.372 0 01-.16-.24v-3.69c0-.18.15-.33.33-.33.18 0 .33.15.33.33z" fill="#55adad"/><path d="M11.48 23.82c-.38-1.62-.12-3.98.57-5.53.06-.13.11-.26.17-.38.06-.12.12-.25.19-.37.18-.36.65-1.09.88-1.37.07-.08.44-.56.52-.61.06.05.33.54.39.65.19.35.54 1.04.69 1.41l.15.36c.41.97.74 2.24.89 3.3.01.09.04.42.07.47-.07.02-.06.04-.12.09-.3.25-.49.38-.83.61-.92.62-2.14 1.1-3.21 1.32-.1.02-.25.06-.35.06zM9.75 4.52h.65c.4.01.79.05 1.18.1a9.946 9.946 0 013.6 1.26c.26.16.49.29.74.48.12.09.24.17.36.26l.42.34c.04.03.04.03.08.07l.08.08c.31.26.72.7.98 1l.53.69c.18.23.32.48.47.74.64 1.07 1.08 2.37 1.26 3.61.05.37.09.75.1 1.14v.66c-.01.39-.04.77-.1 1.14-.05.37-.12.68-.2 1.02-.25.99-.72 2.13-1.29 2.98-.24.35-.36.54-.64.89l-.21.25-.07.07c-.06.06-.08.1-.14.16-.07.07-.09.09-.15.16l-.78.73c-.44.34-.55.45-1.05.78l-.77.45c-.5.25-.7.36-1.25.56-.29.11-.61.2-.93.28-1.11.28-1.65.3-2.77.3-1.56 0-3.45-.56-4.8-1.37-.72-.43-1.49-1.01-2.08-1.61-.06-.06-.08-.1-.14-.17-.06-.06-.1-.1-.16-.15l-.56-.68c-.09-.13-.17-.23-.26-.36-.29-.39-.69-1.11-.9-1.56-.32-.68-.52-1.32-.7-2.08l-.14-.78c-.1-.65-.11-.84-.11-1.28v-.42c0-.4.05-.79.1-1.14.1-.71.26-1.29.49-1.95.21-.61.67-1.54 1.01-2.04l1-1.29c.26-.31.7-.72 1-.98l.17-.14c.3-.24.56-.43.88-.64.44-.29 1.11-.63 1.6-.83.15-.06.29-.12.43-.17.96-.36 2.02-.55 3.07-.58zm4.74 10.43c.04-.06.05-.06.11-.1.63-.5.74-.58 1.4-.99.69-.42 1.69-.81 2.49-1.01.17-.04.59-.15.74-.15 0 .1.14.67.14 1.34 0 1.09.01 1.66-.25 2.74-.26 1.06-.57 1.79-1.11 2.7-.21.35-.66.99-.93 1.27-.08.08-.17.24-.28.27 0-.15-.04-.32-.06-.45-.18-.91-.23-1.05-.46-1.89l-.2-.59c-.05-.13-.1-.25-.15-.39-.24-.61-.52-1.2-.84-1.78l-.59-1zm-4 6.93c0 .35.03.72.06 1.03l.11.99c-.98 0-1 .03-2-.11-.87-.12-1.63-.39-2.42-.73-.12-.05-.23-.12-.34-.17-.54-.27-1.47-.88-1.88-1.27-.51-.49-.84-.77-1.28-1.36-.66-.88-1.1-1.7-1.45-2.76-.05-.14-.22-.73-.22-.85.83 0 2.13-.33 2.87-.6.85-.3 1.56-.7 2.29-1.19.09-.06.16-.12.25-.18l.6-.47c.05-.04.07-.07.12-.11.31-.24 1-1.02 1.25-1.36.32-.43.42-.59.69-1.04l.16-.28c.04-.07.13-.23.14-.31.21.05 1.45 1.08 1.64 1.24l.51.46.48.48.91 1.03c.08.09.13.18.21.27.08.09.15.19.21.28-.11.07-.49.52-.59.64-.23.27-.33.43-.53.7-.3.41-.69 1.13-.89 1.58-.49 1.1-.89 2.49-.89 4.08zM.97 15.82c-.19-.81-.14-.55-.14-1.46 0-.91.19-1.72.42-2.53.1-.35.27-.73.41-1.06.05-.11.11-.22.16-.33.17-.34.51-.91.75-1.23.08-.1.14-.18.21-.28.05-.06.2-.23.21-.28l.82.13c.27.05.55.11.81.16.75.16 2.16.61 2.89.98.36.18.58.28.96.49.11.06.21.12.32.18-.02.08-.21.43-.27.54-.19.33-.42.67-.65.98-.07.09-.11.15-.18.23l-.58.64-.05.05-.02.02c-.19.2-.58.55-.78.7-1.32 1.04-2.86 1.76-4.54 1.99-.22.03-.49.08-.75.08zm8.08-5.98l-.58-.33c-.72-.38-1.13-.54-1.88-.84l-.68-.23c-.55-.18-1.23-.34-1.81-.46-.12-.02-.28-.06-.41-.06.04-.17.97-.83 1.16-.96.21-.14.42-.28.65-.4.53-.27.83-.45 1.46-.67.27-.09.53-.18.82-.25.48-.12 1.32-.3 1.83-.3.19.81.05 2.25-.11 2.98-.1.44-.18.74-.32 1.15-.04.13-.1.24-.13.37zm1.38-4.49c.44 0 .88.06 1.27.13.4.07.77.17 1.12.28 1.2.37 2.23.96 3.17 1.73.33.27.6.55.9.85.07.07.1.12.16.19.04.04.04.04.08.09l.24.29c.11.13.19.26.3.4.3.41.44.7.66 1.09.05.1.07.12.12.23l.5 1.26c.01.09-.04.06-.23.1-.39.08-.78.16-1.12.28-.09.03-.17.06-.27.09s-.16.06-.26.09-.16.06-.25.1c-.56.23-1.12.5-1.63.83l-.82.58c-.14.11-.26.23-.4.32l-.21-.28-.11-.14-.58-.7c-.16-.18-.33-.34-.49-.52-.09-.1-.11-.15-.25-.27-.05-.05-.08-.06-.13-.11l-.93-.84c-.1-.08-.18-.15-.29-.23-.1-.08-.18-.14-.28-.22-.19-.14-.73-.54-.91-.64l.28-.81c.37-1.32.44-1.9.44-3.34 0-.2-.03-.73-.08-.85zm18.68 4.58l8.56 3.08v11.38l-8.56-3.08V9.93zm9.69 14.38V12.97l8.56-4.13v11.34l-8.56 4.13zm-.56-12.29l-8.3-2.95 8.34-4.39 8.25 3.34-8.3 4zM27.99 9.07v12.64c0 .52 1.05.76 1.68.97l7.2 2.62c1.73.58 1.06.66 2.71-.13l8.46-4.1c.22-.11.46-.23.46-.54V7.89c0-.44-.65-.59-1.07-.76L38.25 3.5c-.09 0-.36.1-.67.26l-8.45 4.43c-.39.21-1.13.45-1.13.87z" fill="#59656c"/><path d="M29.15 9.82l8.64 3.11v11.63c-2.93-1.05-5.86-2.11-8.79-3.17V9.76l.16.06zm8.4 3.28l-8.32-3v11.13l8.32 3V13.1zm1.13 11.21V12.9c2.93-1.41 5.86-2.83 8.79-4.24v11.6l-8.79 4.24v-.19zm.23-11.26v11.08l8.32-4.01V9.04l-8.32 4.01zm-.72-.92l-8.55-3.04c2.87-1.51 5.75-3.02 8.62-4.54 2.85 1.16 5.7 2.31 8.55 3.46-2.86 1.38-5.72 2.76-8.58 4.13l-.05-.02zm-7.97-3.09l8 2.85 8.01-3.86-7.96-3.22-8.05 4.24zm-2.13.02V21.7c0 .36.73.58 1.3.77.1.03.2.06.29.09l7.2 2.62c.33.11.57.2.76.28.3.11.45.17.59.17.15-.01.31-.09.65-.26.15-.08.34-.17.61-.3 2.81-1.36 5.67-2.7 8.46-4.1.19-.09.39-.19.39-.43V7.9c0-.29-.42-.44-.77-.57-.08-.03-.15-.06-.22-.08l-9.16-3.62c-.04.01-.11.03-.2.06-.11.04-.25.11-.4.19l-8.45 4.43c-.07.04-.16.08-.26.12-.36.17-.81.38-.81.64zm-.23 12.64V9.06c0-.41.52-.66.95-.85.09-.04.17-.08.25-.12l8.45-4.43c.16-.08.3-.15.42-.2.13-.05.24-.08.3-.08h.02l9.2 3.64c.07.03.14.05.21.08.43.16.93.34.93.79v12.64c0 .38-.28.52-.53.64-2.79 1.4-5.65 2.74-8.46 4.1-.24.11-.44.22-.6.3-.37.19-.55.28-.75.29-.19.01-.36-.06-.69-.18-.19-.07-.43-.17-.75-.27l-7.2-2.62a3.44 3.44 0 00-.29-.09c-.65-.2-1.47-.46-1.47-.99z" fill="#fff" fill-rule="nonzero"/></svg>