<svg xmlns="http://www.w3.org/2000/svg" width="227.011" height="47mm" viewBox="0 0 59.92 46.89" shape-rendering="geometricPrecision" text-rendering="geometricPrecision" image-rendering="optimizeQuality" fill-rule="evenodd" clip-rule="evenodd"><defs><style>.fil1{fill:#59656c}</style></defs><g id="Слой_x0020_1"><g id="_910128752"><path d="M57.47 12.14V8.63h-3.51c-.19 0-.35-.16-.35-.35 0-.19.16-.35.35-.35h3.99c.01 0 .02.01.02.01h.01c.01 0 .01 0 .02.01.01 0 .02.01.03.02.09.05.15.15.17.26v3.92c0 .19-.16.35-.35.35-.19 0-.35-.16-.35-.35zm-29.12 0V8.63h3.51c.19 0 .35-.16.35-.35 0-.19-.16-.35-.35-.35h-3.99c-.01 0-.02.01-.02.01h-.01c-.01 0-.01 0-.02.01-.01 0-.02.01-.03.02-.09.05-.15.15-.17.26v3.92c0 .19.16.35.35.35.19 0 .35-.16.35-.35zm29.12 22.61v3.51h-3.51c-.19 0-.35.16-.35.35 0 .19.16.35.35.35h3.99c.01 0 .02-.01.02-.01h.01c.01 0 .01 0 .02-.01.01 0 .02-.01.03-.02.09-.05.15-.15.17-.26v-3.92c0-.19-.16-.35-.35-.35-.19 0-.35.16-.35.35zm-29.12 0v3.51h3.51c.19 0 .35.16.35.35 0 .19-.16.35-.35.35h-3.99c-.01 0-.02-.01-.02-.01h-.01c-.01 0-.01 0-.02-.01-.01 0-.02-.01-.03-.02a.369.369 0 01-.17-.26v-3.92c0-.19.16-.35.35-.35.19 0 .35.16.35.35z" fill="#55adad"/><path class="fil1" d="M13.93 33.2c-.4-1.72-.13-4.23.61-5.87.06-.14.12-.28.18-.41.07-.13.13-.26.2-.39.19-.38.69-1.15.94-1.45.07-.08.47-.59.55-.65.07.05.35.57.41.68.21.37.57 1.11.73 1.5.05.12.11.25.16.38.43 1.03.78 2.38.94 3.5.01.1.05.44.07.5-.08.02-.07.04-.13.09-.32.26-.52.41-.88.65-.98.65-2.28 1.17-3.41 1.4-.1.02-.27.06-.37.07zM12.1 12.72h.69c.42.01.84.05 1.25.11.39.05.72.13 1.08.21.91.23 1.95.65 2.75 1.13.28.17.52.31.79.51.13.1.25.18.38.28l.44.37c.04.03.04.03.08.07.03.03.05.06.09.09.33.28.76.74 1.04 1.06l.56.73c.19.25.34.51.5.79a10.474 10.474 0 011.43 5.04v.7c-.01.41-.05.82-.1 1.21-.06.39-.12.72-.21 1.08-.26 1.05-.77 2.26-1.37 3.16-.25.37-.38.57-.68.94l-.22.26c-.03.04-.04.05-.07.08-.06.07-.08.11-.15.17-.07.07-.09.1-.15.17l-.82.77c-.47.36-.59.48-1.12.83l-.82.47c-.53.27-.75.38-1.33.6-.31.12-.65.21-.99.3-1.18.29-1.75.32-2.94.32-1.66 0-3.66-.59-5.09-1.45-.76-.46-1.58-1.07-2.21-1.7-.06-.07-.09-.11-.15-.18-.06-.06-.11-.1-.16-.16l-.59-.72c-.1-.13-.18-.25-.28-.38-.31-.42-.73-1.17-.95-1.65-.33-.72-.56-1.41-.74-2.21l-.15-.83c-.1-.69-.12-.89-.12-1.36v-.45c0-.42.05-.84.11-1.21.11-.76.28-1.37.51-2.07.22-.65.71-1.63 1.07-2.17l1.06-1.37c.28-.33.74-.76 1.06-1.04.06-.05.12-.09.18-.14.31-.25.6-.46.94-.68.47-.31 1.17-.67 1.7-.88.16-.06.31-.12.46-.18 1.02-.38 2.14-.58 3.26-.62zm5.03 11.07c.04-.06.05-.06.11-.11.66-.53.78-.62 1.49-1.05.73-.44 1.79-.86 2.65-1.07.18-.04.63-.16.78-.16 0 .11.15.71.15 1.42 0 1.16.02 1.77-.26 2.91-.27 1.12-.61 1.9-1.18 2.87-.22.38-.7 1.05-.99 1.35-.09.09-.18.26-.3.29 0-.16-.04-.34-.07-.48-.19-.96-.24-1.12-.49-2l-.21-.62c-.05-.13-.1-.27-.16-.41-.26-.65-.55-1.28-.89-1.88l-.63-1.06zm-4.24 7.35c0 .37.03.77.06 1.1l.11 1.05c-1.04 0-1.06.04-2.12-.11-.93-.13-1.73-.42-2.57-.78-.13-.05-.25-.12-.37-.18-.58-.29-1.56-.93-2-1.35-.54-.52-.89-.82-1.35-1.45-.7-.93-1.16-1.8-1.54-2.93-.05-.15-.23-.77-.23-.91.88 0 2.27-.35 3.04-.63.9-.32 1.65-.75 2.43-1.27.1-.06.17-.13.26-.2l.63-.5c.05-.05.07-.07.13-.11.33-.25 1.06-1.08 1.33-1.45.34-.46.44-.62.73-1.1l.17-.29c.04-.08.13-.25.15-.33.22.05 1.53 1.14 1.74 1.32l.54.49.51.51.96 1.1c.08.1.14.19.22.28.08.1.15.2.22.3-.11.08-.52.55-.63.68-.25.29-.35.46-.57.75-.32.43-.73 1.2-.95 1.68a10.65 10.65 0 00-.94 4.33zM2.78 24.71c-.2-.86-.15-.59-.15-1.55 0-.96.2-1.82.45-2.68.11-.38.29-.77.43-1.12.05-.12.11-.24.17-.35.18-.36.54-.96.79-1.31.08-.11.14-.19.23-.3.05-.06.21-.24.23-.3l.87.13c.29.05.58.11.86.17.8.17 2.29.65 3.07 1.04.38.19.62.29 1.01.52.12.07.22.13.33.19-.02.09-.22.46-.29.57-.2.35-.45.71-.69 1.04-.07.09-.12.16-.19.25l-.61.68c-.02.02-.03.03-.05.06l-.02.02c-.2.21-.61.58-.83.75-1.4 1.1-3.03 1.86-4.82 2.11-.24.03-.52.08-.79.08zm8.58-6.34l-.61-.35c-.77-.4-1.19-.58-2-.89l-.72-.24c-.58-.2-1.31-.36-1.92-.49-.12-.03-.3-.07-.44-.07.05-.18 1.03-.88 1.23-1.02.23-.15.45-.3.69-.42.56-.29.89-.48 1.54-.71.29-.1.56-.19.87-.27.51-.13 1.41-.31 1.94-.31.2.85.05 2.39-.12 3.16-.1.46-.19.78-.33 1.22-.04.13-.1.26-.13.39zm1.47-4.77c.47 0 .94.07 1.35.14.42.08.82.18 1.19.29 1.28.39 2.36 1.02 3.37 1.84.35.29.63.59.95.91.07.07.1.12.17.2.04.04.04.05.08.09l.26.31c.12.14.21.28.32.43.32.43.46.74.7 1.16.06.1.08.13.13.25l.53 1.33c.01.1-.04.07-.25.11-.41.08-.83.17-1.19.29-.1.03-.18.06-.28.09-.1.03-.17.06-.28.1-.1.03-.17.07-.27.1-.6.24-1.18.53-1.73.88l-.87.62c-.15.12-.27.24-.43.34l-.23-.3c-.04-.05-.07-.09-.12-.14l-.61-.74c-.17-.19-.35-.36-.53-.55-.09-.1-.12-.16-.26-.28-.06-.05-.08-.06-.14-.12l-.99-.89c-.11-.09-.2-.16-.3-.24-.1-.08-.19-.15-.3-.23-.2-.15-.77-.57-.97-.68l.3-.86c.39-1.4.46-2.02.46-3.54 0-.21-.03-.77-.09-.9z"/><path class="fil1" d="M32.65 18.46l9.08 3.27v12.08l-9.08-3.27V18.46zm10.28 15.26V21.69l9.08-4.38v12.03l-9.08 4.38zm-.6-13.05l-8.81-3.13 8.85-4.66 8.76 3.55-8.81 4.24zm-10.88-3.13v13.42c0 .55 1.12.81 1.78 1.03l7.64 2.78c1.84.62 1.13.7 2.87-.14l8.98-4.35c.23-.11.49-.24.49-.57V16.29c0-.47-.69-.63-1.13-.8l-9.75-3.85c-.1 0-.38.11-.71.28l-8.97 4.7c-.42.22-1.2.48-1.2.92z" stroke="#fff" stroke-width=".5" stroke-miterlimit="22.926"/></g><path fill="none" d="M0 0h59.92v46.89H0z"/></g></svg>