<svg xmlns="http://www.w3.org/2000/svg" width="172.802" height="135.679" viewBox="0 0 10.62 8.34" shape-rendering="geometricPrecision" text-rendering="geometricPrecision" image-rendering="optimizeQuality" fill-rule="evenodd" clip-rule="evenodd"><path d="M.6 1.38c.01.11 0 .3 0 .42L.59 8.07H2.8V2.76c-.16 0-1.26.02-1.31-.01a.288.288 0 01-.24-.18c-.04-.09-.02-.27-.02-.38 0-.2-.04-.61.07-.74.07-.09.15-.11.3-.11h1.21c.03-.93-.97-1.3-1.58-1C1.1.4.98.49.9.57c-.14.15-.34.49-.3.81z" fill="#fff"/><path d="M9.55 2.52c.03-.04.07-.07.11-.1l.21-.2c.08-.07.47-.47.53-.49v.68c0 .09-.01.11-.1.11h-.74zm-3.81 0c.03-.03.05-.06.09-.09l.55-.51c.03-.03.05-.06.09-.09.31-.29.22-.25.47-.25h.72c-.08.11-.18.16-.26.25l-.64.6c-.03.04-.07.09-.14.09-.22 0-.68.01-.88 0zm-2.54 0c.04-.03.05-.05.09-.09l.27-.26c.03-.03.06-.05.09-.08s.05-.06.09-.09l.37-.35c.09-.1.11-.08.28-.08h.72c-.08.11-.17.16-.26.25l-.45.43c-.06.06-.13.11-.19.18-.03.04-.07.09-.14.09-.23 0-.67.01-.88 0zm-1.74-.84c0-.13.1-.1.22-.1h.9c-.05.07-.08.09-.13.14-.03.02-.04.04-.07.06l-.6.57c-.05.04-.08.09-.13.13-.05.05-.08.07-.17.03-.03-.08-.01-.69-.01-.83zm7.71 0c.04-.05.07-.1.15-.1.16 0 .75-.01.87 0-.08.09-.17.16-.25.24L9.75 2c-.02.02-.03.04-.06.06l-.39.36c-.04.05-.07.1-.15.1-.22 0-.69.01-.88 0l.89-.84zm-1.91.6c.09-.08.17-.16.26-.24l.12-.12c.05-.04.09-.07.13-.12.06-.05.2-.22.28-.22h.88c-.02.04-.02.03-.07.07-.02.02-.04.03-.06.06l-.12.12c-.09.08-.16.16-.25.23-.08.08-.46.46-.51.46h-.9l.25-.24zM5.24 1.8c.06-.05.2-.22.28-.22h.88c-.02.04-.05.06-.1.1-.03.03-.05.06-.09.09l-.74.69c-.03.03-.05.06-.11.07h-.88l.76-.72zm-2.54 0c.06-.05.19-.22.27-.22h.88l-.55.53c-.07.07-.11.11-.18.17-.06.06-.22.24-.29.25h-.89l.76-.72zm-1.21.95l1.32.01v5.33H.59C.57 8 .58 7.77.58 7.67c0-1.01-.02-6.21.02-6.28C.56 1.07.76.73.9.58c.07-.08.2-.17.33-.23.61-.3 1.61.07 1.58 1H1.6c-.15 0-.23.03-.3.11-.11.13-.07.53-.07.74 0 .11-.01.29.02.38.03.08.12.17.24.18zm9.13-.23v-.94c-.05-.08-.02-.08-.1-.16a.272.272 0 00-.17-.08c-.14-.02-5.66 0-6.33 0-.32 0-.65.01-.96 0-.01-.24-.05-.42-.16-.61-.11-.2-.2-.28-.34-.41C2.31.1 1.85-.07 1.4.03.99.12.69.4.53.68c-.25.43-.18.79-.18 1.33v3.03c0 .22.01 2.89 0 3.02-.08.01-.2-.01-.28.02-.07.03-.1.14-.05.2.06.07.42.04.54.04h2.61c.1 0 .18.01.23-.06.05-.08 0-.15-.06-.18-.07-.03-.18-.02-.27-.02V2.74c.63-.02 1.3 0 1.94 0 .42 0 5.23.01 5.35 0 .19-.03.22-.16.26-.23z" fill="#59656c"/><path d="M3.21 2.52c.21.01.64 0 .88 0 .07 0 .11-.05.14-.09.06-.07.13-.12.19-.18l.45-.43c.08-.09.17-.14.26-.25h-.72c-.17 0-.19-.03-.28.08L3.76 2c-.03.03-.05.06-.09.09-.03.03-.06.05-.09.08l-.27.26c-.04.04-.05.06-.09.09zm2.53 0c.2.01.65 0 .88 0 .07 0 .11-.05.14-.09l.64-.6c.08-.09.18-.14.26-.25h-.72c-.26 0-.16-.04-.47.25-.03.03-.05.06-.09.09l-.55.51c-.03.03-.05.06-.09.09zm2.54 0c.19.01.66 0 .88 0 .08 0 .1-.05.15-.1l.39-.36c.02-.02.03-.04.06-.06l.19-.18c.08-.09.18-.15.25-.24-.12-.01-.71 0-.87 0-.08 0-.11.05-.15.1l-.89.84zm-1.27 0h.9c.05 0 .43-.39.51-.46.09-.08.16-.16.25-.23l.12-.12.06-.06c.04-.04.04-.03.07-.07h-.88c-.08 0-.22.17-.28.22-.05.04-.08.07-.13.12l-.12.12c-.09.08-.17.16-.26.24L7 2.52zm-2.54 0h.88c.06 0 .07-.04.11-.07l.74-.69c.03-.03.05-.06.09-.09.04-.04.07-.06.1-.1h-.88c-.08 0-.22.17-.28.22l-.76.72zm-2.53 0h.89c.08 0 .23-.19.29-.25.07-.06.11-.1.18-.17l.55-.53h-.88c-.08 0-.21.17-.27.22l-.76.72zm-.48-.85c0 .13-.01.74.01.83.09.04.12.02.17-.03.05-.04.08-.09.13-.13l.6-.57c.03-.02.04-.04.07-.06.05-.05.09-.07.13-.14h-.9c-.12 0-.22-.03-.22.1zm8.09.85h.74c.09 0 .1-.03.1-.11v-.68c-.06.02-.45.42-.53.49l-.21.2c-.04.03-.08.06-.11.1z" fill="#fefefe"/><path d="M1.49 2.75c.05.03 1.15.01 1.31.01v5.31H.59L.6 1.8c0-.12.01-.32 0-.42-.03.06-.02 5.26-.02 6.28 0 .1-.01.33.01.42h2.22V2.75l-1.32-.01z" fill="#b5babe"/></svg>