<svg xmlns="http://www.w3.org/2000/svg" width="60mm" height="60mm" viewBox="0 0 18.27 18.27" shape-rendering="geometricPrecision" text-rendering="geometricPrecision" image-rendering="optimizeQuality" fill-rule="evenodd" clip-rule="evenodd"><path d="M2.96 5.48c.01.14 0 .4 0 .55l-.01 8.22h2.9V7.29c-.21 0-1.65.02-1.71-.02a.367.367 0 01-.31-.23c-.05-.12-.03-.35-.03-.49 0-.27-.05-.8.09-.97.1-.12.2-.15.39-.15h1.58c.04-1.22-1.27-1.7-2.08-1.31-.17.08-.33.19-.43.3-.18.2-.44.65-.39 1.06z" fill="#fff"/><path d="M14.69 6.98c.03-.05.09-.09.14-.13l.27-.26c.11-.09.62-.61.69-.65v.89c0 .12-.01.15-.13.15h-.97zm-4.99 0c.05-.04.07-.08.12-.12l.72-.67c.05-.04.07-.08.11-.12.41-.38.28-.33.62-.33h.94c-.1.15-.23.21-.34.33l-.84.79c-.05.05-.1.12-.19.12-.29 0-.89.01-1.15 0zm-3.33 0c.05-.04.07-.07.12-.12l.36-.34c.04-.04.08-.07.12-.11.04-.04.07-.08.11-.12l.49-.46c.12-.14.15-.1.37-.1h.94c-.11.15-.23.21-.34.33l-.59.56c-.07.08-.17.14-.25.23-.05.05-.1.12-.19.12-.31 0-.87.01-1.15 0zM4.08 5.87c0-.17.13-.13.28-.13h1.19c-.06.09-.11.12-.18.18-.03.03-.06.05-.09.08l-.79.75-.17.17c-.07.06-.11.1-.23.04-.04-.11-.02-.91-.02-1.09zm10.11 0c.06-.06.1-.13.2-.13.21 0 .99-.01 1.14 0-.1.12-.23.21-.33.32l-.26.24c-.03.03-.04.05-.07.08l-.51.47c-.06.06-.09.13-.19.13-.29 0-.9.01-1.15 0l1.17-1.11zm-2.5.79c.12-.1.22-.21.34-.31l.16-.16c.06-.06.11-.1.17-.15.07-.07.26-.29.36-.29h1.15c-.03.05-.03.05-.09.09-.03.03-.05.04-.08.07l-.16.16c-.11.1-.21.21-.33.31-.11.1-.61.61-.67.61h-1.17l.33-.32zm-2.65-.63c.07-.07.26-.29.36-.29h1.15c-.03.06-.07.08-.13.13-.04.04-.07.08-.11.12l-.97.91c-.05.04-.06.08-.14.09H8.04l1-.95zm-3.33 0c.08-.07.25-.29.35-.29h1.15l-.72.69c-.09.1-.15.14-.24.23-.08.07-.29.32-.39.32H4.7l1-.95zM4.13 7.27l1.73.01-.01 6.99-2.91-.01c-.02-.12-.01-.42-.01-.55 0-1.33-.02-8.15.02-8.23-.05-.41.21-.86.39-1.06.1-.11.26-.22.43-.3.8-.39 2.11.09 2.08 1.31H4.27c-.19 0-.3.03-.39.15-.14.17-.09.7-.09.97 0 .15-.02.37.03.49.05.11.16.22.31.23zm11.97-.3V5.74c-.06-.1-.03-.11-.12-.2a.385.385 0 00-.22-.11c-.19-.02-7.43 0-8.3 0-.41 0-.86.02-1.27 0-.01-.32-.07-.56-.21-.8-.15-.26-.26-.37-.45-.54a1.82 1.82 0 00-1.52-.38c-.54.12-.93.49-1.14.86-.32.57-.24 1.04-.24 1.75v3.98c0 .28.02 3.78 0 3.97-.11.01-.26-.01-.36.03-.09.03-.13.18-.07.26.07.09.54.05.71.05h3.42c.13 0 .24.01.3-.08.07-.1 0-.2-.08-.23-.09-.04-.24-.02-.35-.02l.01-6.98c.83-.03 1.71 0 2.54 0 .55 0 6.86.02 7.02 0 .24-.03.29-.21.34-.3z" fill="#59656c"/><path d="M6.38 6.97c.28.01.84 0 1.15 0 .09 0 .14-.07.19-.12.08-.09.18-.16.25-.23l.59-.56c.11-.12.23-.18.34-.33h-.94c-.23 0-.25-.04-.37.1l-.49.46c-.05.04-.07.08-.11.12-.04.04-.08.07-.12.11l-.36.34c-.05.05-.07.08-.12.12zm3.32 0c.26.01.86 0 1.15 0 .09 0 .14-.07.19-.12l.84-.79c.11-.12.23-.18.34-.33h-.94c-.34 0-.21-.05-.62.33-.04.04-.07.08-.11.12l-.72.67c-.05.04-.07.08-.12.12zm3.33 0c.25.01.86 0 1.15 0 .1 0 .13-.07.19-.13l.51-.47c.03-.03.04-.05.07-.08l.26-.24c.1-.11.23-.19.33-.32-.15-.01-.93 0-1.14 0-.1 0-.14.07-.2.13l-1.17 1.11zm-1.66.01h1.17c.07 0 .56-.51.67-.61.11-.1.21-.21.33-.31l.16-.16c.03-.03.05-.05.08-.07.05-.05.06-.04.09-.09h-1.15c-.1 0-.29.23-.36.29-.06.06-.11.1-.17.15l-.16.16c-.12.1-.22.21-.34.31l-.33.32zm-3.33 0H9.2c.08 0 .09-.05.14-.09l.97-.91c.04-.04.07-.08.11-.12.06-.05.1-.07.13-.13H9.4c-.1 0-.29.23-.36.29l-1 .95zm-3.32 0h1.16c.1-.01.3-.25.39-.32.09-.08.15-.13.24-.23l.72-.69H6.08c-.1 0-.28.22-.35.29l-1 .95zm-.63-1.11c0 .18-.02.97.02 1.09.12.06.16.02.23-.04l.17-.17L5.3 6c.03-.03.06-.05.09-.08.07-.06.11-.09.18-.18H4.38c-.15 0-.28-.04-.28.13zm10.6 1.11h.97c.12 0 .13-.03.13-.15v-.89c-.07.03-.59.55-.69.65l-.27.26c-.05.04-.1.08-.14.13z" fill="#fefefe"/><path d="M4.13 7.27c.06.04 1.51.02 1.71.02v6.96h-2.9l.01-8.22c0-.16.02-.41 0-.55-.04.08-.02 6.9-.02 8.23 0 .14-.02.43.01.55l2.91.01.01-6.99-1.73-.01z" fill="#b5babe"/><path fill="none" d="M0 0h18.27v18.27H0z"/></svg>