<svg xmlns="http://www.w3.org/2000/svg" width="227.011" height="47mm" viewBox="0 0 57.24 44.79" shape-rendering="geometricPrecision" text-rendering="geometricPrecision" image-rendering="optimizeQuality" fill-rule="evenodd" clip-rule="evenodd"><defs><style>.str0{stroke:#59656c;stroke-width:.95;stroke-miterlimit:22.9256}.fil1{fill:none}</style></defs><g id="Слой_x0020_1"><g id="_1632695840"><rect class="str0" x="11.65" y="5.43" width="33.93" height="33.93" rx="3.4" ry="3.4" fill="#fff"/><path class="fil1 str0" d="M37.43 31.18c0-5.01.5-4.63-4.51-6.72-.53-.22-1.74-.98-2.24-.63-1.05.73-1.89 1.35-3.6.37-.97-.55-.27-.93-3.27.47-3.92 1.83-4 1.08-4 5.61 0 .26-.02.57-.01.82.02.72.18.55 1.92.55h14.51c.55 0 1.2.17 1.2-.47z"/><ellipse class="fil1 str0" cx="28.62" cy="17.47" rx="4.32" ry="5"/></g><path d="M32.82 22.63h3.36v-3.36c0-.19.15-.34.34-.34.19 0 .34.15.34.34v3.81c0 .01-.01.02-.01.02v.01c0 .01 0 .01-.01.01 0 .01-.01.02-.02.03-.05.09-.14.15-.25.16h-3.74c-.18 0-.34-.15-.34-.34 0-.19.15-.34.34-.34zm0-11.28h3.36v3.36c0 .19.15.34.34.34.19 0 .34-.15.34-.34V10.9c0-.01-.01-.02-.01-.02v-.01c0-.01 0-.01-.01-.01 0-.01-.01-.02-.02-.03a.313.313 0 00-.25-.16h-3.74c-.18 0-.34.15-.34.34 0 .19.15.34.34.34zm-8.4 11.28h-3.36v-3.36c0-.19-.15-.34-.34-.34-.19 0-.34.15-.34.34v3.81c0 .01.01.02.01.02v.01c0 .01 0 .01.01.01 0 .01.01.02.02.03.05.09.14.15.25.16h3.74c.18 0 .34-.15.34-.34 0-.19-.15-.34-.34-.34zm0-11.28h-3.36v3.36c0 .19-.15.34-.34.34-.19 0-.34-.15-.34-.34V10.9c0-.01.01-.02.01-.02v-.01c0-.01 0-.01.01-.01 0-.01.01-.02.02-.03.05-.09.14-.15.25-.16h3.74c.18 0 .34.15.34.34 0 .19-.15.34-.34.34z" fill="#55adad" id="_1632694752"/><path class="fil1" d="M0 0h57.24v44.79H0z"/></g></svg>