<svg xmlns="http://www.w3.org/2000/svg" width="60mm" height="60mm" viewBox="0 0 15.96 15.96" shape-rendering="geometricPrecision" text-rendering="geometricPrecision" image-rendering="optimizeQuality" fill-rule="evenodd" clip-rule="evenodd"><defs><style>.str0{stroke:#59656c;stroke-width:.27;stroke-miterlimit:22.9256}.fil0{fill:none}</style></defs><g id="Слой_x0020_1"><g id="_4611476832"><ellipse class="fil0 str0" cx="7.46" cy="5.22" rx="2.08" ry="2.41"/><path d="M10.06 11.32h.86v-.86c0-.07.06-.13.13-.13s.13.06.13.13v.86h.86c.07 0 .13.06.13.13s-.06.13-.13.13h-.86v.86c0 .07-.06.13-.13.13s-.13-.06-.13-.13v-.86h-.86c-.07 0-.13-.06-.13-.13s.06-.13.13-.13z" fill="#59656c"/><circle class="fil0 str0" cx="11.05" cy="11.45" r="1.71"/><path class="fil0 str0" d="M11.6 9.83c-.19-.49-.71-.68-2.07-1.25-.26-.11-.84-.47-1.08-.3-.51.35-.91.65-1.74.18-.47-.27-.13-.45-1.57.23-1.89.88-1.93.52-1.93 2.71 0 .13-.01.27 0 .39.01.35.09.26.93.26h5.32a1.71 1.71 0 012.15-2.22z"/></g><path class="fil0" d="M0 0h15.96v15.96H0z"/></g></svg>