<svg xmlns="http://www.w3.org/2000/svg" width="139.508" height="150.84" viewBox="0 0 6.05 6.54" shape-rendering="geometricPrecision" text-rendering="geometricPrecision" image-rendering="optimizeQuality" fill-rule="evenodd" clip-rule="evenodd"><defs><style>.fil0{fill:#59656c;fill-rule:nonzero}</style></defs><g id="Слой_x0020_1"><g id="_2109663232"><path class="fil0" d="M2.7 0c.38 0 .72.18.97.46.24.28.4.67.4 1.1 0 .43-.15.82-.4 1.1-.25.29-.59.46-.97.46s-.72-.18-.97-.46a1.7 1.7 0 01-.4-1.1c0-.43.15-.82.4-1.1.25-.29.59-.46.97-.46zm.85.57C3.33.32 3.03.16 2.7.16c-.33 0-.63.16-.85.41-.22.25-.36.61-.36 1s.14.74.36 1c.22.25.52.41.85.41.33 0 .63-.16.85-.41.22-.25.36-.61.36-1s-.14-.74-.36-1z"/><path d="M4.31 5.32h.53v-.53c0-.05.04-.08.08-.08.05 0 .08.04.08.08v.53h.53c.05 0 .08.04.08.08 0 .05-.04.08-.08.08H5v.53c0 .05-.04.08-.08.08-.05 0-.08-.04-.08-.08v-.53h-.53c-.05 0-.08-.04-.08-.08 0-.05.04-.08.08-.08z" fill="#59656c"/><path class="fil0" d="M4.91 4.27c.31 0 .6.13.8.33.2.2.33.49.33.8 0 .31-.13.6-.33.8-.2.2-.49.33-.8.33-.31 0-.6-.13-.8-.33-.2-.2-.33-.49-.33-.8 0-.31.13-.6.33-.8.2-.2.49-.33.8-.33zm.68.45a.952.952 0 00-.68-.28.96.96 0 100 1.92.96.96 0 00.68-1.64z"/><path class="fil0" d="M5.08 4.29c-.15-.16-.44-.28-1-.51l-.14-.06c-.04-.01-.08-.04-.13-.06-.16-.08-.38-.19-.46-.13l-.01.01c-.33.23-.6.42-1.14.1-.06-.04-.1-.07-.14-.09-.09-.07-.09-.07-.76.24-.17.08-.32.14-.45.2-.68.29-.69.3-.69 1.39v.24c0 .09.03.09.24.09h3.42c-.01-.03-.01-.06-.02-.08-.01-.07-.02-.13-.02-.2 0-.31.13-.6.33-.8.2-.2.49-.33.8-.33.05 0 .11 0 .16.01zm-.94-.67c.76.32 1.06.44 1.18.76l.06.16-.16-.06c-.05-.02-.1-.03-.15-.04-.05-.01-.1-.01-.16-.01a.96.96 0 00-.96.96c0 .06.01.12.02.17.01.06.03.11.05.17l.04.11H.41c-.36.01-.4.01-.41-.25v-.24c0-1.2.02-1.21.79-1.54.12-.05.27-.12.44-.2.76-.35.77-.35.93-.22.03.02.06.05.11.08.46.26.69.1.97-.1l.01-.01c.16-.11.43.03.62.12.05.02.09.04.12.06l.14.06z"/></g></g></svg>