<svg xmlns="http://www.w3.org/2000/svg" width="133.392" height="133.38" viewBox="0 0 5.94 5.94" shape-rendering="geometricPrecision" text-rendering="geometricPrecision" image-rendering="optimizeQuality" fill-rule="evenodd" clip-rule="evenodd"><defs><style>.fil0{fill:#59656c}</style></defs><g id="Слой_x0020_1"><g id="_1842295808"><path class="fil0" d="M.18 2.85c0-.45.17-.93.4-1.31A2.768 2.768 0 011.51.6c.04-.02.07-.04.11-.06.15-.09.31-.15.48-.21.45-.15 1-.19 1.47-.07.09.02.18.05.26.07.06.02.21.08.21-.04 0-.07-.02-.09-.08-.11-.12-.05-.25-.08-.38-.1C2.95-.04 2.27.02 1.72.3a3.3 3.3 0 00-.45.26L.93.84C.88.88.85.93.8.98l-.09.09c-.18.19-.3.42-.42.65-.18.35-.28.79-.28 1.26 0 .63.18 1.22.53 1.7.12.16.16.21.29.36l.14.14c.02.02.03.03.05.04.02.02.03.03.05.04.2.16.28.21.49.33l.31.15c.33.14.7.21 1.08.21.6 0 1.05-.13 1.5-.38l.22-.14c.11-.08.29-.22.4-.32l.14-.15c.02-.02.02-.03.04-.05.11-.13.21-.27.3-.42.12-.21.2-.4.28-.63.15-.44.17-.99.08-1.45-.02-.09-.03-.17-.06-.25-.02-.07-.03-.17-.13-.17-.12 0-.07.14-.05.2.01.03.01.06.02.09.08.28.08.58.08.88 0 .48-.24 1.09-.52 1.46-.13.17-.27.33-.43.48-.17.15-.42.33-.63.42-.25.11-.46.19-.74.24-.2.03-.36.03-.57.03-.48 0-.96-.16-1.31-.38l-.2-.13c-.13-.09-.25-.19-.36-.3a3.17 3.17 0 01-.53-.73C.47 4.23.47 4.22.46 4.2.4 4.08.35 3.96.32 3.83.22 3.48.2 3.26.2 2.89z"/><path class="fil0" d="M1.44 2.85c0 .33.01.5.15.8.04.08.08.15.14.22.05.07.11.13.17.19.25.25.64.43 1.02.43.33 0 .64-.08.88-.25l.11-.08.1-.09c.09-.08.14-.16.21-.26.15-.2.26-.53.26-.78 0-.11.02-.16-.09-.16-.06 0-.08.04-.08.09 0 .15-.04.32-.08.45-.11.32-.36.59-.66.75-.45.24-1.01.19-1.42-.11-.43-.31-.65-.88-.51-1.4.06-.25.15-.4.31-.59.05-.07.13-.12.19-.17.04-.03.06-.05.11-.07.11-.06.13-.08.25-.12.35-.13.55-.01.55-.17 0-.07-.05-.09-.1-.09-.31 0-.61.1-.84.26-.05.03-.21.16-.25.2-.02.02-.02.03-.04.05a.7.7 0 00-.08.1c-.15.21-.3.53-.3.8z"/><path class="fil0" d="M3.77 1.67c0-.04 0-.07.01-.1.01-.05.32-.34.36-.38l.21-.21.11-.11c.03-.03.07-.09.11-.1v.3c0 .35-.09.29.59.29-.03.05-.15.16-.2.21l-.4.4-.05.05c-.07.07-.02.04-.06.07-.03.02-.05.05-.09.05H3.8c0-.07-.01-.1-.01-.16v-.32zm-.89 1.29c0 .06.04.09.09.09.06 0 .18-.15.23-.19l.52-.52c.05-.03.12-.01.19-.01h.47c.09 0 .09-.03.16-.1l.66-.66c.05-.05.25-.23.25-.28 0-.07-.05-.09-.11-.09h-.6c-.03-.01-.02-.03-.02-.08v-.5c0-.11 0-.14-.09-.14-.05 0-.12.09-.15.12l-.8.8c-.09.09-.09.07-.09.17v.53c0 .14 0 .11-.08.19l-.53.53c-.03.03-.12.1-.12.16z"/></g></g></svg>