<svg xmlns="http://www.w3.org/2000/svg" width="122.78" height="141.584" viewBox="0 0 3.9 4.5" shape-rendering="geometricPrecision" text-rendering="geometricPrecision" image-rendering="optimizeQuality" fill-rule="evenodd" clip-rule="evenodd"><path d="M3.78 4.38c-.03-.01-.52-.01-.63-.01-.03 0-.07.01-.07-.02V3.12c.07 0 .35.13.42.17.17.1.23.13.26.33.03.22.03.51.01.74zM.11 4.11v-.1l.02-.29c.02-.14.02-.23.1-.3.11-.1.26-.16.39-.22.03-.01.12-.05.16-.05v1.23H.11c0-.1-.01-.17-.01-.27zm2.85-.45v.71H.9v-.81h2.05c.03 0 .01.04.01.1zm-.01-.21H.89V3.1l.12-.06.06-.03c.06-.03.27-.12.33-.12.03 0 .1.04.13.06.04.02.08.04.12.07.26.12.49.09.73-.06.03-.02.08-.06.12-.06.09 0 .41.14.47.18 0 .04-.01.05-.01.09l-.01.29zm.64 1.04c.07 0 .12.01.18.01s.11-.01.12-.06c.01-.03.01-.3.01-.35 0-.6.01-.73-.51-.96-.15-.07-.3-.13-.45-.19-.04-.01-.07-.03-.11-.05-.04-.02-.07-.03-.11-.05-.07-.03-.16-.08-.25-.08-.13 0-.33.37-.81.13-.15-.07-.17-.14-.25-.14-.09 0-.49.2-.63.26l-.31.14c-.25.1-.41.18-.44.45-.02.13-.02.27-.02.43 0 .11-.02.36 0 .43s.21.04.28.04H3.6zM2.45 2.42a.895.895 0 01-.94.05c-.23-.14-.35-.32-.43-.57-.02-.07-.04-.13-.05-.2l-.02-.23h1.9c0 .4-.13.68-.38.9-.02.02-.05.04-.07.05zM1.42.26c0-.02.06-.05.08-.06.13-.07.26-.08.41-.08L1.9.71c0 .06.01.11.01.16 0 .03.01.15.02.15L2 1.01c0-.03.01-.05.01-.09.01-.25.01-.55.01-.8.16 0 .24.02.37.07.03.01.07.02.09.04 0 .05.01.08.01.13l-.01.13c-.01.19.02.2.02.26.06 0 .11.01.11-.12 0-.12-.01-.22-.01-.32.02.01.04.01.07.03.12.07.19.2.25.32.05.1.09.24.12.35l.03.15c.02.07.1.03.1.09 0 .04-.01.05-.01.08-.41 0-.8-.01-1.21-.01H.74C.73 1.21.72 1.23.8 1.2c.03-.01.04-.02.04-.05C.88.93.97.64 1.1.46c.04-.06.13-.16.21-.17 0 .04-.01.06-.01.1v.16c0 .08.01.12.02.17.04 0 .08.01.09-.02.01-.02.01-.06.01-.1L1.41.22zM.9 1.47c0 .21.03.33.09.5.03.08.09.2.14.27.1.14.21.24.36.32a1 1 0 00.95 0c.3-.18.52-.5.56-.85.01-.07.02-.2.04-.24.08 0 .19.03.23-.06.03-.07.04-.22-.05-.28-.05-.04-.05-.05-.07-.12-.05-.19-.1-.36-.21-.53a.948.948 0 00-.52-.4c-.41-.14-.87-.11-1.2.15C1.01.39.84.68.78.94c-.01.07-.03.16-.09.2-.03.02-.03.01-.05.05-.03.07-.03.17.01.23.03.06.16.05.24.05z" fill="#59656c"/></svg>