<svg xmlns="http://www.w3.org/2000/svg" width="60mm" height="60mm" viewBox="0 0 39.92 39.92" shape-rendering="geometricPrecision" text-rendering="geometricPrecision" image-rendering="optimizeQuality" fill-rule="evenodd" clip-rule="evenodd"><path d="M27.54 32.95c-.19.64-1.17.39-.98-.28.19-.66 1.16-.34.98.28zm-3.24-.49c-.19-.58.68-.75.81-.25.14.56-.65.74-.81.25zm2.34-6.05c.67-.27.96.71.39.93-.65.26-1.01-.68-.39-.93zm-4.4-.42c.64-.24.96.73.36.95-.67.24-.97-.71-.36-.95zm-3.88-2.17c.79-.27 1.07.9.4 1.13-.76.27-1.17-.87-.4-1.13zm15-.14c.59-.28.96.64.41.92a.521.521 0 01-.71-.27c-.14-.37.08-.55.3-.65zm-5.5 2.36c.05-.12.25-.36.35-.47l2.18-2.87c.04-.06.03-.04.08-.11.07-.07.02-.03.1-.09.32.21.61.41.95.64.27.17.71.44.95.65l-.03.54-4.58 1.71zm-8.15-1.23c.01-.17.07-.29.05-.49-.02-.26-.08-.24.06-.41l3.1-3.36c.13-.12.16-.14.24-.24l.46.05c.09.39 1.17 2.48 1.14 2.63l-1.44 1.84c-.16.2-.33.41-.45.61-.5-.1-.95-.1-1.22.26-.25-.04-1.61-.71-1.94-.88zm-7.88-2.71c.67-.15.81.86.21.99-.67.14-.89-.84-.21-.99zm15-.82c.98.24.93.1 1.57-.23l1.64 1.1c-.06.15-2.17 2.87-2.44 3.23-.1.13-.26.32-.34.46-.25-.05-.29-.06-.58-.06l-1.21-2.71 1.37-1.79zm.36-2.14c.51-.16.96.17 1.08.56.15.53-.2.96-.57 1.07-1.09.32-1.58-1.29-.51-1.63zm-3.74-.13c.54-.12.71.72.18.84-.56.12-.75-.71-.18-.84zm9.31.57c.13-.18.48-.72.67-.75l-.14 4.21c-.09.05-.41.21-.47.24l-1.89-1.26 1.83-2.44zm-25.29-.89c.41-.12 3.12-1.12 3.26-1.11.16.01.37.32.6.51l3.38 3.2c.35.39 1.02.94 1.41 1.33.1.1.15.18.26.27.17.15 1.06.97 1.06 1.05-.03.01-.03.01-.09.01h-.06c-.02 0-.12-.03-.15-.04-.09-.03-.17-.05-.27-.07-1.15-.31-2.84-.73-3.85-1.05.12-1.48-1.56-1.56-1.95-.87l-3.26-2.33c-.14-.1-.33-.26-.46-.32.06-.23.08-.31.11-.57zm-1.27-.41c.68-.22.89.79.31.97-.64.2-.95-.76-.31-.97zm26.65.19l-2.42 3.19c-.26-.13-.58-.38-.83-.55-.2-.14-.61-.43-.81-.52.04-.28.1-.41.13-.75l3.94-1.37zm.75-1.15c.61-.26.96.74.32.95a.51.51 0 01-.64-.32c-.12-.35.1-.54.32-.64zm-22.18.04c.04-.04-.04.01.07-.04l.39-.14c.82-.29 2.64-.95 3.27-1.13.32.29.18.56 1.28.76.09.54.98 4.16 1.17 4.94.09.35.68 2.12.06 1.54l-.6-.58c-.27-.24-.52-.51-.8-.76-.61-.55-1.43-1.4-2.03-1.93l-2.01-1.91c-.3-.3-.48-.41-.8-.76zm-4.67-3.6c.33.26.53.51.87.82.16.15.31.26.46.42l.86.85c.15.14 1.26 1.13 1.32 1.26l-2.98 1.02c-.13-.1-.19-.21-.36-.3-.16-.09-.3-.1-.45-.17v-3.8l.27-.1zm17.43 6.37c.7-.99-.06-.81.37-1.31l2.56-2.8c.16.07.26.21.47.26l-.25 2.21c-.62.1-.99.38-1.2.85-.33.73 0 1.17.23 1.59-.21.35-.99 1.2-1.14 1.5-.17-.15-1.03-2.21-1.06-2.3zm-1.75-4.6l4.39-.08c-.1.21-.88.96-1.08 1.21l-.71.78c-.17.17-.99 1.02-1.05 1.15-.5-.13-.81-.13-1.12.21-.45.51-.18.85-.15 1.15-.18.12-.43.44-.66.67l-1.02 1.11c-.24.27-1.46 1.69-1.69 1.77-.02-.18.49-1.36.6-1.64.79-2.12 1.65-4.22 2.48-6.33zm-3.63 7.66l-.23-.02c-.08-.13-1.01-4.14-1.18-4.86-.12-.52-.28-1.1-.38-1.64.41-.14.74-.55.85-1.05l3.94-.07-.83 2.15-2.16 5.49zm-2.61-8.65c.51-.18.96.18 1.07.56.15.53-.19.96-.56 1.07-1.08.31-1.6-1.25-.51-1.63zm11.68-.03c.37-.1.7.16.78.46.1.37-.15.7-.43.79-.81.25-1.25-.99-.35-1.25zm2.76-.54l.21.22c.32.29.48.3.93.31l1.25 2.49c-.22.29-.33.39-.34.91-.22.14-3.72 1.33-3.91 1.37-.25-.29-.36-.55-.84-.69l.25-2.19c.23-.12.68-.13.96-.71.27-.55.08-.82-.1-1.28l1.59-.43zm-7.93.96c.14-.42.35-.92.53-1.35.18-.45.35-.88.53-1.34.35-.9.7-1.83 1.07-2.69l.28-.01c.18.32.39.81.54 1.16.22.48 1.52 3.24 1.58 3.46-.47.5-.23.35-.44.69l-4.09.06zm8.8-2.03c.65-.14.85.85.22.99-.67.15-.9-.85-.22-.99zm-23.81.91c-.13-.11-.36-.3-.44-.42.45.07 5 1.26 5.85 1.47.32.08.65.16.97.25.29.08 1.4.23.71.45l-.76.26c-.6.2-2.83 1.04-3.14 1.06l-3.2-3.06zm-1.68-1.46c.65-.27.96.7.39.93a.512.512 0 01-.66-.7c.08-.16.14-.17.27-.23zm9.11 2.4c-.25-.02-5.61-1.4-6.03-1.51l-1.75-.45c-.02-.02-.13-.07 0-.19l6.64-3.37c.43.38.6.25.72.35.06.08 1.05 4.17 1.07 4.48-.14.12-.24.15-.38.31-.11.13-.16.22-.27.38zm2.62-.04c.11-.16 3.1-2.54 3.23-2.65.92-.74 2.38-1.99 3.25-2.62l-2.18 5.53-4.19.07-.12-.32zM15.3 9.43c.12-.11.21-.16.32-.29.1-.12.14-.28.22-.37.7-.04 7.91-.03 8.02.02.08.12.02.15-.07.23-.08.07-.14.1-.22.17-1.44 1.21-3.07 2.49-4.55 3.7l-1.67 1.34c-.49-.26-.36-.24-1.01-.32l-1.05-4.47zm9.48-1.45c.62-.22.94.78.3.97-.62.19-.98-.72-.3-.97zm-10.28.94a.475.475 0 01-.26-.34c-.02-.32.07-.48.28-.57.23-.11.48-.04.62.13.31.38 0 .96-.64.78zm12.38.59c-.2-.14-.74-.6-.92-.68.07-.36.08-.67-.11-.95-.48-.72-1.61-.76-2 .29h-8.03c-.08-.11-.39-1.01-1.35-.77-.59.14-.87.6-.81 1.32L7 12.08a1.11 1.11 0 00-1.76.15c-.43.65 0 1.52.63 1.64v3.89c-.08.12-.23.17-.33.29-.55.62-.27 1.57.48 1.8.49.15.59-.02.95-.1l1.48 1.06c.49.34.98.69 1.46 1.05 1.12.84.85.47.95.99.09.45.48.83.98.87.48.04.66-.16.91-.35l4.63 1.25c.11.68.78 1.1 1.43.97.28-.06.35-.17.55-.25l1.98.9c-.06.85.37 1.35 1.2 1.35l1.57 4.02c-.21.34-.53.67-.18 1.23.53.84 1.95.32 1.66-.75-.06-.23-.2-.4-.35-.49-.26-.18-.34-.11-.59-.21l-1.57-4.04c.49-.4.53-.87.23-1.53l1.29-1.66c.14-.18.3-.4.45-.54.31.79.76 1.58 1.07 2.39-.19.34-.48.51-.36 1.11.09.44.36.63.69.8l.28 3.83-.1.06c-.03.02-.05.02-.08.04-.44.23-.67.65-.59 1.16.18 1.23 2.02 1.24 2.18-.04.1-.82-.49-1.03-.81-1.22l-.28-3.76.22-.1c.08-.03.11-.06.17-.09.41-.25.5-.62.48-1.1.19-.12 4.59-1.77 4.82-1.81.14.25.54.4.93.36.71-.07 1.15-.83.86-1.54-.18-.44-.46-.46-.67-.62l.14-4.17c.09-.07.25-.1.37-.19.63-.46.64-1.31.02-1.79-.25-.2-.49-.22-.87-.2l-1.24-2.46c.09-.14.14-.13.24-.31.38-.7-.08-1.57-.86-1.63-.44-.03-.56.12-.83.25l-3.97-3.05zm3.56 3.48c.01.01.02.01.02.02.09.09.06.06.02.38-.39.14-.9.25-1.31.36-1.29.36-.47.11-1.41.16l-1.06-2.32c-.37-.75-.69-1.55-1.05-2.28l4.79 3.67z" fill="#59656c"/><path fill="none" d="M0 0h39.92v39.92H0z"/></svg>