<svg xmlns="http://www.w3.org/2000/svg" width="60mm" height="60mm" viewBox="0 0 13.29 13.29" shape-rendering="geometricPrecision" text-rendering="geometricPrecision" image-rendering="optimizeQuality" fill-rule="evenodd" clip-rule="evenodd"><path d="M10.02 10.58c-.06-.03-.96-.01-1.16-.01-.06 0-.14.02-.14-.03V8.28c.14 0 .64.23.78.32.32.19.43.23.49.62.06.41.06.95.02 1.37zm-6.77-.51v-.18l.03-.53c.03-.26.03-.42.19-.56.2-.18.48-.29.72-.4.05-.02.23-.09.29-.09v2.26H3.25c0-.18-.01-.32-.01-.5zm5.26-.82v1.32H4.7v-1.5h3.78c.06 0 .02.07.02.18zm-.01-.39H4.71v-.65l.21-.11c.04-.02.07-.03.1-.05.11-.06.5-.23.6-.23.06 0 .18.08.24.11.07.04.15.08.23.12.48.23.91.17 1.34-.12.05-.04.15-.1.22-.1.17 0 .75.26.87.34 0 .07-.01.1-.01.17l-.01.53zm1.18 1.93c.12 0 .22.01.33.01.11 0 .21-.03.22-.12.01-.06.01-.55.01-.65 0-1.11.02-1.34-.93-1.77-.27-.12-.55-.24-.83-.35-.07-.03-.13-.06-.2-.09s-.13-.06-.2-.09c-.12-.06-.3-.14-.47-.14-.23 0-.61.69-1.49.24-.27-.14-.32-.26-.47-.26-.17 0-.91.36-1.16.48l-.57.25c-.45.19-.75.33-.82.83-.04.25-.04.5-.04.79 0 .2-.03.67.01.79.04.14.4.07.51.07 2.03.01 4.07 0 6.1 0zM7.57 6.96c-.33.22-.59.29-1.02.29-.27 0-.56-.11-.73-.21-.42-.25-.64-.58-.8-1.05-.04-.12-.07-.24-.09-.37l-.04-.42h3.5c0 .74-.25 1.25-.7 1.66-.04.03-.09.07-.14.1zM5.66 2.97c0-.04.1-.09.14-.11.24-.12.48-.14.75-.14L6.54 3.8c0 .11.01.2.01.3 0 .05.01.27.05.27l.13-.01c.01-.06.02-.09.02-.17.02-.46.01-1.01.01-1.48.29 0 .44.04.69.13.05.02.12.04.17.07 0 .09.01.15.01.25l-.01.25c-.01.35.03.38.03.48.11 0 .2.01.2-.21s-.02-.41-.02-.59c.04.02.08.03.13.05.22.13.36.37.46.6.09.18.17.45.23.65.03.1.04.19.06.29.03.14.18.05.18.17 0 .08-.01.09-.01.15-.76 0-1.48-.01-2.23-.01H4.41c-.02-.2-.04-.17.1-.22.06-.02.07-.03.08-.09.08-.4.23-.94.48-1.27.08-.11.25-.3.39-.31 0 .08-.01.11-.01.19v.29c0 .15.03.22.03.32.08 0 .14.01.17-.04.02-.04.02-.11.02-.18l-.01-.7zm-.97 2.24c0 .38.05.62.16.92.06.15.17.36.27.49.19.25.38.44.66.6.52.29 1.24.3 1.75-.01.55-.33.96-.92 1.03-1.56.01-.12.04-.36.08-.45.15 0 .36.06.43-.11.06-.14.07-.4-.08-.51-.09-.07-.1-.09-.13-.22-.09-.36-.19-.67-.39-.97-.23-.34-.55-.61-.96-.74-.76-.25-1.6-.2-2.22.27-.39.29-.7.84-.81 1.31-.03.12-.05.3-.16.37-.06.04-.06.02-.09.09-.05.12-.05.31.02.43.06.1.29.09.45.09z" fill="#59656c"/><path fill="none" d="M0 0h13.29v13.29H0z"/></svg>