<svg xmlns="http://www.w3.org/2000/svg" width="123.732" height="161.519" viewBox="0 0 6.97 9.1" shape-rendering="geometricPrecision" text-rendering="geometricPrecision" image-rendering="optimizeQuality" fill-rule="evenodd" clip-rule="evenodd"><path d="M1.63 5.62c0 .05.04.1.09.14.03.02.07.04.1.04.03.01.07 0 .1-.01.06-.02.11-.08.14-.18l.3-1.22.03-.11c.03-.11.04-.18.12-.18.12-.01.12.08.12.27v.05c-.01.67-.04 1.35-.08 2.02-.04.75-.08 1.5-.08 2.25 0 .04.02.08.05.12.03.04.07.07.11.08.04.02.09.02.14.01a.31.31 0 00.16-.11c.06-.08.25-1.44.36-2.3.04-.26.07-.48.08-.59l.1-.67.59 3.59c.05.05.1.08.16.09.03 0 .06 0 .09-.01s.06-.02.09-.04c.06-.04.1-.11.11-.2l-.18-4.19a.452.452 0 010-.17c.01-.07.05-.1.12-.1.04 0 .08.03.1.07.02.03.03.09.05.17l.39 1.34c.05.03.09.04.13.04.03 0 .06-.01.09-.02s.05-.04.07-.06c.03-.04.05-.09.05-.13 0-.07-.06-.46-.13-.94-.11-.75-.27-1.67-.3-1.83a.95.95 0 00-.07-.22.427.427 0 00-.13-.14c-.07-.05-.18-.12-.3-.17-.12-.05-.25-.1-.36-.13l-.02.02c-.15.12-.36.17-.57.17-.21 0-.42-.07-.54-.18l-.01-.01c-.1.03-.19.06-.28.11-.12.05-.23.11-.33.17-.21.12-.23.29-.29.66-.01.07-.02.16-.04.26l-.01.07c-.07.4-.33 2.02-.33 2.19zm-.03.32a.382.382 0 01-.18-.32c0-.18.27-1.82.34-2.22l.01-.07c.01-.09.03-.18.04-.26.07-.45.1-.65.39-.82.11-.06.22-.12.34-.18.12-.06.25-.1.38-.13l.06-.02.04.05.03.03c.09.08.25.12.41.13.16 0 .33-.03.43-.12.02-.01.03-.03.04-.04l.04-.05.06.01c.12.03.29.09.45.16.14.06.27.13.35.2.08.07.14.13.18.21.04.08.07.16.09.28.03.17.18 1.1.3 1.84.07.48.13.89.13.97a.473.473 0 01-.24.39c-.06.03-.12.05-.19.05a.46.46 0 01-.29-.11l-.03-.02-.24-.81.15 3.57v.01c-.02.15-.09.27-.19.35-.05.04-.1.06-.16.08-.06.02-.12.02-.17.01a.422.422 0 01-.32-.19l-.02-.02-.37-2.28c-.12.88-.3 2.17-.4 2.29-.08.1-.18.16-.27.19-.09.03-.19.02-.27-.01a.426.426 0 01-.2-.15.384.384 0 01-.09-.25c0-.74.04-1.5.08-2.26.02-.43.05-.86.06-1.28l-.13.53v.01c-.05.18-.16.28-.27.32a.38.38 0 01-.21.02.455.455 0 01-.19-.08zm.92-1.63h.02c.03-.01.03-.01-.01-.01h-.01zm0 0h.02-.02zM2.78.9c0 .1.02.2.05.28a.694.694 0 00.66.45c.09 0 .18-.02.26-.05.08-.03.16-.07.23-.13a.74.74 0 00.17-.83.73.73 0 00-.26-.29.704.704 0 00-.38-.11c-.1 0-.21.02-.31.07-.02.01-.06.03-.1.06-.04.03-.08.06-.09.07-.05.05-.11.13-.15.23-.03.08-.06.17-.06.24zm-.15.35c-.04-.11-.07-.23-.07-.35a.8.8 0 01.08-.33c.05-.12.13-.23.19-.3.03-.03.07-.06.12-.1.05-.03.1-.07.13-.08.14-.06.27-.09.4-.09.18 0 .36.06.5.15s.26.23.33.38c.05.11.08.24.08.37 0 .32-.12.55-.3.71a.96.96 0 01-.63.24c-.25 0-.5-.09-.67-.28-.07-.08-.14-.19-.19-.31zM.43 3.08c.12 0 .22.05.3.13.08.08.13.18.13.3v5.17c0 .12-.05.22-.13.3-.08.08-.18.13-.3.13s-.22-.05-.3-.13a.416.416 0 01-.13-.3V3.51c0-.12.05-.22.13-.3.08-.08.18-.13.3-.13zm0 .21a.204.204 0 00-.21.21v5.17a.204.204 0 00.21.21.204.204 0 00.21-.21V3.5a.204.204 0 00-.21-.21zm6.12-.21c.12 0 .22.05.3.13.08.08.13.18.13.3v5.17c0 .12-.05.22-.13.3-.08.08-.18.13-.3.13s-.22-.05-.3-.13a.416.416 0 01-.13-.3V3.51c0-.12.05-.22.13-.3.08-.08.18-.13.3-.13zm0 .21a.204.204 0 00-.21.21v5.17a.204.204 0 00.21.21.204.204 0 00.21-.21V3.5a.204.204 0 00-.21-.21z" fill="#59656c" fill-rule="nonzero"/></svg>