<svg xmlns="http://www.w3.org/2000/svg" width="147.193" height="130.864" viewBox="0 0 5.98 5.31" shape-rendering="geometricPrecision" text-rendering="geometricPrecision" image-rendering="optimizeQuality" fill-rule="evenodd" clip-rule="evenodd"><defs><style>.fil0{fill:#59656c;fill-rule:nonzero}</style></defs><g id="Слой_x0020_1"><g id="_1744159712"><path class="fil0" d="M4.17 2.15v1.51c0 .35.13.55.31.63.32.15.74-.08.74-.45V1.16c0-.13-.04-.24-.11-.33-.15-.21-.43-.32-.69-.32-.12 0-.2.01-.28.07-.07.05-.11.16-.13.29-.03.18-.15.16-.15.01V.64C3.85.32 3.63.15 3.31.15c-.13 0-.26.04-.36.11-.08.06-.15.15-.17.24-.01.04-.02.07-.02.1-.02.22-.06.3-.13.29-.07 0-.09-.07-.12-.15C2.5.7 2.48.66 2.47.64a.307.307 0 00-.16-.13c-.27-.11-.65 0-.82.23-.13.17-.18.4-.18.61 0 .15 0 .22-.08.22-.06 0-.07-.04-.09-.11-.01-.03-.02-.08-.04-.14a.376.376 0 00-.24-.25c-.37-.12-.69.23-.69.6 0 .64-.03 1.35 0 1.98.01.18.03.67.53.67h.03c.15 0 .3-.05.4-.12.1-.06.16-.15.16-.23l.01-1.54c0-.21.18-.21.18-.01l-.02 1.57c.05.16.19.26.36.31.2.06.44.04.61-.08.13-.09.22-.23.22-.43V2.53c0-.09.01-.15.02-.18.03-.08.13-.09.16 0 .01.03.02.08.02.16v1.32c0 .16.07.29.18.38.28.22.68.13.82-.22.04-.1.07-.23.09-.36.02-.14.04-.29.04-.43V2.17c0-.09.01-.15.02-.18.03-.08.13-.09.16 0 .01.03.02.08.02.16zm.24 2.28c-.18-.08-.32-.26-.37-.54-.02.06-.03.11-.05.16a.67.67 0 01-1.24.04c-.05.11-.13.2-.24.27-.21.14-.5.16-.74.1a.756.756 0 01-.4-.27c-.04.06-.09.11-.16.16a.94.94 0 01-.48.15H.7c-.64 0-.67-.6-.68-.82-.03-.64 0-1.34 0-1.99 0-.47.41-.9.89-.75.11.03.2.1.27.2.03-.17.09-.34.19-.48a.78.78 0 01.57-.32c.25-.03.51 0 .66.23.02.04.02-.06.04-.11.04-.13.12-.24.23-.32.13-.1.29-.14.45-.14.3 0 .64.17.69.5l.03-.03c.1-.07.24-.11.39-.11.3 0 .63.14.81.39.08.12.14.26.14.42v2.68c0 .48-.54.78-.95.58z"/><path class="fil0" d="M5.36 1.89c.04.12.11.29.2.47.13.28.28.6.34.88.26 1.21-.23 1.58-.99 1.74-.27.06-.57.08-.89.11-.36.03-.75.07-1.11.15H2.9c-.13.03-.22.05-.3.05-.24 0-.29-.15-.29-.7 0-.03.01-.14.01-.23 0-.06.02-.07.01-.09l.14-.07c.01.02.01.08 0 .16-.01.09-.01.2-.01.22 0 .43.03.55.14.55.06 0 .15-.02.27-.05h.01c.37-.09.76-.12 1.13-.16.31-.03.61-.06.87-.11.67-.14 1.1-.48.87-1.56-.06-.27-.2-.58-.33-.85-.09-.19-.17-.36-.21-.49l.15-.04z"/></g></g></svg>