<svg xmlns="http://www.w3.org/2000/svg" width="60mm" height="60mm" viewBox="0 0 14.17 14.17" shape-rendering="geometricPrecision" text-rendering="geometricPrecision" image-rendering="optimizeQuality" fill-rule="evenodd" clip-rule="evenodd"><defs><style>.str0{stroke:#59656c;stroke-width:.24;stroke-miterlimit:22.9256}.fil1{fill:none}</style></defs><g id="Слой_x0020_1"><g id="_4698919568"><path class="str0" d="M8.78 6.31v2.33c0 1.65 1.84 1.34 1.84.28V4.8c0-.97-1.34-1.36-1.86-.98-.15.11-.15.25-.17.35-.07.27-.03.19-.05-.18-.01-.18-.01-.32-.15-.51-.34-.46-1.27-.52-1.65.06a.78.78 0 00-.13.4c-.05.67-.13.16-.23 0-.12-.19-.36-.37-.91-.3-.8.1-1.1.82-1.09 1.46 0 .38 0 .19-.1-.08-.28-.85-1.66-.56-1.65.58l-.01 2.97c.02.17-.05 1.23.94 1.23.54 0 1.03-.31 1.02-.67l-.05-1.55c.06-.41.05-.77.05-.3l.01 1.89c.25.89 2.09.87 2.09-.32V6.91c0-.33.07-.34.07-.03v2.03c0 .93 1.38 1.27 1.76.28.13-.34.21-.84.21-1.27V6.33c0-.33.07-.33.07-.03z" fill="#fff"/><path class="fil1 str0" d="M10.62 5.95c.14.48.68 1.37.83 2.08.67 3.18-2.15 2.41-4.5 2.96-.67.15-.78.18-.78-.88 0-.06.03-.53.03-.54"/></g><path class="fil1" d="M0 0h14.17v14.17H0z"/></g></svg>