<svg xmlns="http://www.w3.org/2000/svg" width="60mm" height="60mm" viewBox="0 0 21.42 21.42" shape-rendering="geometricPrecision" text-rendering="geometricPrecision" image-rendering="optimizeQuality" fill-rule="evenodd" clip-rule="evenodd"><path d="M18.52 9.96c.05-.08.1-.15.16-.25.34-.6.57-1.86.46-2.51-.14-.84-1.1-1.53-2.05-1.06-.87.43-.91 1.39-.67 2.51.07.33.28 1.08.47 1.24.15.13.53.07.75.07h.88z" fill="#fefefe"/><path d="M18.52 9.96h-.88c-.22 0-.6.06-.75-.07-.19-.16-.39-.91-.47-1.24-.25-1.11-.2-2.08.67-2.51.95-.47 1.91.21 2.05 1.06.11.64-.12 1.9-.46 2.51-.06.1-.11.17-.16.25zm-.99 5.45c-.25.02-.88-.02-.99.04-.08.05-.13.15-.08.26.07.16.4.11.59.1h1.4c.2 0 .52.05.58-.12.04-.09 0-.19-.08-.24-.11-.07-.86-.04-1.01-.04-.01-.61-.06-4.82.04-5.05.51 0 .77.05.99-.34.45-.78.8-2.48.47-3.29-.58-1.4-2.58-1.54-3.3-.19-.46.86-.15 2.45.27 3.29.27.56.44.53.99.52.08 0 .09-.01.12.04.03.06.03.89.03.99.01 1.28.03 2.78-.01 4.02z" fill="#59656c"/><path d="M3.43 8.98c-.13-.24-.25-.36-.61-.36-.25.01-.59.04-.75.18-.17.15-.2.49-.02.66.09.09.48.26.65.3-.06.08-.08.07-.17.17-.77.83-.77 1.6-.5 2.77.09.4.24.63.24 1.05-.01.95-.12 1.53 1.06 1.53.36 0 .93.07 1.21-.12.43-.29.31-.71.37-.92.43-.03 1.15.02 1.61.04h3.29c.46-.02 1.18-.07 1.61-.04.05.23-.05.65.39.94.27.18 1.58.14 1.82.04.56-.25.44-.94.44-1.46 0-.43.15-.66.25-1.08.51-2.23-.45-2.55-.68-2.91.18-.04.57-.21.66-.31.17-.19.14-.51-.06-.66-.15-.11-.55-.17-.77-.17-.35 0-.45.13-.58.36-.19-.3-.38-.87-.55-1.24-.18-.39-.51-.79-.86-.95-.99-.46-5.78-.44-6.61 0-.94.5-.93 1.38-1.42 2.19zm9.85 2.82c.08-.28.02-.56-.14-.73-.35-.36-1.96.29-2.09.44-.15.19-.07.57.07.71.18.18.52.13.82.13.67 0 1.16.11 1.34-.55zm-10.27-.07c.18.7.55.62 1.25.62.26 0 .67.06.87-.09.16-.12.29-.44.16-.69-.14-.28-1.75-.79-2.07-.55-.17.12-.29.42-.21.71zm1.17-2.22c.72-.02 1.45-.09 2.18-.11 1.25-.04 2.35 0 3.59.01.73.01 1.45.08 2.18.1-.23-.81-.53-1.57-1.27-1.97-.71-.39-4.65-.4-5.41 0-.73.38-1.03 1.2-1.27 1.98z" fill="#fff" stroke="#59656c" stroke-width=".36" stroke-miterlimit="22.926"/><path fill="none" d="M0 0h21.42v21.42H0z"/></svg>