<svg xmlns="http://www.w3.org/2000/svg" width="189.371" height="108.178" viewBox="0 0 14.94 8.54" shape-rendering="geometricPrecision" text-rendering="geometricPrecision" image-rendering="optimizeQuality" fill-rule="evenodd" clip-rule="evenodd"><path d="M14.07 3.64c.04-.07.09-.12.14-.21.29-.5.48-1.56.39-2.09-.12-.7-.92-1.28-1.71-.88-.72.36-.76 1.16-.56 2.09.06.27.23.9.39 1.03.12.11.44.06.62.06h.73z" fill="#fefefe"/><path d="M14.07 3.64h-.73c-.18 0-.5.05-.62-.06-.16-.13-.33-.76-.39-1.03-.21-.93-.17-1.73.56-2.09.8-.4 1.6.18 1.71.88.09.54-.1 1.59-.39 2.09-.05.08-.1.14-.14.21zm-.83 4.55c-.2.02-.74-.02-.83.04-.07.04-.11.13-.07.21.06.13.34.09.49.09H14c.17 0 .43.04.49-.1.03-.08 0-.16-.06-.2-.09-.06-.72-.03-.85-.03-.01-.51-.05-4.03.03-4.22.43 0 .64.04.83-.28.38-.65.67-2.07.39-2.75-.48-1.17-2.16-1.29-2.75-.16-.38.72-.12 2.04.22 2.75.23.47.37.44.83.44.06 0 .08-.01.1.03.02.05.02.74.02.83.01 1.07.02 2.32-.01 3.36z" fill="#59656c"/><path d="M1.47 2.82c-.11-.2-.21-.3-.51-.3-.21 0-.49.03-.63.15-.14.13-.17.41-.02.55.08.07.4.22.54.25-.05.07-.06.06-.14.14C.06 4.3.06 4.95.29 5.92c.08.33.2.53.2.88-.01.79-.1 1.28.89 1.28.3 0 .78.06 1.01-.1.36-.24.26-.59.31-.77.36-.02.96.02 1.34.04h2.75c.38-.02.98-.06 1.34-.04.05.19-.04.54.32.78.23.15 1.32.12 1.52.03.47-.21.37-.79.37-1.22 0-.36.13-.55.21-.9.42-1.87-.38-2.13-.57-2.43.15-.03.48-.17.55-.26.14-.16.12-.43-.05-.55-.13-.09-.46-.14-.64-.14-.29 0-.38.11-.48.3-.16-.25-.32-.73-.46-1.04-.15-.33-.43-.66-.72-.79-.82-.38-4.83-.37-5.52 0-.79.42-.78 1.16-1.18 1.83zM9.7 5.18c.06-.24.02-.47-.12-.61-.29-.3-1.64.24-1.74.37-.13.16-.05.47.06.59.15.15.44.11.69.11.56 0 .97.09 1.12-.46zm-8.58-.06c.15.58.46.52 1.05.52.22 0 .56.05.72-.08.13-.1.24-.37.13-.57-.12-.23-1.46-.66-1.73-.46-.14.1-.24.35-.18.59zm.98-1.86c.6-.01 1.21-.08 1.82-.09 1.04-.03 1.96 0 3 .01.61 0 1.21.07 1.82.09-.19-.67-.44-1.31-1.06-1.65-.59-.33-3.89-.33-4.52 0-.61.32-.86 1-1.06 1.65z" fill="#fff"/><path d="M1.34 2.9a.703.703 0 00-.14-.18.451.451 0 00-.24-.05c-.1 0-.21.01-.32.03-.09.02-.17.05-.22.09l-.01.01c-.04.04-.06.1-.06.16s.01.12.05.16l.01.01c.02.02.1.06.19.1.1.05.22.09.28.11l.22.05-.13.18c-.04.06-.06.07-.09.1-.02.01-.03.03-.06.06-.3.32-.45.63-.5.97-.05.35.01.74.12 1.21.02.11.06.2.09.29.06.19.12.36.12.62v.4c0 .46.07.72.75.72h.2c.26.01.58.02.72-.08.21-.14.22-.35.23-.5 0-.07.01-.13.02-.18l.03-.11.11-.01c.28-.02.71 0 1.06.02.11.01.21.01.29.01h2.75c.07 0 .15-.01.24-.01.36-.02.81-.04 1.11-.02l.11.01.03.11c.01.06.02.12.02.19.01.16.02.36.24.5.08.05.32.07.59.08.34.01.69-.02.79-.06.31-.14.3-.54.28-.89v-.19c0-.26.06-.43.12-.62.03-.1.07-.2.09-.31.33-1.45-.11-1.87-.37-2.12-.07-.07-.13-.13-.17-.19l-.12-.18.21-.05c.07-.02.19-.06.3-.11.08-.04.16-.08.18-.1.01-.01.01-.01.01-.02.03-.05.05-.1.04-.16 0-.06-.03-.11-.07-.14l-.01-.01a.568.568 0 00-.2-.07c-.13-.03-.26-.04-.35-.04-.11 0-.18.02-.22.05a.4.4 0 00-.13.17l-.12.22-.13-.21c-.11-.18-.22-.45-.33-.71-.05-.12-.1-.25-.14-.34-.07-.15-.17-.31-.29-.44-.11-.12-.23-.22-.36-.28C7.77.97 6.61.88 5.44.88c-1.18 0-2.34.09-2.67.27-.48.26-.64.66-.81 1.09-.09.22-.18.45-.32.68l-.13.22-.13-.22zm.03-.42c.03.02.06.04.08.07.07-.14.13-.29.18-.43.19-.48.37-.94.95-1.25.37-.2 1.59-.3 2.81-.3 1.2 0 2.41.1 2.84.29.16.07.32.2.45.35.14.15.26.34.34.52.05.11.1.23.15.35.06.16.13.32.19.46.02-.02.04-.04.07-.06.1-.07.22-.1.39-.11.11 0 .27.01.42.05.12.03.24.07.32.12.01.01.02.02.04.03.1.09.15.21.16.34.01.13-.02.26-.1.36-.01.01-.02.03-.03.04-.05.06-.16.12-.27.17-.04.02-.09.04-.13.06.31.3.81.8.45 2.4-.03.13-.07.24-.1.34-.06.17-.11.32-.1.53V7c.02.45.03.95-.46 1.17-.13.06-.54.09-.91.08-.31-.01-.62-.04-.75-.13-.34-.22-.36-.51-.37-.74v-.03c-.28-.01-.64.01-.95.03-.09 0-.17.01-.25.01H4.02c-.1 0-.19-.01-.3-.01-.3-.02-.64-.03-.91-.03v.02c-.01.22-.02.5-.35.73-.23.15-.6.14-.9.13h-.19C.43 8.23.33 7.85.33 7.21V6.8c0-.2-.05-.35-.1-.52-.03-.1-.07-.2-.09-.32-.12-.5-.18-.92-.12-1.32.06-.39.22-.75.56-1.11-.03-.01-.07-.03-.1-.04-.11-.05-.22-.11-.27-.16L.18 3.3a.503.503 0 01-.12-.37c.01-.13.06-.26.14-.35l.03-.03c.09-.08.22-.13.36-.16.12-.02.26-.03.37-.04.18 0 .31.03.41.1zm8.19 2.67c.03-.1.03-.19.01-.27-.02-.08-.05-.15-.1-.19h-.01c-.11-.09-.46-.03-.79.07-.35.1-.66.24-.73.3-.03.04-.04.1-.03.17.01.09.04.18.08.22.08.08.26.07.44.07h.35c.38.01.67.01.76-.35zm.31-.33c.03.13.02.27-.02.41-.16.59-.54.59-1.06.57h-.34c-.24.01-.5.01-.66-.16a.667.667 0 01-.16-.4c-.01-.14.01-.28.1-.39l.02-.02c.08-.08.46-.26.85-.37.41-.12.85-.18 1.06-.01l.03.03c.09.09.15.21.18.34zm-8.6.27c.11.41.33.41.74.41h.31c.18.01.39.02.48-.05.05-.03.09-.11.11-.19.02-.07.01-.14-.01-.2-.07-.09-.38-.22-.72-.32-.33-.1-.67-.15-.79-.09-.05.04-.09.1-.12.18-.02.08-.03.16 0 .25zm.75.7c-.56.01-.87.01-1.03-.63a.746.746 0 01.23-.75c.01-.01.03-.02.05-.03.19-.1.61-.04 1.01.07.39.11.77.29.87.43.01.01.02.03.02.04.07.13.07.27.04.4-.03.15-.12.28-.22.36-.17.13-.44.12-.67.11h-.3zm.29-2.68c.24-.01.48-.02.72-.04.29-.02.59-.04.9-.05.76-.02 1.46-.01 2.18 0 .27 0 .54.01.82.01.35 0 .69.02 1.03.04l.59.03c-.08-.26-.17-.5-.3-.72-.15-.26-.35-.49-.63-.64-.27-.15-1.22-.23-2.18-.23-.96 0-1.91.08-2.2.23-.28.14-.47.37-.62.64-.12.22-.22.47-.3.72zm.74.26c-.31.02-.62.04-.94.05H1.9l.06-.2c.1-.33.22-.68.39-.98.18-.32.41-.59.75-.76.34-.18 1.34-.26 2.34-.26 1 0 2.01.09 2.32.26.33.19.57.45.74.76.17.3.29.64.38.98l.06.2-.2-.01c-.27-.01-.54-.02-.8-.04-.34-.02-.68-.04-1.01-.04-.28 0-.56-.01-.82-.01-.72-.01-1.41-.02-2.17 0-.29.01-.59.03-.89.05z" fill="#59656c" fill-rule="nonzero"/></svg>