<svg xmlns="http://www.w3.org/2000/svg" width="139.46" height="152.157" viewBox="0 0 7.47 8.15" shape-rendering="geometricPrecision" text-rendering="geometricPrecision" image-rendering="optimizeQuality" fill-rule="evenodd" clip-rule="evenodd"><defs><style>.fil2{fill:#59656c;fill-rule:nonzero}</style></defs><g id="Слой_x0020_1"><g id="_1842343264"><path d="M.89 2.6L3.74.47 6.59 2.6v5.08H.9V2.6zm-.8.15c0 .15.06.21.21.21.09 0 .15-.08.21-.11v4.48c0 .17-.02.39.03.52.05.12.17.22.33.22H6.6c.43 0 .36-.5.36-.72v-4.5c.1.07.11.11.25.11.12 0 .17-.09.17-.21s-.1-.15-.17-.21L4.16.25C4.01.14 3.93.09 3.68.09c-.09 0-.24.07-.39.18L.17 2.61c-.04.03-.07.06-.07.14z" fill="#59656c"/><path d="M.83 2.52L3.73.35l2.94 2.19v5.22H.79V2.54l.04-.03zM3.73.58L.97 2.64v4.95h5.51V2.64L3.72.58zM.18 2.74c0 .05.01.08.02.1.02.02.05.02.1.02.03 0 .07-.03.11-.06.02-.01.03-.03.05-.04l.14-.09v4.78c0 .13-.01.28.03.36.02.05.06.09.1.12.04.03.09.04.14.04H6.6c.24 0 .27-.24.27-.44V2.67l.14.09c.03.02.05.04.07.05.03.03.05.04.12.04.03 0 .04-.01.06-.02.02-.02.02-.06.02-.1 0-.04-.04-.07-.08-.09-.02-.01-.04-.03-.06-.04L4.09.31C4.02.26 3.97.22 3.91.2a.738.738 0 00-.24-.03c-.03 0-.08.01-.14.04-.06.03-.13.07-.2.12L.21 2.67c-.01.01-.03.02-.03.03 0 .01-.01.02-.01.04zm-.11.22a.311.311 0 01-.08-.22c0-.05.01-.09.03-.13a.5.5 0 01.07-.08L3.22.19c.08-.06.16-.11.23-.14.08-.04.15-.06.21-.06.13 0 .23.01.31.04.08.03.14.07.23.14l3.05 2.29c.01.01.03.02.05.03.08.05.16.1.16.25 0 .08-.02.16-.07.21-.04.05-.11.09-.2.09a.35.35 0 01-.16-.03v4.51c0 .28-.05.62-.46.62H.84c-.09 0-.18-.03-.25-.08a.47.47 0 01-.17-.2c-.05-.12-.05-.28-.04-.44V3c-.03.02-.07.03-.12.03-.1 0-.17-.02-.22-.08z" fill="#fff" fill-rule="nonzero"/><path class="fil2" d="M3.74 5.31c.19 0 .36.08.49.2.13.13.2.3.2.49s-.08.36-.2.49c-.13.13-.3.2-.49.2s-.36-.08-.49-.2a.68.68 0 01-.2-.49c0-.19.08-.36.2-.49.13-.13.3-.2.49-.2zm.35.35a.483.483 0 00-.35-.14c-.14 0-.26.05-.35.14-.09.09-.14.21-.14.35 0 .14.05.26.14.35.09.09.21.14.35.14.14 0 .26-.05.35-.14.09-.09.14-.21.14-.35 0-.14-.05-.26-.14-.35z"/><path class="fil2" d="M2.38 5.6c.09-.31.28-.58.53-.77.25-.19.55-.3.89-.3.29 0 .56.08.78.22.23.15.42.36.54.61l-.18.09c-.1-.22-.27-.4-.47-.53-.2-.12-.43-.19-.67-.19-.29 0-.55.09-.76.25-.22.16-.38.4-.46.66l-.19-.06z"/><path class="fil2" d="M1.8 4.99a2.247 2.247 0 012-1.23c.39 0 .75.1 1.07.27.33.18.61.44.81.75l-.17.11a2.044 2.044 0 00-1.71-.94c-.39 0-.75.11-1.06.3-.32.2-.58.48-.75.81l-.18-.09z"/><path class="fil2" d="M1.2 4.38c.28-.44.66-.8 1.11-1.06a3.072 3.072 0 012.86-.05c.43.22.8.54 1.09.92l-.16.12a2.8 2.8 0 00-1.01-.86 2.822 2.822 0 00-2.67.05c-.42.24-.78.58-1.04.99l-.17-.11z"/></g></g></svg>