<svg xmlns="http://www.w3.org/2000/svg" width="60mm" height="60mm" viewBox="0 0 19.73 19.73" shape-rendering="geometricPrecision" text-rendering="geometricPrecision" image-rendering="optimizeQuality" fill-rule="evenodd" clip-rule="evenodd"><defs><style>.str1{stroke:#59656c;stroke-width:.33;stroke-miterlimit:22.9256}.fil1{fill:none}</style></defs><g id="Слой_x0020_1"><g id="_1838758624"><path d="M5.24 7.46l4.62-3.45 4.62 3.45v8.26H5.23V7.46zm-1.29.25c0 .24.1.34.34.34.14 0 .25-.12.34-.18v7.27c0 .28-.04.63.05.84.08.19.28.36.53.36h9.31c.69 0 .59-.81.59-1.17v-7.3c.16.11.17.18.4.18.2 0 .28-.15.28-.34 0-.2-.16-.24-.28-.33l-4.95-3.72c-.25-.19-.38-.26-.78-.26-.15 0-.4.12-.63.29l-5.07 3.8c-.07.06-.12.11-.12.22z" fill="#59656c" stroke="#fff" stroke-width=".3" stroke-miterlimit="22.926"/><circle class="fil1 str1" cx="9.86" cy="13" r=".96"/><path class="fil1 str1" d="M7.82 12.38a2.228 2.228 0 014.15-.35m-5.1-.6c.57-1.13 1.74-1.9 3.09-1.9 1.22 0 2.3.63 2.92 1.59"/><path class="fil1 str1" d="M5.89 10.45a4.807 4.807 0 014.07-2.26c1.59 0 3 .77 3.87 1.97"/></g><path class="fil1" d="M0 0h19.73v19.73H0z"/></g></svg>