<svg xmlns="http://www.w3.org/2000/svg" width="60mm" height="60mm" viewBox="0 0 14.99 14.99" shape-rendering="geometricPrecision" text-rendering="geometricPrecision" image-rendering="optimizeQuality" fill-rule="evenodd" clip-rule="evenodd"><defs><style>.fil0{fill:none}.fil1{fill:#59656c}</style></defs><g id="Слой_x0020_1"><g id="_4701192976"><rect class="fil0" x="3.49" y="3.49" width="8.01" height="8.01" rx=".8" ry=".8" stroke="#59656c" stroke-width=".25" stroke-miterlimit="22.926"/><path class="fil1" d="M9.2 9.61V7.58c0-.18-.06-.33-.26-.33H6.07c-.07 0-.12.02-.17.06-.03.03-.09.09-.09.14V9.7c0 .11.11.21.22.21h2.94c.07 0 .14-.04.17-.09a.36.36 0 00.06-.22zM8.71 6.2c0-.16-.06-.34-.12-.45-.3-.6-.99-.84-1.59-.57-.06.03-.12.06-.18.1-.11.08-.21.17-.29.28-.05.06-.07.11-.11.18-.06.12-.12.3-.12.47V7h2.41v-.81zm.25.04v.77c.28 0 .48.23.48.45v2.23c0 .25-.22.47-.51.47H6.06c-.28 0-.51-.23-.51-.46V7.48c0-.19.11-.35.26-.42.09-.05.11-.05.22-.05v-.75c0-.58.39-1.11.86-1.31.19-.08.37-.13.59-.13.51 0 .95.27 1.19.61.15.22.27.51.27.81z"/><path class="fil1" d="M7.73 8.49c0-.36-.47-.32-.47-.02 0 .09.05.18.12.2 0 .06-.01.14.01.19.03.12.2.12.23 0 .01-.06.01-.13.01-.19.06-.02.12-.1.12-.18zm.25-.02c0 .21-.11.29-.12.33-.01.04 0 .09-.01.14-.11.35-.59.34-.7.01-.04-.11.02-.11-.04-.18-.01-.02-.02-.03-.04-.05-.25-.38.19-.9.64-.68.14.07.27.24.27.44z"/></g><path class="fil0" d="M0 0h14.99v14.99H0z"/></g></svg>