<svg xmlns="http://www.w3.org/2000/svg" width="124.905" height="124.905" viewBox="0 0 4.55 4.55" shape-rendering="geometricPrecision" text-rendering="geometricPrecision" image-rendering="optimizeQuality" fill-rule="evenodd" clip-rule="evenodd"><defs><style>.fil1{fill:#59656c}</style></defs><g id="Слой_x0020_1"><g id="_1942437440"><path d="M.51 0h3.53a.515.515 0 01.51.51v3.53a.515.515 0 01-.51.51H.51A.515.515 0 010 4.04V.51A.515.515 0 01.51 0zm3.53.14H.51c-.1 0-.2.04-.26.11C.18.32.14.41.14.51v3.53c0 .1.04.2.11.26.07.07.16.11.26.11h3.53c.1 0 .2-.04.26-.11.07-.07.11-.16.11-.26V.51c0-.1-.04-.2-.11-.26a.363.363 0 00-.26-.11z" fill="#59656c" fill-rule="nonzero"/><path class="fil1" d="M3.21 3.44V2.32c0-.1-.03-.18-.15-.18H1.48c-.04 0-.07.01-.09.03-.02.02-.05.05-.05.08v1.24c0 .06.06.12.12.12h1.62c.04 0 .08-.02.1-.05.02-.03.03-.07.03-.12zm-.27-1.88c0-.09-.04-.19-.07-.25A.673.673 0 002 .99c-.03.02-.07.04-.1.06-.06.04-.12.1-.16.16-.03.03-.04.06-.06.1-.03.06-.07.17-.07.26v.44h1.33v-.45zm.14.02V2c.15 0 .27.13.27.25v1.23c0 .14-.12.26-.28.26H1.49c-.16 0-.28-.13-.28-.26V2.26c0-.1.06-.19.14-.23C1.4 2 1.41 2 1.47 2v-.41c0-.32.22-.61.47-.72.1-.04.21-.07.33-.07.28 0 .52.15.66.34.09.12.15.28.15.45z"/><path class="fil1" d="M2.41 2.82c0-.2-.26-.18-.26-.01 0 .05.03.1.06.11 0 .03-.01.08 0 .11.02.07.11.07.13 0 .01-.03 0-.07 0-.11.03-.01.06-.06.06-.1zm.14-.01c0 .11-.06.16-.07.18-.01.02 0 .05-.01.08-.06.19-.32.19-.39 0-.02-.06.01-.06-.02-.1-.01-.01-.01-.02-.02-.03-.14-.21.11-.5.35-.38.08.04.15.13.15.24z"/></g></g></svg>