<svg xmlns="http://www.w3.org/2000/svg" width="226.772" height="60mm" viewBox="0 0 23.81 23.81" shape-rendering="geometricPrecision" text-rendering="geometricPrecision" image-rendering="optimizeQuality" fill-rule="evenodd" clip-rule="evenodd"><defs><style>.str0{stroke:#59656c;stroke-width:.4;stroke-miterlimit:22.9256}.fil1{fill:none}</style></defs><g id="Слой_x0020_1"><g id="_852380880"><path d="M4.67 4.85c.1 0 .19.09.19.19v14.28h14.28c.1 0 .19.09.19.19s-.09.19-.19.19H4.61s-.01 0-.01-.01l-.01-.01-.01-.01-.01-.01c0-.01-.01-.01-.01-.02 0 0 0-.01-.01-.01v-.01c0-.01 0-.01-.01-.02V5.09c0-.1.09-.19.19-.19z" fill="#59656c"/><circle class="fil1 str0" cx="7.84" cy="7.99" r="1.83"/><circle class="fil1 str0" cx="11.25" cy="12.19" r="1.83"/><circle class="fil1 str0" cx="7.53" cy="12.19" r=".91"/><circle class="fil1 str0" cx="7.53" cy="16.34" r=".91"/><circle class="fil1 str0" cx="14.97" cy="12.19" r=".91"/><circle class="fil1 str0" cx="14.7" cy="7.81" r=".91"/><circle class="fil1 str0" cx="11.63" cy="7.81" r=".91"/><circle class="fil1 str0" cx="14.97" cy="16.34" r=".91"/><circle class="fil1 str0" cx="17.77" cy="12.19" r=".91"/><circle class="fil1 str0" cx="17.77" cy="7.81" r=".91"/><circle class="fil1 str0" cx="17.77" cy="16.34" r=".91"/></g><path class="fil1" d="M0 0h23.81v23.81H0z"/></g></svg>