<svg xmlns="http://www.w3.org/2000/svg" width="137" height="141.819" viewBox="0 0 6.77 7.01" shape-rendering="geometricPrecision" text-rendering="geometricPrecision" image-rendering="optimizeQuality" fill-rule="evenodd" clip-rule="evenodd"><defs><style>.fil0,.fil1{fill:#59656c}.fil0{fill-rule:nonzero}</style></defs><g id="Слой_x0020_1"><path class="fil0" d="M.99 6.92V.48c0-.13.05-.25.14-.34.08-.09.2-.14.33-.14h3.95c.13 0 .24.05.33.14.08.09.14.21.14.34v6.44h-.19V.48c0-.08-.03-.16-.08-.21a.273.273 0 00-.19-.08H1.47c-.08 0-.14.03-.19.08-.05.05-.08.13-.08.21v6.44h-.19z"/><path class="fil1" d="M4.51 4.84V3.55c0-.11-.04-.21-.17-.21H2.52c-.05 0-.08.01-.1.04-.02.02-.06.06-.06.09V4.9c0 .07.07.13.14.13h1.86c.04 0 .09-.03.11-.06.03-.04.04-.08.04-.14zM4.2 2.68c0-.1-.04-.22-.08-.28a.76.76 0 00-1-.36c-.04.02-.08.04-.11.07-.07.05-.14.11-.19.18-.03.04-.05.07-.07.12-.04.07-.08.19-.08.3v.5H4.2V2.7zm.16.03v.49c.18 0 .31.15.31.29V4.9c0 .16-.14.3-.32.3H2.53c-.18 0-.32-.14-.32-.29V3.5c0-.12.07-.22.17-.27.06-.03.07-.03.14-.03v-.47c0-.37.25-.71.54-.83a.92.92 0 011.13.31c.1.14.17.32.17.51z"/><path class="fil0" d="M4.49 4.84V3.55c0-.06-.01-.11-.04-.14-.02-.03-.06-.05-.11-.05H2.52c-.02 0-.04 0-.05.01-.01.01-.03.01-.04.02l-.04.04c-.01.01-.01.02-.01.03v1.43c0 .03.01.06.04.08.02.02.05.04.08.04h1.86c.02 0 .04-.01.05-.01.02-.01.03-.02.04-.03.01-.02.02-.03.02-.05.01-.02.01-.05.01-.07zm.04-1.29v1.29c0 .03 0 .06-.01.08-.01.02-.02.05-.03.07-.01.02-.03.03-.06.05-.02.01-.04.02-.07.02H2.5a.16.16 0 01-.11-.05.16.16 0 01-.05-.11V3.47c0-.02.01-.04.02-.05.01-.02.03-.04.04-.05.01-.01.03-.02.05-.03.02-.01.04-.01.07-.01h1.82c.06 0 .11.02.14.06.03.04.05.1.05.17zm-.35-.87c0-.04-.01-.09-.02-.13-.01-.06-.04-.11-.05-.14a.78.78 0 00-.42-.38.774.774 0 00-.56.02l-.06.03c-.02.01-.04.02-.05.03a.7.7 0 00-.1.08c-.03.03-.06.06-.08.1-.01.02-.03.04-.04.05l-.03.06c-.02.04-.04.09-.05.15-.01.05-.02.1-.02.14v.48h1.49v-.49zm.02-.14c.01.05.02.1.02.14v.53H2.66v-.52c0-.05.01-.1.02-.15.01-.06.04-.11.06-.15l.03-.06A.902.902 0 013 2.09a.21.21 0 00.06-.04l.06-.03c.19-.09.4-.09.59-.02a.833.833 0 01.5.54zm.18.17v.47c.08 0 .15.04.21.09.06.06.1.14.1.22V4.9a.326.326 0 01-.34.32H2.53c-.09 0-.18-.04-.24-.09a.321.321 0 01-.1-.22V3.5c0-.06.02-.12.05-.17.03-.05.08-.09.13-.12.03-.01.05-.02.07-.03.02 0 .03-.01.06-.01v-.45c0-.18.06-.36.16-.5.1-.15.24-.28.4-.34.06-.02.12-.05.18-.06.06-.02.13-.02.2-.02.16 0 .3.04.43.1.14.07.26.17.34.29.05.07.1.16.13.26.03.08.05.18.05.27zm-.04.49v-.49c0-.09-.02-.17-.04-.26a.968.968 0 00-.45-.53.92.92 0 00-.6-.08c-.06.01-.12.04-.18.06-.15.06-.29.18-.38.33-.09.14-.15.31-.15.48v.49h-.02c-.03 0-.05 0-.07.01-.02 0-.03.01-.06.03-.05.02-.09.06-.11.1-.03.04-.04.09-.04.15V4.9c0 .07.03.14.09.19.05.05.13.08.21.08h1.82c.08 0 .16-.03.21-.08.06-.05.09-.12.09-.2V3.48c0-.07-.03-.14-.09-.19a.28.28 0 00-.2-.08h-.02v-.02z"/><path class="fil1" d="M3.58 4.13c0-.23-.3-.21-.3-.01 0 .06.03.12.07.13 0 .04-.01.09 0 .12.02.08.13.08.15 0 .01-.04 0-.08 0-.12.04-.01.07-.06.07-.11zm.16-.01c0 .13-.07.18-.08.21-.01.03 0 .06-.01.09a.23.23 0 01-.44 0c-.02-.07.01-.07-.02-.12-.01-.01-.01-.02-.02-.03-.16-.24.12-.57.41-.43.09.04.17.15.17.28z"/><path class="fil0" d="M3.56 4.13c0-.07-.03-.12-.08-.13-.02-.01-.04-.01-.05-.01-.02 0-.04 0-.05.01-.04.02-.08.06-.08.12 0 .03.01.05.02.07.01.02.02.03.04.04h.01v.12c0 .02.01.03.03.04.01.01.02.01.03.01.01 0 .02 0 .03-.01.01-.01.02-.02.02-.04a.11.11 0 000-.08v-.04h.01c.01 0 .03-.02.04-.03.01-.02.02-.04.02-.06zm-.06-.17c.06.02.1.08.1.17 0 .03-.01.06-.03.08-.01.02-.03.04-.05.04v.02c0 .03 0 .07-.01.1s-.02.05-.04.06c-.01.01-.03.01-.05.01-.02 0-.03 0-.05-.01a.068.068 0 01-.04-.06c-.01-.03-.01-.06-.01-.1v-.02a.12.12 0 01-.05-.05.292.292 0 01-.02-.09c0-.08.04-.13.1-.16.02-.01.05-.01.07-.01.02 0 .05 0 .07.01zm.26.16c0 .1-.04.16-.07.2-.01.01-.01.02-.01.02v.03c0 .02 0 .04-.01.06-.02.06-.06.11-.1.14a.23.23 0 01-.14.04.23.23 0 01-.14-.04.22.22 0 01-.1-.13c-.01-.03-.01-.05-.01-.07 0-.01 0-.02-.01-.04l-.01-.01-.02-.02a.255.255 0 01-.04-.22c.01-.06.04-.11.08-.16s.09-.08.15-.1c.07-.02.16-.02.24.02a.337.337 0 01.18.29zm-.1.17c.02-.03.06-.08.06-.17a.37.37 0 00-.04-.15.254.254 0 00-.12-.11.263.263 0 00-.21-.02c-.05.02-.1.05-.13.09a.267.267 0 00-.03.33c.01.01.01.02.02.02l.01.01c.02.03.02.05.02.07a.201.201 0 00.1.17c.04.02.08.03.12.03.04 0 .08-.01.12-.03.04-.03.07-.06.09-.12.01-.02 0-.03 0-.05v-.04c0-.01.01-.02.02-.03z"/><rect class="fil1" y="6.82" width="6.77" height=".19" rx=".2" ry=".09"/></g></svg>