<svg xmlns="http://www.w3.org/2000/svg" width="137" height="141.819" viewBox="0 0 6.77 7.01" shape-rendering="geometricPrecision" text-rendering="geometricPrecision" image-rendering="optimizeQuality" fill-rule="evenodd" clip-rule="evenodd"><defs><style>.str1{stroke:#59656c;stroke-width:.04;stroke-miterlimit:22.9256}.fil1{fill:#59656c}</style></defs><g id="Слой_x0020_1"><g id="_4611488832"><path d="M1.09 6.92V.48c0-.21.17-.39.37-.39h3.95c.2 0 .37.17.37.39v6.44" fill="none" stroke="#59656c" stroke-width=".19" stroke-miterlimit="22.926"/><path class="fil1 str1" d="M4.51 4.84V3.55c0-.11-.04-.21-.17-.21H2.52c-.05 0-.08.01-.1.04-.02.02-.06.06-.06.09V4.9c0 .07.07.13.14.13h1.86c.04 0 .09-.03.11-.06.03-.04.04-.08.04-.14zM4.2 2.68c0-.1-.04-.22-.08-.28a.76.76 0 00-1-.36c-.04.02-.08.04-.11.07-.07.05-.14.11-.19.18-.03.04-.05.07-.07.12-.04.07-.08.19-.08.3v.5H4.2V2.7zm.16.03v.49c.18 0 .31.15.31.29V4.9c0 .16-.14.3-.32.3H2.53c-.18 0-.32-.14-.32-.29V3.5c0-.12.07-.22.17-.27.06-.03.07-.03.14-.03v-.47c0-.37.25-.71.54-.83a.92.92 0 011.13.31c.1.14.17.32.17.51z"/><path class="fil1 str1" d="M3.58 4.13c0-.23-.3-.21-.3-.01 0 .06.03.12.07.13 0 .04-.01.09 0 .12.02.08.13.08.15 0 .01-.04 0-.08 0-.12.04-.01.07-.06.07-.11zm.16-.01c0 .13-.07.18-.08.21-.01.03 0 .06-.01.09a.23.23 0 01-.44 0c-.02-.07.01-.07-.02-.12-.01-.01-.01-.02-.02-.03-.16-.24.12-.57.41-.43.09.04.17.15.17.28z"/><rect class="fil1" y="6.82" width="6.77" height=".19" rx=".2" ry=".09"/></g></g></svg>