<svg xmlns="http://www.w3.org/2000/svg" width="227.011" height="47mm" viewBox="0 0 59.92 46.89" shape-rendering="geometricPrecision" text-rendering="geometricPrecision" image-rendering="optimizeQuality" fill-rule="evenodd" clip-rule="evenodd"><defs><style>.str0{stroke:#fff;stroke-width:.4;stroke-miterlimit:22.9256}.fil0{fill:#59656c}</style></defs><g id="Слой_x0020_1"><g id="_1594814496"><path class="fil0 str0" d="M18.36 29.22c.63.86 1.67.32 3.54-.33 1.21-.42 2.41-.92 3.4-1.54 2.43-1.51 2.1 2.34 7.45-1.04.54 1.03.69 1.31 1.43 1.99.39.35 1.72 1.23 2.45 1.06.44-.11.66-.64.43-1.06-.34-.61-1.98-.39-2.83-2.38-.79-1.86 1.05-2.21 1.09-5.42.02-1.99-.84-3.91-1.84-5.01-2.05-2.25-5.82-4.24-10.14-2.45-2.51 1.04-4.31 2.55-6.15 4.25-.31.28-1.79 1.5-.7 2.06.79.4 2.16-1.52 3.86-2.79 1.22-.91 2.58-1.95 4.46-2.43 5.77-1.46 11.62 4.15 7.71 10.05-1.03 1.55-3.02 2.58-4.57 1.77-2.54-1.33-3.3.59-7.53 1.85-1 .3-2.09.28-2.06 1.42z"/><path class="fil0 str0" d="M25.01 9.8c-3.34.54-8.75 3.67-8.22 5.06.3.79 1.14.34 1.68-.2 5.36-5.23 14.51-4.36 17.59 2 .62 1.29.85 2.95.67 4.55-.22 1.84-1.18 3.68-.83 4.17 1.14 1.59 1.94-2.03 2.08-2.66 1.94-9.07-6.57-13.96-12.97-12.93z"/><path class="fil0 str0" d="M16.61 22.86c.95.42 1.51-.35 2.71-1.49 2.3-2.17 5.28-5.32 9-4.1 2.14.7 3.82 3.63 1.75 5.63-1.55 1.51-2.54-.78-3.38.13-.95 1.03 1.31 1.9 2.29 1.89 4.57-.04 5.15-8.8-1.68-9.39-3.52-.3-6.01 2.22-7.77 3.58l-2.38 2.18c-.53.45-.9.64-.54 1.58zm9.47 7.45c3.54-.46 6.16.57 9.03 1.88.77.35 1.61-.2 1.14-1-.28-.48-1.2-.74-1.77-.98-4.58-1.93-9.02-2.02-13.41.06-.56.26-1.58.63-1.14 1.48.42.79 1.42.01 1.88-.19 1.3-.57 2.65-1.03 4.26-1.24zM19.95 9.97c1.84.25 5.33-3.54 12.81-.02.51.24 1.22.88 1.69.9.79.04 1.11-.88.29-1.46-4.21-2.97-9.58-3.07-14.32-.96-.84.37-.95.73-.48 1.54z"/><path class="fil0 str0" d="M29.41 22.06c1-1.54-1.3-7.2-7.99-.79l-2.11 2.17c-.48.52-1.02.88-1.47 1.39-.59.65-.33 1.66.54 1.45.41-.1 1.21-1.06 1.49-1.37.47-.51 1-.89 1.48-1.38 1.2-1.24 3.08-3.24 4.74-3.7.91-.25 1.6.12 1.9.75.43.9.03 1.68 1.42 1.49zm-2.97 10.97c1.3-.21 2.74-.1 3.97.22.58.15 1.09.32 1.63.58.34.16 1.16.63 1.42.69.64.14 1.98-.82-.54-1.96-3.5-1.57-7.07-1.49-10.42.18-1.45.72-.86 2.18.71 1.36.94-.49 2.01-.88 3.23-1.08z"/><path class="fil0 str0" d="M26.46 20.75c-.35.12-.21.05-.5.24l-4.2 3.74c-.83.76-.45 1.82.53 1.49.17-.06 1.39-1.16 1.57-1.35l3.03-2.69c.91-.71.35-1.7-.44-1.44z"/><g stroke="#55adad" stroke-miterlimit="22.926"><circle cx="33.75" cy="27.88" r="7.91" fill="#fff"/><path d="M45.77 39.26l-6.13-6.13c-.19.2-.39.39-.59.58l6.13 6.13c.1.1.31.05.47-.11h0c.16-.16.21-.37.11-.47z" fill="#55adad" stroke-width=".2"/></g></g><path fill="none" d="M0 0h59.92v46.89H0z"/></g></svg>