<svg xmlns="http://www.w3.org/2000/svg" width="113.762" height="125.805" viewBox="0 0 15.13 16.73" shape-rendering="geometricPrecision" text-rendering="geometricPrecision" image-rendering="optimizeQuality" fill-rule="evenodd" clip-rule="evenodd"><defs><style>.fil0{fill:#59656c}.fil3,.fil4{fill-rule:nonzero}.fil4{fill:#55adad}.fil3{fill:#fff}</style></defs><g id="Слой_x0020_1"><g id="_2023681968"><path class="fil0" d="M1.24 11.3c.32.43.84.16 1.78-.16.61-.21 1.21-.46 1.71-.77 1.22-.76 1.06 1.18 3.76-.52.27.52.35.66.72 1 .2.18.87.62 1.24.53.22-.05.33-.32.22-.54-.17-.31-1-.2-1.42-1.2-.4-.94.53-1.11.55-2.73.01-1-.42-1.97-.93-2.52-1.03-1.13-2.93-2.14-5.11-1.23C2.5 3.68 1.59 4.44.66 5.3c-.15.14-.9.76-.35 1.04.4.2 1.09-.77 1.94-1.41.61-.46 1.3-.98 2.25-1.22 2.9-.74 5.85 2.09 3.88 5.06-.52.78-1.52 1.3-2.3.89-1.28-.67-1.66.3-3.79.93-.5.15-1.05.14-1.04.72z"/><path class="fil0" d="M4.59 1.52C2.91 1.79.18 3.37.45 4.07c.15.4.57.17.85-.1 2.7-2.64 7.31-2.2 8.86 1.01.31.65.43 1.49.34 2.29-.11.93-.6 1.85-.42 2.1.57.8.98-1.02 1.05-1.34C12.11 3.46 7.82 1 4.6 1.51z"/><path class="fil0" d="M.36 8.09c.48.21.76-.18 1.37-.75 1.16-1.1 2.66-2.68 4.54-2.07 1.08.35 1.93 1.83.88 2.84-.78.76-1.28-.39-1.7.07-.48.52.66.95 1.15.95 2.3-.02 2.59-4.43-.85-4.73-1.77-.15-3.03 1.12-3.92 1.8L.63 7.3c-.27.23-.45.32-.27.79zm4.77 3.76c1.78-.23 3.1.29 4.55.95.39.18.81-.1.57-.51-.14-.24-.6-.38-.89-.5-2.31-.97-4.54-1.02-6.76.03-.28.13-.8.32-.57.74.21.4.71 0 .94-.1.65-.29 1.33-.52 2.15-.62zM2.05 1.6c.93.13 2.69-1.79 6.45-.01.26.12.62.44.85.45.4.02.56-.45.15-.74C7.38-.2 4.67-.25 2.29.81c-.42.19-.48.37-.24.78z"/><path class="fil0" d="M6.81 7.69c.5-.77-.66-3.63-4.02-.4L1.73 8.38c-.24.26-.51.44-.74.7-.3.33-.16.84.27.73.2-.05.61-.53.75-.69.24-.26.5-.45.74-.7.6-.63 1.55-1.63 2.39-1.87.46-.13.81.06.96.38.22.45.02.84.72.75zm-1.5 5.53c.65-.11 1.38-.05 2 .11.29.08.55.16.82.29.17.08.58.32.71.35.32.07 1-.41-.27-.99-1.76-.79-3.56-.75-5.25.09-.73.36-.43 1.1.36.69.47-.25 1.01-.44 1.63-.54z"/><path class="fil0" d="M5.32 7.03c-.18.06-.1.02-.25.12L2.96 9.03c-.42.38-.22.92.27.75.08-.03.7-.58.79-.68l1.53-1.35c.46-.36.17-.85-.22-.72z"/><circle cx="9" cy="10.62" r="3.98" fill="#fff"/><path d="M15.05 16.36l-3.09-3.09c-.1.1-.2.2-.3.29l3.09 3.09c.05.05.16.02.24-.06.08-.08.11-.19.06-.24z" fill="#55adad"/><path class="fil3" d="M1.34 11.26c.23.28.64.14 1.31-.1.11-.04.23-.08.34-.12.3-.1.6-.22.89-.35.29-.13.56-.27.8-.42.54-.33.83-.19 1.17-.03.45.22 1.01.49 2.58-.5l.09-.06c.01.01.05.09.05.1.27.51.34.64.7.97.11.1.39.3.67.42.18.08.35.12.48.09.02 0 .04-.01.06-.02a.25.25 0 00.12-.29c-.01-.02-.01-.05-.03-.07-.04-.08-.17-.13-.32-.19-.34-.14-.81-.33-1.1-1.02-.22-.52-.07-.82.13-1.22.18-.35.4-.79.41-1.56 0-.46-.09-.91-.24-1.32-.17-.46-.41-.85-.67-1.13C8.22 3.82 7.39 3.24 6.4 3c-.79-.19-1.67-.16-2.62.23-.62.26-1.16.58-1.66.93-.5.36-.95.76-1.41 1.19l-.04.04c-.11.1-.33.3-.43.49-.07.13-.07.26.1.35.19.1.55-.24.99-.66.26-.24.54-.51.84-.74l.03-.02c.61-.46 1.3-.98 2.25-1.22 1.13-.29 2.27-.05 3.13.53.35.23.65.52.9.84.24.33.43.7.53 1.1.21.83.08 1.78-.56 2.75-.28.43-.71.78-1.16.96-.42.16-.87.18-1.27-.03-.76-.4-1.19-.18-1.92.19-.45.23-1 .51-1.8.75-.1.03-.2.05-.29.07-.35.08-.67.16-.67.51zm1.37.09c-.77.28-1.23.44-1.55.01l-.02-.03v-.03c-.02-.55.38-.64.83-.74.09-.02.19-.04.28-.07.78-.23 1.32-.51 1.76-.73.79-.4 1.25-.64 2.11-.19.34.18.73.16 1.1.02.42-.16.81-.49 1.07-.88.61-.91.73-1.81.54-2.59-.09-.37-.27-.72-.49-1.03-.23-.31-.52-.58-.85-.8-.82-.54-1.9-.77-2.97-.5-.91.23-1.58.73-2.18 1.18l-.03.02c-.29.22-.57.48-.83.72-.5.47-.9.86-1.22.69-.3-.16-.3-.39-.18-.62.12-.23.35-.44.47-.55l.04-.04c.47-.43.93-.84 1.43-1.21.51-.37 1.06-.69 1.7-.96a4.42 4.42 0 012.74-.24c1.03.25 1.89.85 2.48 1.5.27.3.53.72.71 1.2.16.43.25.9.25 1.39a3.25 3.25 0 01-.43 1.64c-.18.35-.31.61-.13 1.05.26.61.69.79.99.91.19.08.35.14.43.28.02.04.04.08.05.12.02.1.01.21-.02.3-.04.09-.11.17-.2.22-.03.02-.07.03-.11.04-.17.04-.39-.01-.6-.1-.3-.13-.6-.34-.73-.45-.36-.33-.45-.48-.69-.93-1.59.98-2.2.69-2.69.45-.29-.14-.54-.26-.98.02-.25.16-.53.3-.83.43-.29.13-.6.25-.91.35-.13.04-.24.08-.34.12z"/><path class="fil3" d="M4.61 1.62c-.37.06-.79.18-1.22.35-.73.28-1.47.67-2.02 1.06C.84 3.4.5 3.77.53 4c0 .01.01.02.01.03.02.04.04.08.06.1.03.03.06.04.1.05.05 0 .1-.01.15-.03.13-.05.26-.15.37-.26.49-.47 1.03-.85 1.61-1.13a6.1 6.1 0 013.49-.56c1.16.16 2.23.65 3.04 1.48.35.36.65.77.88 1.25.16.33.27.71.33 1.11.06.4.06.83.02 1.24-.05.43-.18.85-.28 1.21-.12.41-.22.73-.15.83.21.29.4.08.54-.23.18-.39.29-.91.33-1.07.16-.76.18-1.46.08-2.09-.19-1.16-.76-2.1-1.55-2.82-.79-.72-1.79-1.2-2.81-1.42-.72-.15-1.45-.18-2.13-.07zm-1.29.16c.44-.17.87-.29 1.26-.36.71-.11 1.46-.09 2.2.07 1.06.23 2.09.72 2.91 1.46.82.74 1.42 1.73 1.61 2.94.11.66.09 1.38-.08 2.16-.03.16-.15.71-.34 1.11-.22.48-.52.78-.89.27-.13-.18-.02-.54.12-1 .11-.35.23-.76.28-1.17.05-.4.04-.8-.02-1.19-.06-.38-.16-.74-.31-1.05-.22-.46-.51-.86-.84-1.2-.77-.79-1.81-1.27-2.92-1.42-1.11-.15-2.3.03-3.37.54a5.9 5.9 0 00-1.56 1.1c-.13.12-.29.24-.44.3-.08.03-.16.05-.24.04a.38.38 0 01-.23-.11.404.404 0 01-.1-.17.185.185 0 01-.02-.07c-.05-.32.33-.75.92-1.17.57-.4 1.33-.8 2.07-1.08z"/><path class="fil3" d="M.44 8.02c.33.12.57-.12.97-.51.08-.07.16-.16.25-.24l.21-.2c1.15-1.09 2.6-2.48 4.42-1.89.31.1.61.29.85.54.23.24.41.52.5.83.1.31.11.64 0 .96-.08.24-.22.47-.43.68-.5.48-.88.28-1.21.11-.19-.1-.36-.19-.49-.04-.05.05-.07.1-.08.14-.02.07.01.15.07.21.07.08.18.16.3.22.26.13.59.21.79.21.69-.01 1.18-.43 1.44-1.02.13-.29.19-.61.2-.95 0-.34-.06-.68-.19-1.01-.32-.79-1.06-1.45-2.3-1.56-1.49-.13-2.62.79-3.46 1.47-.13.11-.26.21-.38.31-.41.38-.83.79-1.26 1.15-.19.16-.31.26-.19.59zm1.11-.36c-.48.47-.76.74-1.23.53l-.04-.02-.01-.04c-.19-.5-.03-.63.24-.85l.06-.05 1.2-1.1c.12-.09.25-.2.38-.31.87-.71 2.03-1.65 3.6-1.52 1.33.12 2.13.83 2.47 1.68.14.35.21.72.2 1.08 0 .36-.08.72-.21 1.03-.29.65-.85 1.13-1.62 1.14-.23 0-.59-.09-.88-.23a.924.924 0 01-.36-.27c-.1-.12-.15-.25-.11-.39a.54.54 0 01.13-.23c.23-.25.46-.13.73 0 .27.14.59.31.98-.07.19-.19.32-.39.38-.59.09-.28.08-.57-.01-.84a1.949 1.949 0 00-1.21-1.24c-1.71-.56-3.12.79-4.22 1.84l-.21.2c-.09.08-.17.16-.25.24zm3.57 4.09c.91-.12 1.69-.04 2.44.14.74.19 1.44.48 2.17.82.1.05.21.06.3.03.06-.01.1-.04.14-.07.03-.03.05-.07.06-.12.01-.06-.01-.13-.05-.21-.1-.17-.4-.28-.66-.38-.07-.03-.13-.05-.18-.07-1.14-.48-2.27-.73-3.37-.74-1.11 0-2.21.25-3.3.76l-.08.04c-.06.03-.12.06-.19.09-.2.1-.38.25-.26.48.12.23.44.06.66-.06.06-.03.11-.06.16-.08.33-.14.67-.28 1.02-.38.36-.11.74-.19 1.15-.25zm2.39.34c-.72-.18-1.49-.25-2.37-.14-.4.05-.77.13-1.12.24-.35.11-.68.23-1 .38-.04.02-.09.04-.14.07-.29.16-.71.39-.93-.02-.2-.38.06-.6.34-.75.07-.03.14-.07.2-.1l.08-.04c1.12-.53 2.25-.78 3.38-.78 1.14 0 2.29.26 3.45.75.06.02.12.05.18.07.29.11.63.24.76.47.07.12.09.23.08.33-.01.09-.05.17-.12.24-.06.06-.14.1-.23.13a.66.66 0 01-.43-.05c-.72-.33-1.41-.62-2.13-.8zM2.11 1.51c.23.01.53-.1.9-.24C4.1.86 5.79.21 8.55 1.51c.1.05.21.12.33.2.18.12.37.24.49.25.08 0 .15-.02.19-.05.04-.03.06-.07.08-.11.01-.04.02-.1 0-.15a.416.416 0 00-.19-.24A6.526 6.526 0 006.09.23C4.84.15 3.54.4 2.33.93c-.18.08-.28.16-.31.24-.03.08.01.19.09.35zm.97-.06c-.43.16-.76.29-1.05.25l-.05-.01-.02-.04c-.13-.23-.18-.4-.14-.55.05-.15.18-.26.42-.37C3.48.18 4.8-.08 6.09.01 7.31.09 8.5.48 9.55 1.22c.15.1.23.23.27.36.02.09.02.18 0 .26-.03.08-.08.15-.14.21a.5.5 0 01-.33.1c-.18-.01-.39-.15-.59-.28-.11-.07-.21-.14-.3-.18-2.68-1.26-4.33-.63-5.38-.23z"/><path class="fil3" d="M6.75 7.6c.11-.22.1-.59-.05-.93-.09-.2-.22-.38-.4-.52-.18-.14-.41-.23-.69-.25-.64-.04-1.55.32-2.75 1.48L1.8 8.47c-.12.13-.25.24-.37.35-.13.11-.26.22-.37.35-.08.09-.13.2-.13.3 0 .06.01.12.03.16.02.04.05.07.09.09.05.02.11.03.19.01.15-.04.46-.39.63-.58l.07-.08c.13-.14.27-.26.41-.38.12-.1.23-.2.34-.32l.06-.06c.61-.64 1.54-1.6 2.38-1.84.24-.07.46-.05.64.02.2.08.35.23.44.41.07.14.1.27.12.38.05.21.08.35.44.31zm.13-1.02c.19.42.19.9.02 1.16l-.03.04-.05.01c-.59.08-.64-.13-.71-.46-.02-.1-.05-.22-.11-.34a.625.625 0 00-.33-.31c-.14-.06-.31-.06-.51-.01-.78.22-1.69 1.16-2.29 1.78l-.06.06c-.11.12-.23.22-.35.33-.13.12-.27.23-.39.37L2 9.29c-.18.21-.52.59-.73.64-.13.03-.23.02-.32-.02a.436.436 0 01-.19-.19.575.575 0 01-.05-.26c.01-.14.07-.3.18-.42.12-.14.25-.25.39-.37.12-.11.24-.21.36-.33.35-.37.71-.74 1.07-1.1 1.25-1.2 2.21-1.58 2.9-1.53.32.02.59.13.8.29.21.16.36.37.46.6zM5.3 13.12c.33-.05.67-.07 1.01-.05a5.545 5.545 0 011.46.29c.14.05.27.1.41.17.05.03.13.07.21.11.18.1.4.21.48.23.08.02.19-.01.27-.08.03-.03.06-.06.07-.1.01-.04.01-.08-.01-.12-.06-.14-.25-.31-.67-.5a6.1 6.1 0 00-2.6-.56c-.87.01-1.73.23-2.56.65-.23.12-.34.27-.36.39 0 .04 0 .08.02.11s.04.06.08.08c.11.06.29.05.53-.08.24-.13.5-.24.77-.33.28-.09.57-.17.88-.22zm1 .15c-.33-.02-.66 0-.97.05-.3.05-.58.12-.85.21s-.52.2-.75.32c-.31.16-.56.16-.72.07a.41.41 0 01-.16-.16.413.413 0 01-.04-.22c.02-.19.17-.4.47-.55a6.19 6.19 0 012.65-.67c.89-.02 1.79.17 2.68.58.47.21.7.42.77.6.04.09.04.18.02.26-.02.08-.07.14-.13.19-.12.1-.31.15-.44.12-.1-.02-.34-.15-.53-.25-.08-.04-.16-.08-.21-.11-.13-.06-.26-.12-.39-.16-.13-.05-.27-.09-.41-.12-.31-.08-.65-.14-.99-.15z"/><path class="fil3" d="M5.36 7.13l-.07.02c-.03.01-.05.01-.05.02 0 0-.01.01-.03.02l-.06.04-2.11 1.88c-.13.12-.19.25-.19.36 0 .05.01.1.03.14.02.04.05.07.08.08.06.03.15.03.25 0 .02-.01.12-.09.25-.2.2-.17.45-.4.5-.45.49-.45 1.03-.94 1.54-1.36.13-.1.19-.21.2-.31 0-.05-.01-.09-.02-.13a.236.236 0 00-.08-.09c-.06-.04-.13-.05-.22-.02zm-.13-.17l.07-.02c.15-.05.28-.03.39.04.07.04.12.1.15.17s.05.15.05.23c-.01.15-.09.31-.27.46L4.1 9.19c-.06.06-.31.29-.51.46-.14.12-.27.22-.32.24a.57.57 0 01-.41-.01.35.35 0 01-.17-.17.494.494 0 01-.05-.24c.01-.16.09-.34.26-.49.58-.55 1.56-1.5 2.19-1.94.03-.02.04-.03.06-.04.02-.01.04-.02.08-.03z"/><path class="fil4" d="M9 6.39c1.17 0 2.23.47 2.99 1.24.77.77 1.24 1.83 1.24 2.99 0 1.17-.47 2.23-1.24 2.99-.77.77-1.83 1.24-2.99 1.24-1.17 0-2.23-.47-2.99-1.24a4.219 4.219 0 01-1.24-2.99c0-1.17.47-2.23 1.24-2.99.77-.77 1.83-1.24 2.99-1.24zm2.64 1.6A3.71 3.71 0 009 6.9c-1.03 0-1.96.42-2.64 1.09a3.71 3.71 0 00-1.09 2.64c0 1.03.42 1.96 1.09 2.64A3.71 3.71 0 009 14.36c1.03 0 1.96-.42 2.64-1.09a3.71 3.71 0 001.09-2.64c0-1.03-.42-1.96-1.09-2.64z"/><path class="fil4" d="M15.02 16.39l-3.05-3.05-.11.11-.11.11 3.05 3.05c.01.01.03.01.06.01.03-.01.07-.03.11-.06.03-.03.06-.07.06-.11.01-.03 0-.05-.01-.06zM12 13.23l3.09 3.09c.04.04.05.09.03.15-.01.05-.04.11-.09.15-.05.05-.1.08-.15.09-.06.01-.12 0-.15-.03l-3.12-3.12.04-.04.15-.15c.05-.05.1-.1.14-.15l.04-.04.04.04z"/></g></g></svg>