<svg xmlns="http://www.w3.org/2000/svg" width="60mm" height="60mm" viewBox="0 0 16.16 16.16" shape-rendering="geometricPrecision" text-rendering="geometricPrecision" image-rendering="optimizeQuality" fill-rule="evenodd" clip-rule="evenodd"><defs><style>.fil0{fill:none}</style></defs><g id="Слой_x0020_1"><path class="fil0" d="M6.27 9.98c-.08-2.11-1.34-1.9-1.58-3.38-.12-.75.11-1.29.61-1.85.44-.49-.07-.98-.46-.57-.52.54-.91 1.05-.94 1.97-.03 1.06.47 1.75.99 2.27.76.76.83 2.08.09 2.91-.15.17-.35.26-.3.52.04.22.37.47.73.11.56-.51.83-1.27.85-1.98zm2.99 0c-.08-2.11-1.34-1.9-1.58-3.38-.12-.75.11-1.29.61-1.85.44-.49-.07-.98-.46-.57-.52.54-.91 1.05-.94 1.97-.03 1.06.47 1.75.99 2.27.76.76.83 2.08.09 2.91-.15.17-.35.26-.3.52.04.22.37.47.73.11.56-.51.83-1.27.85-1.98zm3 0c-.08-2.11-1.34-1.9-1.58-3.38-.12-.75.11-1.29.61-1.85.44-.49-.07-.98-.46-.57-.52.54-.91 1.05-.94 1.97-.03 1.06.47 1.75.99 2.27.76.76.83 2.08.09 2.91-.15.17-.35.26-.3.52.04.22.37.47.73.11.56-.51.83-1.27.85-1.98z" stroke="#59656c" stroke-width=".27" stroke-miterlimit="22.926" id="_4611807424"/><path class="fil0" d="M0 0h16.16v16.16H0z"/></g></svg>