<svg xmlns="http://www.w3.org/2000/svg" width="120.999" height="117.727" viewBox="0 0 4.61 4.48" shape-rendering="geometricPrecision" text-rendering="geometricPrecision" image-rendering="optimizeQuality" fill-rule="evenodd" clip-rule="evenodd"><path d="M1.26 3.25c-.02-.61-.24-.84-.44-1.06-.17-.19-.34-.37-.4-.74-.03-.21-.02-.4.04-.57C.52.71.62.56.76.4.83.32.84.25.83.2.82.18.82.17.8.16.79.15.78.14.76.14.72.13.67.14.62.2.49.34.37.48.28.64.2.8.14.98.14 1.21c-.01.27.05.49.15.68.1.19.23.34.36.48.22.22.34.52.35.82.01.3-.09.6-.3.83l-.06.06c-.05.05-.1.09-.08.16 0 .02.01.04.03.06.01.01.03.03.05.03.02.01.04.01.06 0 .04-.01.08-.03.13-.07a1.376 1.376 0 00.43-1zM.92 2.09c.22.24.45.49.48 1.15-.01.21-.05.42-.14.62-.08.18-.19.35-.34.49-.07.07-.14.1-.2.11-.05.01-.1 0-.14-.01a.183.183 0 01-.1-.07.279.279 0 01-.07-.13c-.03-.15.05-.21.13-.29l.05-.05c.18-.2.27-.47.26-.73-.01-.27-.11-.53-.3-.72-.14-.14-.29-.31-.39-.52-.1-.21-.17-.45-.16-.75C.01.93.07.73.16.55.25.38.38.23.52.08c.09-.1.2-.12.28-.09.04.01.07.03.1.06s.05.06.06.1c.03.1.01.22-.09.34C.74.63.65.77.59.92c-.05.15-.07.31-.04.5.05.32.21.49.36.66zm1.94 1.16c-.02-.61-.24-.84-.44-1.06-.17-.19-.34-.37-.4-.74-.03-.21-.02-.4.04-.57.06-.17.16-.32.3-.48.07-.08.08-.15.07-.2C2.42.18 2.42.17 2.4.16 2.39.15 2.38.14 2.36.14c-.04-.01-.09 0-.14.06-.13.14-.25.28-.34.44-.08.16-.14.34-.14.57-.01.27.05.49.15.68.1.19.23.34.36.48.22.22.34.52.35.82.01.3-.09.6-.3.83l-.06.06c-.05.05-.1.09-.08.16 0 .02.01.04.03.06.01.01.03.02.05.03.02.01.04.01.06 0 .04-.01.08-.03.13-.07a1.376 1.376 0 00.43-1zm-.34-1.16c.22.24.45.49.48 1.15-.01.21-.05.42-.14.62-.08.18-.19.35-.34.49-.07.07-.14.1-.2.11-.05.01-.1 0-.14-.01a.183.183 0 01-.1-.07.279.279 0 01-.07-.13c-.03-.15.05-.21.13-.29l.05-.05c.18-.2.27-.47.26-.73-.01-.27-.11-.53-.3-.72-.14-.14-.29-.31-.39-.52-.1-.21-.17-.45-.16-.75.01-.26.07-.46.16-.64.09-.17.22-.32.36-.47.09-.1.2-.12.28-.09.04.01.07.03.1.06s.05.06.06.1c.03.1.01.22-.09.34-.13.14-.22.28-.28.43-.05.15-.07.31-.04.5.05.32.21.49.36.66zm1.94 1.16c-.02-.61-.24-.84-.44-1.06-.17-.19-.34-.37-.4-.74-.03-.21-.02-.4.04-.57.06-.17.16-.32.3-.48.07-.08.08-.15.07-.2C4.02.18 4.02.17 4 .16 3.99.15 3.98.14 3.96.14c-.04-.01-.09 0-.14.06-.13.14-.25.28-.34.44-.08.16-.14.34-.14.57-.01.27.05.49.15.68.1.19.23.34.36.48.22.22.34.52.35.82.01.3-.09.6-.3.83l-.06.06c-.05.05-.1.09-.08.16 0 .02.01.04.03.06.01.01.03.02.05.03.02.01.04.01.06 0 .04-.01.08-.03.13-.07a1.376 1.376 0 00.43-1zm-.34-1.16c.22.24.45.49.48 1.15-.01.21-.05.42-.14.62-.08.18-.19.35-.34.49-.07.07-.14.1-.2.11-.05.01-.1 0-.14-.01a.183.183 0 01-.1-.07.279.279 0 01-.07-.13c-.03-.15.05-.21.13-.29l.05-.05c.18-.2.27-.47.26-.73-.01-.27-.11-.53-.3-.72-.14-.14-.29-.31-.39-.52-.1-.21-.17-.45-.16-.75.01-.26.07-.46.16-.64.09-.17.22-.32.36-.47.09-.1.2-.12.28-.09.04.01.07.03.1.06s.05.06.06.1c.03.1.01.22-.09.34-.13.14-.22.28-.28.43-.05.15-.07.31-.04.5.05.32.21.49.36.66z" fill="#59656c" fill-rule="nonzero"/></svg>