<svg xmlns="http://www.w3.org/2000/svg" width="60mm" height="60mm" viewBox="0 0 17.38 17.38" shape-rendering="geometricPrecision" text-rendering="geometricPrecision" image-rendering="optimizeQuality" fill-rule="evenodd" clip-rule="evenodd"><defs><style>.str0{stroke:#59656c;stroke-width:.29;stroke-miterlimit:22.9256}.fil0{fill:none}</style></defs><g id="Слой_x0020_1"><g id="_4611469120"><path class="fil0 str0" d="M5.47 2.81l3.8 2.22c.18.1.37.17.37.37v8.81c0 .21-.2.48-.37.37l-3.91-2.26c-.18-.1-.27-.17-.27-.37V3.08c0-.21.2-.37.37-.27z"/><rect x="8.42" y="8.38" width=".29" height="1.5" rx=".14" ry=".14" fill="#59656c"/><path class="fil0 str0" d="M5.41 2.77h6.5c.21 0 .37.17.37.37v8.81c0 .21-.17.37-.37.37H9.64"/></g><path class="fil0" d="M0 0h17.38v17.38H0z"/></g></svg>