<svg xmlns="http://www.w3.org/2000/svg" width="97.602" height="158.223" viewBox="0 0 3.23 5.23" shape-rendering="geometricPrecision" text-rendering="geometricPrecision" image-rendering="optimizeQuality" fill-rule="evenodd" clip-rule="evenodd"><defs><style>.fil0{fill:#59656c;fill-rule:nonzero}</style></defs><g id="Слой_x0020_1"><g id="_1963087040"><path class="fil0" d="M.25.03l1.64.96c.01.01.02.01.04.02.08.04.16.08.16.19V5c0 .04-.01.09-.04.13-.02.03-.04.05-.06.07-.03.02-.06.03-.09.03-.02 0-.04-.01-.07-.02L.14 4.24c-.04-.03-.08-.05-.1-.08A.212.212 0 010 4.02V.2C0 .16.01.13.03.1A.17.17 0 01.09.04C.12.02.15.01.18.01s.05.01.08.02zm1.58 1.06L.19.13C.18.13.18.12.17.12S.16.12.15.13L.13.15C.12.16.12.17.12.19v3.82c0 .03 0 .05.01.06.01.02.04.03.07.05l1.69.97s.01 0 .02-.01l.03-.03c.01-.02.02-.05.02-.07v-3.8c0-.04-.04-.06-.09-.09-.01-.01-.03-.01-.04-.02z"/><rect x="1.5" y="2.48" width=".12" height=".65" rx=".06" ry=".06" fill="#59656c"/><path class="fil0" d="M.2 0H3c.06 0 .12.03.16.07.04.04.07.1.07.16v3.8c0 .06-.03.12-.07.16-.04.04-.1.07-.16.07h-.98v-.12H3c.03 0 .05-.01.07-.03a.09.09 0 00.03-.07V.24a.09.09 0 00-.03-.07A.09.09 0 003 .14H.2V.02z"/></g></g></svg>