<svg xmlns="http://www.w3.org/2000/svg" width="60mm" height="60mm" viewBox="0 0 13.43 13.43" shape-rendering="geometricPrecision" text-rendering="geometricPrecision" image-rendering="optimizeQuality" fill-rule="evenodd" clip-rule="evenodd"><defs><style>.fil0{fill:none}</style></defs><g id="Слой_x0020_1"><g id="_1838805088"><rect class="fil0" x="3.13" y="3.13" width="7.17" height="7.17" rx=".72" ry=".72" stroke="#59656c" stroke-width=".22" stroke-miterlimit="22.926"/><path d="M8.31 4.98l1.14-1.14c.05-.05.13-.05.18 0 .05.05.05.13 0 .18L8.49 5.16h.52c.07 0 .13.06.13.13s-.06.13-.13.13h-.84c-.04 0-.07-.01-.09-.04a.15.15 0 01-.04-.11v-.81c0-.07.06-.13.13-.13s.13.06.13.13v.52zm0 3.46l1.14 1.14c.05.05.13.05.18 0 .05-.05.05-.13 0-.18L8.49 8.26h.52c.07 0 .13-.06.13-.13S9.08 8 9.01 8h-.84c-.04 0-.07.01-.09.04a.15.15 0 00-.04.11v.81c0 .07.06.13.13.13s.13-.06.13-.13v-.52zM5.12 4.98L3.98 3.84a.127.127 0 00-.18 0c-.05.05-.05.13 0 .18l1.14 1.14h-.52c-.07 0-.13.06-.13.13s.06.13.13.13h.84c.04 0 .07-.01.09-.04a.15.15 0 00.04-.11v-.81c0-.07-.06-.13-.13-.13s-.13.06-.13.13v.52zm0 3.46L3.98 9.58c-.05.05-.13.05-.18 0a.127.127 0 010-.18l1.14-1.14h-.52c-.07 0-.13-.06-.13-.13S4.35 8 4.42 8h.84c.04 0 .07.01.09.04.03.03.04.07.04.11v.81c0 .07-.06.13-.13.13s-.13-.06-.13-.13v-.52z" fill="#59656c"/></g><path class="fil0" d="M0 0h13.43v13.43H0z"/></g></svg>