<svg xmlns="http://www.w3.org/2000/svg" width="124.905" height="124.905" viewBox="0 0 4.08 4.08" shape-rendering="geometricPrecision" text-rendering="geometricPrecision" image-rendering="optimizeQuality" fill-rule="evenodd" clip-rule="evenodd"><g fill="#59656c"><path d="M.46 0h3.16a.445.445 0 01.45.45v3.16a.445.445 0 01-.45.45H.46a.445.445 0 01-.45-.45V.45A.445.445 0 01.46 0zm3.16.12H.46a.35.35 0 00-.24.1C.16.28.12.36.12.46v3.16c0 .09.04.18.1.24.06.06.14.1.24.1h3.16c.09 0 .18-.04.24-.1.06-.06.1-.14.1-.24V.46a.35.35 0 00-.1-.24.331.331 0 00-.24-.1z" fill-rule="nonzero"/><path d="M2.92 1.09l.63-.63c.03-.03.07-.03.1 0s.03.07 0 .1l-.63.63h.29c.04 0 .07.03.07.07 0 .04-.03.07-.07.07h-.46c-.02 0-.04-.01-.05-.02-.02-.02-.02-.04-.02-.06V.8c0-.04.03-.07.07-.07.04 0 .07.03.07.07v.29zm0 1.9l.63.63c.03.03.07.03.1 0s.03-.07 0-.1l-.63-.63h.29c.04 0 .07-.03.07-.07 0-.04-.03-.07-.07-.07h-.46c-.02 0-.04.01-.05.02-.02.02-.02.04-.02.06v.45c0 .04.03.07.07.07.04 0 .07-.03.07-.07v-.29zm-1.76-1.9L.53.46C.5.43.46.43.43.46S.4.53.43.56l.63.63H.77c-.04 0-.07.03-.07.07 0 .04.03.07.07.07h.46c.02 0 .04-.01.05-.02.02-.02.02-.04.02-.06V.8c0-.04-.03-.07-.07-.07-.04 0-.07.03-.07.07v.29zm0 1.9l-.63.63c-.03.03-.07.03-.1 0s-.03-.07 0-.1l.63-.63H.77c-.04 0-.07-.03-.07-.07 0-.04.03-.07.07-.07h.46c.02 0 .04.01.05.02.02.02.02.04.02.06v.45c0 .04-.03.07-.07.07-.04 0-.07-.03-.07-.07v-.29z"/></g></svg>