<svg xmlns="http://www.w3.org/2000/svg" width="60mm" height="60mm" viewBox="0 0 41.21 41.21" shape-rendering="geometricPrecision" text-rendering="geometricPrecision" image-rendering="optimizeQuality" fill-rule="evenodd" clip-rule="evenodd"><path d="M17.5 16.01c.26-.05 4.71-.02 5.1-.02 1.48 0 1.54-.11 1.54 1.05v1.29c0 .43-.02.75-.43.82-.25.04-4.73.01-5.11.01-1.42 0-1.52.13-1.52-1.04v-1.29c0-.42.02-.75.43-.82zm-.13-.73c-.45.08-.76.4-.92.73-.17.34-.11 1.09-.11 1.52 0 .42-.06 1.2.08 1.55.13.35.5.69.88.8.2.05 6.16.07 6.56.02.38-.05.76-.46.91-.72.18-.32.11-1.11.11-1.53 0-.37.06-1.28-.07-1.56-.13-.3-.51-.71-.89-.79-.26-.05-6.25-.05-6.54 0zm.14-5.34c.26-.05 4.71-.01 5.1-.01 1.44 0 1.54-.14 1.54 1.04v1.29c0 .44-.01.75-.43.82-.27.05-4.72.01-5.12.01-1.43 0-1.52.13-1.52-1.05v-1.29c0-.43 0-.74.44-.82zm-.18-.73c-.4.07-.76.46-.9.75-.15.31-.09 1.13-.09 1.54 0 .42-.06 1.21.08 1.54.44 1.04 1.49.8 2.52.8.64 0 4.69.03 4.95-.01.36-.06.76-.48.89-.75.16-.33.09-1.12.09-1.54 0-.38.06-1.27-.08-1.55-.52-1.05-1.46-.78-2.53-.78-.61 0-4.7-.03-4.93.01zm.12 12.88c.38-.09 2.02-.03 2.53-.03.39 0 3.58-.04 3.81.03.4.12.35.5.35.95v1.29c0 .42.03.78-.38.88-.31.07-4.41.03-5.1.03-1.46 0-1.59.14-1.59-.97v-1.29c0-.44-.04-.77.38-.88zm-.18-.73c-.36.1-.74.46-.87.78-.11.27-.06 1.19-.06 1.56 0 .42-.07 1.2.1 1.52.53.99 1.41.74 2.57.74.6 0 4.71.03 4.93-.02.36-.09.73-.49.86-.78.12-.26.07-1.2.07-1.56 0-.45.08-1.17-.11-1.53-.52-.99-1.45-.74-2.58-.74-.85 0-4.61-.05-4.91.03zm.18 6.8c.26-.07 4.45-.03 5.09-.03 1.5 0 1.61-.14 1.6.98v1.29c0 .42.03.78-.38.88-.38.09-2.04.02-2.55.02-.4 0-3.55.04-3.79-.03-.4-.12-.35-.52-.35-.93v-1.29c0-.45-.04-.76.38-.88zm-1.11 2.83c.03.35.38.74.73.93.38.19 1.05.11 1.52.11h4.95c.57 0 .86-.25 1.08-.55.34-.44.24-.78.24-1.4 0-.5.04-1.16 0-1.64-.03-.41-.46-.8-.72-.94-.32-.18-1.11-.1-1.54-.1h-4.95c-.35 0-.43.01-.68.16-.77.49-.63 1.13-.63 1.79 0 .49-.04 1.17 0 1.64zm10.92-7.51c.22-.34.52-.48.74-.87.19-.35-.09-1.1-1.12.1l-.41.43c-.42.43-.57.41-.6.66-.02.18-.01.24.08.35.31.38.69.68 1.05 1.01l.64.62c.32.21.86-.18.37-.69l-.42-.42c-.15-.14-.28-.24-.39-.45h2.03c.5 0 1.51.09 1.89-.13.65-.37.67-.78.67-1.34 0-1.01.05-3.22 0-4.08-.03-.54-.47-.97-.88-1.13-.59-.23-3.13-.12-3.95-.12-.29 0-.68-.04-.92.09-.26.14-.22.57.02.66.16.07 3.54.04 4 .03.98-.01 1 .11 1 1.06 0 .57.06 3.7-.06 3.98-.19.43-1.2.25-1.71.25-.46 0-1.67.06-2.04-.02zM14 18.16c-.1.27-.61.64-.81.88-.11.14-.29.31-.14.54.37.6.99-.35 1.37-.72l.64-.62c.06-.06.15-.15.2-.22.23-.3-.08-.6-.29-.78-.08-.07-.13-.14-.21-.21l-.84-.83c-.12-.13-.28-.35-.57-.23-.2.08-.3.32-.16.55.2.34.65.52.82.91h-3.05c-.34 0-.63 0-.75-.27-.13-.26-.06-3.43-.06-4 0-.95-.04-1.08.95-1.07.46 0 3.86.04 4.03-.02.28-.1.29-.46.07-.63-.18-.14-.67-.08-.92-.08-.66 0-3.58-.08-3.98.05-.43.14-.86.59-.88 1.15-.03 1.22 0 2.78 0 4.05 0 1.81 1.34 1.54 2.52 1.54h2.07zm0 11.4h-2.08c-.6 0-1.58.12-1.74-.29-.11-.27-.05-3.44-.05-4.01 0-.96 0-1.05.99-1.05.48 0 3.82.04 4.01-.04.27-.11.25-.5.05-.64-.16-.11-.73-.05-.96-.05-.62 0-3.69-.08-4.01.06-.23.1-.44.3-.56.45-.2.24-.25.39-.25.77v4.05c0 .4-.03.54.18.84.16.23.25.36.52.5.58.3 3.2 0 3.91.14-.49.63-1.21 1.01-.96 1.41.35.55.88-.23 1.41-.74.89-.85 1.2-1.04.45-1.65l-.63-.62c-.33-.31-.62-.79-.96-.59-.19.11-.26.35-.12.56.21.32.64.51.81.89z" fill="#59656c"/><path fill="none" d="M0 0h41.21v41.21H0z"/></svg>