<svg xmlns="http://www.w3.org/2000/svg" width="157.512" height="129.688" viewBox="0 0 6.92 5.69" shape-rendering="geometricPrecision" text-rendering="geometricPrecision" image-rendering="optimizeQuality" fill-rule="evenodd" clip-rule="evenodd"><path d="M3.23.45L2.7 2.54 1.1 1.49a.3.3 0 01-.11-.06.499.499 0 00-.17-.07c-.01 0-.01.03 0 .11l.94 2.46-.05.04c-.08.06-.41.16-.69.25-.16.05-.3.09-.37.12H.63c-.15.02-.32.07-.41.12-.03.02-.05.03-.05.04 0 0 0 .01.01.02.03.03.09.07.19.12l1.99.89c.06-.01.12-.06.18-.12.08-.1.15-.22.2-.33l-.88-.46.99-.13-.58-1.33.95.8.17-1.72.36 1.79 1.19-.88-.77 1.43 1.16.06-1.1.54c.05.09.12.18.2.25.06.05.12.09.19.1l1.94-.86c.13-.06.19-.09.19-.11-.01-.03-.09-.07-.23-.14l-1.11-.51 1.1-2.3c.09-.19.11-.25.09-.25-.08 0-.23.08-.38.17L4.19 2.72c-.1-.31-.72-2.19-.72-2.3a.872.872 0 00-.11-.25V.16l-.01.01c-.04.05-.07.14-.1.27zm-.64 1.82L3.07.41c.04-.15.08-.27.13-.34.03-.04.08-.07.12-.08.05-.01.1.01.14.06.05.05.1.16.15.31l.66 2.11 1.85-1.08c.17-.1.35-.2.47-.2.17 0 .23.13.06.49L5.63 3.83l.96.44c.19.09.3.16.32.26.02.11-.07.2-.28.29l-1.97.87h-.02a.49.49 0 01-.31-.14c-.12-.11-.22-.26-.28-.37l-.04-.08.68-.34-.79-.04.55-1.01-.8.59-.19-.96-.09.94-.65-.54.39.88-.69.09.55.28-.03.07c-.05.12-.14.31-.26.44-.09.1-.2.18-.32.18h-.02L.31 4.77a.888.888 0 01-.26-.17C0 4.54 0 4.48.02 4.42c.02-.05.06-.09.12-.12.11-.07.3-.12.46-.14.08-.03.22-.07.37-.12.22-.07.47-.14.58-.19L.65 1.5v-.01c-.02-.22.04-.3.15-.31.09-.01.18.04.27.09.04.02.07.04.1.05h.01l1.42.94z" fill="#59656c" fill-rule="nonzero"/></svg>