<svg xmlns="http://www.w3.org/2000/svg" width="60mm" height="60mm" viewBox="0 0 14.33 14.33" shape-rendering="geometricPrecision" text-rendering="geometricPrecision" image-rendering="optimizeQuality" fill-rule="evenodd" clip-rule="evenodd"><defs><style>.fil0{fill:none}</style></defs><g id="Слой_x0020_1"><path class="fil0" d="M6.73 3.69L6 6.53 3.83 5.1c-.21-.07-.65-.46-.58.12l1.33 3.47c-.15.12-1.2.39-1.49.5-.51.09-1.2.31-.41.66l2.89 1.29c.33 0 .62-.54.72-.82l-1.03-.53 1.21-.16-.7-1.59L6.92 9l.19-1.91.4 1.98 1.44-1.06L8 9.76l1.4.07-1.28.63c.15.26.44.67.75.67l2.82-1.25c.5-.22.42-.36-.06-.57l-1.49-.68 1.52-3.2c.38-.8-.14-.54-.59-.27L8.28 6.8l-.99-3.17c-.21-.69-.42-.52-.56.05z" stroke="#59656c" stroke-width=".24" stroke-miterlimit="22.926"/><path class="fil0" d="M0 0h14.33v14.33H0z"/></g></svg>