<svg xmlns="http://www.w3.org/2000/svg" width="137" height="133.024" viewBox="0 0 7.96 7.73" shape-rendering="geometricPrecision" text-rendering="geometricPrecision" image-rendering="optimizeQuality" fill-rule="evenodd" clip-rule="evenodd"><defs><style>.fil0{fill:#fff}.fil1{fill:#59656c;fill-rule:nonzero}</style></defs><g id="Слой_x0020_1"><g id="_1844887648"><path class="fil0" d="M1.08 1.66C1 1.51.93 1.44.7 1.44c-.15 0-.36.02-.46.11-.1.09-.12.3-.01.4.06.05.3.16.4.18-.04.05-.05.04-.11.1-.48.51-.48.99-.31 1.7.06.24.15.39.15.64 0 .59-.08.94.65.94.22 0 .57.04.74-.07.26-.18.19-.44.23-.57.26-.02.71.02.99.03h2.02c.28-.01.72-.04.99-.03.03.14-.03.4.24.58.17.11.97.09 1.12.02.34-.15.27-.58.27-.9 0-.26.09-.41.15-.66.31-1.37-.28-1.57-.42-1.79.11-.03.35-.13.41-.19.11-.12.09-.31-.03-.41-.09-.07-.34-.1-.47-.1-.21 0-.28.08-.36.22-.12-.19-.24-.54-.34-.76C6.44.64 6.23.4 6.02.3 5.41.02 2.47.03 1.95.3c-.58.31-.57.85-.87 1.35zM7.14 3.4a.47.47 0 00-.09-.45c-.21-.22-1.21.18-1.28.27-.09.12-.04.35.04.43.11.11.32.08.51.08.41 0 .72.07.82-.34zM.82 3.36c.11.43.34.38.77.38.16 0 .41.03.53-.06.1-.07.18-.27.1-.42-.09-.17-1.08-.48-1.27-.34-.1.08-.18.26-.13.44zm.72-1.37c.44-.01.89-.06 1.34-.07.77-.02 1.45 0 2.21 0 .45 0 .89.05 1.34.06-.14-.5-.33-.96-.78-1.21-.43-.24-2.86-.24-3.33 0-.45.23-.63.74-.78 1.22z"/><path class="fil1" d="M.99 1.72a.345.345 0 00-.1-.13.291.291 0 00-.18-.03c-.07 0-.15.01-.23.02-.07.01-.13.03-.16.06l-.01.01c-.03.03-.04.07-.04.12 0 .04.01.09.03.11l.01.01c.02.02.07.05.14.08.08.04.16.07.21.08l.16.04-.1.13c-.03.04-.05.05-.07.07-.01.01-.02.02-.05.04-.22.24-.33.46-.37.71-.04.26 0 .54.09.89.02.08.04.15.06.22.05.14.09.27.09.45v.3c0 .34.05.53.55.53h.15c.19.01.43.01.53-.06.15-.1.16-.25.17-.37 0-.05 0-.09.01-.13l.02-.08.08-.01c.21-.01.52 0 .78.02.08 0 .15.01.21.01h2.02c.05 0 .11-.01.18-.01.27-.01.6-.03.82-.02l.08.01.02.08c.01.04.01.09.02.14.01.12.02.27.17.37.06.04.24.05.43.06.25.01.51-.01.58-.04.23-.1.22-.4.21-.66V4.6c0-.19.04-.32.09-.46.02-.07.05-.15.07-.23.24-1.07-.08-1.37-.27-1.56-.05-.05-.1-.09-.13-.14l-.09-.13.15-.04c.05-.01.14-.05.22-.08.06-.03.11-.06.13-.08l.01-.01c.02-.03.03-.08.03-.12a.16.16 0 00-.05-.11l-.01-.01a.37.37 0 00-.15-.05c-.09-.02-.19-.03-.26-.03-.08 0-.13.01-.16.04-.04.03-.06.07-.1.13l-.09.16-.1-.16c-.08-.13-.16-.33-.24-.52-.04-.09-.07-.18-.11-.25-.05-.11-.13-.23-.21-.33a.79.79 0 00-.26-.2c-.29-.13-1.14-.2-2-.2-.87 0-1.73.07-1.97.2-.36.19-.47.49-.6.8-.06.16-.13.33-.23.5l-.1.16-.09-.16zm.02-.31c.02.02.04.03.06.05.05-.11.09-.21.13-.32.14-.36.27-.69.7-.92C2.17.07 3.07 0 3.97 0c.88 0 1.78.07 2.09.22.12.05.23.15.33.26.1.11.19.25.25.38.04.08.07.17.11.26.05.12.1.24.14.34.02-.02.03-.03.05-.04.07-.05.16-.08.29-.08.08 0 .2.01.31.03.09.02.18.05.23.09.01.01.02.01.03.02.07.06.11.16.12.25a.44.44 0 01-.07.27c-.01.01-.02.02-.02.03a.69.69 0 01-.2.13c-.03.01-.06.03-.1.04.23.22.6.59.33 1.76-.02.1-.05.18-.07.25-.04.12-.08.24-.08.39v.14c.01.33.02.7-.34.86-.09.04-.4.07-.67.06-.23 0-.46-.03-.55-.09-.25-.16-.26-.38-.27-.54v-.02c-.2 0-.47.01-.7.02-.06 0-.12.01-.19.01H2.97c-.07 0-.14-.01-.22-.01-.22-.01-.47-.02-.67-.02v.01c-.01.16-.02.37-.26.54-.17.11-.44.1-.66.1h-.14c-.69 0-.77-.28-.77-.75v-.3c0-.15-.04-.26-.08-.38-.02-.07-.05-.15-.07-.24-.09-.37-.13-.68-.09-.97.04-.29.16-.55.41-.82-.02-.01-.05-.02-.07-.03-.08-.04-.16-.08-.2-.12l-.02-.02c-.07-.07-.09-.17-.09-.27s.04-.19.1-.26l.02-.02c.07-.06.16-.09.26-.11.09-.02.19-.02.27-.03.14 0 .23.02.3.07zm6.03 1.97c.02-.07.02-.14.01-.2a.265.265 0 00-.07-.14c-.08-.07-.34-.02-.58.05-.26.08-.49.18-.54.22-.02.03-.03.08-.02.12.01.07.03.13.06.16.06.06.19.05.32.05h.26c.28.01.49.01.56-.26zm.22-.24c.02.09.01.2-.01.3-.12.44-.4.43-.78.42h-.25c-.18.01-.36.01-.49-.12a.513.513 0 01-.12-.29c-.01-.1.01-.21.07-.29 0-.01.01-.01.01-.02.06-.06.34-.19.63-.27.3-.09.63-.13.78-.01.01.01.02.01.02.02.07.07.11.16.13.25zm-6.33.2c.08.3.25.3.55.3h.23c.13.01.29.01.35-.04.03-.03.06-.08.08-.14a.22.22 0 00-.01-.14c-.05-.07-.28-.16-.53-.23s-.5-.11-.58-.07c-.04.03-.07.07-.08.13-.02.06-.02.12 0 .19zm.55.52c-.41 0-.64.01-.76-.46a.506.506 0 01.01-.3c.03-.11.09-.19.17-.25.01-.01.02-.01.03-.02.14-.07.45-.03.74.05s.57.21.64.31c.01.01.01.02.02.03.05.1.05.2.03.3-.03.11-.09.21-.16.26-.13.1-.33.09-.49.08h-.22zm.21-1.97l.53-.03c.22-.01.43-.03.66-.03.56-.02 1.07-.01 1.61 0 .2 0 .4.01.61.01.26 0 .51.02.76.03.14.01.29.02.43.02-.06-.19-.13-.37-.22-.53-.11-.19-.26-.36-.46-.47-.2-.11-.9-.17-1.6-.17-.7 0-1.4.06-1.62.17-.2.11-.35.28-.46.47-.09.16-.16.35-.22.53zm.54.19c-.23.01-.45.03-.69.03h-.15l.04-.14c.07-.24.16-.5.28-.72.13-.23.3-.43.55-.56C2.51.56 3.25.5 3.98.5c.74 0 1.48.07 1.71.19.25.14.42.33.55.56.13.22.21.47.28.72l.04.14h-.15l-.59-.03c-.25-.02-.5-.03-.75-.03-.21 0-.41 0-.61-.01-.53-.01-1.04-.01-1.6 0l-.65.03z"/><circle class="fil0" cx="4.5" cy="4.54" r="2.1"/><path class="fil1" d="M4.5 2.34c.61 0 1.16.25 1.56.65a2.2 2.2 0 010 3.12 2.2 2.2 0 01-3.12 0 2.2 2.2 0 010-3.12c.4-.4.95-.65 1.56-.65zm1.4.8a1.982 1.982 0 00-3.38 1.4c0 .55.22 1.05.58 1.4a1.982 1.982 0 003.38-1.4c0-.55-.22-1.05-.58-1.4z"/><path d="M7.69 7.56L6.07 5.94c-.05.05-.1.1-.16.15l1.62 1.62c.03.03.08.01.12-.03.04-.04.06-.1.03-.12z" fill="#59656c"/></g></g></svg>