<svg xmlns="http://www.w3.org/2000/svg" width="60mm" height="60mm" viewBox="0 0 21.77 21.77" shape-rendering="geometricPrecision" text-rendering="geometricPrecision" image-rendering="optimizeQuality" fill-rule="evenodd" clip-rule="evenodd"><defs><style>.str0{stroke:#59656c;stroke-width:.36;stroke-miterlimit:22.9256}.fil0{fill:#fff}</style></defs><g id="Слой_x0020_1"><g id="_1838756288"><path class="fil0 str0" d="M6.1 7.88c-.14-.25-.25-.37-.62-.36-.25.01-.6.04-.77.19-.17.15-.2.49-.02.67.09.09.49.26.66.3-.06.09-.08.07-.18.17-.79.84-.79 1.63-.51 2.81.09.4.25.65.25 1.07-.01.97-.13 1.56 1.08 1.56.36 0 .95.07 1.23-.12.43-.3.32-.72.37-.94.43-.03 1.17.03 1.63.04h3.34c.46-.02 1.2-.07 1.63-.05.06.24-.05.66.39.95.28.18 1.61.15 1.85.04.57-.25.45-.96.45-1.49 0-.44.16-.67.25-1.09.52-2.27-.46-2.6-.69-2.96.18-.04.58-.21.67-.32.17-.19.15-.52-.06-.67-.15-.11-.56-.17-.78-.17-.35 0-.46.13-.59.36-.19-.31-.39-.88-.56-1.26-.18-.4-.52-.8-.88-.97-1-.46-5.87-.45-6.72 0-.96.51-.95 1.41-1.44 2.22zm10.01 2.87c.08-.29.02-.57-.15-.74-.35-.36-1.99.29-2.12.45-.15.19-.07.58.07.72.18.19.53.13.84.13.68 0 1.18.11 1.36-.56zm-10.44-.07c.19.71.56.63 1.28.63.27 0 .69.06.88-.09.16-.12.29-.45.16-.7-.14-.28-1.78-.8-2.1-.56-.17.13-.29.42-.21.72zm1.19-2.26c.73-.02 1.47-.09 2.22-.11 1.27-.04 2.39 0 3.65.01.74.01 1.48.08 2.21.1-.23-.82-.54-1.59-1.29-2.01-.72-.4-4.73-.4-5.5 0-.75.39-1.05 1.22-1.29 2.01z"/><circle class="fil0 str0" cx="11.75" cy="12.64" r="3.46"/><path d="M17.01 17.63l-2.68-2.68c-.08.09-.17.17-.26.26l2.69 2.69c.04.04.14.02.21-.05.07-.07.09-.16.05-.21z" fill="#59656c"/></g><path fill="none" d="M0 0h21.77v21.77H0z"/></g></svg>