<svg xmlns="http://www.w3.org/2000/svg" width="134.36" height="131.147" viewBox="0 0 7.04 6.87" shape-rendering="geometricPrecision" text-rendering="geometricPrecision" image-rendering="optimizeQuality" fill-rule="evenodd" clip-rule="evenodd"><defs><style>.fil0{fill:#59656c;fill-rule:nonzero}</style></defs><g id="Слой_x0020_1"><g id="_1842335072"><path class="fil0" d="M1.4.79c.18 0 .34.07.45.19.12.12.19.28.19.45 0 .18-.07.34-.19.45-.12.12-.28.19-.45.19-.18 0-.34-.07-.45-.19a.636.636 0 01-.19-.45c0-.18.07-.34.19-.45.12-.12.28-.19.45-.19zm.31.33A.439.439 0 001.4.99c-.12 0-.23.05-.31.13-.08.08-.13.19-.13.31s.05.23.13.31c.08.08.19.13.31.13s.23-.05.31-.13c.08-.08.13-.19.13-.31s-.05-.23-.13-.31z"/><path class="fil0" d="M3.79 2.82l2.97 2.87c.14.16.22.34.26.53.04.18.03.37.02.56l-.01.1-1.74-.09-.18-.58-.47-.08-.23-.67-.52-.05-.16-.6h-.46l-.76-.9c-.07.02-.15.04-.22.05-.1.01-.19.02-.29.02-.55 0-1.05-.22-1.4-.58A1.982 1.982 0 012 .02c.55 0 1.05.22 1.4.58.36.36.58.86.58 1.4 0 .16-.02.31-.05.46-.03.13-.07.25-.13.37zm2.82 3L3.62 2.93l-.09-.03.05-.1a1.86 1.86 0 00.19-.81c0-.49-.2-.94-.52-1.26a1.784 1.784 0 00-2.52 0 1.784 1.784 0 000 2.52 1.784 1.784 0 001.78.44l.06-.02.78.92h.52l.16.61.51.05.23.68.47.08.18.56 1.41.08c.01-.14 0-.28-.02-.41a.898.898 0 00-.21-.44z"/><rect transform="matrix(.63201 .63293 -.50225 .50152 3.254 3.198)" width="4.79" height=".25" rx=".12" ry=".12" fill="#59656c"/></g></g></svg>