<svg xmlns="http://www.w3.org/2000/svg" width="60mm" height="60mm" viewBox="0 0 20.03 20.03" shape-rendering="geometricPrecision" text-rendering="geometricPrecision" image-rendering="optimizeQuality" fill-rule="evenodd" clip-rule="evenodd"><defs><style>.str0{stroke:#59656c;stroke-width:.33;stroke-miterlimit:22.9256}.fil0{fill:none}</style></defs><g id="Слой_x0020_1"><g id="_4802859200"><circle class="fil0 str0" cx="6.45" cy="6.64" r=".91"/><path class="fil0 str0" d="M10.27 9.01l5.08 4.91c.44.5.47 1.11.42 1.71l-2.65-.14-.31-.96-.79-.13-.39-1.14-.88-.08-.27-1.02-.83-.01-1.3-1.53a3.175 3.175 0 01-4.11-3.04c0-1.76 1.42-3.18 3.18-3.18 1.76 0 3.18 1.42 3.18 3.18 0 .52-.12 1.01-.34 1.44z"/><rect transform="matrix(.63201 .63293 -.50225 .50152 9.565 9.617)" width="8.08" height=".42" rx=".21" ry=".21" fill="#59656c"/></g><path class="fil0" d="M0 0h20.03v20.03H0z"/></g></svg>