<svg xmlns="http://www.w3.org/2000/svg" width="60mm" height="60mm" viewBox="0 0 15.17 15.17" shape-rendering="geometricPrecision" text-rendering="geometricPrecision" image-rendering="optimizeQuality" fill-rule="evenodd" clip-rule="evenodd"><defs><style>.str0{stroke:#59656c;stroke-width:.25;stroke-miterlimit:22.9256}.fil0{fill:none}</style></defs><g id="Слой_x0020_1"><g id="_4698891248"><path class="fil0 str0" d="M3.31 4.73h8.54c.38 0 .69.31.69.69v5.52c0 .38-.31.69-.69.69H3.31c-.38 0-.69-.31-.69-.69V5.42c0-.38.31-.69.69-.69z"/><path d="M8.18 6.79h3.42c.06 0 .11.06.11.13s-.05.13-.11.13H8.18c-.06 0-.11-.06-.11-.13s.05-.13.11-.13zm0 1.26h3.42c.06 0 .11.06.11.13s-.05.13-.11.13H8.18c-.06 0-.11-.06-.11-.13s.05-.13.11-.13zm0 1.25h3.42c.06 0 .11.06.11.13s-.05.13-.11.13H8.18c-.06 0-.11-.06-.11-.13s.05-.13.11-.13z" fill="#59656c"/><path class="fil0 str0" d="M7.21 9.93c0-.96.1-.89-.87-1.29-.1-.04-.33-.19-.43-.12-.2.14-.36.26-.69.07-.19-.11-.05-.18-.63.09-.75.35-.77.21-.77 1.08v.16c0 .14.04.11.37.11h2.79c.1 0 .23.03.23-.09z"/><ellipse class="fil0 str0" cx="5.51" cy="7.3" rx=".83" ry=".96"/><path class="fil0 str0" d="M7.58 3.53c.58 0 1.04.53 1.04 1.19H6.53c0-.66.47-1.19 1.04-1.19z"/></g><path class="fil0" d="M0 0h15.17v15.17H0z"/></g></svg>