<svg xmlns="http://www.w3.org/2000/svg" width="152.146" height="124.905" viewBox="0 0 6.83 5.61" shape-rendering="geometricPrecision" text-rendering="geometricPrecision" image-rendering="optimizeQuality" fill-rule="evenodd" clip-rule="evenodd"><defs><style>.fil0{fill:#59656c;fill-rule:nonzero}</style></defs><g id="Слой_x0020_1"><path class="fil0" d="M.55.8h5.73c.15 0 .29.06.39.16.1.1.16.24.16.39v3.71c0 .15-.06.29-.16.39-.1.1-.24.16-.39.16H.55c-.15 0-.29-.06-.39-.16-.1-.1-.16-.24-.16-.39V1.35c0-.15.06-.29.16-.39C.26.86.4.8.55.8zm5.73.17H.55c-.1 0-.2.04-.27.11a.37.37 0 00-.11.27v3.71c0 .1.04.2.11.27s.16.11.27.11h5.73c.1 0 .2-.04.27-.11a.37.37 0 00.11-.27V1.35c0-.1-.04-.2-.11-.27a.37.37 0 00-.27-.11z"/><path d="M3.82 2.28h2.29c.04 0 .08.04.08.09 0 .05-.03.09-.08.09H3.82c-.04 0-.08-.04-.08-.09 0-.05.03-.09.08-.09zm0 .84h2.29c.04 0 .08.04.08.09 0 .05-.03.09-.08.09H3.82c-.04 0-.08-.04-.08-.09 0-.05.03-.09.08-.09zm0 .84h2.29c.04 0 .08.04.08.09 0 .05-.03.09-.08.09H3.82c-.04 0-.08-.04-.08-.09 0-.05.03-.09.08-.09z" fill="#59656c"/><path class="fil0" d="M3.08 4.36v-.14c0-.2 0-.31-.04-.37-.05-.07-.17-.12-.43-.23l-.06-.02-.06-.03c-.06-.03-.14-.07-.15-.06h-.01c-.16.11-.29.2-.55.05-.03-.02-.05-.03-.07-.05-.02-.01-.02-.01-.28.11-.07.03-.14.06-.2.09-.27.11-.27.12-.27.56v.1c0 .01.01-.01.05-.01h2.05zm.17-.14v.16c0 .13-.07.15-.17.15H1.03c-.2 0-.22.01-.23-.15v-.11c0-.56.01-.56.37-.72.05-.02.12-.05.19-.09.36-.17.36-.16.46-.09.01.01.02.02.04.03.17.1.26.04.37-.04h.01c.09-.06.23 0 .32.05.02.01.04.02.05.02l.06.02c.29.12.43.18.51.29.07.11.07.23.07.47z"/><path class="fil0" d="M2.03 1.88c.18 0 .34.08.46.22.11.13.18.31.18.51s-.07.38-.18.51c-.12.14-.28.22-.46.22s-.34-.08-.46-.22a.79.79 0 01-.18-.51c0-.2.07-.38.18-.51.12-.14.28-.22.46-.22zm.33.33c-.09-.1-.2-.16-.33-.16s-.25.06-.33.16a.59.59 0 00-.14.4c0 .16.05.3.14.4.09.1.2.16.33.16s.25-.06.33-.16c.09-.1.14-.24.14-.4 0-.16-.05-.3-.14-.4zM3.42 0c.22 0 .42.1.56.26.14.16.23.38.23.62v.08H2.64V.88c0-.24.09-.46.23-.62.14-.16.34-.26.56-.26zm.43.38a.56.56 0 00-.43-.21.56.56 0 00-.43.21c-.1.11-.16.26-.18.43h1.22a.795.795 0 00-.18-.43z"/></g></svg>