<svg xmlns="http://www.w3.org/2000/svg" width="226.772" height="60mm" viewBox="0 0 24.25 24.25" shape-rendering="geometricPrecision" text-rendering="geometricPrecision" image-rendering="optimizeQuality" fill-rule="evenodd" clip-rule="evenodd"><defs><style>.str0{stroke:#59656c;stroke-width:.4;stroke-miterlimit:22.9256}.fil0{fill:none}</style></defs><g id="Слой_x0020_1"><g id="_852386032"><path class="fil0 str0" d="M9.67 6.47c0 .77.31 1.35.71 1.75 1.56 1.56 4.2.48 4.2-1.75 0-1.32-1.09-2.43-2.48-2.43-1.32 0-2.43 1.11-2.43 2.43zm-3.78 9.91c0 .62.14.91.58 1.33.43.42.99.43 1.59.43v-2.57c0-.93.41-1.76 1.31-2.07l2.62-.13-2.35-4.4c-.96 0-1.94.08-2.24 1.25l-1.5 6.17zm6.42-3.01l2.74.12c.48.16.88.5 1.1.92.41.77.13 3.65.28 3.71.33.15 1.07-.16 1.34-.38.37-.3.59-.74.59-1.14l-1.33-5.83c-.17-.82-.36-1.28-1.13-1.66-.33-.16-.76-.15-1.25-.15l-2.35 4.4z"/><path class="fil0 str0" d="M9.22 15.28v2.61h5.94l-.08-2.93c-.11-.19-.36-.41-.65-.41H9.95c-.37 0-.73.36-.73.73z"/><rect class="fil0 str0" x="7.68" y="19.06" width="8.88" height="1.06" rx=".25" ry=".25"/></g><path class="fil0" d="M0 0h24.25v24.25H0z"/></g></svg>