<svg xmlns="http://www.w3.org/2000/svg" width="60mm" height="60mm" viewBox="0 0 18.8 18.8" shape-rendering="geometricPrecision" text-rendering="geometricPrecision" image-rendering="optimizeQuality" fill-rule="evenodd" clip-rule="evenodd"><defs><style>.fil1{fill:#59656c}.fil0{fill:#fefefe}</style></defs><g id="Слой_x0020_1"><g id="_4685382304"><path class="fil0" d="M9.08 6.5c.45-.05.9 0 1.29.14.5.18.76.39 1.11.72.06.05.13.12.18.19.11.13.2.28.29.44.43.75.47 1.55.2 2.37-.13.4-.27.63-.53.94-.48.57-1.14.93-1.91 1.02-.98.12-1.87-.31-2.4-.85-.19-.2-.34-.37-.47-.62-.17-.33-.3-.68-.36-1.11-.12-.96.31-1.87.85-2.39.5-.49.98-.75 1.74-.83zm.04-1.28C7.13 5.3 5.33 6.19 4 7.3c-.39.33-.78.66-1.12 1.04l-.18.19-.17.2c-.13.15-.38.44-.47.62-.07.15.27.5.39.65.05.06.11.14.16.19.04.04.05.06.08.09.13.16.65.68.82.81.04.03.05.05.09.08.03.03.06.05.1.08l.61.49c1.45 1.11 3.3 1.91 5.38 1.83 1.66-.06 3.21-.72 4.29-1.47.14-.1.28-.19.42-.3.39-.29.81-.66 1.17-.99.13-.12.24-.23.36-.36l.5-.58c.06-.07.11-.12.17-.2.2-.26.18-.3.06-.48-.09-.14-.21-.28-.32-.4-.36-.4-.35-.42-.77-.83l-.19-.18c-.24-.23-.63-.54-.89-.75-1.4-1.1-3.35-1.92-5.37-1.83z"/><path class="fil0" d="M6.8 9.57a2.6 2.6 0 002.78 2.42c1.37-.09 2.53-1.3 2.41-2.79-.1-1.35-1.28-2.53-2.77-2.41-1.39.11-2.53 1.25-2.43 2.77z"/><path class="fil1" d="M9.11 5.22c2.02-.08 3.97.73 5.37 1.83.26.2.66.52.89.75l.19.18c.43.41.41.44.77.83.11.12.23.26.32.4.12.18.13.22-.06.48-.06.08-.1.13-.17.2l-.5.58c-.12.13-.23.24-.36.36-.36.33-.78.71-1.17.99l-.42.3c-1.09.75-2.63 1.4-4.29 1.47-2.08.08-3.93-.73-5.38-1.83l-.61-.49c-.03-.03-.06-.05-.1-.08-.04-.04-.05-.05-.09-.08-.18-.14-.69-.66-.82-.81-.03-.04-.04-.06-.08-.09-.05-.05-.11-.13-.16-.19-.12-.15-.47-.49-.39-.65.09-.18.33-.47.47-.62.05-.06.12-.13.17-.2l.18-.19c.34-.38.73-.71 1.12-1.04 1.33-1.11 3.13-2 5.12-2.08zm7.94 4.29c.06-.22-.09-.42-.18-.56-.1-.15-.31-.41-.42-.53l-.27-.3c-.5-.56-1.41-1.31-2.07-1.74-1.24-.8-2.73-1.47-4.59-1.5-2.25-.04-4.03.88-5.58 2.04-.27.2-.41.35-.62.52-.22.18-.44.44-.57.56-.11.1-.53.58-.63.71-.03.04-.06.06-.09.1-.45.55-.33.77.06 1.25l.54.61c.07.07.11.13.18.2.21.23.77.71 1.01.9 1.49 1.18 3.26 2.1 5.46 2.14.93.02 1.82-.15 2.63-.42.64-.21 1.5-.62 2.05-.99.45-.3.92-.62 1.32-.97.08-.07.13-.12.2-.18.12-.1.81-.81.93-.96.18-.22.55-.53.64-.88z"/><path class="fil1" d="M6.8 9.57C6.7 8.05 7.84 6.91 9.23 6.8c1.49-.12 2.66 1.05 2.77 2.41.11 1.49-1.05 2.7-2.41 2.79a2.6 2.6 0 01-2.78-2.42zm2.28-3.08c-.76.08-1.24.34-1.74.83-.54.52-.97 1.44-.85 2.39.05.43.18.77.36 1.11.13.25.29.43.47.62.53.55 1.43.97 2.4.85.77-.09 1.43-.45 1.91-1.02.25-.3.4-.54.53-.94.27-.82.23-1.62-.2-2.37-.09-.16-.18-.31-.29-.44-.05-.06-.12-.14-.18-.19-.35-.33-.61-.54-1.11-.72-.4-.14-.85-.19-1.29-.14z"/></g><path fill="none" d="M0 0h18.8v18.8H0z"/></g></svg>