<svg xmlns="http://www.w3.org/2000/svg" width="184.956" height="108.89" viewBox="0 0 12.51 7.37" shape-rendering="geometricPrecision" text-rendering="geometricPrecision" image-rendering="optimizeQuality" fill-rule="evenodd" clip-rule="evenodd"><defs><style>.fil1{fill:#59656c}.fil0{fill:#fefefe}</style></defs><g id="Слой_x0020_1"><path class="fil0" d="M5.99 1.32c.36-.04.73 0 1.05.11.41.14.62.32.91.59.05.04.1.1.15.15.09.11.16.23.24.36.35.61.39 1.26.17 1.93-.11.32-.22.52-.43.76-.39.47-.93.76-1.56.83-.8.09-1.53-.25-1.96-.7a2.46 2.46 0 01-.39-.51c-.14-.27-.25-.55-.29-.9-.1-.78.25-1.53.69-1.95.41-.4.8-.61 1.42-.68zM6.02.28c-1.63.07-3.09.79-4.18 1.7-.32.27-.64.54-.92.85l-.14.15c-.04.05-.09.11-.14.16-.11.12-.31.36-.38.5-.06.12.22.4.32.53l.13.16c.03.03.04.05.07.08.11.13.53.55.67.66l.07.07c.03.03.05.04.08.06l.49.4c1.18.9 2.69 1.56 4.39 1.5 1.36-.05 2.62-.59 3.5-1.2.12-.08.23-.16.34-.24.32-.23.66-.54.96-.81.11-.1.19-.19.29-.29l.41-.47c.05-.06.09-.1.14-.16.16-.21.15-.24.05-.39a4.03 4.03 0 00-.26-.32c-.29-.32-.28-.34-.63-.68l-.15-.14c-.19-.19-.52-.44-.73-.61C9.26.89 7.67.23 6.01.29z"/><path class="fil0" d="M4.13 3.83a2.126 2.126 0 104.24-.3c-.08-1.1-1.04-2.06-2.26-1.96-1.14.09-2.06 1.02-1.98 2.26z"/><path class="fil1" d="M6.02.27c1.65-.07 3.24.6 4.39 1.5.21.17.54.42.73.61l.15.14c.35.34.34.36.63.68.09.1.18.21.26.32.1.15.11.18-.05.39-.05.06-.09.11-.14.16l-.41.47c-.1.11-.18.2-.29.29-.29.27-.64.58-.96.81-.11.08-.22.16-.34.24-.89.61-2.15 1.14-3.5 1.2-1.7.07-3.21-.59-4.39-1.5l-.49-.4c-.03-.03-.05-.04-.08-.06l-.07-.07c-.14-.11-.56-.54-.67-.66-.03-.03-.04-.05-.07-.08-.04-.04-.09-.11-.13-.16-.1-.12-.38-.4-.32-.53.07-.15.27-.38.38-.5.04-.05.1-.11.14-.16l.14-.15c.28-.31.6-.58.92-.85C2.94 1.05 4.4.33 6.03.26zm6.48 3.5c.05-.18-.07-.35-.15-.46a2.98 2.98 0 00-.35-.43l-.22-.24c-.41-.45-1.15-1.07-1.69-1.42C9.08.57 7.86.02 6.34 0 4.5-.03 3.05.71 1.79 1.66c-.22.16-.34.29-.51.43-.18.15-.36.36-.47.46-.09.08-.43.47-.51.58-.03.03-.05.05-.07.08-.37.45-.27.63.05 1.02l.44.5c.06.05.09.11.15.16.18.18.63.58.82.74 1.21.96 2.66 1.71 4.46 1.74.76.01 1.49-.12 2.15-.34.53-.18 1.23-.51 1.67-.81.37-.25.75-.51 1.08-.79.06-.05.11-.1.17-.14.1-.08.66-.66.76-.79.14-.18.45-.43.52-.72z"/><path class="fil1" d="M4.13 3.83c-.08-1.24.85-2.17 1.98-2.26 1.21-.1 2.17.86 2.26 1.96.09 1.22-.85 2.2-1.97 2.28-1.22.08-2.2-.85-2.27-1.98zm1.86-2.51c-.62.07-1.01.28-1.42.68-.44.43-.79 1.17-.69 1.95.04.35.15.63.29.9.11.2.23.35.39.51.43.45 1.16.79 1.96.7.63-.07 1.17-.37 1.56-.83.21-.25.32-.44.43-.76.22-.67.19-1.32-.17-1.93-.08-.13-.15-.25-.24-.36-.04-.05-.1-.11-.15-.15-.29-.27-.5-.44-.91-.59-.32-.11-.69-.15-1.05-.11z"/></g></svg>