<svg xmlns="http://www.w3.org/2000/svg" width="124.936" height="123.21" viewBox="0 0 19.1 18.84" shape-rendering="geometricPrecision" text-rendering="geometricPrecision" image-rendering="optimizeQuality" fill-rule="evenodd" clip-rule="evenodd"><path d="M16.66 18.43h2.04v-2.04c0-.11.09-.2.2-.2.11 0 .2.09.2.2v2.32s0 .01-.01.01v.01c0 .01-.01.01-.01.02-.03.05-.09.09-.15.1h-2.28a.2.2 0 01-.2-.2c0-.11.09-.2.2-.2zm0-18.02h2.04v2.04c0 .11.09.2.2.2a.2.2 0 00.2-.2V.13s0-.01-.01-.01V.11c0-.01-.01-.01-.01-.02a.226.226 0 00-.15-.1h-2.28a.2.2 0 00-.2.2c0 .11.09.2.2.2zM2.44 18.43H.4v-2.04a.2.2 0 00-.2-.2.2.2 0 00-.2.2v2.32s0 .01.01.01v.01c0 .01.01.01.01.02.03.05.09.09.15.1h2.28a.2.2 0 00.2-.2.2.2 0 00-.2-.2zm0-18.02H.4v2.04a.2.2 0 01-.2.2.2.2 0 01-.2-.2V.13S0 .12.01.12V.11C.01.1.02.1.02.09.05.04.11 0 .17-.01h2.28c.11 0 .2.09.2.2a.2.2 0 01-.2.2z" fill="#55adad"/><path d="M9.48 2.89c0 .04 0 .09.01.15l.23-.34.22.44c.03.05.04.1.05.16.03.1.07.25.13.29l.15.09-.01.17c-.01.23-.03.44-.06.65-.03.24-.06.47-.06.69v.3l-.3-.02c-.61-.03-1.26.01-1.94.12-.7.12-1.44.31-2.2.57l-.12.04c-.22.09-.27.11-.57-.05l-.02-.01-.02-.01c-.77-.58-1.13-1.39-1.33-2.01-.03.5-.01 1.04.07 1.2.25.53.67.73.9.84.14.07.23.11.29.21l.06.1-.03.12c-.03.11-.17.26-.3.38l-.11.11c-.5.59-.86 1.44-1.14 2.33-.28.9-.47 1.86-.63 2.64-.15.76-.36 1.17-.66 1.75-.07.14-.14.28-.2.39l-.02.04-.03.03c-.06.07-.14.13-.23.2-.21.17-.51.41-.42.52.01.01.06.02.11.03.09.01.2-.01.27-.05.22-.11.41-.24.56-.39.14-.14.24-.3.31-.48.18-.49.68-1.32.97-1.82l.06-.1c.14-.23.24-.45.34-.66.37-.77.68-1.42 1.94-1.95.27-.12.57-.06.84.08.3.16.58.43.72.66.31.49-.31 1.08-.8 1.55-.2.19-.36.32-.36.33 0 .07.1.45.24.87.16.49.34 1 .43 1.15l.43.07c.18.03.38.05.55.04.07 0 .13 0 .18-.01l-.12-.08c-.17-.11-.38-.21-.48-.25a.622.622 0 01-.19-.14c-.14-.14-.26-.37-.33-.6-.07-.25-.08-.51.01-.7a.99.99 0 01.11-.17c.1-.1.35-.26.61-.44.29-.19.59-.39.66-.47l.01-.01c.05-.06.12-.15.19-.2l.12-.1.15.04c.02.01.08.03.13.05.05.02.1.04.13.05l.14.06.02.15c.02.11.03.22.04.33.01.09.01.19.02.26.03.25.08.51.14.77.05.26.12.51.18.76.3 1.11.26 2.24.22 3.37-.01.26-.02.53-.02.78v.01c0 .11.06.22.14.29.1.09.23.14.37.14h.01c.12 0 .24-.03.33-.07.08-.04.14-.08.16-.13.06-.11-.05-.22-.12-.29a.806.806 0 01-.12-.14c-.03-.06-.07-.2-.1-.36-.05-.24-.09-.55-.11-.63-.06-.4-.09-.85-.1-1.31-.01-.49.01-.98.05-1.41.01-.13.14-.67.28-1.18.12-.46.25-.92.31-1.06l.06-.15.16-.02c.29-.04.53-.06.75-.08.4-.04.72-.06 1.36-.25l.22-.07.11.21c.05.09.08.25.1.42.03.23.04.49.04.61 0 .38-.02.76-.06 1.15-.04.38-.1.76-.17 1.12-.03.15-.06.29-.09.43-.1.45-.2.88-.08 1.35.02.09.06.16.11.2.06.05.15.09.26.13.12.04.22.04.31.02s.18-.07.26-.14c.11-.09.06-.19-.04-.31a1.01 1.01 0 00-.13-.16c-.03-.04-.06-.08-.11-.14a.83.83 0 01-.15-.25c-.03-.1-.05-.2-.05-.34 0-.37.06-.74.15-1.1.09-.36.19-.69.3-1 .08-.23.18-.43.27-.62.16-.33.31-.64.31-1.02 0-.24.13-.51.29-.83.2-.41.45-.92.45-1.46 0-.64-.22-1.35-.41-1.99-.16-.53-.31-1.02-.32-1.42 0-.13.06-.27.14-.46.14-.32.36-.83.36-1.5 0-.26.01-.26.15-.38.01-.01.02-.01.03-.02.06-.06.11-.18.15-.28.03-.09.06-.17.11-.23l.25-.38c-.06-.23-.14-.44-.2-.55-.16-.34-.27-.35-.4-.37-.14-.02-.28-.04-.47-.15-.56-.33-1.01-.36-1.53-.39-.21-.01-.43-.02-.66-.05-.31-.04-.66-.05-.98 0-.24.04-.47.11-.65.23-.14.09-.41.15-.66.21-.12.03-.24.05-.34.08-.55.17-.55.57-.54 1.13v.12zm-.55.41c-.02-.15-.03-.32-.03-.41v-.12c0-.8 0-1.38.95-1.68.1-.03.24-.06.38-.09.2-.04.42-.09.47-.13.26-.17.57-.27.89-.32.38-.06.78-.04 1.13 0 .23.03.43.04.63.05.6.03 1.11.06 1.8.47.09.05.17.06.26.08.29.04.54.08.84.69.09.18.26.63.31 1.03.03.3 0 .6-.19.8l-.1.11-.14-.02c-.05-.01-.1-.02-.14-.04-.04.07-.09.15-.16.22l-.01.01c0 .78-.26 1.36-.41 1.72-.05.12-.09.21-.09.22.01.33.15.78.3 1.28.21.68.44 1.44.44 2.16 0 .67-.28 1.25-.51 1.71-.12.25-.23.47-.23.58 0 .51-.18.88-.37 1.27-.09.18-.17.36-.24.56-.1.3-.21.62-.29.94-.08.32-.13.64-.13.97 0 .08 0 .12.01.15.01.02.03.05.06.09l.11.13.14.17c.3.38.44.73-.07 1.12-.14.11-.3.2-.47.24-.18.05-.38.05-.61-.02-.19-.06-.35-.14-.48-.25a.962.962 0 01-.29-.49c-.15-.61-.04-1.1.08-1.62l.09-.41c.07-.35.12-.71.16-1.08.04-.36.06-.72.06-1.08 0-.1-.01-.33-.04-.53-.5.13-.81.16-1.17.19-.16.01-.33.03-.54.06-.06.19-.15.51-.23.84-.13.5-.25.99-.26 1.09-.04.41-.05.88-.04 1.35.01.43.04.86.1 1.24.01.09.06.39.1.61.02.11.03.17.03.18.01.01.01 0 .03.02.18.18.48.48.22.96-.08.16-.24.3-.42.38-.17.08-.37.13-.58.13h-.01c-.28 0-.54-.11-.74-.28a.952.952 0 01-.34-.72v-.01c0-.27.01-.53.02-.79.03-1.08.07-2.17-.21-3.2-.07-.26-.13-.52-.19-.79s-.11-.54-.14-.81l-.03-.25c-.16.14-.43.32-.69.49-.23.15-.45.3-.51.36-.03.06-.01.18.02.31.04.14.11.28.18.35l.02.02c.12.05.36.16.57.3.27.18.5.42.45.71-.02.14-.11.25-.24.32-.14.08-.35.11-.58.11-.21 0-.44-.02-.65-.05-.4-.06-.76-.2-.85-.37-.1-.19-.31-.74-.47-1.25-.15-.47-.27-.93-.27-1.08.01-.21.26-.44.54-.71.34-.32.77-.73.71-.83-.09-.15-.29-.34-.5-.45-.13-.07-.26-.1-.35-.06-1.05.44-1.32 1.01-1.64 1.66-.11.23-.22.47-.37.71l-.06.1c-.29.48-.77 1.29-.93 1.72-.1.26-.25.49-.44.68-.2.2-.44.37-.72.51-.16.08-.38.12-.57.11a.689.689 0 01-.51-.24c-.46-.56.11-1.02.5-1.34.06-.05.11-.09.15-.12.08-.15.13-.25.18-.35.27-.54.47-.92.6-1.6.16-.79.35-1.76.65-2.7.3-.96.69-1.88 1.25-2.54.03-.03.07-.07.11-.12-.31-.16-.74-.44-1.02-1.04-.11-.24-.16-.9-.12-1.49.03-.52.15-1 .36-1.17l.12-.09.14.04c.22.06.28.3.38.65.15.55.42 1.54 1.24 2.16.04.02.05.02.06.01.04-.02.1-.04.16-.06.79-.27 1.56-.47 2.29-.59.61-.1 1.21-.15 1.77-.14.01-.16.03-.31.05-.47.02-.16.04-.31.05-.45a1.07 1.07 0 01-.15-.22c-.05.01-.09.02-.14.02-.12 0-.24-.04-.33-.14a.657.657 0 01-.13-.33z" fill="#59656c" fill-rule="nonzero"/></svg>