<svg xmlns="http://www.w3.org/2000/svg" width="227.011" height="47mm" viewBox="0 0 62.78 49.12" shape-rendering="geometricPrecision" text-rendering="geometricPrecision" image-rendering="optimizeQuality" fill-rule="evenodd" clip-rule="evenodd"><defs><style>.fil1{fill:none}</style></defs><g id="Слой_x0020_1"><g id="_1637948992"><path d="M44.24 40.86h3.68v-3.68c0-.2.17-.37.37-.37.2 0 .37.17.37.37v4.17c0 .01-.01.02-.01.03v.01c0 .01 0 .01-.01.02s-.01.02-.02.03c-.06.09-.16.16-.27.18h-4.1c-.2 0-.37-.17-.37-.37 0-.2.17-.37.37-.37zm0-32.6h3.68v3.68c0 .2.17.37.37.37.2 0 .37-.17.37-.37V7.77c0-.01-.01-.02-.01-.03v-.01c0-.01 0-.01-.01-.02s-.01-.02-.02-.03a.424.424 0 00-.27-.18h-4.1c-.2 0-.37.17-.37.37 0 .2.17.37.37.37zm-25.71 32.6h-3.68v-3.68c0-.2-.17-.37-.37-.37-.2 0-.37.17-.37.37v4.17c0 .01.01.02.01.03v.01c0 .01 0 .01.01.02s.01.02.02.03c.06.09.16.16.27.18h4.1c.2 0 .37-.17.37-.37 0-.2-.17-.37-.37-.37zm0-32.6h-3.68v3.68c0 .2-.17.37-.37.37-.2 0-.37-.17-.37-.37V7.77c0-.01.01-.02.01-.03v-.01c0-.01 0-.01.01-.02s.01-.02.02-.03c.06-.09.16-.16.27-.18h4.1c.2 0 .37.17.37.37 0 .2-.17.37-.37.37z" fill="#55adad"/><path class="fil1" d="M30.74 12.75c0 .23.03.85.16 1 .1.11.34.08.45 0 .1-.08.2-.21.26-.31.08.15.14.79.54 1.02-.02.8-.21 1.6-.21 2.44-2.31-.12-4.9.33-7.68 1.28-.46.16-.41.26-.84.03-2.35-1.76-2.41-4.9-2.79-5.01-.56.44-.58 3.52-.28 4.18.71 1.52 2.07 1.76 2.19 1.96-.02.08-.52.56-.63.69-1.92 2.27-2.75 6.39-3.32 9.24-.32 1.58-.78 2.29-1.49 3.73-.39.41-1.83 1.23-1.2 1.99.26.31.92.3 1.32.1.86-.43 1.53-1.04 1.84-1.86.33-.89 1.33-2.54 1.83-3.39 1.08-1.82 1.15-3.36 3.87-4.5.78-.32 1.81.52 2.18 1.12.53.84-2.15 2.61-2.18 3.09-.03.43.95 3.36 1.27 3.94.21.38 3.11.79 3.22.14.09-.53-1.14-1.09-1.53-1.27-.51-.23-1-1.64-.57-2.06.32-.32 2.03-1.32 2.32-1.68.08-.1.2-.24.29-.32.05.02.36.13.41.15.05.32.06.72.1 1.06.13.95.35 1.92.59 2.83.64 2.39.39 4.91.35 7.35-.01.74.68 1.32 1.46 1.32.6 0 1.16-.28 1.36-.65.36-.68-.33-1.1-.44-1.28-.07-.12-.27-1.36-.31-1.61-.22-1.47-.23-3.34-.1-4.81.03-.37.82-3.42 1.03-3.91 1.62-.24 2.08-.09 3.88-.62.12.23.19 1.3.19 1.62 0 1.34-.16 2.7-.41 4-.23 1.17-.63 2.19-.32 3.44.14.54.48.8 1.03.97.64.19 1.09.01 1.5-.31.77-.59.15-1.14-.41-1.84-.18-.23-.25-.36-.25-.76 0-1.26.4-2.54.78-3.63.39-1.13 1.08-1.91 1.08-3.14 0-.8 1.33-2.31 1.33-4.14 0-2.2-1.28-4.69-1.33-6.19-.01-.39.91-1.6.91-3.54 0-.29.01-.2.16-.36.29-.3.39-.81.52-1.01.1.2.23.51.44.53.55-.59-.06-2.23-.3-2.72-.63-1.3-1.05-.74-1.77-1.17-1.53-.91-2.57-.67-4.18-.87-1.08-.13-2.4-.11-3.3.49-.29.19-1.2.32-1.68.47-1.43.45-1.35 1.42-1.35 2.75z" stroke="#59656c" stroke-width="1.05" stroke-miterlimit="22.926"/></g><path class="fil1" d="M0 0h62.78v49.12H0z"/></g></svg>