<svg xmlns="http://www.w3.org/2000/svg" width="141.825" height="154.221" viewBox="0 0 6.41 6.97" shape-rendering="geometricPrecision" text-rendering="geometricPrecision" image-rendering="optimizeQuality" fill-rule="evenodd" clip-rule="evenodd"><defs><style>.fil0{fill:#59656c;fill-rule:nonzero}</style></defs><g id="Слой_x0020_1"><g id="_1764801376"><path class="fil0" d="M2.64 2.7l.39-1.15h-.28l-.15.49c-.04.13-.07.27-.1.4h-.01c-.03-.14-.06-.27-.1-.41l-.14-.48h-.28l.37 1.15h.3zm.51-1.15V2.7h.26V1.55h-.26zm.48 1.15h.26v-.41c.02 0 .05.01.09.01.15 0 .28-.04.37-.12.07-.06.11-.16.11-.27a.36.36 0 00-.12-.27c-.08-.06-.19-.09-.35-.09-.16 0-.27.01-.35.02V2.7zm.26-.95c.02-.01.05-.01.11-.01.13 0 .2.06.2.17 0 .12-.09.19-.22.19-.04 0-.06 0-.09-.01v-.34z"/><path class="fil0" d="M3.2 0c.58 0 1.11.24 1.49.62.38.38.62.91.62 1.49s-.24 1.11-.62 1.49c-.38.38-.91.62-1.49.62s-1.11-.24-1.49-.62a2.11 2.11 0 01-.62-1.49c0-.58.24-1.11.62-1.49C2.09.24 2.62 0 3.2 0zm1.37.74C4.22.39 3.74.17 3.2.17a1.944 1.944 0 00-1.94 1.94A1.944 1.944 0 003.2 4.05a1.944 1.944 0 001.94-1.94c0-.53-.22-1.02-.57-1.37z"/><path class="fil0" d="M1.49 3.07L.27 5.85c-.03.06-.05.1-.06.14h.01c.02 0 .04-.01.11-.02l.98-.22.38.84c.03.06.04.09.05.12.01-.03.03-.07.05-.12l1.05-2.52.16.07-1.05 2.52c-.02.04-.04.09-.05.12-.05.13-.08.19-.15.19-.07 0-.1-.06-.15-.18-.02-.04-.04-.09-.06-.13l-.32-.71-.85.19c-.02 0-.06.01-.1.02-.14.03-.2.05-.25-.02-.04-.06-.01-.11.04-.21.02-.04.04-.09.06-.14l1.22-2.78.16.07zM.18 6.02c-.02.01-.03 0-.02.02.01.02.01 0 .02-.02zm1.57.75c-.01.02-.02.03 0 .03s.01-.01 0-.03zM5.07 3l1.22 2.78c.02.05.04.1.06.14.05.1.08.16.04.21-.04.07-.11.05-.25.02-.04-.01-.08-.02-.1-.02l-.85-.19-.32.71c-.02.04-.04.09-.06.13-.05.12-.08.18-.15.18-.08 0-.1-.06-.15-.19a.612.612 0 00-.05-.12L3.41 4.13l.16-.07 1.05 2.52c.02.05.04.09.05.12.01-.03.03-.07.05-.12l.38-.84.98.22c.06.01.09.02.11.02h.01a.645.645 0 01-.06-.14L4.92 3.06l.16-.07zm1.18 3.04c.01-.02 0-.01-.02-.02.01.02.01.04.02.02zm-1.59.76c.02 0 .01-.01 0-.03-.01.02-.02.03 0 .03z"/><path d="M2.63 2.69L3 1.58h-.24l-.14.48-.06.2c-.02.07-.03.14-.05.2v.01h-.03v-.01c-.01-.07-.03-.14-.05-.21l-.06-.2-.14-.47h-.25l.36 1.11h.28zm.41-1.12l-.39 1.16h-.33l-.38-1.18h.32l.14.5c.02.07.04.14.06.2l.03.14.03-.14c.02-.07.04-.14.06-.2l.15-.5h.31l-.01.02zm.12.01v1.11h.23V1.58h-.23zm-.03 1.13V1.55h.29v1.18h-.29v-.02zm.52-.02h.22v-.41h.11c.08 0 .15-.01.21-.03.06-.02.11-.05.15-.09.03-.03.06-.07.07-.11.02-.04.03-.09.03-.15 0-.05-.01-.1-.03-.14a.313.313 0 00-.09-.11.458.458 0 00-.14-.07c-.06-.01-.12-.02-.2-.02-.08 0-.15 0-.2.01-.05 0-.09.01-.13.01v1.1zm.24.03h-.27V1.56h.01c.04-.01.09-.01.15-.02.06 0 .13-.01.21-.01.08 0 .15.01.21.02.06.02.11.04.15.07a.4.4 0 01.1.12c.02.05.03.1.03.16s-.01.11-.03.16a.36.36 0 01-.08.12c-.05.04-.1.07-.16.09a.78.78 0 01-.22.03h-.07v.41H3.9zm0-.98c.01 0 .03-.01.05-.01H4c.07 0 .12.02.16.05.04.03.06.08.06.14 0 .06-.02.11-.07.15-.04.03-.1.05-.17.05h-.05c-.02 0-.03 0-.04-.01h-.01v-.37h.01zm.05.03h-.03v.31h.07c.07 0 .12-.02.15-.05.03-.03.05-.07.05-.12 0-.05-.02-.09-.05-.11-.03-.03-.08-.04-.14-.04h-.06z" fill="#fff" fill-rule="nonzero"/></g></g></svg>