<svg xmlns="http://www.w3.org/2000/svg" width="60mm" height="60mm" viewBox="0 0 16.36 16.36" shape-rendering="geometricPrecision" text-rendering="geometricPrecision" image-rendering="optimizeQuality" fill-rule="evenodd" clip-rule="evenodd"><defs><style>.str0{stroke:#59656c;stroke-width:.27;stroke-miterlimit:22.9256}.fil0{fill:none}</style></defs><g id="Слой_x0020_1"><g id="_4685443072"><circle class="fil0 str0" cx="8.18" cy="5.97" r="3.22"/><path class="fil0 str0" d="M5.33 7.47l-1.95 4.44c-.23.53-.31.49.24.36l1.46-.33c.19.41.38.82.56 1.23.26.56.18.57.41 0l1.67-4.02m3.32-1.68l1.95 4.44c.23.53.31.49-.24.36l-1.46-.33c-.19.41-.38.82-.56 1.23-.26.56-.18.57-.41 0L8.65 9.15"/></g><path d="M7.28 6.93L7.9 5.1h-.44l-.23.78c-.06.21-.12.43-.17.65h-.01c-.04-.23-.1-.44-.16-.66l-.22-.77h-.45l.59 1.83h.48zm.81-1.83v1.83h.42V5.1h-.42zm.77 1.83h.41v-.66c.04.01.09.01.14.01.24 0 .45-.06.6-.19.11-.1.17-.26.17-.43 0-.18-.08-.33-.2-.42-.12-.1-.3-.15-.56-.15-.25 0-.43.02-.56.04v1.81zm.41-1.52c.03-.01.09-.02.17-.02.21 0 .32.1.32.27 0 .19-.14.3-.36.3-.06 0-.1 0-.14-.01v-.54z" fill="#59656c" fill-rule="nonzero"/><path class="fil0" d="M0 0h16.36v16.36H0z"/></g></svg>