<svg xmlns="http://www.w3.org/2000/svg" width="60mm" height="60mm" viewBox="0 0 17.61 17.61" shape-rendering="geometricPrecision" text-rendering="geometricPrecision" image-rendering="optimizeQuality" fill-rule="evenodd" clip-rule="evenodd"><defs><style>.str0{stroke:#59656c;stroke-width:.29;stroke-miterlimit:22.9256}.fil0{fill:none}</style></defs><g id="Слой_x0020_1"><g id="_4685401344"><path class="fil0 str0" d="M11.49 12.17v-1.14c.01-1.12-.04-1.1-1.51-1.71-.18-.07-.58-.33-.74-.21-.35.24-.63.45-1.2.12-.32-.18-.09-.31-1.09.16-1.31.61-1.33.36-1.33 1.87v.83"/><ellipse class="fil0 str0" cx="8.55" cy="7" rx="1.44" ry="1.67"/><circle class="fil0 str0" cx="8.56" cy="8.66" r="4.6"/><path d="M15.47 15.38l-3.56-3.56-.21.21 3.56 3.56c.06.06.15.06.21 0s.06-.15 0-.21z" fill="#59656c"/></g><path class="fil0" d="M0 0h17.61v17.61H0z"/></g></svg>