<svg xmlns="http://www.w3.org/2000/svg" width="150.582" height="150.805" viewBox="0 0 7.77 7.79" shape-rendering="geometricPrecision" text-rendering="geometricPrecision" image-rendering="optimizeQuality" fill-rule="evenodd" clip-rule="evenodd"><defs><style>.fil0{fill:#59656c;fill-rule:nonzero}</style></defs><g id="Слой_x0020_1"><path class="fil0" d="M5 5.49v-.76c.01-.65-.02-.66-.84-1l-.1-.04c-.03-.01-.06-.03-.1-.05-.11-.05-.26-.13-.3-.1l-.01.01c-.26.18-.46.32-.89.08-.05-.03-.08-.05-.11-.07-.05-.04-.05-.04-.53.18l-.33.15c-.48.21-.5.21-.5 1.01v.55H1.1V4.9c0-.92.02-.93.61-1.18l.33-.15c.59-.27.6-.27.73-.16.02.02.04.04.08.06.32.18.48.07.68-.07l.01-.01c.13-.09.35.01.5.09.03.02.06.03.09.04l.1.04c.93.39.97.4.96 1.18v.76H5zM3.15.84a1 1 0 01.75.36c.19.22.3.52.3.85 0 .33-.12.63-.3.85a1 1 0 01-.75.36 1 1 0 01-.75-.36c-.19-.22-.3-.52-.3-.85 0-.33.12-.63.3-.85a1 1 0 01.75-.36zm.6.49a.805.805 0 00-.6-.29c-.23 0-.45.11-.6.29-.16.18-.26.44-.26.72 0 .28.1.54.26.72.16.18.37.29.6.29.23 0 .45-.11.6-.29.16-.18.26-.44.26-.72 0-.28-.1-.54-.26-.72z"/><path class="fil0" d="M3.15 0A3.144 3.144 0 016.3 3.15 3.144 3.144 0 013.15 6.3 3.144 3.144 0 010 3.15 3.144 3.144 0 013.15 0zm2.09 1.06a2.949 2.949 0 00-4.18 0 2.949 2.949 0 000 4.18 2.949 2.949 0 004.18 0 2.949 2.949 0 000-4.18z"/><path d="M7.75 7.62L5.38 5.25c-.04.05-.09.09-.14.14l2.37 2.37c.04.04.1.04.14 0 .04-.04.04-.1 0-.14z" fill="#59656c"/></g></svg>