<svg xmlns="http://www.w3.org/2000/svg" width="124.551" height="137.09" viewBox="0 0 4.1 4.51" shape-rendering="geometricPrecision" text-rendering="geometricPrecision" image-rendering="optimizeQuality" fill-rule="evenodd" clip-rule="evenodd"><defs><style>.fil0{fill:#59656c;fill-rule:nonzero}</style></defs><g id="Слой_x0020_1"><path class="fil0" d="M3.97 4.34v-.28c0-.37.01-.57-.08-.7-.1-.15-.32-.24-.79-.43L3 2.89c-.03-.01-.06-.03-.1-.05-.12-.06-.29-.14-.35-.1l-.01.01c-.25.17-.45.32-.87.08a.534.534 0 01-.1-.07c-.07-.05-.07-.06-.58.18a7.4 7.4 0 01-.34.15c-.51.22-.53.23-.53 1.06v.18c0 .07.02.07.18.07h3.59c.04 0 .08-.01.08-.05zm.13-.28v.28c0 .15-.09.17-.2.17H.31c-.27.01-.3.01-.31-.19v-.19c0-.91.01-.92.6-1.17.09-.04.21-.09.34-.15.58-.27.58-.26.71-.16.02.02.05.04.09.06.35.2.52.08.73-.07l.01-.01c.12-.08.32.02.47.09.03.02.07.03.09.04l.1.04c.49.2.73.3.85.48.11.16.11.37.1.77z"/><path d="M3.17 2.36h.57v-.57c0-.03.03-.06.06-.06s.06.03.06.06v.63c-.01.01-.02.02-.04.03h-.63c-.03 0-.06-.03-.06-.06s.03-.06.06-.06zm0-2.25h.57v.57c0 .03.03.06.06.06s.06-.03.06-.06V.05a.138.138 0 00-.04-.03h-.63c-.03 0-.06.03-.06.06s.03.06.06.06zM.93 2.36H.36v-.57c0-.03-.03-.06-.06-.06s-.06.03-.06.06v.63c.01.01.02.02.04.03h.63c.03 0 .06-.03.06-.06s-.03-.06-.06-.06zm0-2.25H.36v.57C.36.71.33.74.3.74S.24.71.24.68V.05C.25.04.26.03.28.02h.63c.03 0 .06.03.06.06S.94.14.91.14z" fill="#59656c"/><path class="fil0" d="M2.05.06c.29 0 .55.13.74.35.19.21.3.51.3.84 0 .33-.11.62-.3.84a.97.97 0 01-.74.35.97.97 0 01-.74-.35c-.19-.21-.3-.51-.3-.84 0-.33.11-.62.3-.84a.97.97 0 01.74-.35zm.64.43a.841.841 0 00-.64-.31c-.25 0-.48.12-.64.31-.17.19-.27.46-.27.76s.1.56.27.76c.16.19.39.31.64.31s.48-.12.64-.31c.17-.19.27-.46.27-.76s-.1-.56-.27-.76z"/></g></svg>