<svg xmlns="http://www.w3.org/2000/svg" width="60mm" height="60mm" viewBox="0 0 13.57 13.57" shape-rendering="geometricPrecision" text-rendering="geometricPrecision" image-rendering="optimizeQuality" fill-rule="evenodd" clip-rule="evenodd"><defs><style>.str0{stroke:#59656c;stroke-width:.23;stroke-miterlimit:22.9256}.fil0{fill:none}</style></defs><g id="Слой_x0020_1"><g id="_4612167584"><path class="fil0 str0" d="M10.39 10.62c0-2.05.21-1.9-1.85-2.75-.22-.09-.71-.4-.92-.26-.43.3-.77.55-1.48.15-.4-.23-.11-.38-1.34.19-1.61.75-1.64.44-1.64 2.3 0 .11-.01.23 0 .34.01.3.08.23.79.23h5.94c.22 0 .49.07.49-.19z"/><path d="M8.82 7.03h1.04V5.99a.1.1 0 01.2 0v1.16c-.02.03-.04.05-.08.05H8.83a.1.1 0 010-.2zm0-4.08h1.04v1.04a.1.1 0 00.2 0V2.83c-.02-.03-.04-.05-.08-.05H8.83a.1.1 0 000 .2zM4.75 7.03H3.71V5.99a.1.1 0 00-.2 0v1.16c.02.03.04.05.08.05h1.15a.1.1 0 000-.2zm0-4.08H3.71v1.04a.1.1 0 01-.2 0V2.83c.02-.03.04-.05.08-.05h1.15a.1.1 0 010 .2z" fill="#59656c"/><ellipse class="fil0 str0" cx="6.78" cy="5.01" rx="1.77" ry="2.05"/></g><path class="fil0" d="M0 0h13.57v13.57H0z"/></g></svg>