<svg xmlns="http://www.w3.org/2000/svg" width="60mm" height="60mm" viewBox="0 0 42.55 42.55" shape-rendering="geometricPrecision" text-rendering="geometricPrecision" image-rendering="optimizeQuality" fill-rule="evenodd" clip-rule="evenodd"><defs><style>.fil0{fill:#59656c}</style></defs><g id="Слой_x0020_1"><g id="_5211883952"><path class="fil0" d="M17.12 22.08c.5-.2.68.55.27.71-.47.18-.76-.51-.27-.71zm4.03-1.82c.52-.2.67.57.28.7-.48.16-.77-.51-.28-.7zm4.55-.16c.53-.18.67.59.23.71-.47.13-.73-.54-.23-.71zm-7.22-1.9c.46-.14.64.62.17.73a.376.376 0 01-.17-.73zm5.08-.38c.52-.19.67.62.21.72-.47.1-.68-.56-.21-.72zm-3.92 1.14c1.36-.13 1.3.3 1.29-1.3-.01-.81-.05-1.7 0-2.5.57-.2 1.83.15 2.36.3v1.59c-.03.14-.9.36-.75 1.32.09.53.54.96 1.14.96 1.1 0 1.68-1.53.52-2.15-.13-.07-.09-.02-.14-.13v-1.23c.51.13 1.47.97 1.86 1.44 1.77 2.1 2.02 5.02.54 7.33-.46.71-1.39 1.7-2.22 2.07-.07-.36-.02-1.36-.02-1.79l.01-2.23c.02-.18.05-.15.18-.25.21-.17.78-.86.9-.88.16-.02.37.16.74.07 1.05-.25 1.2-1.63.32-2.13-.48-.28-1.04-.13-1.37.18-.56.53-.28 1.06-.26 1.36-.16.11-.33.32-.47.47-.16.17-.22.16-.46.44-.16.18-.33.25-.34.59-.06 1.34.08 2.99 0 4.54-.58.16-1.14.38-1.8.39v-5.73c1.26-.48.85-2.26-.43-2.22-.59.02-1.01.45-1.09.98-.14.84.56 1.11.75 1.26l-.01 5.69c-.37.05-1.62-.19-1.78-.42-.13-.26.1-2.75-.05-3.22-.11-.33-.73-.66-.75-.88-.01-.15.14-.35.07-.71-.23-1.13-1.96-1.27-2.25-.01-.11.5.14.96.4 1.15.49.36.68.23 1.26.15.44.55.58.29.56 1.33-.01.37.03 1.6-.04 1.86-.09-.08-.26-.15-.37-.22-.52-.34-1.24-.98-1.58-1.49a9.38 9.38 0 01-.48-.74c-1.22-2.07-.9-4.7.48-6.64.09-.13.18-.24.27-.35.68-.85 2.45-1.9 3.54-2v2.95l-.53-.01c-.15-.31-.2-.42-.46-.58-.23-.14-.52-.22-.83-.16-.53.1-.92.52-.92 1.13 0 .6.41 1.04.95 1.14.65.11 1.01-.26 1.27-.74zm1.22-4.6c-1.6.2-2.53.48-3.79 1.41-.18.13-.32.27-.46.4-.77.71-1.38 1.55-1.77 2.56-.99 2.54-.44 5.25 1.33 7.21.69.77 1.48 1.33 2.55 1.77 1.81.74 4.01.61 5.7-.26a6.892 6.892 0 002.71-2.48c1.56-2.53 1.39-5.54-.36-7.91l-.83-.9c-.56-.5-1.26-.99-2.13-1.33-.74-.29-2.09-.58-2.95-.47z"/><path class="fil0" d="M20.06 11.59c4.2-.31 7.73.96 10.72 2.65 1.44.82 2.63 1.79 3.87 2.84l.69.61c.08.06.14.11.21.18.3.29.54.57.82.83.3.27.52.61.8.9.27.27.92 1.08 1.11 1.41.16.29.12.28-.04.56-.23.39-.8 1.01-1.11 1.41l-.79.87c-.4.44-.85.8-1.08 1.05l-1.09.97c-1.6 1.29-2.03 1.64-3.96 2.74-2.21 1.26-5.08 2.14-7.71 2.33-4.86.35-9.27-1.44-12.72-3.98-1.27-.93-3.43-2.8-4.38-4.02-.36-.45-.83-.93-1.11-1.42-.17-.29-.15-.27.01-.56.23-.39 1.17-1.5 1.5-1.86.63-.69 1.88-1.91 2.56-2.45 2.07-1.65 3.49-2.72 6.24-3.81 1.68-.66 3.45-1.12 5.45-1.27zm19.03 9.93c.14-.54-.22-.99-.44-1.31-.23-.34-1.09-1.4-1.4-1.7-.09-.09-.14-.12-.22-.21-.42-.48-1.72-1.72-2.28-2.16-.91-.72-1.45-1.2-2.52-1.88-3.22-2.07-6.62-3.43-10.68-3.49-4.36-.07-7.94 1.44-10.9 3.28-.75.47-1.42.97-2.09 1.47-.34.26-.64.53-.97.79l-.92.84c-.89.88-1.76 1.77-2.55 2.75-.82 1.01-.94 1.41-.23 2.44.39.56 1.54 1.84 2.05 2.38l2.32 2.08c.65.53 1.31 1.02 2.04 1.49 7.11 4.6 14.38 4.68 21.58.22 1.52-.94 2.7-1.93 4-3.1.29-.26 1.63-1.68 1.93-2.07l.4-.46c.33-.35.73-.82.86-1.35z"/></g><path fill="none" d="M0 0h42.55v42.55H0z"/></g></svg>