<svg xmlns="http://www.w3.org/2000/svg" width="120.459" height="154.134" viewBox="0 0 6.85 8.77" shape-rendering="geometricPrecision" text-rendering="geometricPrecision" image-rendering="optimizeQuality" fill-rule="evenodd" clip-rule="evenodd"><defs><style>.fil0{fill:#59656c;fill-rule:nonzero}</style></defs><g id="Слой_x0020_1"><g id="_1805314192"><path class="fil0" d="M2.23 1.4c0 .18.03.33.09.47.06.15.15.28.26.39.25.25.55.36.85.36a1.18 1.18 0 00.85-.35 1.198 1.198 0 00-.01-1.7C4.05.36 3.75.22 3.41.22c-.32 0-.62.14-.83.35-.22.22-.35.51-.35.83zm-.11.55c-.06-.16-.1-.34-.1-.55 0-.38.16-.73.41-.98.25-.25.6-.41.98-.41.4 0 .75.16 1.01.41.26.26.42.61.42.99 0 .42-.16.76-.41 1.01-.13.13-.29.24-.46.31a1.402 1.402 0 01-1.55-.31c-.12-.12-.23-.27-.3-.46zM.22 6.68c0 .14.02.25.06.34.04.09.11.18.22.28.1.09.21.14.34.17.1.02.21.03.33.03V6.24c0-.28.06-.54.2-.76.13-.2.31-.36.57-.45l.01-.01 1.24-.06-1.14-2.14c-.22 0-.44.02-.62.09-.18.08-.33.22-.4.49l-.8 3.27zm-.14.43C.03 6.99 0 6.85 0 6.67v-.01c.27-1.1.52-2.2.8-3.3.09-.35.28-.54.53-.64.23-.1.5-.11.77-.11h.06l1.36 2.55-1.55.08c-.2.07-.34.2-.44.35-.11.18-.17.4-.17.64V7.7h-.11c-.16 0-.32 0-.48-.03a.82.82 0 01-.44-.23c-.12-.12-.21-.23-.26-.35z"/><path class="fil0" d="M3.7 4.97l1.3.06h.01c.14.05.27.12.38.21.11.09.2.2.27.33.15.28.14 1 .14 1.5 0 .25-.07.41-.04.43.05.02.14.01.25-.02.14-.04.29-.11.36-.17.09-.07.16-.16.2-.25.04-.09.07-.18.07-.26l-.71-3.09c-.04-.21-.09-.37-.17-.5a.9.9 0 00-.37-.31c-.14-.07-.33-.07-.54-.07h-.01L3.7 4.97zm1.26.27l-1.61-.07c.45-.85.91-1.7 1.36-2.55h.14c.24 0 .46 0 .64.09.22.11.36.23.46.39.1.15.15.34.2.57l.71 3.11v.01c0 .13-.03.25-.1.37-.06.12-.15.23-.26.32-.09.07-.27.16-.43.21-.14.04-.29.05-.39.01-.09-.04-.09-.29-.09-.63.01-.48.01-1.17-.11-1.4a.934.934 0 00-.22-.27c-.09-.07-.18-.13-.29-.17z"/><path class="fil0" d="M1.99 6.09v1.28h2.95L4.9 5.95a.318.318 0 00-.1-.1.22.22 0 00-.13-.04H2.29c-.07 0-.14.04-.19.09-.05.05-.09.12-.09.19zm-.22 1.39V6.09c0-.13.06-.25.15-.34a.51.51 0 01.35-.15h2.38c.09 0 .18.03.25.08a.6.6 0 01.19.2l.01.02.05 1.69H1.77v-.11zm-.57.51h4.46c.07 0 .13.03.17.07.04.04.07.1.07.17v.3c0 .07-.03.13-.07.17-.04.04-.1.07-.17.07H1.2c-.07 0-.13-.03-.17-.07a.241.241 0 01-.07-.17v-.3c0-.07.03-.13.07-.17.04-.04.1-.07.17-.07zm4.46.22H1.2c-.01 0-.01 0-.02.01 0 0-.01.01-.01.02v.3c0 .01 0 .01.01.02 0 0 .01.01.02.01h4.46c.01 0 .01 0 .02-.01 0 0 .01-.01.01-.02v-.3c0-.01 0-.01-.01-.02 0 0-.01-.01-.02-.01z"/></g></g></svg>