<svg xmlns="http://www.w3.org/2000/svg" width="107.04" height="142.442" viewBox="0 0 3.23 4.3" shape-rendering="geometricPrecision" text-rendering="geometricPrecision" image-rendering="optimizeQuality" fill-rule="evenodd" clip-rule="evenodd"><defs><style>.fil0{fill:#59656c;fill-rule:nonzero}</style></defs><g id="Слой_x0020_1"><path class="fil0" d="M.56 1.01h2.12c.15 0 .29.06.39.16.1.1.16.24.16.39v2.18c0 .15-.06.29-.16.39-.1.1-.24.16-.39.16H.56c-.15 0-.29-.06-.39-.16-.1-.1-.16-.24-.16-.39V1.56c0-.15.06-.29.16-.39.1-.1.24-.16.39-.16zm2.12.11H.56c-.12 0-.23.05-.31.13-.08.08-.13.19-.13.31v2.18c0 .12.05.23.13.31.08.08.19.13.31.13h2.12c.12 0 .23-.05.31-.13.08-.08.13-.19.13-.31V1.56c0-.12-.05-.23-.13-.31a.439.439 0 00-.31-.13z"/><path class="fil0" d="M1.62 0c.26 0 .5.12.67.31.17.19.27.46.27.75v.06H.68v-.06C.68.77.78.5.95.31c.17-.19.41-.31.67-.31zm.58.39a.771.771 0 00-.58-.28c-.23 0-.43.11-.58.28C.9.55.81.77.8 1.01h1.65c-.01-.24-.1-.46-.24-.62z"/></g></svg>