<svg xmlns="http://www.w3.org/2000/svg" width="142.438" height="142.405" viewBox="0 0 8.75 8.75" shape-rendering="geometricPrecision" text-rendering="geometricPrecision" image-rendering="optimizeQuality" fill-rule="evenodd" clip-rule="evenodd"><path d="M4.27 6.94h.22v.68h-.23l.01-.69zm-.01 0c-.01.09-.01.65 0 .71h.23c.02-.05.02-.62.01-.71a.964.964 0 00-.24 0zm0-5.83h.23v.69h-.23v-.7zm0 0c0 .01-.01 0-.01.02v.68h.24c.01-.06.01-.66 0-.71-.03 0-.2-.01-.23.01z" fill="#99a0a5"/><path d="M5.66 2.96c.02.14.11.14.26.14h2.34c.11 0 .26.01.36 0 .11-.02.19-.12.1-.22-.06-.07-.24-.04-.34-.04l-2.31-.01c-.16 0-.14.05-.14-.24V.26c0-.13.01-.25-.13-.25-.13 0-.14.14-.14.26l.01 1.15c0 .24-.02 1.41 0 1.54zm.26 2.96c.07-.02.65-.01.77-.01h1.94c.11-.02.15-.15.06-.22-.08-.07-.57-.04-.72-.04-.35 0-2.19-.03-2.27.03-.09.07-.05.58-.05.73v1.56c0 .15-.03.65.04.73.07.09.21.04.22-.07l.01-2.7zm-3.09-3.1c-.08.02-.65.01-.77.01H.12c-.1.02-.14.15-.07.22.08.07.58.04.72.04.35 0 2.19.03 2.27-.03.09-.07.05-.58.05-.73V.77c0-.14.03-.65-.04-.73-.07-.09-.21-.04-.22.07l-.01 2.7zm-.01 3.11c.03.1-.01 2.56.01 2.71.02.11.15.15.22.06.07-.08.04-.6.04-.74V6.42c0-.15.04-.65-.05-.72-.07-.06-.61-.04-.75-.04H.73c-.14 0-.63-.03-.71.04-.08.08-.03.21.09.22.12.01.27 0 .39 0 .35 0 2.23-.01 2.3.01zM1.11 4.49c.05.02.65.02.71 0v-.23h-.55l-.16.01v.23zm6.93 0h.71v-.23l-.29-.01h-.42zM0 4.49h.71v-.23l-.28-.01H0zm5.83 0h.71v-.23l-.28-.01h-.43zm-3.62 0h.71v-.23l-.29-.01h-.42zm2.04 4.26h.24v-.69a.964.964 0 00-.24 0v.71zm0-2.21h.24v-.7a.964.964 0 00-.24 0v.7zm0-5.83h.24V0h-.23zm0 2.2h.24v-.7h-.23l-.01.38zm2.69 1.58h.7v-.23l-.28-.01h-.43zM4.26 1.11v.7l.23-.01v-.69zm0 6.52h.23v-.69h-.22z" fill="#59656c"/></svg>