<svg xmlns="http://www.w3.org/2000/svg" width="147.718" height="119.396" viewBox="0 0 8.64 6.98" shape-rendering="geometricPrecision" text-rendering="geometricPrecision" image-rendering="optimizeQuality" fill-rule="evenodd" clip-rule="evenodd"><defs><style>.fil0{fill:#59656c;fill-rule:nonzero}</style></defs><g id="Слой_x0020_1"><g id="_1773721104"><path class="fil0" d="M.53 0h7.59a.514.514 0 01.52.52v1.71a.514.514 0 01-.52.52H.53a.514.514 0 01-.52-.52V.52A.514.514 0 01.53 0zm7.59.22H.53a.31.31 0 00-.22.09C.25.37.22.44.22.53v1.71c0 .08.03.16.09.22s.13.09.22.09h7.59c.08 0 .16-.03.22-.09s.09-.13.09-.22V.53a.31.31 0 00-.09-.22.294.294 0 00-.22-.09zm-3.8 2.91c.51 0 .97.21 1.3.54.33.33.54.79.54 1.3v1.46l-.05.03c-.27.17-.56.3-.86.39-.3.09-.61.13-.93.13a3.6 3.6 0 01-.93-.13c-.31-.09-.6-.22-.86-.39l-.05-.03V4.97c0-.51.21-.97.54-1.3.33-.33.79-.54 1.3-.54zm1.14.7c-.29-.29-.7-.48-1.14-.48-.45 0-.85.18-1.14.48-.29.29-.48.7-.48 1.14V6.3c.24.14.49.26.75.34.28.08.57.12.87.12.3 0 .59-.04.87-.12.27-.08.52-.19.75-.34V4.97c0-.45-.18-.85-.48-1.14z"/><path class="fil0" d="M7.83 2.63c.01.08.02.17.02.26.01.09.01.18.01.26 0 1.06-.4 2.01-1.03 2.71-.64.7-1.53 1.13-2.51 1.13-.98 0-1.87-.43-2.51-1.13C1.17 5.17.78 4.21.78 3.15c0-.08 0-.17.01-.26s.01-.18.02-.26l.01-.1h6.99l.01.1zm-.2.27c0-.05-.01-.1-.01-.15h-6.6c-.01.05-.01.1-.01.15 0 .08-.01.16-.01.25 0 1 .37 1.9.98 2.56.6.65 1.43 1.05 2.34 1.05.92 0 1.74-.4 2.34-1.05.6-.65.98-1.56.98-2.56 0-.09 0-.17-.01-.25z"/><path class="fil0" d="M4.32 3.96a.99.99 0 110 1.982.99.99 0 010-1.982zm.54.45a.755.755 0 00-.54-.22.8.8 0 00-.54.22c-.14.14-.22.33-.22.54 0 .21.09.4.22.54.14.14.33.22.54.22a.8.8 0 00.54-.22c.14-.14.22-.33.22-.54a.8.8 0 00-.22-.54z"/><circle cx="7.44" cy="1.53" r=".23" fill="#59656c"/></g></g></svg>