<svg xmlns="http://www.w3.org/2000/svg" width="60mm" height="60mm" viewBox="0 0 20.34 20.34" shape-rendering="geometricPrecision" text-rendering="geometricPrecision" image-rendering="optimizeQuality" fill-rule="evenodd" clip-rule="evenodd"><defs><style>.str0{stroke:#59656c;stroke-width:.34;stroke-miterlimit:22.9256}.fil0{fill:none}</style></defs><g id="Слой_x0020_1"><g id="_4802825120"><rect class="fil0 str0" x="3.72" y="4.99" width="12.91" height="3.89" rx=".64" ry=".64"/><path class="fil0 str0" d="M10.17 9.78c1.46 0 2.66 1.19 2.66 2.66v2.14c-.78.5-1.69.78-2.66.78-.97 0-1.88-.28-2.66-.78v-2.14c0-1.46 1.19-2.66 2.66-2.66z"/><path class="fil0 str0" d="M15.38 8.87c.03.25.05.51.05.77 0 3.15-2.36 5.71-5.26 5.71-2.91 0-5.26-2.56-5.26-5.71 0-.26.02-.52.05-.77h10.43z"/><circle class="fil0 str0" cx="10.17" cy="12.4" r="1.34"/><circle cx="14.96" cy="7.17" r=".36" fill="#59656c"/></g><path class="fil0" d="M0 0h20.34v20.34H0z"/></g></svg>