<svg xmlns="http://www.w3.org/2000/svg" width="135.517" height="141.31" viewBox="0 0 5.49 5.72" shape-rendering="geometricPrecision" text-rendering="geometricPrecision" image-rendering="optimizeQuality" fill-rule="evenodd" clip-rule="evenodd"><path d="M4.31 2.44l-.47-.64a.219.219 0 01-.03-.05c-.06-.08-.14-.2-.19-.23-.44-.21-.89-.42-1.33-.63-.05-.02-.1-.05-.16-.04-.06.01-.45.31-.72.52-.1.08-.18.14-.22.17h-.01c-.04.03-.08.06-.09.1-.01.03-.01.06-.01.08 0 .02.01.05.03.06.05.05.09.07.12.06.05-.01.1-.04.15-.08.12-.09.25-.18.37-.28.11-.08.22-.17.34-.26.08-.06.08-.06.16-.02l.01.01c.07.03.15.07.23.11.12.06.25.11.33.16l.05.03-.01.05c-.01.05-.33.55-.48.79l-.07.11c-.16.25-.36.66-.54 1.02-.06.12-.12.23-.16.32l-.02.04-.04.01c-.11.02-.36.01-.62.01-.32-.01-.64-.01-.7.01-.04.02-.07.05-.09.09a.11.11 0 000 .08c0 .03.02.05.03.07.03.03.08.05.14.05h1.34c.09 0 .11-.02.15-.07l.01-.01c.04-.05.18-.18.32-.32.11-.11.22-.22.31-.3l.05-.05.48.33.22.16c.04.02.07.05.11.07l.04.03-.01.05c-.01.06-.06.16-.11.24-.02.03-.03.06-.04.07l-.41.83c-.01.01-.01.03-.02.04-.04.07-.08.15-.05.22.01.03.04.06.07.08.03.02.07.02.1.01.07-.02.1-.07.13-.14.01-.02.02-.03.02-.04l.41-.83c.01-.03.04-.07.06-.12.08-.15.19-.36.19-.42 0-.07-.05-.12-.1-.16l-.04-.04-.52-.52L3 3.26a.812.812 0 01-.09-.1l-.02-.03.01-.03c.01-.05.19-.34.32-.57.06-.1.11-.18.13-.22.04-.06.08-.14.12-.2.02-.03.03-.05.07-.07l.06-.03.49.67.06.06c.03.01.06.02.11.02h.87c.07 0 .12-.03.15-.07.01-.02.02-.04.02-.07 0-.03 0-.05-.01-.07-.02-.04-.05-.08-.1-.09-.04-.01-.33-.01-.56-.01H4.3l-.02-.03zm-.13-.43c.06.08.12.17.23.31h.25c.24 0 .54 0 .6.01.11.03.18.1.21.19.02.05.02.09.02.14-.01.05-.02.1-.05.14-.05.08-.15.14-.28.14h-.87c-.07 0-.13-.02-.18-.04A.29.29 0 014 2.79l-.39-.53-.09.15c-.02.04-.07.12-.13.22-.11.18-.24.41-.29.49l.05.05.54.54c.01.01.02.02.04.03.07.07.15.14.15.27 0 .1-.12.33-.2.49-.02.05-.04.09-.06.12-.11.18-.34.64-.42.83-.01.02-.02.03-.02.04-.05.1-.09.18-.23.22-.08.02-.15.01-.21-.02a.294.294 0 01-.15-.16c-.06-.14 0-.26.06-.35.01-.01.01-.02.02-.03l.41-.83c.01-.02.02-.05.04-.08.03-.05.06-.11.07-.15l-.06-.04c-.08-.05-.15-.1-.23-.16l-.38-.26-.26.26-.31.31-.01.01c-.07.07-.11.12-.26.12H.34c-.12 0-.2-.04-.26-.1a.267.267 0 01-.07-.14C0 4.04 0 3.99.02 3.94c.03-.08.08-.15.17-.19.09-.04.43-.03.76-.02.23 0 .45.01.56 0 .05-.09.09-.18.14-.28.18-.36.38-.77.55-1.03.02-.03.04-.06.07-.12.12-.19.36-.56.43-.69-.08-.04-.17-.08-.26-.12-.08-.04-.16-.08-.23-.11l-.01-.01c-.11.08-.22.17-.34.26-.12.1-.25.19-.38.28-.07.05-.14.1-.22.11-.09.01-.17-.02-.26-.11-.03-.04-.06-.09-.06-.14-.01-.05-.01-.1.01-.15.03-.09.09-.14.15-.18h.01c.04-.03.12-.09.22-.17.27-.21.68-.53.78-.54.11-.02.18.01.25.05l.01.01 1.31.63c.08.04.18.18.24.28.01.02.02.03.03.05l.22.3zm-1.99-.65zm0 0zM3.83.16c-.15.03-.26.1-.34.2-.07.1-.11.23-.09.37v.01c.02.12.09.23.19.31.1.08.23.12.37.1h.01a.502.502 0 00.42-.57V.56a.463.463 0 00-.19-.3.443.443 0 00-.35-.1h-.02zm-.46.11c.1-.13.25-.23.44-.26h.03c.18-.02.34.03.47.13.13.1.22.24.24.4v.02c.03.19-.02.35-.12.48A.67.67 0 014 1.3h-.02a.656.656 0 01-.49-.13.681.681 0 01-.25-.41V.75c-.03-.18.02-.35.12-.48z" fill="#59656c" fill-rule="nonzero"/></svg>