<svg xmlns="http://www.w3.org/2000/svg" width="60mm" height="60mm" viewBox="0 0 15.34 15.34" shape-rendering="geometricPrecision" text-rendering="geometricPrecision" image-rendering="optimizeQuality" fill-rule="evenodd" clip-rule="evenodd"><defs><style>.fil0{fill:none}</style></defs><g id="Слой_x0020_1"><path class="fil0" d="M10.39 6.9c-.25-.35-.52-.71-.78-1.07-.1-.13-.3-.44-.42-.5l-2.2-1.05c-.11-.05-.21-.11-.36-.08-.18.04-1.37.99-1.62 1.17-.09.07-.18.12-.22.24-.04.14-.01.28.06.36.22.25.42.15.63-.01.4-.29.8-.61 1.2-.9.07-.05.07-.05.15 0 .28.14.7.32.94.45-.01.07-.81 1.31-.9 1.47-.36.56-.84 1.6-1.17 2.25-.4.05-2.03-.05-2.25.04-.36.15-.31.74.19.74h2.25c.21 0 .26-.06.36-.17.13-.14.71-.7 1.04-1.04l.72.5c.18.13.38.26.55.38-.02.1-.18.38-.23.48l-.69 1.39c-.07.15-.21.33-.12.54.06.15.24.27.44.22.2-.05.25-.19.34-.36l.69-1.39c.09-.2.43-.78.43-.96 0-.21-.16-.32-.27-.43l-.87-.87c-.06-.06-.13-.12-.17-.17.01-.08.62-1.07.74-1.27l.19-.32c.03-.04.04-.07.08-.09l.76 1.03c.07.11.18.19.39.19h1.46c.53 0 .55-.66.14-.76-.13-.03-1.2-.01-1.45-.01zm-.91-3.87c-.54.1-.9.55-.82 1.1.07.48.55.9 1.11.81.49-.08.89-.52.81-1.1-.07-.47-.55-.91-1.09-.81z" stroke="#59656c" stroke-width=".26" stroke-miterlimit="22.926"/><path class="fil0" d="M0 0h15.34v15.34H0z"/></g></svg>