<svg xmlns="http://www.w3.org/2000/svg" width="155.266" height="125.813" viewBox="0 0 8.7 7.05" shape-rendering="geometricPrecision" text-rendering="geometricPrecision" image-rendering="optimizeQuality" fill-rule="evenodd" clip-rule="evenodd"><defs><style>.fil0{fill:#59656b}</style></defs><g id="Слой_x0020_1"><path class="fil0" d="M.97 3.63c0-.03-.01-.08-.01-.14a3.38 3.38 0 016.43-1.35c.02.03.03.07.05.11.04.08.05.23.16.2.08-.02.09-.08.07-.15-.02-.11-.1-.28-.15-.37A3.583 3.583 0 004.33-.01 3.583 3.583 0 00.74 3.58v.02L.2 3.08c-.15-.15-.29 0-.15.14l.76.75c.02.02.04.03.05.03.01 0 .03-.01.05-.03l.77-.76c.1-.11.01-.24-.11-.17l-.61.58zm6.76-.21c0 .03.01.08.01.14a3.38 3.38 0 01-6.43 1.35c-.02-.03-.03-.07-.05-.11-.04-.08-.05-.23-.16-.2-.08.02-.09.08-.07.15.02.11.1.28.15.37a3.583 3.583 0 003.19 1.94 3.583 3.583 0 003.59-3.59v-.02l.54.52c.15.15.29 0 .15-.14l-.76-.75c-.02-.02-.04-.03-.05-.03-.01 0-.03.01-.05.03l-.77.76c-.1.11-.01.24.11.17l.61-.58z"/><path class="fil0" d="M4.48 3.33c.01-.44.01-.9 0-1.34l-.01-1c0-.05 0-.12-.01-.16-.01-.05-.03-.07-.09-.07-.13-.01-.11.11-.12.22v2.34c0 .27.01.23.1.33l.12.13c.14.12.51.51.68.68.05.05.28.3.36.31.05 0 .17-.07.06-.19-.06-.06-.1-.12-.16-.17l-.16-.17a2.07 2.07 0 00-.17-.16c-.11-.11-.22-.23-.34-.34-.17-.17-.27-.2-.27-.4z"/></g></svg>