<svg xmlns="http://www.w3.org/2000/svg" width="60mm" height="60mm" viewBox="0 0 18.53 18.53" shape-rendering="geometricPrecision" text-rendering="geometricPrecision" image-rendering="optimizeQuality" fill-rule="evenodd" clip-rule="evenodd"><defs><style>.fil0{fill:#59656b}</style></defs><g id="Слой_x0020_1"><g id="_4611814752"><path class="fil0" d="M4.42 9.43c-.03-.22.07-.81.11-1.03.12-.63.34-1.12.64-1.65.2-.34.29-.41.48-.67.13-.17.43-.44.59-.57 1.76-1.47 4.55-1.38 6.22.16l.35.35c.04.04.09.11.14.16.05.06.08.1.12.16.08.11.16.21.23.33.15.24.27.46.4.75.05.11.1.34.27.3.19-.04.11-.25.05-.38a4.877 4.877 0 00-2.13-2.47c-1.02-.59-2.38-.93-3.77-.63-2.31.51-3.72 2.45-3.98 4.63-.02.14-.02.4-.05.51l-.6-.55c-.07-.07-.22-.23-.32-.26-.21-.07-.22.16-.1.28l.58.58c.09.09.51.52.6.55.08 0 .54-.49.61-.57.19-.19.41-.39.59-.59.14-.16.02-.36-.16-.25-.07.04-.1.08-.16.14l-.74.71zm10-.27c.03.04.1.09.15.13l.31.29c.05.05.1.08.15.13.07.07.22.23.32.26.17.04.24-.13.07-.3l-.87-.87c-.1-.09-.24-.27-.33-.24-.04.01-1.1 1.07-1.18 1.16-.12.14 0 .34.18.23.07-.04.1-.07.16-.14l.73-.7c.04.31-.13 1.13-.21 1.42-.13.43-.29.81-.49 1.16-.85 1.49-2.38 2.41-4.18 2.39-2.04-.02-3.63-1.2-4.42-2.98-.04-.09-.07-.21-.14-.26-.1-.08-.24.01-.24.11-.01.21.42.97.52 1.12.84 1.35 2.57 2.34 4.23 2.34h.28c1.12 0 2.46-.52 3.21-1.28.11-.11.2-.19.32-.31.36-.36.8-1.11.98-1.57.13-.32.22-.62.3-.97.04-.18.07-.36.1-.55.02-.15.02-.44.06-.57z"/><path class="fil0" d="M9.43 9c.02-.65.01-1.31.01-1.96l-.01-1.46c0-.07 0-.17-.02-.23-.01-.07-.05-.1-.13-.11-.19-.01-.17.16-.17.32v3.43c0 .39.01.34.15.49l.17.19c.2.18.75.75.99.99.08.08.4.44.52.45.07 0 .25-.1.09-.28-.08-.09-.15-.17-.23-.25l-.24-.25c-.13-.14-.16-.15-.25-.24-.16-.17-.32-.34-.49-.5-.25-.24-.4-.29-.39-.58z"/></g><path fill="none" d="M0 0h18.53v18.53H0z"/></g></svg>