<svg xmlns="http://www.w3.org/2000/svg" width="183.008" height="140.134" viewBox="0 0 37.27 28.54" shape-rendering="geometricPrecision" text-rendering="geometricPrecision" image-rendering="optimizeQuality" fill-rule="evenodd" clip-rule="evenodd"><path d="M32.67 26.38h2.71v-2.71c0-.15.12-.27.27-.27.15 0 .27.12.27.27v3.09c0 .01 0 .01-.01.02v.01s0 .01-.01.01c0 .01-.01.02-.01.02-.04.07-.11.12-.2.13h-3.02c-.15 0-.27-.12-.27-.27 0-.15.12-.27.27-.27zm0-24.79h2.71V4.3c0 .15.12.27.27.27.15 0 .27-.12.27-.27V1.21c0-.01 0-.01-.01-.02v-.01s0-.01-.01-.01c0-.01-.01-.02-.01-.02a.259.259 0 00-.2-.13h-3.02c-.15 0-.27.12-.27.27 0 .15.12.27.27.27zM19.08 26.38h-2.71v-2.71c0-.15-.12-.27-.27-.27-.15 0-.27.12-.27.27v3.09c0 .01 0 .01.01.02v.01s0 .01.01.01c0 .01.01.02.01.02.04.07.11.12.2.13h3.02c.15 0 .27-.12.27-.27 0-.15-.12-.27-.27-.27zm0-24.79h-2.71V4.3c0 .15-.12.27-.27.27-.15 0-.27-.12-.27-.27V1.21c0-.01 0-.01.01-.02v-.01s0-.01.01-.01c0-.01.01-.02.01-.02.04-.07.11-.12.2-.13h3.02c.15 0 .27.12.27.27 0 .15-.12.27-.27.27z" fill="#55adad"/><path d="M.77 17.61c0 .15.11.29.26.4.09.06.2.11.31.12.1.02.2.01.3-.02.16-.06.32-.22.41-.53l.93-3.82.08-.36c.09-.38.14-.59.43-.61.43-.04.43.25.42.89v.16c-.02 2.11-.14 4.2-.25 6.3-.13 2.33-.25 4.67-.25 7.01 0 .11.05.23.13.33s.2.19.33.24c.12.05.27.06.41.02.16-.04.32-.15.47-.34.19-.24.77-4.48 1.13-7.15.11-.83.2-1.51.25-1.85l.36-2.42 1.89 11.53a.718.718 0 00.73.22c.09-.02.18-.07.25-.12.16-.12.29-.32.32-.58l-.56-13.07c-.02-.28-.02-.46 0-.56.05-.25.19-.37.42-.36.16.01.28.1.36.25.05.1.11.29.17.55l1.21 4.17c.13.08.25.12.36.12.09 0 .17-.02.24-.06.08-.04.15-.1.21-.17a.68.68 0 00.15-.39c0-.22-.18-1.45-.4-2.92-.36-2.33-.83-5.22-.93-5.73-.05-.29-.12-.5-.21-.66a1.51 1.51 0 00-.38-.43c-.21-.17-.56-.35-.94-.52-.37-.16-.76-.3-1.08-.39l-.05.04c-.46.38-1.15.55-1.81.53-.66-.01-1.32-.21-1.73-.56l-.01-.01c-.29.08-.57.19-.85.32-.36.16-.7.35-1.01.52-.62.35-.7.87-.87 2.04-.03.23-.07.49-.13.82l-.03.21c-.2 1.24-1.04 6.3-1.04 6.83zm-.18 1.03C.24 18.4 0 18.03 0 17.61c0-.58.85-5.7 1.05-6.95l.03-.21c.04-.26.09-.55.12-.81.21-1.42.3-2.06 1.26-2.59.34-.19.71-.39 1.07-.56.39-.17.79-.33 1.19-.42l.23-.05.15.19c.03.03.06.07.09.09.28.24.75.37 1.25.38.5.01 1-.1 1.31-.36.04-.04.09-.08.12-.12l.15-.18.23.05c.39.09.92.27 1.42.49.44.19.85.42 1.11.63.26.21.44.41.57.66.13.24.22.52.29.89.1.53.58 3.44.93 5.75.23 1.5.41 2.77.41 3.03 0 .3-.12.61-.32.87-.12.15-.27.28-.45.37-.18.1-.39.15-.6.15-.3 0-.61-.1-.93-.35l-.1-.08-.62-2.14.46 10.73v.03c-.06.5-.3.88-.63 1.13-.15.12-.33.2-.51.25-.18.05-.37.07-.56.05-.39-.04-.77-.24-1.05-.61l-.06-.08-1.12-6.8c-.37 2.74-.9 6.47-1.2 6.85-.27.33-.57.52-.87.6-.3.08-.61.06-.87-.05-.26-.1-.49-.27-.66-.48-.19-.23-.3-.52-.3-.81 0-2.32.13-4.69.26-7.05.06-1.17.13-2.34.17-3.5l-.28 1.16-.01.02c-.17.57-.5.89-.88 1.04-.23.09-.47.1-.69.06a1.49 1.49 0 01-.61-.25zm2.95-5.08c-.14.01-.06.01.04.01.09-.01.11-.02-.04-.01zm.8-10.7c0 .31.06.6.16.86.11.29.27.54.45.74.39.43.96.65 1.55.65.27 0 .55-.05.8-.14.25-.09.49-.23.69-.41.41-.37.69-.93.69-1.69 0-.3-.07-.59-.19-.84-.17-.36-.45-.68-.79-.9C7.36.91 6.96.78 6.53.78c-.31 0-.64.07-.96.22-.06.03-.18.11-.3.19s-.23.17-.29.23c-.15.15-.32.41-.45.71-.11.24-.18.51-.18.74zm-.56 1.13c-.13-.34-.21-.72-.21-1.13 0-.35.1-.71.24-1.04.17-.39.41-.74.62-.95.08-.08.23-.2.39-.31.15-.11.31-.21.42-.26.43-.2.87-.29 1.29-.29.58 0 1.13.18 1.59.48.46.3.83.72 1.06 1.22.17.36.26.76.26 1.17 0 1-.38 1.76-.94 2.26-.28.25-.6.44-.94.56-.34.12-.7.19-1.06.19-.79 0-1.58-.3-2.12-.9-.23-.26-.45-.59-.59-.98zm28.11 9.79l-2.11-2.88-.15-.22c-.26-.36-.64-.9-.83-1.01-1.98-.95-4.01-1.87-5.97-2.85-.22-.11-.43-.21-.68-.16-.27.05-2.03 1.4-3.2 2.31-.45.35-.82.63-1.01.77l-.03.02c-.18.13-.35.25-.41.44-.04.12-.04.24-.02.34.02.1.06.19.12.26.2.22.36.29.52.27.2-.03.43-.17.67-.35.54-.39 1.11-.83 1.68-1.26.49-.38.99-.76 1.54-1.16.37-.27.38-.26.74-.08l.07.03c.29.15.66.31 1.03.48.55.25 1.11.51 1.5.72l.24.13-.04.27c-.03.23-1.47 2.49-2.16 3.58l-.33.51c-.73 1.12-1.64 2.98-2.42 4.58-.27.54-.52 1.06-.71 1.44l-.09.18-.2.03c-.5.07-1.64.05-2.81.02-1.42-.03-2.88-.05-3.14.05-.19.08-.31.23-.36.39a.74.74 0 00-.02.33c.02.11.07.21.14.29.12.13.32.22.61.22h6.05c.38 0 .48-.11.65-.29l.03-.04c.2-.22.8-.81 1.44-1.44.48-.48.99-.98 1.37-1.36l.23-.23 2.19 1.52.01.01c.32.24.67.47 1 .7.16.11.33.22.48.32l.2.14-.04.24c-.04.26-.29.72-.48 1.08-.07.13-.13.25-.17.33v.01l-1.87 3.74c-.03.06-.06.12-.09.17-.16.29-.35.65-.22.97.05.13.17.25.31.33.13.06.28.09.43.05.3-.07.42-.3.56-.59l.1-.2 1.86-3.72c.05-.12.16-.32.28-.55.34-.65.84-1.6.83-1.86 0-.3-.23-.51-.44-.71-.06-.06-.13-.12-.19-.18l-2.33-2.33-.07-.07c-.15-.14-.31-.3-.42-.44l-.11-.14.03-.17c.04-.21.84-1.55 1.44-2.56.26-.44.49-.81.59-.99l.5-.86.03-.05c.08-.14.14-.25.34-.34l.28-.14c.74 1.01 1.48 2.06 2.24 3.04.07.1.15.19.26.25.11.06.26.1.46.1h3.92c.32 0 .54-.12.65-.29a.691.691 0 00.06-.61.605.605 0 00-.44-.39c-.2-.05-1.48-.04-2.53-.03-.57 0-1.07.01-1.3 0l-.19-.01-.11-.15zm-.51-2c.26.36.52.71 1.02 1.39h1.09c1.09-.01 2.42-.02 2.7.05.51.12.84.47.99.88.07.21.1.43.07.65-.03.22-.1.44-.23.63-.25.37-.68.63-1.29.63h-3.92c-.34 0-.61-.08-.83-.2-.23-.13-.39-.3-.52-.49l-1.72-2.33-.38.64c-.1.17-.33.56-.6 1.01-.47.79-1.07 1.79-1.27 2.16.06.06.14.13.21.2.82.79 1.62 1.62 2.42 2.42.05.05.1.1.16.15.32.3.67.63.68 1.26.01.45-.54 1.5-.92 2.22-.11.21-.2.38-.26.52-.48.8-1.53 2.89-1.88 3.75-.05.09-.07.14-.09.18-.23.47-.42.83-1.07.99-.35.08-.68.03-.96-.11-.31-.16-.55-.43-.67-.72-.27-.66.02-1.19.26-1.63l.08-.15 1.87-3.74c.04-.09.11-.22.18-.35.11-.2.24-.45.32-.62l-.23-.15c-.34-.23-.69-.47-1.03-.71l-1.66-1.15c-.35.35-.76.75-1.15 1.14-.63.62-1.22 1.2-1.41 1.41l-.03.03c-.31.33-.49.53-1.21.53h-6.05c-.53 0-.92-.19-1.18-.48-.17-.19-.28-.42-.33-.66-.05-.23-.03-.48.04-.71.12-.37.38-.7.79-.87.4-.17 1.95-.14 3.45-.11 1 .02 1.98.04 2.5 0 .21-.41.41-.82.62-1.24.79-1.61 1.71-3.49 2.47-4.65.08-.12.18-.29.33-.52.54-.85 1.56-2.46 1.92-3.06-.33-.17-.74-.35-1.13-.53-.37-.17-.74-.34-1.05-.49l-.03-.01c-.47.35-.99.74-1.51 1.14-.56.43-1.12.86-1.7 1.28-.33.24-.66.44-1.02.49-.41.05-.8-.08-1.19-.52-.15-.17-.26-.4-.3-.64-.04-.22-.03-.46.05-.71.14-.44.41-.63.7-.83l.03-.02c.18-.13.54-.41.98-.75 1.24-.95 3.08-2.37 3.52-2.46.51-.1.84.06 1.17.23l.05.03L29.14 9l.01.01c.35.19.81.82 1.11 1.26.05.08.1.14.15.21l.98 1.34zm-1.56-8.26c-.64.12-1.17.44-1.51.89-.33.44-.48 1-.4 1.63l.01.05c.09.53.4 1.02.84 1.37.44.34 1.02.53 1.64.45l.05-.01c.58-.1 1.11-.41 1.46-.89.32-.43.48-1 .39-1.64l-.01-.08c-.09-.51-.4-1-.83-1.35-.43-.34-.97-.53-1.55-.45l-.08.01zm-2.12.43c.45-.61 1.15-1.04 1.99-1.19.04-.01.08-.01.12-.02.8-.11 1.55.15 2.13.6.57.45.98 1.11 1.11 1.81l.02.11c.12.85-.1 1.61-.53 2.2-.46.63-1.17 1.06-1.95 1.19l-.07.01c-.84.12-1.62-.14-2.22-.6-.59-.46-1.01-1.14-1.13-1.85 0-.01-.01-.05-.01-.06-.12-.84.1-1.6.54-2.2z" fill="#59656c" fill-rule="nonzero"/></svg>