<svg xmlns="http://www.w3.org/2000/svg" width="227.011" height="47mm" viewBox="0 0 57.24 44.79" shape-rendering="geometricPrecision" text-rendering="geometricPrecision" image-rendering="optimizeQuality" fill-rule="evenodd" clip-rule="evenodd"><defs><style>.str0{stroke:#59656c;stroke-width:.95;stroke-miterlimit:22.9256}.fil0{fill:none}</style></defs><g id="Слой_x0020_1"><g id="_1632685888"><path class="fil0 str0" d="M6.02 26.54c0 1.05 1.96 1.87 2.51.09l1.16-4.74c.25-1.03.24-1.2.22-.02-.06 5.47-.63 11.02-.63 16.48 0 .96 1.48 1.89 2.5.61.42-.52 1.5-9.3 1.81-11.37l1.87 11.42c.79 1.05 2.39.6 2.54-.77L17.31 22c-.07-.92.06-.73.23 0l1.55 5.35c1.07.85 2.07-.1 2.07-.91 0-.75-1.46-9.73-1.65-10.79-.15-.82-.36-1.19-.9-1.63-.63-.51-2.09-1.1-2.94-1.29-.92 1.08-3.39.95-4.17 0-.94.22-1.88.7-2.68 1.16-1.16.66-1.09 1.55-1.47 3.87-.14.86-1.34 8.05-1.34 8.79zm4.42-18.27c0 .97.4 1.77.87 2.29 1.63 1.82 5.45 1.05 5.45-2.29 0-2.11-2.31-3.79-4.53-2.75-.21.1-.69.44-.87.61-.41.41-.92 1.35-.92 2.14z"/><path d="M46 37.4h3.36v-3.36c0-.19.15-.34.34-.34.19 0 .34.15.34.34v3.81c0 .01-.01.02-.01.02v.01c0 .01 0 .01-.01.01 0 .01-.01.02-.02.03-.05.09-.14.15-.25.16h-3.74c-.18 0-.34-.15-.34-.34 0-.19.15-.34.34-.34zm0-30.7h3.36v3.36c0 .19.15.34.34.34.19 0 .34-.15.34-.34V6.25c0-.01-.01-.02-.01-.02v-.01c0-.01 0-.01-.01-.01 0-.01-.01-.02-.02-.03a.313.313 0 00-.25-.16h-3.74c-.18 0-.34.15-.34.34 0 .19.15.34.34.34zM29.17 37.4h-3.36v-3.36c0-.19-.15-.34-.34-.34-.19 0-.34.15-.34.34v3.81c0 .01.01.02.01.02v.01c0 .01 0 .01.01.01 0 .01.01.02.02.03.05.09.14.15.25.16h3.74c.18 0 .34-.15.34-.34 0-.19-.15-.34-.34-.34zm0-30.7h-3.36v3.36c0 .19-.15.34-.34.34-.19 0-.34-.15-.34-.34V6.25c0-.01.01-.02.01-.02v-.01c0-.01 0-.01.01-.01 0-.01.01-.02.02-.03.05-.09.14-.15.25-.16h3.74c.18 0 .34.15.34.34 0 .19-.15.34-.34.34z" fill="#55adad"/><path class="fil0 str0" d="M45.42 21.5c-.84-1.15-1.72-2.35-2.61-3.57-.33-.44-.99-1.46-1.4-1.67l-7.32-3.49c-.37-.18-.71-.38-1.22-.28-.61.12-4.57 3.3-5.39 3.89-.31.22-.59.41-.72.81-.15.46-.04.92.21 1.21.73.83 1.4.49 2.11-.02 1.32-.95 2.65-2.03 3.99-3 .25-.18.22-.15.51-.01.93.46 2.32 1.05 3.12 1.49-.03.22-2.69 4.36-3.01 4.89-1.21 1.87-2.81 5.32-3.91 7.5-1.32.18-6.75-.18-7.49.13-1.19.5-1.04 2.45.65 2.45h7.49c.71 0 .87-.21 1.19-.55.44-.47 2.37-2.35 3.47-3.45l2.38 1.66c.6.44 1.26.87 1.85 1.27-.06.35-.59 1.26-.76 1.61L36.25 37c-.25.48-.69 1.11-.4 1.81.2.5.8.91 1.47.75.68-.17.82-.63 1.13-1.21l2.31-4.63c.31-.65 1.43-2.6 1.42-3.19-.01-.7-.55-1.05-.9-1.43l-2.9-2.9c-.2-.19-.43-.41-.57-.58.05-.26 2.07-3.55 2.46-4.25l.62-1.06c.09-.14.12-.24.25-.31l2.53 3.43c.25.37.62.65 1.29.65h4.86c1.75 0 1.84-2.21.45-2.53-.45-.1-4.01-.02-4.84-.04zM42.39 8.61c-1.81.33-3 1.83-2.75 3.66.22 1.59 1.82 3.01 3.69 2.7 1.63-.27 2.95-1.73 2.68-3.66-.22-1.58-1.82-3.03-3.62-2.7z"/></g><path class="fil0" d="M0 0h57.24v44.79H0z"/></g></svg>