<svg xmlns="http://www.w3.org/2000/svg" width="144.116" height="142.481" viewBox="0 0 6.45 6.38" shape-rendering="geometricPrecision" text-rendering="geometricPrecision" image-rendering="optimizeQuality" fill-rule="evenodd" clip-rule="evenodd"><defs><style>.fil0{fill:#fff}.fil1{fill:#59656c;fill-rule:nonzero}</style></defs><g id="Слой_x0020_1"><g id="_1942435520"><rect class="fil0" x=".94" y=".08" width="5.42" height="5.42" rx=".54" ry=".54"/><path class="fil1" d="M1.49 0h4.34c.17 0 .33.07.44.18.11.11.18.27.18.44v4.34c0 .17-.07.33-.18.44-.11.11-.27.18-.44.18H1.49c-.17 0-.33-.07-.44-.18a.628.628 0 01-.18-.44V.62c0-.17.07-.33.18-.44.11-.11.27-.18.44-.18zm4.34.17H1.49a.445.445 0 00-.45.45v4.34a.445.445 0 00.45.45h4.34a.445.445 0 00.45-.45V.62a.445.445 0 00-.45-.45z"/><rect class="fil0" x=".08" y=".87" width="5.42" height="5.42" rx=".54" ry=".54"/><path class="fil1" d="M.63.79h4.34c.17 0 .33.07.44.18.11.11.18.27.18.44v4.34c0 .17-.07.33-.18.44-.11.11-.27.18-.44.18H.63c-.17 0-.33-.07-.44-.18a.628.628 0 01-.18-.44V1.41c0-.17.07-.33.18-.44C.3.86.46.79.63.79zm4.34.17H.63a.445.445 0 00-.45.45v4.34a.445.445 0 00.45.45h4.34a.445.445 0 00.45-.45V1.41a.445.445 0 00-.45-.45z"/><path class="fil1" d="M4.12 4.99v-.2c0-.26 0-.39-.05-.47-.06-.09-.22-.16-.54-.29L3.46 4a.488.488 0 00-.07-.03c-.08-.04-.18-.09-.21-.08l-.01.01c-.19.13-.34.24-.66.06-.04-.02-.06-.04-.08-.05-.03-.02-.03-.02-.37.13-.09.04-.17.08-.24.11-.34.15-.35.15-.35.71v.12c0 .01.01.01.09.01H4.1c.01 0 .02.01.02.01zm.17-.2v.2c0 .14-.08.16-.19.16H1.56c-.23.01-.25.01-.26-.17v-.13c0-.67.01-.68.45-.87.07-.03.14-.06.24-.11.43-.2.44-.2.54-.11.01.01.03.02.06.04.22.13.34.05.48-.05l.01-.01c.1-.07.26.01.38.06.02.01.05.02.06.03l.07.03c.36.15.53.22.62.36.08.13.08.28.08.57zM2.8 1.91c.22 0 .41.1.55.26.14.16.22.38.22.62s-.09.46-.22.62a.74.74 0 01-.55.26c-.22 0-.41-.1-.55-.26a.938.938 0 01-.22-.62c0-.24.09-.46.22-.62a.74.74 0 01.55-.26zm.42.37a.545.545 0 00-.42-.2c-.17 0-.32.08-.42.2a.79.79 0 00-.18.51c0 .2.07.38.18.51.11.13.26.2.42.2.17 0 .32-.08.42-.2a.79.79 0 00.18-.51c0-.2-.07-.38-.18-.51z"/></g></g></svg>