<svg xmlns="http://www.w3.org/2000/svg" width="60mm" height="60mm" viewBox="0 0 13.29 13.29" shape-rendering="geometricPrecision" text-rendering="geometricPrecision" image-rendering="optimizeQuality" fill-rule="evenodd" clip-rule="evenodd"><defs><style>.fil0{fill:#59656c}</style></defs><g id="Слой_x0020_1"><g id="_4698927344"><path class="fil0" d="M10.18 5.28l-.06.21-.24-.06-.63-.21a.168.168 0 00-.21.1c-.03.09.02.18.1.21l.99.33c.01 0 .01.01.02.01.04.01.09.01.13-.01.05-.02.08-.07.09-.12l.32-.98a.168.168 0 00-.1-.21.168.168 0 00-.21.1l-.21.63zm-4.9 3V6.53h2.45v1.72H6.05c-.29 0-.49.02-.77.02zm.44-2.57c0-.34.33-.69.82-.69.4 0 .73.36.73.77v.44H5.72V5.7zm-.29.07v.46c-.16 0-.44-.03-.44.2V8.3c0 .14.06.24.2.24h2.57c.36 0 .27-.38.27-.82L8 6.38c-.04-.18-.25-.14-.44-.14 0-.45.04-.83-.29-1.17-.73-.74-1.83-.16-1.83.7z"/><path class="fil0" d="M6.5 10.56c.91 0 2.03-.42 2.62-1.01.16-.16.46-.44.57-.65-.07-.04-.17-.13-.24-.15-.02.08-.27.37-.35.45-.12.13-.6.5-.79.6-.31.16-.37.21-.77.33-.86.26-1.75.17-2.55-.19-.4-.18-.74-.44-1.05-.75a3.6 3.6 0 01-.01-5.09c.29-.29.65-.58 1.04-.75 1.19-.5 2.22-.47 3.37.15.14.08.34.21.46.32.25.23.34.3.56.57.19.22.45.68.55.96l.06.18h.3c-.2-.73-.71-1.45-1.28-1.91a3.868 3.868 0 00-5.23.27c-.19.19-.4.43-.54.67-.04.06-.06.09-.09.15-.27.45-.4.95-.48 1.47l-.04.47c0 .17.07.71.11.87.1.49.32.95.59 1.35a3.938 3.938 0 003.22 1.69z"/></g><path fill="none" d="M0 0h13.29v13.29H0z"/></g></svg>