<svg xmlns="http://www.w3.org/2000/svg" width="137.97" height="133.28" viewBox="0 0 4.92 4.76" shape-rendering="geometricPrecision" text-rendering="geometricPrecision" image-rendering="optimizeQuality" fill-rule="evenodd" clip-rule="evenodd"><defs><style>.fil0,.fil2{fill:#59656c}.fil1,.fil2{fill-rule:nonzero}.fil1{fill:#fff}</style></defs><g id="Слой_x0020_1"><g id="_2119614800"><path class="fil0" d="M4.64 1.56l-.04.15c-.19-.05-.36-.11-.55-.17-.02-.01-.04 0-.06 0-.02.01-.03.03-.04.05-.01.02 0 .04 0 .06.01.02.03.03.05.04l.25.08c.12.04.23.08.36.12h.03c.01 0 .02 0 .03-.01.01-.01.02-.01.03-.02.01-.01.01-.02.01-.04.07-.2.13-.4.2-.6.01-.02 0-.04 0-.06-.01-.02-.03-.03-.05-.04-.02-.01-.04 0-.06 0-.02.01-.03.03-.04.05l-.13.38z"/><path class="fil1" d="M1.62 3.41V2.33h1.52v1.08H2.1c-.09 0-.16 0-.24.01-.07 0-.15.01-.24.01h-.01v-.01zm.03-1.05V3.4c.08 0 .15 0 .22-.01.08 0 .15-.01.24-.01h1.01V2.36H1.65zm.24-.51c0-.11.06-.23.15-.31.09-.07.21-.12.36-.12.13 0 .24.06.32.14.08.09.14.21.14.34v.28h-.97v-.34zm.17-.29c-.09.08-.14.18-.14.29v.31h.92V1.9c0-.12-.05-.24-.13-.32a.416.416 0 00-.3-.13c-.14 0-.26.05-.34.12zm-.32.33v.3h-.08c-.09 0-.19.01-.19.11v1.13c0 .04.01.08.03.1.02.02.04.03.08.03h1.56c.13 0 .15-.09.15-.23v-.25l-.02-.82c-.02-.08-.11-.08-.2-.07H3V2.1c0-.24 0-.45-.17-.63-.14-.14-.3-.2-.46-.2a.644.644 0 00-.45.19c-.11.11-.18.26-.18.43zm-.03.27v-.27a.642.642 0 01.4-.59c.08-.03.17-.05.25-.05.16 0 .33.06.48.21.19.19.18.4.18.65v.06h.04c.1 0 .2-.01.22.1 0 .17-.01.69.02.82v.26c0 .15-.03.26-.18.26H1.56c-.04 0-.08-.02-.1-.04a.214.214 0 01-.04-.12V2.32c0-.12.12-.14.22-.14h.05z"/><path class="fil1" d="M1.62 3.41V2.33h1.52v1.08H2.1c-.09 0-.16 0-.24.01-.07 0-.15.01-.24.01h-.01v-.01zm.03-1.05V3.4c.08 0 .15 0 .22-.01.08 0 .15-.01.24-.01h1.01V2.36H1.65zm.24-.51c0-.11.06-.23.15-.31.09-.07.21-.12.36-.12.13 0 .24.06.32.14.08.09.14.21.14.34v.28h-.97v-.34zm.17-.29c-.09.08-.14.18-.14.29v.31h.92V1.9c0-.12-.05-.24-.13-.32a.416.416 0 00-.3-.13c-.14 0-.26.05-.34.12zm-.32.33v.3h-.08c-.09 0-.19.01-.19.11v1.13c0 .04.01.08.03.1.02.02.04.03.08.03h1.56c.13 0 .15-.09.15-.23v-.25l-.02-.82c-.02-.08-.11-.08-.2-.07H3V2.1c0-.24 0-.45-.17-.63-.14-.14-.3-.2-.46-.2a.644.644 0 00-.45.19c-.11.11-.18.26-.18.43zm-.03.27v-.27a.642.642 0 01.4-.59c.08-.03.17-.05.25-.05.16 0 .33.06.48.21.19.19.18.4.18.65v.06h.04c.1 0 .2-.01.22.1 0 .17-.01.69.02.82v.26c0 .15-.03.26-.18.26H1.56c-.04 0-.08-.02-.1-.04a.214.214 0 01-.04-.12V2.32c0-.12.12-.14.22-.14h.05z"/><path class="fil0" d="M1.6 3.41V2.32h1.55v1.1H2.1c-.09 0-.16 0-.24.01-.08 0-.15.01-.24.01h-.03v-.03zm.27-1.56c0-.12.06-.23.16-.32.09-.08.22-.13.37-.13.13 0 .25.06.33.15a.5.5 0 01.14.35v.3h-1v-.35zm-.12.04v.31h-.1c-.08 0-.18.01-.18.09v1.13c0 .04.01.07.03.09.01.02.04.03.07.03h1.56c.12 0 .14-.09.14-.22v-.25l-.02-.81c-.02-.07-.1-.07-.18-.06h-.09v-.1c0-.24 0-.44-.17-.62-.14-.14-.3-.2-.45-.2-.08 0-.16.02-.24.05-.07.03-.14.08-.2.13-.11.11-.18.26-.18.42z"/><path class="fil2" d="M1.59 3.41v-1.1h1.58v1.13H2.11c-.09 0-.16 0-.23.01-.08 0-.15.01-.23.01h-.04v-.04zm.03-1.08v1.09h.01c.09 0 .16 0 .23-.01.07 0 .15-.01.23-.01h1.04V2.32H1.61zm.24-.48c0-.06.02-.12.04-.18.03-.06.07-.11.12-.15a.95.95 0 01.17-.1c.06-.02.13-.03.2-.03s.13.01.18.04c.06.03.11.07.16.11.04.05.08.1.11.17.02.06.04.13.04.19v.31H1.86v-.36zm.07-.17c-.03.05-.04.11-.04.17v.34h.97v-.28c0-.06-.01-.13-.04-.18a.537.537 0 00-.1-.16.583.583 0 00-.15-.11.471.471 0 00-.36-.01c-.06.02-.12.05-.16.09a.36.36 0 00-.11.14zm-.16.21v.32h-.11c-.04 0-.08 0-.11.01s-.05.03-.05.07v1.13c0 .02 0 .03.01.05 0 .01.01.03.02.03l.02.02c.01 0 .02.01.03.01h1.56c.05 0 .09-.02.1-.05.02-.04.02-.09.02-.15v-.25l-.02-.81c-.01-.03-.03-.04-.06-.05a.205.205 0 00-.11 0h-.09v-.11c0-.23 0-.44-.17-.61a.487.487 0 00-.21-.14.682.682 0 00-.23-.05.487.487 0 00-.24.05c-.04.02-.07.03-.1.06-.03.02-.06.05-.09.08-.06.05-.1.12-.13.19s-.05.14-.05.22zm-.03.3v-.3a.593.593 0 01.19-.43c.03-.03.06-.06.1-.08.03-.02.07-.04.11-.06.04-.02.08-.03.12-.04.04-.01.08-.01.12-.01.08 0 .16.02.24.05.07.03.15.08.21.15.18.18.18.39.17.63v.09h.18c.04.01.07.03.08.07 0 .17-.01.68.02.82v.25c0 .07-.01.12-.03.16-.02.04-.06.07-.13.07H1.56c-.02 0-.03 0-.04-.01-.01-.01-.03-.01-.03-.03a.076.076 0 01-.02-.04c0-.02-.01-.04-.01-.06V2.29c0-.05.03-.08.07-.09.04-.01.08-.02.12-.02h.07z"/><path class="fil2" d="M2.38 0c.66 0 1.25.27 1.68.7.29.29.5.65.61 1.05h-.14c-.11-.36-.3-.69-.57-.95C3.55.39 2.99.14 2.37.14 1.75.14 1.19.39.78.8c-.41.41-.66.97-.66 1.59 0 .62.25 1.18.66 1.59.41.41.97.66 1.59.66.62 0 1.18-.25 1.59-.66l.03-.03.08.11-.02.02a2.365 2.365 0 01-3.36 0 2.365 2.365 0 010-3.36c.43-.43 1.02-.7 1.68-.7z"/></g></g></svg>