<svg xmlns="http://www.w3.org/2000/svg" width="60mm" height="60mm" viewBox="0 0 39.95 39.95" shape-rendering="geometricPrecision" text-rendering="geometricPrecision" image-rendering="optimizeQuality" fill-rule="evenodd" clip-rule="evenodd"><path d="M6.98 19.64h8.79c.18 0 .33.15.33.33 0 .18-.15.33-.33.33h-8.8l.96.96a.332.332 0 11-.47.47l-1.49-1.49-.03-.03a.325.325 0 01-.1-.24c0-.11.06-.21.14-.27l1.48-1.48a.332.332 0 11.47.47l-.95.95zm25.99 0h-8.79c-.18 0-.33.15-.33.33 0 .18.15.33.33.33h8.8l-.96.96a.332.332 0 10.47.47l1.49-1.49.03-.03c.07-.07.1-.15.1-.24 0-.11-.06-.21-.14-.27l-1.48-1.48a.332.332 0 10-.47.47l.95.95zM19.64 32.97v-8.79c0-.18.15-.33.33-.33.18 0 .33.15.33.33v8.8l.96-.96a.332.332 0 11.47.47l-1.49 1.49-.03.03c-.07.07-.15.1-.24.1-.11 0-.21-.06-.27-.14l-1.48-1.48a.332.332 0 11.47-.47l.95.95zm0-25.99v8.79c0 .18.15.33.33.33.18 0 .33-.15.33-.33v-8.8l.96.96a.332.332 0 10.47-.47l-1.49-1.49-.03-.03a.325.325 0 00-.24-.1c-.11 0-.21.06-.27.14l-1.48 1.48a.332.332 0 10.47.47l.95-.95zm-6.71 19.56l2.94-2.94a.332.332 0 11.47.47l-2.95 2.95h1.36c.18 0 .33.15.33.33 0 .18-.15.33-.33.33H12.6a.35.35 0 01-.24-.1.322.322 0 01-.09-.29V25.2c0-.18.15-.33.33-.33.18 0 .33.15.33.33v1.34zm13.61-13.61l-2.94 2.94a.332.332 0 10.47.47l2.95-2.95v1.36c0 .18.15.33.33.33.18 0 .33-.15.33-.33V12.6a.35.35 0 00-.1-.24.322.322 0 00-.29-.09H25.2c-.18 0-.33.15-.33.33 0 .18.15.33.33.33h1.34zm.48 13.61l-2.94-2.94a.332.332 0 10-.47.47l2.95 2.95H25.2c-.18 0-.33.15-.33.33 0 .18.15.33.33.33h2.15c.09 0 .18-.04.24-.1.08-.08.11-.19.09-.29V25.2c0-.18-.15-.33-.33-.33-.18 0-.33.15-.33.33v1.34zM13.41 12.93l2.94 2.94a.332.332 0 11-.47.47l-2.95-2.95v1.36c0 .18-.15.33-.33.33-.18 0-.33-.15-.33-.33V12.6c0-.09.04-.18.1-.24.08-.08.19-.11.29-.09h2.09c.18 0 .33.15.33.33 0 .18-.15.33-.33.33h-1.34z" fill="#59656c" stroke="#59656c" stroke-width=".07" stroke-miterlimit="22.926"/><path fill="none" d="M0 0h39.95v39.95H0z"/></svg>