<svg xmlns="http://www.w3.org/2000/svg" width="135.216" height="127.613" viewBox="0 0 8.33 7.86" shape-rendering="geometricPrecision" text-rendering="geometricPrecision" image-rendering="optimizeQuality" fill-rule="evenodd" clip-rule="evenodd"><defs><style>.fil0{fill:#59656c}</style></defs><g id="Слой_x0020_1"><g id="_1839443616"><path class="fil0" d="M.28 6.45h7.76v1.14H.28V6.45zm1.14-2.37h2.59c.18 0 .19-.27.02-.27h-.22v-1.3h2.81c.18 0 .31.08.42.17.51.41.45 1.06.51 1.57l.05.56v.15l.02.13.08 1.1H.68l.08-1.2c.02-.27.02-.66.06-.96.01-.09.01-.19.02-.27.01-.1.01-.17.02-.26.05-.27.18-.59.38-.77.09-.08.23-.19.38-.2v1.29H1.4c-.17 0-.17.27.02.27zm.47-2.76h1.64v2.47H1.89V1.32zM5.25.27h1.91v.64H5.25V.27zM4.98.1v.99c0 .05.07.1.13.1h.95v1.05H3.8v-1c0-.1-.05-.18-.15-.18H1.78c-.08 0-.17.03-.17.1v1.09c-.31.01-.61.28-.77.52-.24.35-.27.74-.3 1.14L.37 6.18c-.25 0-.38-.04-.38.18v1.29c0 .15.04.22.18.22h7.96c.15 0 .18-.07.18-.22V6.36c0-.23-.17-.18-.38-.18 0-.24-.05-.65-.07-.9l-.08-1.24c0-.21-.07-.7-.13-.86-.12-.32-.25-.57-.54-.76-.26-.18-.49-.16-.79-.16V1.21h.92c.1 0 .17-.03.17-.13V.14c0-.08-.1-.12-.18-.12H5.14c-.08 0-.17.03-.17.1z"/><path class="fil0" d="M5.05 3.34h1.62v.45H5.05v-.45zm-.27-.12v.7c0 .08.05.13.13.13h1.92c.04 0 .1-.06.1-.1v-.77c0-.05-.07-.1-.13-.1H4.91c-.08 0-.13.05-.13.13zM5 4.9c0 .19.26.13.57.13.19 0 .16-.27-.02-.27-.29 0-.55-.05-.55.13zm-2.48 0c0 .19.23.13.57.13.17 0 .2-.27-.05-.27-.27 0-.52-.05-.52.13zm1.43.87c.2 0 .52.05.52-.12 0-.21-.25-.15-.6-.15-.11 0-.17.27.08.27zM5 5.62c0 .21.26.15.55.15.2 0 .2-.27.02-.27H5.1c-.05 0-.1.07-.1.12zm1.25-.75c0 .22.06.17.57.17.17 0 .15-.27-.02-.27-.18 0-.55-.05-.55.1zm-2.35.16c.22 0 .57.05.57-.1 0-.22-.25-.17-.55-.17-.18 0-.19.27-.02.27zm-1.38.57c0 .22.19.17.55.17.2 0 .17-.27.03-.27h-.48c-.04 0-.1.06-.1.1zM1.4 5.03c.41 0 .57.06.57-.15 0-.16-.39-.12-.55-.12-.18 0-.19.27-.02.27zm.05.74c.26 0 .52.05.52-.13 0-.06-.05-.13-.1-.13h-.5c-.11 0-.17.27.08.27zm4.8-.15c0 .2.19.15.52.15.25 0 .18-.27.07-.27h-.47c-.08 0-.12.04-.12.12z"/></g></g></svg>