<svg xmlns="http://www.w3.org/2000/svg" width="226.772" height="60mm" viewBox="0 0 23.38 23.38" shape-rendering="geometricPrecision" text-rendering="geometricPrecision" image-rendering="optimizeQuality" fill-rule="evenodd" clip-rule="evenodd"><defs><style>.fil0{fill:#59656c}</style></defs><g id="Слой_x0020_1"><g id="_4346166688"><path class="fil0" d="M5.2 15.92h12.99v1.9H5.2v-1.9zm1.9-3.98h4.34c.3 0 .32-.45.03-.45h-.36V9.31h4.7c.31 0 .52.14.7.28.86.69.76 1.78.85 2.62l.08.93c.01.08 0 .17 0 .25.01.11.02.1.03.23l.14 1.85H5.85l.14-2.02c.04-.45.04-1.1.11-1.6.02-.15.01-.32.03-.45.02-.16.01-.28.04-.44.08-.45.29-.99.64-1.29.16-.14.38-.31.64-.34v2.16h-.36c-.29 0-.28.45.03.45zm.78-4.62h2.74v4.14H7.88V7.32zm5.63-1.76h3.19v1.06h-3.19V5.56zm-.45-.28v1.65c0 .09.12.17.22.17h1.6v1.76H11.1V7.18c0-.17-.08-.31-.25-.31H7.71c-.13 0-.28.05-.28.17v1.82c-.51.01-1.02.46-1.29.86-.41.59-.45 1.24-.5 1.91l-.28 3.81c-.42 0-.64-.07-.64.31v2.16c0 .24.06.36.31.36h13.33c.25 0 .31-.12.31-.36v-2.16c0-.38-.29-.31-.64-.31 0-.39-.09-1.09-.11-1.51l-.14-2.07c-.01-.35-.11-1.17-.21-1.44-.2-.53-.42-.95-.9-1.28-.44-.31-.82-.28-1.32-.28V7.1h1.54c.17 0 .28-.06.28-.22V5.31c0-.13-.17-.2-.31-.2h-3.5c-.13 0-.28.05-.28.17z"/><path class="fil0" d="M13.17 10.71h2.72v.76h-2.72v-.76zm-.45-.2v1.18c0 .14.09.22.22.22h3.22c.07 0 .17-.1.17-.17v-1.29c0-.09-.12-.17-.22-.17h-3.16c-.14 0-.22.09-.22.22zm.37 2.8c0 .32.44.22.95.22.32 0 .27-.45-.03-.45-.49 0-.92-.09-.92.22zm-4.14 0c0 .32.39.22.95.22.28 0 .34-.45-.08-.45-.46 0-.87-.09-.87.22zm2.38 1.46c.34 0 .87.08.87-.2 0-.35-.42-.25-1.01-.25-.18 0-.29.45.14.45zm1.76-.25c0 .35.44.25.92.25.33 0 .33-.45.03-.45h-.78c-.08 0-.17.12-.17.2zm2.1-1.26c0 .37.11.28.95.28.29 0 .25-.45-.03-.45-.3 0-.92-.08-.92.17zm-3.95.28c.37 0 .95.08.95-.17 0-.38-.41-.28-.92-.28-.31 0-.32.45-.03.45zm-2.29.95c0 .37.32.28.92.28.34 0 .29-.45.06-.45h-.81c-.07 0-.17.1-.17.17zm-1.88-.95c.69 0 .95.1.95-.25 0-.27-.65-.2-.92-.2-.31 0-.32.45-.03.45zm.09 1.23c.43 0 .87.08.87-.22 0-.1-.08-.22-.17-.22h-.84c-.18 0-.29.45.14.45zm8.03-.25c0 .33.32.25.87.25.42 0 .3-.45.11-.45h-.78c-.13 0-.2.07-.2.2z"/></g><path fill="none" d="M0 0h23.38v23.38H0z"/></g></svg>