<svg xmlns="http://www.w3.org/2000/svg" width="139.11" height="134.287" viewBox="0 0 5.01 4.83" shape-rendering="geometricPrecision" text-rendering="geometricPrecision" image-rendering="optimizeQuality" fill-rule="evenodd" clip-rule="evenodd"><defs><style>.fil0{fill:#59656c}.fil1{fill:#fff;fill-rule:nonzero}</style></defs><g id="Слой_x0020_1"><g id="_1931066976"><path class="fil0" d="M4.67 1.58v.01c-.15-.4-.43-.77-.74-1.03C2.97-.22 1.6-.16.72.72.6.84.47.99.39 1.13c-.02.04-.04.06-.06.09-.17.27-.25.58-.29.9-.03.31-.03.51.04.82.06.3.2.59.36.83a2.43 2.43 0 001.97 1.04c.56 0 1.24-.26 1.61-.62.1-.1.28-.27.35-.4-.04-.03-.1-.08-.15-.1-.01.05-.17.22-.21.28-.07.08-.37.31-.49.37-.19.1-.23.13-.47.2-.53.16-1.08.1-1.57-.11a2.09 2.09 0 01-.64-.46C-.03 3.1-.02 1.7.83.85c.18-.18.4-.36.64-.46C2.2.09 2.83.1 3.54.48c.09.05.21.13.28.2.16.14.21.18.35.35.12.14.28.42.34.59.01.02.01.03.02.05l-.02-.01-.39-.13c-.05-.02-.11.01-.13.06-.02.05.01.11.06.13l.61.2h.01c.03.01.05.01.08-.01s.05-.04.05-.08l.2-.6c.02-.05-.01-.11-.06-.13-.05-.02-.11.01-.13.06l-.13.38z"/><path class="fil0" d="M1.66 3.42V2.35h1.51v1.06H2.14c-.18 0-.3.01-.48.01zm.27-1.58c0-.21.2-.42.5-.42.25 0 .45.22.45.48v.27h-.95v-.33zm-.18.04v.29c-.1 0-.27-.02-.27.12v1.14c0 .08.04.15.12.15h1.58c.22 0 .16-.23.16-.5l-.02-.83c-.03-.11-.15-.08-.27-.08 0-.27.02-.51-.18-.72a.647.647 0 00-1.12.43z"/><path class="fil1" d="M1.65 3.42V2.33h1.53v1.09H2.13c-.09 0-.16 0-.24.01-.08 0-.15.01-.24.01h-.01v-.01zm.03-1.06v1.05c.08 0 .15 0 .22-.01.08 0 .15-.01.24-.01h1.02V2.36H1.68zm.24-.52c0-.11.06-.23.16-.31.09-.08.21-.12.36-.12.13 0 .24.06.32.14.08.09.14.21.14.34v.29h-.98v-.34zm.17-.29c-.09.08-.15.18-.15.29v.31h.92v-.26c0-.12-.05-.24-.13-.33a.445.445 0 00-.3-.14c-.14 0-.26.05-.34.12zm-.32.33v.3h-.08c-.09 0-.19.01-.19.11v1.14c0 .04.01.08.03.1.02.02.04.03.08.03h1.58c.13 0 .16-.1.16-.23v-.25l-.02-.82c-.02-.08-.11-.08-.2-.07h-.07V2.1c0-.24 0-.45-.18-.63a.639.639 0 00-.92-.01c-.11.11-.19.26-.19.44zm-.03.27v-.27c0-.18.08-.34.19-.46.06-.06.14-.11.22-.14a.67.67 0 01.74.16c.19.19.19.41.18.65v.06h.04c.1 0 .2-.01.23.1 0 .17-.01.69.02.83v.26c0 .15-.03.26-.18.26H1.6c-.04 0-.08-.02-.1-.04a.214.214 0 01-.04-.12V2.3c0-.12.12-.14.22-.14h.05z"/><path class="fil1" d="M4.68 1.58l-.01.05-.01-.04c-.07-.19-.17-.38-.3-.55C4.23.86 4.08.7 3.92.57A2.38 2.38 0 00.53.94c-.05.06-.1.13-.14.2-.01.02-.02.04-.03.05-.01.01-.02.03-.03.04a2.346 2.346 0 00-.29.89c-.01.15-.02.28-.01.41.01.13.02.26.05.41a2.562 2.562 0 00.36.82c.22.32.52.58.86.76.34.18.71.28 1.1.28.28 0 .59-.07.88-.18.28-.11.54-.26.72-.44l.05-.05c.1-.1.23-.23.29-.34-.01-.01-.02-.01-.03-.02-.03-.02-.07-.05-.1-.06a1.754 1.754 0 01-.21.27c-.04.04-.14.12-.24.2-.09.07-.19.14-.25.17-.04.02-.07.04-.1.05-.11.06-.18.09-.37.15-.26.08-.53.1-.79.09a2.42 2.42 0 01-.79-.2c-.12-.05-.24-.12-.34-.2-.11-.08-.21-.17-.3-.26C.38 3.54.17 2.97.17 2.4c0-.57.22-1.14.65-1.56.09-.09.19-.18.3-.26.11-.08.22-.15.35-.2.37-.15.71-.22 1.05-.21.34.01.68.11 1.03.31.04.02.1.06.15.09.05.04.1.07.14.1l.01.01c.15.13.2.18.34.34.06.07.13.17.19.28.06.11.12.22.15.31l.01.03.02.05a7.17 7.17 0 01-.43-.14.062.062 0 00-.07.01c-.02.01-.04.03-.04.05l.7-.03zm-.3-.56c.12.16.22.34.29.52l.12-.36c.01-.03.03-.05.06-.07.03-.01.06-.02.09-.01s.05.03.07.06c.01.03.02.06.01.09l-.2.6c0 .02-.01.03-.02.05-.01.01-.02.03-.04.04-.01.01-.03.01-.04.01-.01 0-.03 0-.04-.01h-.02l-.61-.2a.134.134 0 01-.07-.06c-.01-.03-.02-.06-.01-.09a.09.09 0 01.06-.06c.03-.01.06-.02.09-.01l.38.13-.01-.03c-.03-.09-.08-.2-.14-.3-.06-.11-.13-.21-.19-.28C4.02.88 3.97.83 3.82.7L3.81.69c-.04-.03-.08-.07-.13-.1S3.58.52 3.54.5C3.19.31 2.86.21 2.52.2c-.34-.01-.67.06-1.04.21-.12.05-.23.12-.34.2-.11.08-.21.17-.3.26-.42.42-.64.98-.64 1.54s.21 1.13.64 1.56c.09.09.19.18.3.26.11.08.22.15.34.2.25.11.51.18.78.2.26.02.52-.01.78-.08.19-.06.26-.09.37-.15.03-.02.06-.03.1-.05.06-.03.15-.09.25-.17.1-.08.2-.16.24-.2.03-.03.1-.11.15-.18.03-.04.06-.08.06-.09V3.7h.01c.04.01.08.04.12.07.01.01.03.02.04.03l.01.01-.01.01c-.06.11-.2.25-.3.35l-.05.05c-.18.18-.44.34-.73.45-.29.11-.61.18-.89.18-.4 0-.78-.1-1.12-.28-.35-.18-.65-.45-.87-.77a2.71 2.71 0 01-.23-.41c-.06-.14-.11-.28-.14-.43-.03-.16-.05-.29-.06-.42-.01-.13 0-.26.01-.41.02-.16.06-.32.1-.47.05-.15.11-.3.19-.44.01-.02.02-.03.03-.04A1.429 1.429 0 01.49.93C.55.85.62.78.68.72A2.42 2.42 0 012.26.01c.58-.03 1.16.15 1.65.54.16.13.31.29.44.47zm-.39.59c-.01.02-.01.05.01.07.01.02.03.04.05.04.21.07.41.14.62.2.01 0 .02.01.03 0 .01 0 .02 0 .03-.01l.03-.03c.01-.01.01-.02.02-.04.02-.12.15-.46.2-.6.01-.02 0-.05-.01-.07-.01-.02-.03-.04-.05-.04-.02-.01-.05 0-.07.01-.02.01-.04.03-.04.05l-.13.38-.7.03z"/><path class="fil1" d="M1.65 3.42V2.33h1.53v1.09H2.13c-.09 0-.16 0-.24.01-.08 0-.15.01-.24.01h-.01v-.01zm.03-1.06v1.05c.08 0 .15 0 .22-.01.08 0 .15-.01.24-.01h1.02V2.36H1.68zm.24-.52c0-.11.06-.23.16-.31.09-.08.21-.12.36-.12.13 0 .24.06.32.14.08.09.14.21.14.34v.29h-.98v-.34zm.17-.29c-.09.08-.15.18-.15.29v.31h.92v-.26c0-.12-.05-.24-.13-.33a.445.445 0 00-.3-.14c-.14 0-.26.05-.34.12zm-.32.33v.3h-.08c-.09 0-.19.01-.19.11v1.14c0 .04.01.08.03.1.02.02.04.03.08.03h1.58c.13 0 .16-.1.16-.23v-.25l-.02-.82c-.02-.08-.11-.08-.2-.07h-.07V2.1c0-.24 0-.45-.18-.63a.639.639 0 00-.92-.01c-.11.11-.19.26-.19.44zm-.03.27v-.27c0-.18.08-.34.19-.46.06-.06.14-.11.22-.14a.67.67 0 01.74.16c.19.19.19.41.18.65v.06h.04c.1 0 .2-.01.23.1 0 .17-.01.69.02.83v.26c0 .15-.03.26-.18.26H1.6c-.04 0-.08-.02-.1-.04a.214.214 0 01-.04-.12V2.3c0-.12.12-.14.22-.14h.05z"/><path class="fil1" d="M1.64 3.42v-1.1H3.2v1.11H2.14c-.09 0-.16 0-.24.01-.08 0-.15.01-.24.01h-.03v-.03zm.03 0h.18-.18zm.24-.01h.02-.03zM1.7 2.37v1.02c.07 0 .14 0 .21-.01.08 0 .15-.01.24-.01h1v-1H1.7zm.22-.53c0-.06.01-.12.04-.17a.46.46 0 01.29-.24c.06-.02.13-.03.2-.03.06 0 .12.01.18.04s.11.06.15.11c.04.05.08.1.1.16.02.06.04.12.04.19v.3h-1v-.35zm.07-.16c-.02.04-.03.08-.04.12.01-.04.02-.08.04-.12.02-.05.06-.09.11-.13-.05.04-.08.09-.11.13zm.27-.23c-.05.02-.1.05-.14.08a.53.53 0 01.15-.08c.04-.02.09-.03.15-.03l-.15.03zm.19-.03h-.04.04zm.17.04c-.04-.02-.09-.03-.14-.04.05 0 .1.02.14.04.05.02.1.06.14.1-.04-.04-.09-.07-.14-.1zm-.14-.04h-.02.02zm.39.29a.396.396 0 00-.1-.15c.04.04.07.1.1.15zm-.75-.15c-.04.04-.08.08-.1.13-.02.05-.04.1-.04.15v.3h.9V1.9a.467.467 0 00-.12-.32c-.04-.04-.09-.07-.14-.1a.484.484 0 00-.49.09zm-.32.32v.31h-.09c-.04 0-.09 0-.12.02-.03.01-.05.04-.05.08v1.14c0 .02 0 .04.01.05 0 .01.01.03.02.04.01.01.02.02.03.02.01 0 .02.01.04.01h1.58c.06 0 .1-.02.12-.06a.35.35 0 00.03-.16v-.25l-.02-.82a.09.09 0 00-.06-.06c-.03-.01-.08-.01-.12-.01h-.08v-.1c0-.12 0-.23-.02-.34-.02-.1-.06-.2-.15-.29a.685.685 0 00-.21-.15.687.687 0 00-.24-.05.487.487 0 00-.24.05c-.04.02-.07.04-.11.06a.7.7 0 00-.1.08c-.06.06-.1.12-.13.2-.03.07-.05.15-.05.23zm-.09.28h.01-.01zm-.13.02c.04-.01.08-.02.12-.02-.05 0-.09 0-.13.02-.04.02-.06.04-.06.1 0-.05.03-.08.07-.1zm-.06 1.31c0-.01-.01-.03-.01-.05 0 .02 0 .03.01.05 0 .01.01.03.02.04-.01-.01-.01-.02-.02-.04zm.06.08c-.01-.01-.03-.02-.04-.03.01.01.02.02.04.03.01.01.03.01.05.01-.02 0-.04 0-.05-.01zm1.77-.06c-.02.04-.07.07-.14.07.07 0 .11-.02.14-.07.02-.04.03-.1.03-.17 0 .06-.01.12-.03.16zm.03-.27v.03-.04zm0-.03v-.03.03zm-.02-.96c-.02-.08-.1-.09-.19-.09.04 0 .07 0 .1.01.04.01.07.03.08.08zm-.22-.08h-.02.02zm-.05 0h.03-.03zm-.02-.42c.02.08.02.16.02.24 0-.19-.02-.35-.14-.51.07.08.1.17.12.26zm-.38-.46c.03.01.06.03.1.05-.03-.02-.06-.04-.1-.05-.06-.03-.13-.04-.19-.05.07.01.13.02.19.05zm.1.06l.02.01-.02-.01zm.02.01l.01.01-.01-.01zm-.33-.12h.01-.01zm-.17.01c.04-.01.08-.01.13-.01-.04 0-.08 0-.13.01-.01 0-.03.01-.04.01.01 0 .02-.01.04-.01zm-.48.39c.02-.04.04-.08.06-.11-.02.04-.05.07-.06.11-.03.06-.04.13-.05.2 0-.07.02-.14.05-.2zm.12-.18l.01-.01-.01.01zm-.17.41v-.02.02zm-.03.27v-.26a.623.623 0 01.2-.46.7.7 0 01.1-.08c.04-.02.08-.05.12-.06.04-.02.08-.03.13-.04.04-.01.09-.01.13-.01.09 0 .18.02.26.06.08.04.16.09.23.16.19.19.19.41.19.66v.05h.03c.11 0 .21-.01.24.11v.21c0 .22 0 .52.02.62v.26c0 .08-.01.15-.03.19-.03.05-.08.08-.16.08H1.63c-.02 0-.04 0-.06-.01-.02-.01-.04-.02-.05-.04l-.03-.06c-.01-.02-.01-.05-.01-.07V2.31c0-.07.03-.11.08-.13.04-.02.1-.02.15-.02h.04z"/></g></g></svg>