<svg xmlns="http://www.w3.org/2000/svg" width="60mm" height="60mm" viewBox="0 0 15.96 15.96" shape-rendering="geometricPrecision" text-rendering="geometricPrecision" image-rendering="optimizeQuality" fill-rule="evenodd" clip-rule="evenodd"><defs><style>.str0{stroke:#59656c;stroke-width:.27;stroke-miterlimit:22.9256}.fil1{fill:none}.fil0{fill:#fff}</style></defs><g id="Слой_x0020_1"><g id="_4701160976"><rect class="fil0 str0" x="4.39" y="3.1" width="8.53" height="8.53" rx=".85" ry=".85"/><rect class="fil0 str0" x="3.04" y="4.34" width="8.53" height="8.53" rx=".85" ry=".85"/><path class="fil1 str0" d="M9.52 10.81c0-1.26.13-1.16-1.13-1.69-.13-.06-.44-.25-.56-.16-.26.18-.48.34-.91.09-.24-.14-.07-.23-.82.12-.99.46-1 .27-1.01 1.41v.21c.01.18.05.14.48.14h3.65c.14 0 .3.04.3-.12z"/><ellipse class="fil1 str0" cx="7.31" cy="7.36" rx="1.09" ry="1.26"/></g><path class="fil1" d="M0 0h15.96v15.96H0z"/></g></svg>