<svg xmlns="http://www.w3.org/2000/svg" width="53.9mm" height="155.207" viewBox="0 0 17.29 13.17" shape-rendering="geometricPrecision" text-rendering="geometricPrecision" image-rendering="optimizeQuality" fill-rule="evenodd" clip-rule="evenodd"><g fill="#59656c"><path d="M.32 8.13c0 .07.05.15.13.2.04.03.1.05.15.06.05.01.1.01.15-.01.08-.03.16-.11.2-.26l.43-1.77.04-.16c.04-.17.06-.26.18-.27.18-.01.18.11.18.39v.08c-.01.97-.06 1.95-.12 2.92-.06 1.08-.12 2.16-.12 3.25 0 .06.02.11.06.16.04.05.1.09.16.12.06.02.13.03.2.01.08-.02.15-.07.23-.16.09-.12.36-2.08.53-3.32.05-.38.09-.7.12-.85l.15-1.01.86 5.23c.07.07.15.11.23.12.05.01.09 0 .13-.01.04-.01.09-.03.12-.06.08-.06.14-.15.16-.28l-.26-6.05a.97.97 0 010-.25c.02-.11.08-.16.18-.15.07 0 .12.04.15.11.02.05.05.13.08.25l.56 1.94c.07.04.13.06.18.06a.266.266 0 00.22-.12c.05-.06.07-.13.07-.19 0-.1-.08-.67-.19-1.35-.17-1.08-.38-2.41-.43-2.65-.03-.14-.05-.23-.1-.31a.668.668 0 00-.18-.2c-.1-.08-.26-.17-.44-.24-.17-.08-.36-.14-.51-.19l-.03.02c-.21.17-.52.25-.83.24-.3-.01-.6-.1-.79-.26l-.01-.01c-.14.04-.27.09-.4.15-.17.08-.33.16-.47.24-.3.17-.33.41-.41.96-.02.11-.03.23-.06.38l-.02.1C.7 5.57.32 7.91.32 8.15zm-.05.46C.11 8.48 0 8.31 0 8.13c0-.27.39-2.63.49-3.21l.02-.1c.02-.12.04-.26.06-.37.1-.65.14-.94.57-1.19.16-.09.33-.18.5-.26.18-.08.36-.15.55-.19l.1-.02.06.08c.01.02.03.03.05.05.13.11.36.17.59.18.23.01.47-.05.62-.17l.06-.06.06-.07.09.02c.18.04.43.13.65.23.2.09.39.19.51.29.12.09.2.18.26.3.06.11.1.24.13.41.05.24.27 1.59.43 2.66.11.7.19 1.28.19 1.4 0 .14-.05.28-.14.39a.6.6 0 01-.47.24c-.13 0-.28-.05-.42-.16l-.04-.03-.33-1.13.22 5.11v.01a.72.72 0 01-.28.51.696.696 0 01-.48.13.674.674 0 01-.47-.28l-.02-.03-.53-3.26c-.17 1.27-.43 3.1-.57 3.28-.12.15-.26.24-.39.27-.14.04-.27.02-.39-.02a.654.654 0 01-.3-.22.623.623 0 01-.14-.36c0-1.08.06-2.17.12-3.26.03-.6.07-1.2.09-1.79l-.17.71v.01c-.08.26-.23.4-.4.47-.1.04-.21.05-.31.03a.961.961 0 01-.28-.11zm1.36-2.36l.02.01c.03-.01.03-.01-.02-.01zm0 0c-.06 0-.03.01.02.01h.01l-.02-.01zm.34-4.92c0 .15.03.28.07.4.05.14.13.26.21.35.18.2.45.31.73.31.13 0 .26-.02.38-.07.12-.04.23-.11.33-.19.19-.17.32-.44.32-.8 0-.14-.03-.28-.09-.4-.08-.17-.21-.32-.37-.42a1.04 1.04 0 00-1-.06c-.03.01-.09.05-.14.09a.52.52 0 00-.13.11c-.07.07-.15.19-.21.34a.93.93 0 00-.08.35zm-.23.52c-.06-.15-.09-.33-.09-.52 0-.16.04-.32.11-.48.08-.18.19-.34.28-.44.04-.04.11-.09.18-.14.07-.05.14-.09.19-.12.2-.09.4-.13.59-.13.27 0 .52.08.73.22.21.14.38.33.49.56.08.16.12.34.12.53 0 .46-.17.8-.43 1.03a1.372 1.372 0 01-.92.35c-.36 0-.72-.14-.97-.41-.11-.12-.2-.27-.27-.45zm9.88 6.3c0 .07.05.15.13.2.04.03.1.05.15.06.05.01.1.01.15-.01.08-.03.16-.11.2-.26l.43-1.77.04-.16c.04-.17.06-.26.18-.27.18-.01.18.11.18.39v.08c-.01.97-.06 1.95-.12 2.92-.06 1.08-.12 2.16-.12 3.25 0 .06.02.11.06.16.04.05.1.09.16.12.06.02.13.03.2.01.08-.02.15-.07.23-.16.09-.12.36-2.08.53-3.32.05-.38.09-.7.12-.85l.15-1.01.86 5.23c.07.07.15.11.23.12.05.01.09 0 .13-.01.04-.01.09-.03.12-.06.08-.06.14-.15.16-.28l-.26-6.05a.97.97 0 010-.25c.02-.11.08-.16.18-.15.07 0 .12.04.15.11.02.05.05.13.08.25l.56 1.94c.07.04.13.06.18.06a.266.266 0 00.22-.12c.05-.06.07-.13.07-.19 0-.1-.08-.67-.19-1.35-.17-1.08-.38-2.41-.43-2.65-.03-.14-.05-.23-.1-.31a.668.668 0 00-.18-.2c-.1-.08-.26-.17-.44-.24-.17-.08-.36-.14-.51-.19l-.03.02c-.21.17-.52.25-.83.24-.3-.01-.6-.1-.79-.26l-.01-.01c-.14.04-.27.09-.4.15-.17.08-.33.16-.47.24-.3.17-.33.41-.41.96-.02.11-.03.23-.06.38l-.02.1c-.1.58-.48 2.92-.48 3.16zm-.05.46c-.16-.11-.27-.28-.27-.46 0-.27.39-2.63.49-3.21l.02-.1c.02-.12.04-.26.06-.37.1-.65.14-.94.57-1.19.16-.09.33-.18.5-.26.18-.08.36-.15.55-.19l.1-.02.06.08c.01.02.03.03.05.05.13.11.36.17.59.18.23.01.47-.05.62-.17l.06-.06.06-.07.09.02c.18.04.43.13.65.23.2.09.39.19.51.29.12.09.2.18.26.3.06.11.1.24.13.41.05.24.27 1.59.43 2.66.11.7.19 1.28.19 1.4 0 .14-.05.28-.14.39a.6.6 0 01-.47.24c-.13 0-.28-.05-.42-.16l-.04-.03-.33-1.13.22 5.11v.01a.72.72 0 01-.28.51.696.696 0 01-.48.13.674.674 0 01-.47-.28l-.02-.03-.53-3.26c-.17 1.27-.43 3.1-.57 3.28-.12.15-.26.24-.39.27-.14.04-.27.02-.39-.02a.654.654 0 01-.3-.22.623.623 0 01-.14-.36c0-1.08.06-2.17.12-3.26.03-.6.07-1.2.09-1.79l-.17.71v.01c-.08.26-.23.4-.4.47-.1.04-.21.05-.31.03a.961.961 0 01-.28-.11zm1.36-2.36l.02.01c.03-.01.03-.01-.02-.01zm0 0c-.06 0-.03.01.02.01h.01l-.02-.01zm.35-4.92c0 .15.03.28.07.4.05.14.13.26.21.35.18.2.45.31.73.31.13 0 .26-.02.38-.07.12-.04.23-.11.33-.19.19-.17.32-.44.32-.8 0-.14-.03-.28-.09-.4-.08-.17-.21-.32-.37-.42a1.04 1.04 0 00-1-.06c-.03.01-.09.05-.14.09a.52.52 0 00-.13.11c-.07.07-.15.19-.21.34a.93.93 0 00-.08.35zm-.23.52c-.06-.15-.09-.33-.09-.52 0-.16.04-.32.11-.48.08-.18.19-.34.28-.44.04-.04.11-.09.18-.14.07-.05.14-.09.19-.12.2-.09.4-.13.59-.13.27 0 .52.08.73.22.21.14.38.33.49.56.08.16.12.34.12.53 0 .46-.17.8-.43 1.03a1.372 1.372 0 01-.92.35c-.36 0-.72-.14-.97-.41-.11-.12-.2-.27-.27-.45z" fill-rule="nonzero"/><path d="M7.72 8.51h2.31a.19.19 0 110 .38H7.72l.53.53c.07.07.07.19 0 .26s-.19.07-.26 0l-.83-.83c-.01 0-.01-.01-.02-.02a.166.166 0 01-.05-.13c0-.06.03-.12.08-.15l.82-.82c.07-.07.19-.07.26 0s.07.19 0 .26l-.52.52zm1.85-3.27H7.26a.19.19 0 100 .38h2.31l-.53.53c-.07.07-.07.19 0 .26s.19.07.26 0l.83-.83c.01 0 .01-.01.02-.02.04-.04.05-.08.05-.13 0-.06-.03-.12-.08-.15l-.82-.82a.187.187 0 00-.26 0c-.07.07-.07.19 0 .26l.52.52z"/></g></svg>