<svg xmlns="http://www.w3.org/2000/svg" width="60mm" height="60mm" viewBox="0 0 21.42 21.42" shape-rendering="geometricPrecision" text-rendering="geometricPrecision" image-rendering="optimizeQuality" fill-rule="evenodd" clip-rule="evenodd"><defs><style>.fil0{fill:none}</style></defs><g id="Слой_x0020_1"><g id="_5112032496"><path class="fil0" d="M1.27 12.43c0 .44.82.78 1.04.04l.48-1.97c.1-.43.1-.5.09-.01-.03 2.28-.26 4.58-.26 6.86 0 .4.61.79 1.04.25.17-.22.63-3.87.75-4.73l.78 4.75c.33.44.99.25 1.06-.32l-.29-6.76c-.03-.38.03-.3.1 0l.65 2.23c.45.36.86-.04.86-.38 0-.31-.61-4.05-.69-4.49-.06-.34-.15-.5-.37-.68-.26-.21-.87-.46-1.22-.54-.38.45-1.41.39-1.73 0-.39.09-.78.29-1.12.48-.48.27-.45.64-.61 1.61-.06.36-.56 3.35-.56 3.66zm1.84-7.6c0 .4.16.73.36.95.68.76 2.27.44 2.27-.95 0-.88-.96-1.58-1.88-1.14-.09.04-.29.18-.36.25-.17.17-.38.56-.38.89zm10.74 7.6c0 .44.82.78 1.04.04l.48-1.97c.1-.43.1-.5.09-.01-.03 2.28-.26 4.58-.26 6.86 0 .4.61.79 1.04.25.17-.22.63-3.87.75-4.73l.78 4.75c.33.44.99.25 1.06-.32l-.29-6.76c-.03-.38.03-.3.1 0l.65 2.23c.45.36.86-.04.86-.38 0-.31-.61-4.05-.69-4.49-.06-.34-.15-.5-.37-.68-.26-.21-.87-.46-1.22-.54-.38.45-1.41.39-1.73 0-.39.09-.78.29-1.12.48-.48.27-.45.64-.61 1.61-.06.36-.56 3.35-.56 3.66zm1.83-7.6c0 .4.16.73.36.95.68.76 2.27.44 2.27-.95 0-.88-.96-1.58-1.88-1.14-.09.04-.29.18-.36.25-.17.17-.38.56-.38.89z" stroke="#59656c" stroke-width=".36" stroke-miterlimit="22.926"/><path d="M9.68 12.85h2.57c.11 0 .21.09.21.21 0 .11-.09.21-.21.21H9.68l.59.59a.205.205 0 01-.29.29l-.92-.92-.02-.02a.204.204 0 01-.06-.15c0-.07.03-.13.09-.17l.91-.91a.205.205 0 01.29.29l-.58.58zm2.06-3.64H9.17c-.11 0-.21.09-.21.21 0 .11.09.21.21.21h2.57l-.59.59a.205.205 0 00.29.29l.92-.92.02-.02c.04-.04.06-.09.06-.15 0-.07-.03-.13-.09-.17l-.91-.91a.205.205 0 00-.29.29l.58.58z" fill="#59656c"/></g><path class="fil0" d="M0 0h21.42v21.42H0z"/></g></svg>