<svg xmlns="http://www.w3.org/2000/svg" width="60mm" height="60mm" viewBox="0 0 15.17 15.17" shape-rendering="geometricPrecision" text-rendering="geometricPrecision" image-rendering="optimizeQuality" fill-rule="evenodd" clip-rule="evenodd"><defs><style>.str0{stroke:#59656c;stroke-width:.25;stroke-miterlimit:22.9256}.fil0{fill:none}</style></defs><g id="Слой_x0020_1"><g id="_4698914288"><path class="fil0 str0" d="M4.72 11.77L4.7 7.32c0-.11.07-.21.16-.2l.94.06c.09.01.16.09.16.2l.07 3.7m.92-.59l-.02-3.11c0-.07.04-.14.08-.13l.5.03c.05.01.08.06.08.13l.03 2.67"/><rect class="fil0 str0" x="8.31" y="5.32" width="3.41" height="4.46" rx=".2" ry=".26"/><path class="fil0 str0" d="M8.31 5.52L3.45 2.61v9.95l4.89-2.89"/></g><path class="fil0" d="M0 0h15.17v15.17H0z"/></g></svg>