<svg xmlns="http://www.w3.org/2000/svg" width="127.433" height="155.348" viewBox="0 0 4.79 5.85" shape-rendering="geometricPrecision" text-rendering="geometricPrecision" image-rendering="optimizeQuality" fill-rule="evenodd" clip-rule="evenodd"><defs><style>.fil0{fill:#59656c;fill-rule:nonzero}</style></defs><g id="Слой_x0020_1"><path class="fil0" d="M.71 5.28L.7 2.78v-.02c0-.04.02-.08.04-.11.03-.03.07-.06.11-.06h.01l.53.03c.04 0 .08.03.11.06.02.03.04.07.04.12l.04 2.08h-.14L1.4 2.8c0-.01 0-.03-.01-.04 0-.01-.01-.01-.01-.01l-.53-.03c-.01.01-.01.02-.01.03v.01l.01 2.5H.71zm.14-2.55zm0 0zm1.12 1.83l-.01-1.75v-.02c0-.03.01-.05.03-.07.02-.03.05-.05.09-.05h.01l.28.01c.04 0 .07.03.08.06a.2.2 0 01.02.09l.02 1.5h-.14l-.02-1.5v-.01l-.23-.01c-.04.5.01 1.23.01 1.75h-.14zm.95-2.98h1.69c.05 0 .1.02.13.05.03.03.05.08.05.13v2.29c0 .05-.02.1-.05.13a.19.19 0 01-.13.05H2.92a.19.19 0 01-.13-.05.19.19 0 01-.05-.13V1.76c0-.05.02-.1.05-.13a.19.19 0 01.13-.05zm1.69.14H2.92c-.01 0-.02 0-.03.01-.01.01-.01.02-.01.03v2.29c0 .01 0 .02.01.03.01.01.02.01.03.01h1.69c.01 0 .02 0 .03-.01.01-.01.01-.02.01-.03V1.76c0-.01 0-.02-.01-.03-.01-.01-.02-.01-.03-.01z"/><path class="fil0" d="M2.77 1.82L.14.25V5.6l2.64-1.56.08.12L0 5.85V0l2.84 1.7z"/></g></svg>