<svg xmlns="http://www.w3.org/2000/svg" width="226.772" height="60mm" viewBox="0 0 23.81 23.81" shape-rendering="geometricPrecision" text-rendering="geometricPrecision" image-rendering="optimizeQuality" fill-rule="evenodd" clip-rule="evenodd"><defs><style>.str0{stroke:#59656c;stroke-width:.4;stroke-miterlimit:22.9256}.fil0{fill:#fff}</style></defs><g id="Слой_x0020_1"><g id="_1886531408"><path class="fil0 str0" d="M11.94 12.9c0 .46-.87.83-1.11.04l-.51-2.09c-.11-.45-.1-.53-.1-.01.03 2.41.28 4.86.28 7.27 0 .42-.65.83-1.1.27-.18-.23-.66-4.1-.8-5.02l-.83 5.04c-.35.46-1.05.26-1.12-.34l.3-7.17c.03-.41-.03-.32-.1 0l-.68 2.36c-.47.38-.91-.05-.91-.4 0-.33.64-4.29.73-4.76.07-.36.16-.53.4-.72.28-.22.92-.48 1.3-.57.41.48 1.5.42 1.84 0 .41.1.83.31 1.18.51.51.29.48.68.65 1.71.06.38.59 3.55.59 3.88zM9.99 4.84c0 .43-.17.78-.38 1.01-.72.8-2.4.46-2.4-1.01 0-.93 1.02-1.67 2-1.21.09.04.31.19.38.27.18.18.41.59.41.94z"/><path class="fil0 str0" d="M15.25 13.77c0 .46-.87.83-1.11.04l-.51-2.09c-.11-.45-.1-.53-.1-.01.03 2.41.28 4.86.28 7.27 0 .42-.65.83-1.1.27-.18-.23-.66-4.1-.8-5.02l-.83 5.04c-.35.46-1.05.26-1.12-.34l.3-7.17c.03-.41-.03-.32-.1 0l-.68 2.36c-.47.38-.91-.05-.91-.4 0-.33.64-4.29.73-4.76.07-.36.16-.53.4-.72.28-.22.92-.48 1.3-.57.41.48 1.5.42 1.84 0 .41.1.83.31 1.18.51.51.29.48.68.65 1.71.06.38.59 3.55.59 3.88zM13.3 5.71c0 .43-.17.78-.38 1.01-.72.8-2.4.46-2.4-1.01 0-.93 1.02-1.67 2-1.21.09.04.31.19.38.27.18.18.41.59.41.94z"/><path class="fil0 str0" d="M18.56 14.56c0 .46-.87.83-1.11.04l-.51-2.09c-.11-.45-.1-.53-.1-.01.03 2.41.28 4.86.28 7.27 0 .42-.65.83-1.1.27-.18-.23-.66-4.1-.8-5.02l-.83 5.04c-.35.46-1.05.26-1.12-.34l.3-7.17c.03-.41-.03-.32-.1 0l-.68 2.36c-.47.38-.91-.05-.91-.4 0-.33.64-4.29.73-4.76.07-.36.16-.53.4-.72.28-.22.92-.48 1.3-.57.41.48 1.5.42 1.84 0 .41.1.83.31 1.18.51.51.29.48.68.65 1.71.06.38.59 3.55.59 3.88zM16.61 6.5c0 .43-.17.78-.38 1.01-.72.8-2.4.46-2.4-1.01 0-.93 1.02-1.67 2-1.21.09.04.31.19.38.27.18.18.41.59.41.94z"/></g><path fill="none" d="M0 0h23.81v23.81H0z"/></g></svg>