<svg xmlns="http://www.w3.org/2000/svg" width="199.163" height="147.066" viewBox="0 0 46.17 34.1" shape-rendering="geometricPrecision" text-rendering="geometricPrecision" image-rendering="optimizeQuality" fill-rule="evenodd" clip-rule="evenodd"><defs><style>.fil1{fill:#59656c;fill-rule:nonzero}</style></defs><g id="Слой_x0020_1"><path d="M42.47 26.19h3.09V23.1c0-.17.14-.31.31-.31.17 0 .31.14.31.31v3.51c0 .01 0 .01-.01.02v.01s0 .01-.01.01c0 .01-.01.02-.01.03-.05.08-.13.13-.23.15h-3.45c-.17 0-.31-.14-.31-.31 0-.17.14-.31.31-.31zm0-25.57h3.09v3.09c0 .17.14.31.31.31.17 0 .31-.14.31-.31V.2c0-.01 0-.01-.01-.02V.17s0-.01-.01-.01c0-.01-.01-.02-.01-.03a.338.338 0 00-.23-.15h-3.45c-.17 0-.31.14-.31.31 0 .17.14.31.31.31zM26.99 26.19H23.9V23.1c0-.17-.14-.31-.31-.31-.17 0-.31.14-.31.31v3.51c0 .01 0 .01.01.02v.01s0 .01.01.01c0 .01.01.02.01.03.05.08.13.13.23.15h3.45c.17 0 .31-.14.31-.31 0-.17-.14-.31-.31-.31zm0-25.57H23.9v3.09c0 .17-.14.31-.31.31-.17 0-.31-.14-.31-.31V.2c0-.01 0-.01.01-.02V.17s0-.01.01-.01c0-.01.01-.02.01-.03.05-.08.13-.13.23-.15h3.45c.17 0 .31.14.31.31 0 .17-.14.31-.31.31z" fill="#55adad"/><path class="fil1" d="M36.95 32.7c.07.24.2.39.35.46.06.03.12.05.18.05.06.01.13 0 .19-.02.12-.03.22-.12.3-.24.27-1.43.39-3.12.33-4.63-.06-1.39-.26-2.63-.64-3.37v-.01c-.15-.29-.46-.84-.82-1.45-.78-1.34-1.76-3.02-1.82-3.61-.04-.49.07-2.21.23-3.81.15-1.49.34-2.91.49-3.2l.21-.43.41.25c.62.38 1.14.9 1.67 1.41.52.52 1.04 1.02 1.6 1.33.18.1 1.41.37 2.68.47.62.05 1.23.06 1.7-.02.36-.06.61-.16.66-.3.01-.02.01-.06.01-.09-.03-.31-.89-.52-1.99-.78-.99-.23-2.13-.51-3.18-1.04l-.1-.05-.06-.09c-.69-.97-1.3-1.78-1.81-2.4-.49-.59-.87-.99-1.12-1.16-.4-.28-1.66-.6-2.96-.79-1.19-.18-2.38-.24-2.9-.07-.69.23-1.36.38-2 .52-1.35.3-2.51.56-3.22 1.52-.24.32-.4.53-.56.75-.36.47-.71.94-1.06 1.44-.31.43-.62.9-.77 1.3-.11.29-.13.55.05.71.18.17.53-.1.94-.53.37-.39.76-.89 1.13-1.38.64-.83 1.24-1.62 1.78-1.83.17-.07 1.63-.38 2.82-.51.74-.08 1.41-.1 1.73.04l.19.09.05.2c.2.75-.02 2.35-.2 3.68-.07.54-.14 1.04-.17 1.41-.02.29-.05.59-.08.89-.14 1.34-.23 2.26.59 3.41.51.72 1.21 1.48 1.86 2.19.2.22.39.42.63.7 2.17 2.44 2.2 3.9 2.24 5.66.02.95.04 1.99.46 3.36zm-.04 1.25c-.35-.18-.65-.51-.8-1-.45-1.47-.47-2.59-.49-3.59-.04-1.59-.06-2.9-2.02-5.1-.15-.17-.38-.43-.62-.69-.65-.72-1.37-1.5-1.92-2.27-1.02-1.42-.91-2.47-.75-4 .03-.26.05-.53.08-.86.03-.37.1-.89.18-1.46.15-1.1.33-2.39.27-3.09-.24-.01-.63.02-1.07.07-1.13.13-2.46.4-2.6.46-.31.12-.84.82-1.41 1.55-.39.51-.8 1.04-1.19 1.45-.76.79-1.51 1.2-2.18.56-.48-.46-.49-1.04-.26-1.65.19-.5.54-1.02.88-1.5.38-.53.73-.99 1.08-1.46.21-.28.42-.56.56-.74.91-1.22 2.21-1.51 3.73-1.85.6-.13 1.25-.28 1.91-.5.65-.21 1.99-.16 3.29.04 1.41.21 2.83.58 3.34.94.32.23.76.68 1.29 1.32.5.61 1.11 1.41 1.79 2.36.92.45 1.97.7 2.89.92 1.44.34 2.57.61 2.65 1.55.01.16 0 .31-.05.45-.17.5-.67.77-1.34.88-.55.09-1.24.09-1.91.03-1.37-.11-2.79-.45-3.02-.58-.66-.36-1.22-.91-1.79-1.47-.33-.32-.66-.65-1.01-.93-.09.55-.19 1.43-.28 2.36-.16 1.56-.27 3.21-.23 3.65.03.39.96 1.98 1.7 3.25.36.61.67 1.16.84 1.5.44.86.68 2.22.74 3.73.07 1.61-.07 3.4-.36 4.9l-.01.06-.03.05c-.19.38-.51.63-.86.74-.16.05-.34.07-.51.05-.17-.01-.34-.06-.5-.14z"/><path class="fil1" d="M32.99 26.24c-.2-.34-.55-.84-.92-1.3-.22-.27-.43-.53-.62-.71-.41.47-.78 1.08-1.13 1.67-.13.22-.27.44-.39.65-1.01 1.6-1.71 2.22-3.28 3.6l-.08.07c-.14.12-.3.24-.48.37-.61.45-1.45 1.06-1.12 1.75.23.48.58.49 1.03.28.47-.23 1.05-.67 1.68-1.16.44-.34.9-.69 1.4-1.03 1.06-.72 1.72-1.19 2.25-1.73s.95-1.18 1.55-2.25l.07-.12c.02-.03.03-.06.04-.09zm-.23-1.84c.47.6.93 1.27 1.11 1.62l.1.19-.09.2c-.05.11-.08.17-.09.2l-.03.06-.05.09-.07.12c-.64 1.14-1.1 1.83-1.68 2.43-.58.6-1.27 1.09-2.39 1.84-.46.31-.92.67-1.35 1-.67.52-1.28.99-1.84 1.26-.92.44-1.67.39-2.19-.69-.65-1.34.53-2.21 1.39-2.83.17-.12.32-.23.42-.32l.08-.07c1.5-1.33 2.18-1.92 3.12-3.41.13-.2.25-.41.38-.63.46-.76.94-1.58 1.55-2.14l.26-.24.29.2c.29.2.7.65 1.08 1.14zm.03-20.07c0 .36.07.69.18.97.13.33.31.62.51.84.44.49 1.1.74 1.76.74.31 0 .62-.05.91-.16.29-.1.56-.26.79-.47.47-.42.78-1.06.78-1.93 0-.34-.08-.67-.21-.96-.19-.41-.51-.77-.9-1.02s-.85-.4-1.34-.4c-.36 0-.73.08-1.09.25-.07.03-.21.12-.35.22-.13.09-.26.19-.32.26-.17.17-.37.47-.52.81-.12.28-.2.58-.2.84zm-.64 1.28c-.15-.38-.24-.82-.24-1.28 0-.39.11-.81.27-1.19.19-.44.46-.85.7-1.09.09-.09.27-.23.44-.35.17-.12.36-.24.48-.29.49-.23.99-.34 1.46-.34a3.361 3.361 0 013.02 1.92c.19.41.3.86.3 1.33 0 1.14-.43 2-1.07 2.58-.32.28-.68.5-1.08.64-.39.14-.8.21-1.21.21-.9 0-1.8-.34-2.41-1.03-.27-.3-.51-.67-.68-1.12zM4.79 28.14c.23.34.64 1.06 1.03 1.77.31.55.61 1.09.81 1.41.07.12.18.23.31.29.09.04.2.06.32.02.11-.03.22-.09.29-.19.06-.08.1-.19.1-.32 0-.23-.6-1.21-.92-1.75-.04-.07-.08-.13-.15-.26l-.09-.16c-.19-.31-.51-.84-.55-1.03l-.14-.54h6.95l.05.38c.05.38.03 1.07.02 1.76-.02.65-.04 1.3.01 1.66.02.19.11.32.23.39.08.05.17.07.26.08.1 0 .19-.01.27-.05.13-.06.23-.17.27-.34.04-.17.03-1.87.02-2.79v-.53c0-.41.08-.99.33-1.45.21-.39.53-.69.99-.79l.17-.04c.68-.15.69-.15 1.91.69.37.25.68.43.94.45.22.02.45-.08.73-.37.47-.48.18-.94-.15-1.45-.28-.44-.58-.9-.67-1.49a5.35 5.35 0 01-.06-.59c-.03-.37-.07-.73-.18-1.04-.07-.2-.14-.33-.19-.43-.27-.52-.29-.55.27-1.3l.04-.05c.21-.28.48-.63.44-1.07a.7.7 0 00-.14-.4.273.273 0 00-.12-.09c-.04-.02-.1-.02-.16-.02-.14.01-.32.09-.51.26-.19.16-.3.26-.39.35-.42.37-.47.42-1.39.94-.31.17-.47.27-.63.36-1.74 1-3.12 1.8-5.01 1.8H4.08c-.57 0-1.06-.46-1.57-.93-.4-.37-.8-.75-1.1-.76a.555.555 0 00-.35.09.53.53 0 00-.2.29c-.11.45.73 1.07 1.36 1.53.17.13.33.24.45.33.19.14.28.21.35.39.05.14.05.24.05.43v3.6c0 .42-.58 1.52-.93 2.17-.09.18-.17.32-.2.37l-.23.43c-.3.54-.59 1.08-.18 1.39.1.07.22.1.33.08.15-.02.28-.08.37-.17.11-.12.56-.99.97-1.79.4-.79.78-1.52.95-1.64l.36-.24.24.35zm.27 2.19c-.22-.39-.44-.78-.63-1.11-.11.23-.26.52-.42.83-.44.86-.92 1.8-1.12 2-.22.23-.55.4-.9.44-.32.03-.65-.03-.95-.25-1.02-.76-.54-1.63-.06-2.51l.21-.39c.06-.12.12-.24.21-.4.31-.58.83-1.56.83-1.76-.01-.96 0-1.91 0-2.87v-.74c0-.08.02-.07.01-.09-.02-.05-.01.03-.06-.01l-.03-.02c-.13-.1-.27-.2-.41-.31-.83-.61-1.96-1.43-1.7-2.45.08-.31.27-.59.53-.79.24-.18.55-.28.9-.26.61.03 1.14.52 1.65 1 .38.35.75.7.97.7h6.02c1.65-.01 2.94-.75 4.57-1.69l.63-.36c.84-.48.88-.52 1.23-.83.11-.1.25-.23.4-.36.34-.3.69-.44 1.01-.47a1.178 1.178 0 011.01.4c.2.23.32.54.35.91.06.77-.32 1.27-.62 1.67l-.04.05c-.23.3-.23.31-.19.37.06.12.15.28.24.53.15.41.19.83.23 1.26.02.17.03.35.06.54.06.4.31.79.54 1.15.53.83 1.01 1.56.04 2.54-.49.49-.94.67-1.43.63-.45-.04-.87-.27-1.36-.6-.91-.62-.91-.62-1.23-.55-.05.01-.11.02-.19.04-.17.03-.3.17-.39.34-.17.32-.23.74-.23 1.04v.52c.01.96.02 2.72-.04 2.98a1.38 1.38 0 01-1.44 1.08c-.23-.01-.47-.08-.67-.2-.34-.2-.6-.55-.65-1.04-.05-.4-.03-1.1-.01-1.78.01-.46.02-.91.02-1.25H7.08l.4.67c.37.61 1.04 1.73 1.05 2.2 0 .33-.11.63-.28.86a1.4 1.4 0 01-.76.5c-.34.09-.65.04-.9-.07-.31-.14-.55-.39-.69-.63-.21-.33-.52-.88-.83-1.44z"/></g></svg>