<svg xmlns="http://www.w3.org/2000/svg" width="227.011" height="47mm" viewBox="0 0 59.92 46.89" shape-rendering="geometricPrecision" text-rendering="geometricPrecision" image-rendering="optimizeQuality" fill-rule="evenodd" clip-rule="evenodd"><defs><style>.str0{stroke:#59656c;stroke-width:1;stroke-miterlimit:22.9256}.fil1{fill:none}</style></defs><g id="Слой_x0020_1"><g id="_1629695872"><path d="M51.78 34.11h3.51V30.6c0-.19.16-.35.35-.35.19 0 .35.16.35.35v3.99c0 .01-.01.02-.01.02v.01c0 .01 0 .01-.01.02 0 .01-.01.02-.02.03-.05.09-.15.15-.26.17h-3.92c-.19 0-.35-.16-.35-.35 0-.19.16-.35.35-.35zm0-29.12h3.51V8.5c0 .19.16.35.35.35.19 0 .35-.16.35-.35V4.51c0-.01-.01-.02-.01-.02v-.01c0-.01 0-.01-.01-.02 0-.01-.01-.02-.02-.03a.369.369 0 00-.26-.17h-3.92c-.19 0-.35.16-.35.35 0 .19.16.35.35.35zM34.16 34.11h-3.51V30.6c0-.19-.16-.35-.35-.35-.19 0-.35.16-.35.35v3.99c0 .01.01.02.01.02v.01c0 .01 0 .01.01.02 0 .01.01.02.02.03.05.09.15.15.26.17h3.92c.19 0 .35-.16.35-.35 0-.19-.16-.35-.35-.35zm0-29.12h-3.51V8.5c0 .19-.16.35-.35.35-.19 0-.35-.16-.35-.35V4.51c0-.01.01-.02.01-.02v-.01c0-.01 0-.01.01-.02 0-.01.01-.02.02-.03.05-.09.15-.15.26-.17h3.92c.19 0 .35.16.35.35 0 .19-.16.35-.35.35z" fill="#55adad"/><path class="fil1 str0" d="M45.01 41.66c.35 1.17 1.66 1.23 2.11.31.63-3.22.59-7.61-.39-9.5-.56-1.12-2.88-4.77-2.95-5.59-.09-1.01.49-7.15.77-7.73 1.37.85 2.41 2.42 3.74 3.14.5.27 6.64 1.51 6.47-.42-.11-1.26-3.54-1.13-6.15-2.47-1.57-2.21-2.8-3.71-3.45-4.17-1-.71-5.73-1.5-7.11-1.05-2.58.85-4.87.72-6.19 2.49-.63.84-1.22 1.6-1.85 2.49-.74 1.04-1.51 2.22-.77 2.94 1.29 1.24 3.65-3.66 4.91-4.16.27-.11 4.07-.87 4.79-.55.29 1.09-.33 4.23-.44 5.63-.18 2.22-.58 3.47.67 5.21.81 1.13 1.97 2.32 2.86 3.32 3.72 4.19 1.64 5.69 2.97 10.08z"/><path class="fil1 str0" d="M41.54 34.14c-.35-.68-1.69-2.51-2.34-2.96-.83.77-1.49 2.05-2.12 3.06-1.13 1.79-1.92 2.47-3.74 4.07-.71.63-2.62 1.57-1.94 3 .97 2.01 2.97-.33 5.4-1.98 2.48-1.68 3.07-2.18 4.48-4.7.18-.33.06-.09.25-.5zM40.25 9.21c0 1.01.41 1.85.91 2.4 1.71 1.9 5.7 1.1 5.7-2.4 0-2.21-2.41-3.96-4.74-2.87-.22.1-.73.46-.91.64-.43.43-.96 1.41-.96 2.24zM8.47 36.61c.44.64 1.56 2.76 2.08 3.59.22.36.66.74 1.27.58.46-.12.82-.51.82-1.06 0-.47-1.01-2.05-1.3-2.54-.13-.23-.64-1.04-.68-1.22h6.84c.11.78-.08 3.01.02 3.89.15 1.26 1.9 1.3 2.17.14.07-.32.03-3.31.03-3.88 0-.69.24-1.89 1.11-2.06.79-.16.65-.26 1.99.66.98.67 1.66.92 2.54.03 1.3-1.32-.57-2.26-.8-3.78-.1-.66-.08-1.35-.31-1.96-.35-.95-.59-.68.02-1.49.3-.4.71-.9.65-1.62-.08-.99-.95-1.43-1.87-.63-.93.8-.68.69-1.94 1.41-2.27 1.29-3.91 2.39-6.17 2.4H8.09c-.92.01-1.99-1.87-3.02-1.93a1.08 1.08 0 00-1.13.82c-.26 1.02 1.46 2.01 2.23 2.63.32.24.28.2.27.69 0 1.32-.01 2.64 0 3.96 0 .45-1 2.22-1.23 2.67-.47.96-1.28 1.96-.31 2.69.48.36 1.13.18 1.45-.15.33-.35 1.92-3.71 2.1-3.84z"/></g><path class="fil1" d="M0 0h59.92v46.89H0z"/></g></svg>