<svg xmlns="http://www.w3.org/2000/svg" width="140.992" height="141.118" viewBox="0 0 6.25 6.26" shape-rendering="geometricPrecision" text-rendering="geometricPrecision" image-rendering="optimizeQuality" fill-rule="evenodd" clip-rule="evenodd"><defs><style>.fil0{fill:#59656c;fill-rule:nonzero}</style></defs><g id="Слой_x0020_1"><g id="_1757837104"><path class="fil0" d="M4.66.34L.78 4.97c-.05.05-.14.05-.25.06-.12.01-.28.01-.33.08-.05.07-.02.18.05.3.12.2.36.41.53.55.07.05.14.11.2.13.05.01.11 0 .18-.07.05-.06.05-.16.06-.25 0-.11 0-.21.08-.28l4.36-3.67.06-.05c.22-.18.36-.3.38-.62 0-.2-.11-.42-.27-.61C5.67.35 5.45.2 5.25.17a.632.632 0 00-.33.03c-.1.03-.19.08-.25.14zm-4 4.51L4.54.23c.08-.09.2-.15.33-.19.13-.04.28-.05.4-.03.24.04.49.21.68.42.19.22.32.48.31.72-.02.39-.19.53-.44.74l-.06.05L1.4 5.61c-.02.02-.02.09-.02.16 0 .12-.01.26-.1.36-.11.13-.23.15-.34.12a.744.744 0 01-.27-.16C.49 5.95.24 5.72.11 5.5 0 5.33-.03 5.16.07 5.02c.1-.13.3-.14.46-.15.07 0 .13-.01.13-.01z"/><path class="fil0" d="M1.84 3.59l.76.9-.13.11-.75-.9z"/></g></g></svg>