<svg xmlns="http://www.w3.org/2000/svg" width="60mm" height="60mm" viewBox="0 0 41.21 41.21" shape-rendering="geometricPrecision" text-rendering="geometricPrecision" image-rendering="optimizeQuality" fill-rule="evenodd" clip-rule="evenodd"><defs><style>.str0{stroke:#59656c;stroke-width:.69;stroke-miterlimit:22.9256}.fil0{fill:none}</style></defs><g id="Слой_x0020_1"><g id="_4738772560"><path class="fil0 str0" d="M3.24 14.85a99.2 99.2 0 00-.02 3.45c.03 1.16.47 1.51 1.3 1.48.92-.03 1.55-1.2 2.73-1.06 1.45.17 2.48 1.56 2.19 3-.19.95-1.02 1.84-1.87 2.13-.91.32-1.6-.36-2.38-.74-.85-.42-1.92-.7-1.97 1.05-.01 1.15-.01 2.29 0 3.44.15.87.84.83 1.73.85 1.57.02 3.87-.38 3.98 1.1.09 1.19-.84 1.2-1.04 2.21-.36 1.83 1.1 3.01 2.88 2.88 1.19-.29 2.24-1.04 2.11-2.42-.09-1.01-.64-1.39-.92-1.89-.9-1.58.95-1.9 2.06-1.89.74.01 1.47 0 2.21 0 .72 0 1.21-.19 1.26-.93 0-.03 0-.07.01-.1-.01-.63-.01-1.25-.01-1.87v-.73c0-.22 0-.43.01-.65.05-1.74 1.12-1.47 1.97-1.05.77.38 1.47 1.06 2.38.74.85-.3 1.67-1.19 1.87-2.13.29-1.44-.74-2.83-2.19-3-1.18-.14-1.81 1.03-2.73 1.06-.83.03-1.27-.32-1.3-1.48a99.2 99.2 0 01.02-3.45c.01-.01.01-.03.02-.04-.25-.81-.98-.66-2.24-.67-.87-.01-3.14.34-3.47-.83-.13-.45.01-.85.23-1.21.41-.68.89-1.09.83-2.03-.07-1.03-.81-1.81-1.83-2.05-2.58-.61-4.19 1.97-2.62 3.8.37.43.79 1.11.28 1.79-.45.6-1.18.54-2.08.54-1.21 0-2.84-.38-3.4.71z"/><path class="fil0 str0" d="M17.52 14.85a99.2 99.2 0 00-.02 3.45c.03 1.16.47 1.51 1.3 1.48.92-.03 1.55-1.2 2.73-1.06 1.45.17 2.48 1.56 2.19 3-.19.95-1.02 1.84-1.87 2.13-.91.32-1.6-.36-2.38-.74-.85-.42-1.92-.7-1.97 1.05-.01 1.15-.01 2.29 0 3.44.15.87.84.83 1.73.85 1.57.02 3.87-.38 3.98 1.1.09 1.19-.84 1.2-1.04 2.21-.36 1.83 1.1 3.01 2.88 2.88 1.19-.29 2.24-1.04 2.11-2.42-.09-1.01-.64-1.39-.92-1.89-.9-1.58.95-1.9 2.06-1.89.74.01 1.47 0 2.21 0 .72 0 1.21-.19 1.26-.93.09-1.23-.17-3.37.2-4.16.25-.54.88-.79 1.5-.56.83.31 1.18 1.24 2.46 1.07.93-.12 1.66-.95 2-2.01.06-.6.05-.59-.01-1.19-.44-1.45-1.26-2.02-2.82-1.83-.66.27-1.48.99-1.92 1.03-1.85.17-1.41-2.31-1.41-4.2 0-1.75-.61-1.49-2.19-1.51-.87-.01-3.14.34-3.47-.83-.13-.45.01-.85.23-1.21.41-.68.89-1.09.83-2.03-.07-1.03-.81-1.81-1.83-2.05-2.58-.61-4.19 1.97-2.62 3.8.37.43.79 1.11.28 1.79-.45.6-1.18.54-2.08.54-1.21 0-2.84-.38-3.4.71z"/></g><path class="fil0" d="M0 0h41.21v41.21H0z"/></g></svg>