<svg xmlns="http://www.w3.org/2000/svg" width="162.078" height="161.517" viewBox="0 0 6.86 6.84" shape-rendering="geometricPrecision" text-rendering="geometricPrecision" image-rendering="optimizeQuality" fill-rule="evenodd" clip-rule="evenodd"><g fill="#59656c"><path d="M2.04 4.22c0 .04.03.08.07.11.02.02.05.03.08.03s.05 0 .08-.01c.04-.02.08-.06.11-.14l.22-.92.02-.09c.02-.09.03-.13.09-.14.09-.01.09.06.09.2v.04a38.6 38.6 0 01-.06 1.52c-.03.56-.06 1.12-.06 1.69 0 .03.01.06.03.09.02.03.05.05.09.06.03.01.07.02.11.01.04-.01.08-.04.12-.09.05-.06.19-1.08.27-1.73.03-.2.05-.36.06-.44l.08-.5.44 2.7c.03.04.08.06.12.07.02 0 .05 0 .07-.01.02-.01.05-.02.06-.03a.22.22 0 00.08-.15l-.13-3.15c-.01-.07 0-.11 0-.13.01-.05.04-.08.09-.08.03 0 .06.02.08.05.01.02.03.07.04.13l.29 1.01c.03.02.07.03.1.03.02 0 .05-.01.06-.02a.12.12 0 00.05-.05c.02-.03.04-.07.04-.1 0-.05-.04-.35-.1-.7L4.51 2.1a.503.503 0 00-.05-.16.333.333 0 00-.1-.11 1.808 1.808 0 00-.5-.23c-.01 0-.01.01-.02.01-.11.09-.27.13-.43.13-.16 0-.31-.05-.41-.13l-.01-.01c-.07.02-.14.05-.21.08-.09.04-.17.08-.24.13-.16.09-.17.22-.22.5-.01.06-.02.12-.03.2l-.01.05c-.05.3-.25 1.52-.25 1.64zm-.02.24c-.08-.06-.14-.14-.14-.24 0-.14.2-1.37.25-1.67l.01-.05.03-.19c.05-.34.07-.49.3-.61.08-.05.17-.09.26-.13.09-.04.19-.08.28-.1l.05-.01.03.04c.01.01.01.02.02.02.07.06.19.09.31.09s.25-.03.32-.09l.03-.03.03-.04.05.01c.09.02.22.07.34.12.1.05.2.1.27.15.06.05.1.1.13.15.03.06.05.12.07.21.02.13.14.83.22 1.38.06.36.1.67.1.73 0 .07-.03.14-.07.2-.03.03-.06.06-.1.09-.04.02-.09.04-.14.04-.07 0-.14-.02-.22-.08l-.02-.02-.18-.61.11 2.68v.01a.33.33 0 01-.15.26c-.04.03-.08.05-.12.06-.04.01-.09.02-.13.01a.354.354 0 01-.24-.14l-.01-.02-.28-1.72c-.09.66-.22 1.63-.3 1.72a.37.37 0 01-.2.14.338.338 0 01-.42-.31c0-.56.03-1.13.06-1.7.02-.32.04-.65.05-.97l-.1.4c-.04.13-.12.21-.2.24-.05.02-.11.02-.16.01a.35.35 0 01-.14-.06zm.69-1.22h.02c.02 0 .03-.01-.01 0h-.01zm0 0h.02-.02zM2.9.68c0 .08.01.15.04.21.03.07.07.13.11.18.1.11.24.16.38.16.07 0 .13-.01.2-.03.06-.02.12-.06.17-.1a.546.546 0 00.12-.63.51.51 0 00-.19-.22.553.553 0 00-.29-.09c-.08 0-.16.02-.24.05-.02.01-.05.03-.07.05-.03.02-.06.04-.07.06-.04.04-.08.1-.11.18-.03.06-.04.12-.04.18zm-.11.27a.763.763 0 01-.05-.27c0-.08.02-.17.06-.25.04-.09.1-.18.15-.23.02-.02.06-.05.09-.07a.688.688 0 01.78-.02c.11.07.2.17.25.29.04.08.06.18.06.28 0 .24-.09.42-.22.54a.71.71 0 01-.22.13c-.08.03-.17.04-.25.04-.19 0-.37-.07-.5-.21A.594.594 0 012.8.95z" fill-rule="nonzero"/><path d="M.32 3.23h1.15c.05 0 .09.04.09.09 0 .05-.04.09-.09.09H.32l.27.27c.04.04.04.09 0 .13-.04.04-.09.04-.13 0L.05 3.4s-.01 0-.01-.01a.09.09 0 01-.03-.07c0-.03.02-.06.04-.08l.41-.41c.04-.04.09-.04.13 0 .04.04.04.09 0 .13l-.26.26zm6.23 0H5.4a.09.09 0 00-.09.09c0 .05.04.09.09.09h1.15l-.27.27c-.04.04-.04.09 0 .13.04.04.09.04.13 0l.41-.41s.01 0 .01-.01a.09.09 0 00.03-.07c0-.03-.02-.06-.04-.08l-.41-.41c-.04-.04-.09-.04-.13 0-.04.04-.04.09 0 .13l.26.26z"/></g></svg>