<svg xmlns="http://www.w3.org/2000/svg" width="60mm" height="60mm" viewBox="0 0 13.43 13.43" shape-rendering="geometricPrecision" text-rendering="geometricPrecision" image-rendering="optimizeQuality" fill-rule="evenodd" clip-rule="evenodd"><defs><style>.fil0{fill:none}</style></defs><g id="Слой_x0020_1"><g id="_1838773280"><path class="fil0" d="M4.65 7.84c0 .29.53.51.68.02l.31-1.29c.07-.28.06-.32.06 0-.02 1.49-.17 2.99-.17 4.48 0 .26.4.51.68.17.11-.14.41-2.53.49-3.09l.51 3.1c.21.29.65.16.69-.21l-.19-4.41c-.02-.25.02-.2.06 0l.42 1.45c.29.23.56-.03.56-.25 0-.2-.4-2.64-.45-2.93-.04-.22-.1-.32-.24-.44-.17-.14-.57-.3-.8-.35-.25.29-.92.26-1.13 0-.26.06-.51.19-.73.31-.31.18-.3.42-.4 1.05-.04.23-.36 2.19-.36 2.39zm1.21-4.96c0 .26.11.48.24.62.44.49 1.48.29 1.48-.62 0-.57-.63-1.03-1.23-.75-.06.03-.19.12-.24.17-.11.11-.25.37-.25.58z" stroke="#59656c" stroke-width=".22" stroke-miterlimit="22.926"/><path d="M2.36 6.45h1.61c.07 0 .13.06.13.13s-.06.13-.13.13H2.36l.37.37c.05.05.05.13 0 .18-.05.05-.13.05-.18 0l-.58-.58-.01-.01a.122.122 0 01-.04-.09c0-.04.02-.08.06-.11l.57-.57c.05-.05.13-.05.18 0 .05.05.05.13 0 .18l-.37.37zm8.71 0H9.46c-.07 0-.13.06-.13.13s.06.13.13.13h1.61l-.37.37c-.05.05-.05.13 0 .18.05.05.13.05.18 0l.58-.58.01-.01c.03-.03.04-.06.04-.09 0-.04-.02-.08-.06-.11l-.57-.57a.127.127 0 00-.18 0c-.05.05-.05.13 0 .18l.37.37z" fill="#59656c"/></g><path class="fil0" d="M0 0h13.43v13.43H0z"/></g></svg>