<svg xmlns="http://www.w3.org/2000/svg" width="130.543" height="164.013" viewBox="0 0 7.9 9.93" shape-rendering="geometricPrecision" text-rendering="geometricPrecision" image-rendering="optimizeQuality" fill-rule="evenodd" clip-rule="evenodd"><defs><style>.fil0{fill:#fff}.fil1{fill:#59656c;fill-rule:nonzero}</style></defs><g id="Слой_x0020_1"><g id="_2052316624"><path class="fil0" d="M3.97 5.54c0 .27-.5.48-.64.02l-.29-1.21c-.06-.26-.06-.3-.06 0 .02 1.39.16 2.8.16 4.19 0 .24-.38.48-.64.16-.11-.13-.38-2.37-.46-2.89l-.48 2.9c-.2.27-.61.15-.65-.2l.18-4.13c.02-.23-.02-.19-.06 0L.64 5.74c-.27.22-.53-.03-.53-.23 0-.19.37-2.48.42-2.74.04-.21.09-.3.23-.41.16-.13.53-.28.75-.33.23.27.86.24 1.06 0 .24.06.48.18.68.29.29.17.28.39.37.99.04.22.34 2.05.34 2.24z"/><path class="fil1" d="M4.08 5.54c0 .13-.08.25-.18.32-.06.04-.12.07-.19.08a.38.38 0 01-.21-.02c-.12-.04-.22-.14-.27-.32v-.01l-.11-.43.06 1.17c.04.74.08 1.49.08 2.22a.447.447 0 01-.29.4c-.08.03-.18.04-.27.01a.52.52 0 01-.27-.19c-.1-.12-.26-1.33-.38-2.2l-.36 2.18-.02.02a.44.44 0 01-.32.19c-.06.01-.12 0-.17-.01a.481.481 0 01-.35-.43v-.01l.15-3.43-.21.73-.03.02c-.1.08-.2.11-.29.11-.07 0-.13-.02-.19-.05a.473.473 0 01-.24-.39c0-.08.06-.48.13-.95.11-.73.26-1.65.29-1.81.02-.12.05-.2.09-.28.04-.08.1-.14.18-.2.08-.07.21-.14.35-.2.15-.07.32-.13.44-.15l.07-.02.05.05.04.04c.1.08.26.12.42.12.16 0 .31-.05.4-.12l.03-.03.05-.06.07.02c.13.03.25.08.37.13s.23.11.34.17c.3.17.33.37.39.81.01.08.03.17.04.25l.01.07c.07.39.33 2.01.33 2.19zm-.31.13c.05-.03.08-.08.08-.13 0-.17-.26-1.76-.33-2.15l-.01-.07c-.02-.1-.03-.19-.04-.26-.05-.37-.08-.53-.28-.65-.1-.06-.21-.11-.32-.17-.09-.04-.18-.08-.27-.1h-.01c-.13.11-.33.17-.54.18-.21 0-.42-.05-.57-.17l-.02-.01c-.1.03-.23.07-.34.13-.12.05-.23.11-.3.17-.06.05-.1.09-.12.14-.03.05-.05.12-.07.21-.03.16-.18 1.07-.29 1.8-.07.46-.13.85-.13.92 0 .04.02.09.05.13.02.02.04.04.07.06a.188.188 0 00.2-.02l.38-1.32c.02-.08.04-.14.05-.17.02-.05.06-.07.11-.08.07 0 .11.03.13.11.01.03.01.09 0 .17l-.18 4.12c.01.08.05.15.1.19.02.02.05.03.08.04.03.01.06.01.09.01.05-.01.11-.03.15-.08l.59-3.59.11.72c.02.11.05.32.08.58.11.84.29 2.18.36 2.26.05.06.1.1.15.11.05.01.09.01.13-.01.04-.02.08-.04.11-.08a.15.15 0 00.04-.11c0-.74-.04-1.47-.08-2.21-.04-.66-.07-1.32-.08-1.98v-.05c0-.19 0-.28.13-.27.09.01.1.07.13.19l.03.11.29 1.2c.03.1.08.15.13.17.03.01.06.01.1.01a.3.3 0 00.1-.04zm-.82-1.41h.01-.01zm.02 0h.01-.03.02z"/><path class="fil0" d="M2.85.89c0 .25-.1.45-.22.58-.42.46-1.39.27-1.39-.58 0-.54.59-.96 1.15-.7.05.03.18.11.22.16.1.1.23.34.23.54z"/><path class="fil1" d="M2.96.89a.95.95 0 01-.25.66c-.17.19-.42.28-.66.28a.96.96 0 01-.63-.24c-.18-.16-.29-.39-.29-.71 0-.13.03-.25.08-.36.07-.15.19-.29.33-.38.14-.09.32-.15.5-.15.13 0 .27.03.4.09.03.02.08.05.13.08s.1.07.12.1c.07.07.14.18.19.3.04.1.08.22.08.33zm-.28.27c.03-.08.05-.17.05-.27 0-.07-.02-.16-.06-.24-.04-.1-.1-.18-.14-.23a.351.351 0 00-.09-.07.699.699 0 00-.78-.02.64.64 0 00-.25.29c-.04.08-.06.17-.06.27 0 .24.09.42.22.54.06.06.14.1.22.13.08.03.17.04.25.04.19 0 .37-.07.49-.21.06-.06.11-.14.14-.23z"/><path class="fil0" d="M5.88 6.04c0 .27-.5.48-.64.02l-.29-1.21c-.06-.26-.06-.3-.06 0 .02 1.39.16 2.8.16 4.19 0 .24-.38.48-.64.16-.11-.13-.38-2.37-.46-2.89l-.48 2.9c-.2.27-.61.15-.65-.2L3 4.88c.02-.23-.02-.19-.06 0l-.39 1.36c-.27.22-.53-.03-.53-.23 0-.19.37-2.48.42-2.74.04-.21.09-.3.23-.41.16-.13.53-.28.75-.33.23.27.86.24 1.06 0 .24.06.48.18.68.29.29.17.28.39.37.99.04.22.34 2.05.34 2.24z"/><path class="fil1" d="M5.99 6.04c0 .13-.08.25-.18.32-.06.04-.12.07-.19.08a.38.38 0 01-.21-.02c-.12-.04-.22-.14-.27-.32v-.01l-.11-.43.06 1.17c.04.74.08 1.49.08 2.22a.447.447 0 01-.29.4c-.08.03-.18.04-.27.01a.52.52 0 01-.27-.19c-.1-.12-.26-1.33-.38-2.2L3.6 9.25l-.02.02a.44.44 0 01-.32.19c-.06.01-.12 0-.17-.01a.481.481 0 01-.35-.43v-.01l.15-3.43-.21.73-.03.02c-.1.08-.2.11-.29.11-.07 0-.13-.02-.19-.05A.473.473 0 011.93 6c0-.08.06-.48.13-.95.11-.73.26-1.65.29-1.81.02-.12.05-.2.09-.28.04-.08.1-.14.18-.2.08-.07.21-.14.35-.2.15-.07.32-.13.44-.15l.07-.02.05.05.04.04c.1.08.26.12.42.12.16 0 .31-.05.4-.12l.03-.03.05-.06.07.02c.13.03.25.08.37.13s.23.11.34.17c.3.17.33.37.39.81.01.08.03.17.04.25l.01.07c.07.39.33 2.01.33 2.19zm-.31.13c.05-.03.08-.08.08-.13 0-.17-.26-1.76-.33-2.15l-.01-.07c-.02-.1-.03-.19-.04-.26-.05-.37-.08-.53-.28-.65-.1-.06-.21-.11-.32-.17-.09-.04-.18-.08-.27-.1H4.5c-.13.11-.33.17-.54.18-.21 0-.42-.05-.57-.17l-.02-.01c-.1.03-.23.07-.34.13-.12.05-.23.11-.3.17-.06.05-.1.09-.12.14-.03.05-.05.12-.07.21-.03.16-.18 1.07-.29 1.8-.07.46-.13.85-.13.92 0 .04.02.09.05.13.02.02.04.04.07.06a.188.188 0 00.2-.02l.38-1.32c.02-.08.04-.14.05-.17.02-.05.06-.07.11-.08.07 0 .11.03.13.11.01.03.01.09 0 .17l-.18 4.12c.01.08.05.15.1.19.02.02.05.03.08.04.03.01.06.01.09.01.05-.01.11-.03.15-.08l.59-3.59.11.72c.02.11.05.32.08.58.11.84.29 2.18.36 2.26.05.06.1.1.15.11.05.01.09.01.13-.01.04-.02.08-.04.11-.08a.15.15 0 00.04-.11c0-.74-.04-1.47-.08-2.21-.04-.66-.07-1.32-.08-1.98v-.05c0-.19 0-.28.13-.27.09.01.1.07.13.19l.03.11.29 1.2c.03.1.08.15.13.17.03.01.06.01.1.01a.3.3 0 00.1-.04zm-.82-1.41h.01-.01zm.02 0h.01-.03.02z"/><path class="fil0" d="M4.75 1.39c0 .25-.1.45-.22.58-.42.46-1.39.27-1.39-.58 0-.54.59-.96 1.15-.7.05.03.18.11.22.16.1.1.23.34.23.54z"/><path class="fil1" d="M4.87 1.39a.95.95 0 01-.25.66c-.17.19-.42.28-.66.28a.96.96 0 01-.63-.24c-.18-.16-.29-.39-.29-.71 0-.13.03-.25.08-.36.07-.15.19-.29.33-.38.14-.09.32-.15.5-.15.13 0 .27.03.4.09.03.02.08.05.13.08s.1.07.12.1c.07.07.14.18.19.3.04.1.08.22.08.33zm-.28.27c.03-.08.05-.17.05-.27 0-.07-.02-.16-.06-.24-.04-.1-.1-.18-.14-.23a.351.351 0 00-.09-.07.699.699 0 00-.78-.02.64.64 0 00-.25.29c-.04.08-.06.17-.06.27 0 .24.09.42.22.54.06.06.14.1.22.13.08.03.17.04.25.04.19 0 .37-.07.49-.21.06-.06.11-.14.14-.23z"/><path class="fil0" d="M7.79 6.49c0 .27-.5.48-.64.02L6.86 5.3c-.06-.26-.06-.3-.06 0 .02 1.39.16 2.8.16 4.19 0 .24-.38.48-.64.16-.11-.13-.38-2.37-.46-2.89l-.48 2.9c-.2.27-.61.15-.65-.2l.18-4.13c.02-.23-.02-.19-.06 0l-.39 1.36c-.27.22-.53-.03-.53-.23 0-.19.37-2.48.42-2.74.04-.21.09-.3.23-.41.16-.13.53-.28.75-.33.23.27.86.24 1.06 0 .24.06.48.18.68.29.29.17.28.39.37.99.04.22.34 2.05.34 2.24z"/><path class="fil1" d="M7.9 6.49c0 .13-.08.25-.18.32-.06.04-.12.07-.19.08a.38.38 0 01-.21-.02c-.12-.04-.22-.14-.27-.32v-.01l-.11-.43L7 7.28c.04.74.08 1.49.08 2.22a.447.447 0 01-.29.4c-.08.03-.18.04-.27.01a.52.52 0 01-.27-.19c-.1-.12-.26-1.33-.38-2.2L5.51 9.7l-.02.02a.44.44 0 01-.32.19c-.06.01-.12 0-.17-.01a.481.481 0 01-.35-.43v-.01l.15-3.43-.21.73-.03.02c-.1.08-.2.11-.29.11-.07 0-.13-.02-.19-.05a.473.473 0 01-.24-.39c0-.08.06-.48.13-.95.11-.73.26-1.65.29-1.81.02-.12.05-.2.09-.28.04-.08.1-.14.18-.2.08-.07.21-.14.35-.2.15-.07.32-.13.44-.15l.07-.02.05.05.04.04c.1.08.26.12.42.12.16 0 .31-.05.4-.12l.03-.03.05-.06.07.02c.13.03.25.08.37.13s.23.11.34.17c.3.17.33.37.39.81.01.08.03.17.04.25l.01.07c.07.39.33 2.01.33 2.19zm-.31.13c.05-.03.08-.08.08-.13 0-.17-.26-1.76-.33-2.15l-.01-.07c-.02-.1-.03-.19-.04-.26-.05-.37-.08-.53-.28-.65-.1-.06-.21-.11-.32-.17-.09-.04-.18-.08-.27-.1h-.01c-.13.11-.33.17-.54.18-.21 0-.42-.05-.57-.17l-.02-.01c-.1.03-.23.07-.34.13-.12.05-.23.11-.3.17-.06.05-.1.09-.12.14-.03.05-.05.12-.07.21-.03.16-.18 1.07-.29 1.8-.07.46-.13.85-.13.92 0 .04.02.09.05.13.02.02.04.04.07.06a.188.188 0 00.2-.02l.38-1.32c.02-.08.04-.14.05-.17.02-.05.06-.07.11-.08.07 0 .11.03.13.11.01.03.01.09 0 .17l-.18 4.12c.01.08.05.15.1.19.02.02.05.03.08.04.03.01.06.01.09.01.05-.01.11-.03.15-.08l.59-3.59.11.72c.02.11.05.32.08.58.11.84.29 2.18.36 2.26.05.06.1.1.15.11.05.01.09.01.13-.01.04-.02.08-.04.11-.08a.15.15 0 00.04-.11c0-.74-.04-1.47-.08-2.21-.04-.66-.07-1.32-.08-1.98v-.05c0-.19 0-.28.13-.27.09.01.1.07.13.19l.03.11.29 1.2c.03.1.08.15.13.17.03.01.06.01.1.01a.3.3 0 00.1-.04zm-.82-1.41h.01-.01zm.02 0h.01-.03.02z"/><path class="fil0" d="M6.66 1.85c0 .25-.1.45-.22.58-.42.46-1.39.27-1.39-.58 0-.54.59-.96 1.15-.7.05.03.18.11.22.16.1.1.23.34.23.54z"/><path class="fil1" d="M6.78 1.85a.95.95 0 01-.25.66c-.17.19-.42.28-.66.28a.96.96 0 01-.63-.24c-.18-.16-.29-.39-.29-.71 0-.13.03-.25.08-.36.07-.15.19-.29.33-.38.14-.09.32-.15.5-.15.13 0 .27.03.4.09.03.02.08.05.13.08s.1.07.12.1c.07.07.14.18.19.3.04.1.08.22.08.33zm-.28.27c.03-.08.05-.17.05-.27 0-.07-.02-.16-.06-.24-.04-.1-.1-.18-.14-.23a.351.351 0 00-.09-.07.699.699 0 00-.78-.02.64.64 0 00-.25.29c-.04.08-.06.17-.06.27 0 .24.09.42.22.54.06.06.14.1.22.13.08.03.17.04.25.04.19 0 .37-.07.49-.21.06-.06.11-.14.14-.23z"/></g></g></svg>