<svg xmlns="http://www.w3.org/2000/svg" width="180.28" height="148.995" viewBox="0 0 9.06 7.49" shape-rendering="geometricPrecision" text-rendering="geometricPrecision" image-rendering="optimizeQuality" fill-rule="evenodd" clip-rule="evenodd"><defs><style>.fil0{fill:#fff}.fil1{fill:#59656c;fill-rule:nonzero}</style></defs><g id="Слой_x0020_1"><g id="_1756770400"><path class="fil0" d="M.89 1.37c-.07-.12-.13-.18-.31-.18-.13 0-.3.02-.38.09-.09.08-.1.25-.01.33.05.04.24.13.33.15-.03.04-.04.03-.09.09-.39.42-.39.81-.25 1.4.05.2.12.32.12.53 0 .48-.06.78.54.77.18 0 .47.03.61-.06.21-.15.16-.36.18-.47.22-.01.58.01.81.02h1.23l.01-.48.59-.37.7-.12c-.08 0-.15-.02-.2-.07-.07-.07-.11-.26-.03-.36.06-.08.88-.4 1.05-.22.08.09.11.22.07.37-.09.33-.34.28-.68.28h-.17l1.38.03c.19-1.02-.26-1.17-.37-1.34.09-.02.29-.11.34-.16.09-.1.07-.26-.03-.33-.08-.06-.28-.09-.39-.08-.17 0-.23.07-.29.18-.09-.15-.19-.44-.28-.63-.09-.2-.26-.4-.44-.48-.5-.23-2.92-.22-3.34 0-.19.1-.34.26-.44.48-.09.19-.18.47-.28.63zM.68 2.76c.09.35.28.31.63.31.13 0 .34.03.44-.05.08-.06.14-.22.08-.35-.07-.14-.88-.4-1.05-.28-.09.06-.15.21-.11.36zm.55-1.12c.75-.02 1.48-.08 2.24-.07.63 0 1.24.06 1.86.07-.11-.38-.24-.87-.6-1.07-.36-.2-2.47-.2-2.85 0-.31.16-.54.75-.64 1.08z"/><path class="fil1" d="M.81 1.42a.29.29 0 00-.08-.1C.7 1.3.66 1.29.59 1.29c-.06 0-.13.01-.19.02-.05.01-.1.03-.13.05-.02.02-.03.06-.03.09s.01.07.03.09v.01c.01.01.06.04.11.06.06.03.13.06.17.06l.14.03-.08.12a.17.17 0 01-.06.06c-.01.01-.02.02-.04.03-.18.19-.27.38-.3.58-.03.21 0 .44.07.73.02.06.03.12.05.18.04.12.07.22.07.37v.25c0 .27.04.43.45.43h.12c.16.01.35.01.44-.05.12-.08.13-.21.13-.3 0-.04 0-.08.01-.11l.02-.07h.07c.17-.01.43 0 .64.01.07 0 .13.01.17.01h1.14l.01-.43.65-.41.44-.08a.591.591 0 01-.07-.2c-.01-.09.01-.17.06-.24l.01-.01c.05-.05.28-.16.52-.23.25-.07.52-.11.65-.01.01 0 .01.01.02.02.05.06.09.13.11.21.02.08.01.16-.01.25-.02.08-.05.13-.08.18l.44.01c.12-.71-.12-.94-.26-1.08-.04-.04-.08-.08-.11-.12l-.07-.11.13-.03c.04-.01.12-.04.18-.07.05-.02.09-.05.11-.06l.01-.01c.02-.03.03-.06.02-.09 0-.03-.02-.06-.04-.08l-.01-.01c-.02-.02-.07-.03-.12-.04-.08-.02-.16-.02-.21-.02-.07 0-.11.01-.13.03-.03.02-.05.06-.08.1l-.08.14-.08-.14c-.07-.11-.13-.27-.2-.43C5.37.9 5.34.83 5.31.77A.91.91 0 005.13.5C5.06.43 4.99.37 4.92.33 4.69.22 3.98.17 3.28.17c-.71 0-1.42.05-1.62.16-.09.05-.16.1-.23.18-.07.07-.12.16-.17.26-.03.06-.06.13-.09.21-.06.15-.13.32-.2.43l-.08.14-.08-.14zm.02-.26c.02.01.03.02.05.04.04-.08.08-.18.11-.27.03-.07.06-.15.09-.22a1.101 1.101 0 01.48-.53C1.79.06 2.52 0 3.26 0c.73 0 1.46.06 1.72.18.1.05.19.12.27.21.09.09.16.2.21.32.03.06.06.14.09.21.04.09.08.19.11.27a.405.405 0 01.28-.09c.07 0 .17.01.25.03.08.02.15.04.19.07.01.01.02.01.02.02.06.05.09.13.1.21.01.08-.01.16-.06.22-.01.01-.01.02-.02.02-.03.03-.1.07-.17.11-.02.01-.05.02-.07.03.18.17.46.46.29 1.32l-.02.08-1.46-.03v-.19h.3c.23.01.4.01.46-.21.02-.06.02-.11.01-.16a.228.228 0 00-.06-.12c-.07-.05-.27-.02-.47.04-.21.06-.4.14-.44.18-.02.02-.02.06-.02.1.01.05.02.11.05.13.01.01.03.02.05.03.02.01.05.01.08.01h.01v.11l.01.08-.68.12-.53.34-.01.52H2.43c-.06 0-.12-.01-.18-.01-.18-.01-.39-.02-.54-.02v.01c-.01.13-.01.31-.22.45-.14.09-.36.09-.55.08H.82c-.57 0-.63-.23-.64-.62V3.8c0-.12-.03-.21-.06-.31a4.39 4.39 0 01-.06-.19c-.07-.3-.11-.56-.07-.8.03-.24.13-.45.33-.67-.02-.01-.04-.02-.05-.02a.632.632 0 01-.17-.1l-.02-.02a.278.278 0 01-.07-.23c0-.08.03-.16.09-.21l.02-.02c.06-.05.14-.08.22-.1.07-.01.15-.02.22-.02.11 0 .19.02.25.06zM.77 2.75c.06.25.2.25.45.24h.19c.11 0 .24.01.29-.03.03-.02.05-.06.06-.11.01-.04.01-.08-.01-.12-.04-.05-.23-.13-.43-.19-.2-.06-.4-.09-.47-.06-.03.02-.05.06-.07.11-.01.05-.02.1 0 .15zm.45.43c-.34 0-.53.01-.63-.38a.527.527 0 010-.25c.03-.09.08-.16.14-.21.01-.01.02-.01.03-.02.12-.06.37-.02.61.04.24.07.47.17.53.26.01.01.01.02.02.02.04.08.04.17.02.25-.02.09-.07.17-.13.22-.1.08-.27.07-.41.07h-.19zm.14-1.63l.77-.03c.44-.02.88-.04 1.34-.04.38 0 .74.02 1.11.04l.62.03c-.1-.34-.23-.73-.52-.89C4.51.57 3.91.52 3.31.52 2.7.52 2.1.57 1.92.66c-.11.06-.21.18-.3.33-.11.18-.19.39-.25.56zm.78.16c-.3.01-.6.03-.91.03H1.1l.04-.13c.06-.2.17-.49.31-.73.11-.18.23-.33.38-.4.21-.11.84-.16 1.47-.16s1.27.05 1.46.16c.39.21.53.71.64 1.1l.05.16h-.13l-.75-.03c-.36-.02-.73-.04-1.1-.04-.45 0-.89.02-1.33.04z"/><path class="fil0" d="M3.4 4.2c-.07-.12-.13-.18-.31-.18-.13 0-.3.02-.38.09-.09.08-.1.25-.01.33.05.04.24.13.33.15-.03.04-.04.03-.09.09-.39.42-.39.81-.25 1.4.05.2.12.32.12.53 0 .48-.06.78.54.77.18 0 .47.03.61-.06.21-.15.16-.36.18-.47.22-.01.58.01.81.02h1.66c.23-.01.59-.04.81-.02.03.12-.03.33.19.47.14.09.8.07.92.02.28-.13.22-.48.22-.74 0-.22.08-.33.13-.54.26-1.13-.23-1.29-.34-1.47.09-.02.29-.11.34-.16.09-.1.07-.26-.03-.33-.08-.06-.28-.09-.39-.08-.17 0-.23.07-.29.18-.09-.15-.19-.44-.28-.63-.09-.2-.26-.4-.44-.48-.5-.23-2.92-.22-3.34 0-.48.25-.47.7-.72 1.11zm4.98 1.43c.04-.14.01-.28-.07-.37-.17-.18-.99.15-1.05.22-.08.09-.03.29.03.36.09.09.26.07.42.07.34 0 .59.06.68-.28zM3.19 5.6c.09.35.28.31.63.31.13 0 .34.03.44-.05.08-.06.14-.22.08-.35-.07-.14-.88-.4-1.05-.28-.09.06-.15.21-.11.36zm.59-1.12c.37-.01.73-.05 1.1-.06.63-.02 1.19 0 1.81 0 .37 0 .73.04 1.1.05-.12-.41-.27-.79-.64-1-.36-.2-2.35-.2-2.74 0-.37.19-.52.61-.64 1z"/><path class="fil1" d="M3.32 4.25a.29.29 0 00-.08-.1c-.03-.02-.07-.03-.14-.03-.06 0-.13.01-.19.02-.05.01-.1.03-.13.05-.02.02-.03.06-.03.09s.01.07.03.09v.01c.01.01.06.04.11.06.06.03.13.06.17.06l.14.03-.08.12a.17.17 0 01-.06.06c-.01.01-.02.02-.04.03-.18.19-.27.38-.3.58-.03.21 0 .44.07.73.02.06.03.12.05.18.04.12.07.22.07.37v.25c0 .27.04.43.45.43h.12c.16.01.35.01.44-.05.12-.08.13-.21.13-.3 0-.04 0-.08.01-.11l.02-.07h.07c.17-.01.43 0 .64.01.07 0 .13.01.17.01h1.66c.04 0 .09 0 .15-.01.22-.01.49-.03.67-.01h.07l.02.07c.01.04.01.07.01.11.01.1.01.22.14.3.05.03.19.04.35.05.21 0 .42-.01.47-.04.18-.08.18-.32.17-.54v-.12c0-.16.03-.26.07-.38.02-.06.04-.12.06-.19.2-.87-.06-1.13-.22-1.28-.04-.04-.08-.08-.11-.12L8.4 4.5l.13-.03c.04-.01.12-.04.18-.07.05-.02.09-.05.11-.06 0 0 0-.01.01-.01.02-.03.03-.06.02-.09 0-.03-.02-.06-.04-.08l-.01-.01c-.02-.02-.07-.03-.12-.04-.08-.02-.16-.02-.21-.02-.07 0-.11.01-.13.03-.03.02-.05.06-.08.1l-.08.14-.08-.14c-.07-.11-.13-.27-.2-.43-.03-.08-.06-.15-.09-.21a.91.91 0 00-.18-.27c-.07-.07-.14-.13-.21-.17-.23-.11-.94-.16-1.64-.16-.71 0-1.42.05-1.62.16-.29.15-.39.4-.49.66-.05.14-.11.28-.19.41l-.08.14-.08-.14zm.02-.26c.02.01.03.02.05.04.04-.08.07-.17.11-.26.11-.29.22-.57.57-.76.23-.12.96-.18 1.7-.18.73 0 1.46.06 1.72.18.1.05.19.12.27.21.08.09.16.2.21.32.03.06.06.14.09.21.04.09.08.19.11.27a.405.405 0 01.28-.09c.07 0 .17.01.25.03.08.02.15.04.19.07.01.01.02.01.02.02.06.05.09.13.1.21.01.08-.01.16-.06.22-.01.01-.01.02-.02.02-.03.03-.1.07-.17.11-.02.01-.05.02-.07.03.19.18.49.49.27 1.45-.02.08-.04.15-.06.21-.03.1-.06.19-.06.32v.11c.01.27.02.58-.28.71-.08.03-.33.06-.55.05-.19 0-.38-.03-.45-.08-.21-.14-.22-.31-.23-.45v-.01c-.17 0-.39.01-.57.02-.05 0-.1.01-.15.01H4.95c-.06 0-.12-.01-.18-.01-.18-.01-.39-.02-.54-.02v.01c-.01.13-.01.31-.22.45-.14.09-.36.09-.55.08h-.12c-.57 0-.63-.23-.64-.62v-.25c0-.12-.03-.21-.06-.31-.02-.06-.04-.12-.06-.19-.07-.3-.11-.56-.07-.8.03-.24.13-.45.33-.67-.02-.01-.04-.02-.05-.02a.632.632 0 01-.17-.1l-.02-.02a.278.278 0 01-.07-.23c0-.08.03-.16.09-.21l.02-.02c.06-.05.14-.08.22-.1.07-.01.15-.02.22-.02.11 0 .19.02.25.06zm4.94 1.62c.02-.06.02-.11.01-.16a.228.228 0 00-.06-.12c-.07-.05-.27-.02-.47.04-.21.06-.4.14-.44.18-.02.02-.02.06-.02.1.01.05.02.11.05.13.04.05.15.04.26.04h.22c.23.01.4.01.46-.21zm.19-.2c.02.08.01.16-.01.25-.1.36-.33.36-.64.35h-.2c-.15 0-.3.01-.4-.1a.439.439 0 01-.1-.24c-.01-.09.01-.17.06-.24l.01-.01c.05-.05.28-.16.52-.23.25-.07.52-.11.65-.01l.02.02c.05.06.09.13.11.21zm-5.2.17c.06.25.2.25.45.24h.19c.11 0 .24.01.29-.03.03-.02.05-.06.06-.11.01-.04.01-.08-.01-.12-.04-.05-.23-.13-.43-.19-.2-.06-.4-.09-.47-.06-.03.02-.05.06-.07.11-.01.05-.02.1 0 .15zm.45.43c-.34 0-.53.01-.63-.38a.527.527 0 010-.25c.03-.09.08-.16.14-.21.01-.01.02-.01.03-.02.12-.06.37-.02.61.04.24.07.47.17.53.26.01.01.01.02.02.02.04.08.04.17.02.25-.02.09-.07.17-.13.22-.1.08-.27.07-.41.07h-.19zm.18-1.63c.14-.01.28-.01.43-.02l.54-.03c.46-.01.88-.01 1.32 0 .16 0 .33 0 .5.01.21 0 .42.01.62.03.12.01.23.01.35.02-.05-.15-.1-.3-.18-.43-.09-.16-.21-.29-.38-.39-.17-.09-.74-.14-1.32-.14-.58 0-1.15.05-1.33.14-.17.09-.29.22-.38.39-.07.13-.13.28-.18.43zm.44.16l-.57.03h-.13l.04-.13c.06-.2.13-.41.23-.59.11-.19.25-.36.45-.46.21-.11.81-.16 1.42-.16.61 0 1.21.05 1.41.16.2.11.35.27.45.46.1.18.17.39.23.6l.04.12h-.13c-.17 0-.33-.01-.49-.02-.21-.01-.41-.03-.61-.03-.17 0-.34 0-.5-.01-.44-.01-.85-.01-1.31 0-.17 0-.36.02-.54.03z"/></g></g></svg>