<svg xmlns="http://www.w3.org/2000/svg" width="60mm" height="60mm" viewBox="0 0 14.33 14.33" shape-rendering="geometricPrecision" text-rendering="geometricPrecision" image-rendering="optimizeQuality" fill-rule="evenodd" clip-rule="evenodd"><defs><style>.str0{stroke:#59656c;stroke-width:.24;stroke-miterlimit:22.9256}.fil0{fill:#fff}</style></defs><g id="Слой_x0020_1"><g id="_4701197904"><path class="fil0 str0" d="M2.59 4.18c-.09-.15-.16-.23-.39-.23-.16 0-.38.02-.48.12-.11.1-.13.31-.01.42.06.06.31.16.41.19-.04.05-.05.04-.11.11-.49.53-.49 1.02-.32 1.76.06.25.16.4.15.67 0 .6-.08.98.68.97.23 0 .59.04.77-.08.27-.18.2-.45.23-.58.27-.02.73.02 1.02.03h1.54l.01-.6.74-.47.88-.15c-.1 0-.19-.02-.25-.09-.08-.09-.14-.33-.04-.45.08-.1 1.11-.51 1.33-.28.1.11.14.28.09.46-.11.42-.43.35-.85.35h-.21l1.73.04c.24-1.28-.32-1.47-.46-1.69.11-.03.36-.13.42-.2.11-.12.09-.32-.04-.42-.1-.07-.35-.11-.49-.11-.22 0-.29.08-.37.23-.12-.19-.24-.55-.35-.79-.11-.25-.33-.5-.55-.6-.63-.29-3.67-.28-4.2 0-.24.13-.43.33-.55.6-.11.24-.23.59-.35.79zm-.27 1.75c.12.44.35.39.8.39.17 0 .43.04.55-.06.1-.08.18-.28.1-.44-.09-.18-1.11-.5-1.32-.35-.11.08-.18.27-.13.45zm.69-1.41c.94-.02 1.86-.1 2.81-.09.79 0 1.56.07 2.33.09-.14-.48-.3-1.1-.76-1.35-.45-.25-3.1-.25-3.58 0-.4.2-.68.94-.81 1.35z"/><path class="fil0 str0" d="M5.75 7.74c-.09-.15-.16-.23-.39-.23-.16 0-.38.02-.48.12-.11.1-.13.31-.01.42.06.06.31.16.41.19-.04.05-.05.04-.11.11-.49.53-.49 1.02-.32 1.76.06.25.16.4.15.67 0 .6-.08.98.68.97.23 0 .59.04.77-.08.27-.18.2-.45.23-.58.27-.02.73.02 1.02.03h2.09c.29-.01.75-.05 1.02-.03.03.15-.03.41.24.59.17.11 1 .09 1.15.02.35-.16.28-.6.28-.93 0-.27.1-.42.16-.68.32-1.42-.29-1.62-.43-1.85.11-.03.36-.13.42-.2.11-.12.09-.32-.04-.42-.1-.07-.35-.11-.49-.11-.22 0-.29.08-.37.23-.12-.19-.24-.55-.35-.79-.11-.25-.33-.5-.55-.6-.63-.29-3.67-.28-4.2 0-.6.32-.59.88-.9 1.39zm6.26 1.79c.05-.18.01-.35-.09-.46-.22-.23-1.25.18-1.33.28-.1.12-.04.36.04.45.11.12.33.08.52.08.42 0 .74.07.85-.35zm-6.53-.04c.12.44.35.39.8.39.17 0 .43.04.55-.06.1-.08.18-.28.1-.44-.09-.18-1.11-.5-1.32-.35-.11.08-.18.27-.13.45zm.74-1.41c.46-.01.92-.06 1.39-.07.79-.02 1.49 0 2.28 0 .46 0 .92.05 1.38.06-.15-.51-.34-1-.8-1.25-.45-.25-2.96-.25-3.44 0-.47.24-.66.76-.81 1.26z"/></g><path fill="none" d="M0 0h14.33v14.33H0z"/></g></svg>