<svg xmlns="http://www.w3.org/2000/svg" width="143.792" height="142.257" viewBox="0 0 8.77 8.67" shape-rendering="geometricPrecision" text-rendering="geometricPrecision" image-rendering="optimizeQuality" fill-rule="evenodd" clip-rule="evenodd"><defs><style>.fil1{fill:#59656c}</style></defs><g id="Слой_x0020_1"><g id="_1773671056"><path d="M4.43.26c-.04.01-.44.29-.51.34-.17.12-.33.22-.49.34L1.46 2.32c-.16.12-.33.23-.49.35-.09.06-.16.12-.25.17-.06.04-.19.13-.23.17 2.56.02 5.16-.02 7.72 0h.06c-.06-.06-1.84-1.32-1.92-1.38L4.43.25z" fill="#fff"/><path class="fil1" d="M.67 7.72h.57c.15 0 .42.05.46-.1.02-.08.01-3.29.01-3.32 0-.12.03-.46-.05-.5-.07-.04-.17 0-.17.08v3.61H.71c-.31 0-.27.03-.27.5 0 .84-.13.68.87.68h6.18c.88 0 .85.09.85-.31v-.39c0-.47.04-.49-.28-.49h-.77V3.86c-.01-.08-.11-.11-.18-.07-.08.05-.05.4-.05.51 0 .23-.01 3.26.01 3.33.04.12.32.08.46.08h.56v.72H.67v-.72zM4.43.26l1.92 1.38c.09.06 1.86 1.32 1.92 1.38h-.06c-2.56-.02-5.16.02-7.72 0 .04-.05.17-.13.23-.17.08-.06.16-.11.25-.17.17-.11.33-.23.49-.35L3.43.95c.16-.12.32-.22.49-.34.07-.05.46-.33.51-.34zM4.38.01c-.05.02-.37.25-.45.31l-.88.62c-.14.11-.29.2-.44.31L.07 3.03c-.04.03-.08.05-.07.12.01.14.14.1.27.1h8.25c.12 0 .26.02.25-.12-.01-.08-.33-.28-.41-.34l-1.32-.94C6.31 1.34 5.58.8 4.85.29c-.08-.05-.14-.1-.22-.16-.08-.06-.17-.15-.25-.12z"/><path class="fil1" d="M5.83 7.55c.01.21.18.2.23.08.03-.07.01-2.13.01-2.36 0-.3.02-.65 0-.95-.01-.19-.17-.22-.22-.07-.04.1-.02 2.1-.02 2.36 0 .3-.02.65 0 .95zm-2.9.03c.02-.1 0-.35 0-.47 0-.36.01-2.74-.01-2.85-.03-.15-.2-.16-.23.01-.02.11 0 .35 0 .47 0 .35-.01 2.77 0 2.85.03.14.2.17.23-.02zm1.55.06c.03-.06.01-2.78.01-3.29 0-.07 0-.15-.05-.18-.06-.03-.15-.01-.17.05-.01.05 0 2.99 0 3.3 0 .09-.01.15.06.18.06.03.13-.01.15-.06z"/></g></g></svg>