<svg xmlns="http://www.w3.org/2000/svg" width="60mm" height="60mm" viewBox="0 0 21.77 21.77" shape-rendering="geometricPrecision" text-rendering="geometricPrecision" image-rendering="optimizeQuality" fill-rule="evenodd" clip-rule="evenodd"><defs><style>.fil1{fill:#59656c}</style></defs><g id="Слой_x0020_1"><g id="_5112067696"><path d="M10.96 4.46c-.07.02-.69.46-.8.54-.26.19-.51.35-.77.54l-3.1 2.17c-.26.18-.51.37-.78.55-.14.1-.26.18-.39.28-.09.07-.3.2-.37.27 4.03.03 8.13-.03 12.16 0H17c-.09-.09-2.89-2.07-3.03-2.17l-3.02-2.17z" fill="#fff"/><path class="fil1" d="M5.05 16.21h.89c.24 0 .66.07.72-.16.03-.13.01-5.18.01-5.24 0-.19.05-.72-.08-.79-.11-.06-.26 0-.27.13-.01.13 0 .29 0 .42v5.26H5.09c-.49 0-.42.05-.42.79 0 1.33-.21 1.07 1.36 1.07h9.73c1.38 0 1.34.14 1.34-.48v-.61c0-.74.06-.77-.44-.77h-1.21v-5.7c-.01-.12-.18-.17-.28-.1-.12.08-.07.62-.07.8 0 .36-.02 5.13.02 5.24.07.19.51.13.73.13h.87v1.13H5.04V16.2zm5.91-11.75l3.02 2.17c.14.1 2.94 2.08 3.03 2.17h-.09c-4.03-.03-8.12.03-12.16 0 .06-.07.28-.2.37-.27.13-.09.25-.18.39-.28.26-.18.52-.37.78-.55l3.1-2.17c.26-.18.51-.35.77-.54.11-.08.73-.52.8-.54zm-.09-.39c-.08.03-.59.4-.7.48l-1.39.97c-.23.17-.46.32-.69.49l-4 2.8c-.06.04-.12.08-.11.18.02.22.22.16.42.16h12.99c.19 0 .41.03.39-.2-.01-.13-.52-.45-.65-.53l-2.08-1.48c-1.15-.8-2.3-1.66-3.45-2.45-.12-.09-.23-.16-.34-.25-.13-.09-.27-.23-.4-.19z"/><path class="fil1" d="M13.17 15.94c.02.33.29.31.36.12.04-.11.02-3.35.02-3.72 0-.48.02-1.02 0-1.49-.02-.3-.27-.35-.35-.12-.06.16-.03 3.3-.03 3.71 0 .48-.03 1.03 0 1.49zM8.6 16c.03-.16.01-.55.01-.74 0-.57.02-4.32-.01-4.48-.05-.24-.32-.24-.36.01-.03.18-.01.55-.01.75 0 .55-.02 4.36.01 4.49.04.23.31.26.36-.03zm2.44.09c.04-.09.02-4.37.02-5.18 0-.11.01-.24-.08-.29-.09-.04-.24-.01-.26.08-.02.09 0 4.71 0 5.2 0 .14-.01.23.09.28.1.04.2-.01.24-.09z"/></g><path fill="none" d="M0 0h21.77v21.77H0z"/></g></svg>