<svg xmlns="http://www.w3.org/2000/svg" width="226.772" height="60mm" viewBox="0 0 24.25 24.25" shape-rendering="geometricPrecision" text-rendering="geometricPrecision" image-rendering="optimizeQuality" fill-rule="evenodd" clip-rule="evenodd"><path d="M11.35 8.91c0-.28.2-.57.41-.68.72-.36 1.47.47.97 1.14-.22.3-.31.1-.31.43 0 .63.23 1.07.59 1.52.11.13.36.32.51.41.89.54 2.16.57 3.04.01.31-.2.74-.7.74-1.05 0-.07-.11-.12-.22-.28a.76.76 0 01.1-.97c.5-.47 1.29-.07 1.29.48 0 .24 0 .33-.15.54-.09.13-.17.17-.31.24-.15.07-.15.19-.2.36l-.61 2.15c-.17.58-.33 1.14-.49 1.72-.08.27-.15.63-.3.81-.15.19-.4.38-.73.38H8.59c-.32 0-.57-.19-.72-.37-.17-.21-.22-.51-.3-.81l-1.11-3.88c-.04-.15-.05-.3-.19-.37-.15-.08-.22-.1-.32-.23a.774.774 0 01.06-1.01c.29-.29.78-.28 1.07-.01.32.3.28.87-.02 1.12-.06.05-.11.06-.11.15 0 .33.43.82.73 1.03.91.61 2.31.54 3.21-.11.19-.13.33-.27.47-.46.31-.42.46-.88.46-1.46 0-.16-.14-.11-.3-.32a.83.83 0 01-.18-.47zm-.3-.02c0 .29.11.54.29.72l.08.08c.1.09.09.03.09.13 0 .29-.1.62-.2.82-.1.2-.26.46-.44.59-.11.08-.18.15-.3.22-.77.46-1.88.49-2.63.05-.23-.14-.41-.29-.55-.52-.2-.34-.11-.22.08-.54.34-.58-.04-1.54-.97-1.54-.54 0-1.03.48-1.03 1.01 0 .39.13.67.4.88.31.23.15-.08.4.78.1.34 1.09 3.89 1.19 4.11.03.06.07.13.11.18.06.08.2.23.29.3.17.12.42.23.65.23h7.2c.33 0 .63-.19.8-.36.25-.25.29-.42.4-.78l1.18-4.12c.01-.05.02-.07.03-.12.04-.15 0-.04.23-.21.78-.58.39-1.9-.66-1.9a1.07 1.07 0 00-.81.38c-.05.06-.12.17-.16.25-.29.74.23 1.14.23 1.17 0 .22-.4.65-.65.79-.55.3-.84.32-1.45.32-.55 0-1.08-.25-1.48-.57-.38-.31-.64-.95-.64-1.46 0-.09.72-.45.37-1.31a.996.996 0 00-.21-.31.972.972 0 00-.3-.22c-.68-.35-1.55.15-1.55.94z" fill="#59656c" stroke="#59656c" stroke-width=".12" stroke-miterlimit="22.926"/><path fill="none" d="M0 0h24.25v24.25H0z"/></svg>