<svg xmlns="http://www.w3.org/2000/svg" width="153.787" height="131.003" viewBox="0 0 28.9 24.62" shape-rendering="geometricPrecision" text-rendering="geometricPrecision" image-rendering="optimizeQuality" fill-rule="evenodd" clip-rule="evenodd"><path d="M25.9 15.31h2.5v-2.5c0-.14.11-.25.25-.25s.25.11.25.25v2.86c0 .01 0 .01-.01.02v.01s0 .01-.01.01c0 .01-.01.01-.01.02-.04.06-.11.11-.18.12H25.9c-.14 0-.25-.11-.25-.25s.11-.25.25-.25zM25.9.5h2.5V3c0 .14.11.25.25.25s.25-.11.25-.25V.14c0-.01 0-.01-.01-.02V.11s0-.01-.01-.01c0-.01-.01-.01-.01-.02a.279.279 0 00-.18-.12H25.9c-.14 0-.25.11-.25.25s.11.25.25.25zM3 15.31H.5v-2.5c0-.14-.11-.25-.25-.25s-.25.11-.25.25v2.86c0 .01 0 .01.01.02v.01s0 .01.01.01c0 .01.01.01.01.02.04.06.11.11.18.12H3c.14 0 .25-.11.25-.25s-.11-.25-.25-.25zM3 .5H.5V3c0 .14-.11.25-.25.25S0 3.14 0 3V.14C0 .13 0 .13.01.12V.11S.01.1.02.1C.02.09.03.09.03.08.07.02.14-.03.21-.04H3c.14 0 .25.11.25.25S3.14.46 3 .46z" fill="#55adad"/><path d="M3.78 10c.27 0 .84.05.99-.1.12-.12.2-.85.25-1.1.14-.69.38-1.44.64-2.07.15-.36.42-.86.63-1.19.24-.39.83-1.18 1.18-1.53l.68-.66c.35-.31.95-.74 1.33-.96.39-.23.79-.41 1.19-.62v1.19c0 .42.02.78.02 1.17 0 .36-.03.84 0 1.19l.03.56c.02.1.02.16.09.21.2.14.55.08.61-.16.02-.1.04-.49.04-.61V4.03c0-.23.03-.38.03-.62V1.47c.14-.01.39-.11.53-.14.18-.05.38-.09.55-.12.62-.12.86-.16 1.49-.16v6.79c0 .17.49.42.72.09.07-.1.06-.26.06-.42 0-.19.02-.29.03-.45.02-1.95 0-4.05 0-6.02 1.32 0 2.29.4 2.56.42 0 .2-.02 4.35.01 4.44.04.09.19.26.39.26.19 0 .32-.09.36-.29.07-.34.04-1.38.04-1.75 0-.4.02-.75.02-1.17V1.76c.68.36 1.07.51 1.73.98.1.07.17.12.26.19.39.29.4.33.74.62l.24.21c.82.82 1.57 1.91 2.03 2.97.2.48.33.82.48 1.34.07.25.13.47.18.74.05.23.07.52.13.77.05.25.1.36.28.39.18.03.62.02.83.02v.87H3.81v-.87zM13.84.25h1.29c.31.01.62.04 1.06.11.34.06.64.13.95.21.29.08.6.19.88.29a10.46 10.46 0 012.29 1.19c.32.22 1 .75 1.28 1.03.26.26.62.63.85.91.79.98 1.03 1.41 1.56 2.5.34.71.6 1.68.74 2.47.01.06.04.16.04.23.31 0 .65-.02.89.06.14.05.2.1.23.25.02.11.03.28.03.48v1.19c0 .28-.16.5-.27.5H3.27c-.07 0-.18-.13-.21-.19a.616.616 0 01-.06-.31V9.82c.01-.22.02-.39.05-.44.13-.2.86-.2 1.09-.2 0-.15.06-.36.09-.51.03-.17.07-.32.1-.47.08-.33.17-.59.27-.9.22-.67.42-1.01.71-1.6.25-.51.59-.99.92-1.42.47-.62.93-1 1.42-1.49.06-.06.1-.08.16-.14.77-.72 2.13-1.46 3.11-1.81.84-.3 1.93-.59 2.89-.59h.03zM5.15 12.78c0 2.69.51 4.24 1.66 6.3.04.07.08.13.12.2.05.08.08.12.12.2.31.48.45.68.81 1.13.38.49.78.91 1.21 1.35l.51.46c.28.28.93.74 1.29.98.63.42 1.46.82 2.2 1.03.38.11.74.17 1.1.19h.53c.68-.04 1.35-.22 2.04-.52l.86-.43c.15-.09.26-.16.4-.25l.4-.27c.07-.05.12-.09.19-.14.07-.05.12-.08.19-.14l1.37-1.22.92-1.05c.91-1.23 1.43-2.09 1.99-3.54l.24-.73c.11-.33.19-.69.26-1.03.17-.86.2-1.68.2-2.66 0-.39 0-.7-.42-.7-.51 0-.31.53-.35.94-.02.2-.02.4-.02.63 0 .18-.04.42-.05.6-.1 1.45-.74 3.35-1.51 4.63l-.65 1c-.17.25-.82 1.05-1.02 1.25l-.16.16c-.22.22-.42.43-.66.63l-.72.58c-.27.18-.5.35-.78.51-1.42.85-2.95 1.26-4.6.64a4.47 4.47 0 01-.46-.19c-.15-.07-.3-.13-.43-.21-.46-.28-.62-.32-1.19-.75l-.55-.42c-.71-.6-1.17-1.11-1.74-1.82-.1-.12-.19-.25-.28-.37-.35-.51-.7-1.04-.98-1.6-.21-.41-.43-.91-.59-1.35-.48-1.32-.65-2.45-.65-3.88 0-.19.01-.73-.1-.87-.13-.15-.6-.2-.66.17-.02.16-.03.37-.03.54z" fill="#59656c"/></svg>