<svg xmlns="http://www.w3.org/2000/svg" width="227.011" height="47mm" viewBox="0 0 62.77 49.12" shape-rendering="geometricPrecision" text-rendering="geometricPrecision" image-rendering="optimizeQuality" fill-rule="evenodd" clip-rule="evenodd"><path d="M48.23 28.17h3.68v-3.68c0-.2.17-.37.37-.37.2 0 .37.17.37.37v4.17c0 .01-.01.02-.01.03v.01c0 .01 0 .01-.01.02s-.01.02-.02.03c-.06.09-.16.16-.27.18h-4.1c-.2 0-.37-.17-.37-.37 0-.2.17-.37.37-.37zm0-21.78h3.68v3.68c0 .2.17.37.37.37.2 0 .37-.17.37-.37V5.9c0-.01-.01-.02-.01-.03v-.01c0-.01 0-.01-.01-.02s-.01-.02-.02-.03a.424.424 0 00-.27-.18h-4.1c-.2 0-.37.17-.37.37 0 .2.17.37.37.37zM14.54 28.17h-3.68v-3.68c0-.2-.17-.37-.37-.37-.2 0-.37.17-.37.37v4.17c0 .01.01.02.01.03v.01c0 .01 0 .01.01.02s.01.02.02.03c.06.09.16.16.27.18h4.1c.2 0 .37-.17.37-.37 0-.2-.17-.37-.37-.37zm0-21.78h-3.68v3.68c0 .2-.17.37-.37.37-.2 0-.37-.17-.37-.37V5.9c0-.01.01-.02.01-.03v-.01c0-.01 0-.01.01-.02s.01-.02.02-.03c.06-.09.16-.16.27-.18h4.1c.2 0 .37.17.37.37 0 .2-.17.37-.37.37z" fill="#55adad"/><path d="M15.2 21.29c.41 0 1.27.07 1.5-.16.18-.18.3-1.29.37-1.66.21-1.05.58-2.18.97-3.14.22-.54.64-1.31.95-1.8.37-.59 1.25-1.79 1.79-2.32l1.04-1c.53-.47 1.45-1.12 2.01-1.46.59-.35 1.2-.62 1.81-.94v1.81c0 .63.04 1.18.04 1.77 0 .55-.04 1.28 0 1.81l.05.86c.02.15.03.25.14.32.3.21.83.11.92-.25.04-.14.06-.74.06-.92v-1.96c0-.35.04-.57.04-.94V8.37c.22-.02.59-.16.8-.22.27-.07.57-.13.83-.19.94-.19 1.3-.24 2.25-.24v10.3c0 .25.74.64 1.08.14.11-.15.09-.39.09-.63 0-.28.04-.44.04-.68.04-2.96 0-6.14 0-9.13 2 0 3.47.61 3.89.64 0 .31-.04 6.59.02 6.73.06.14.29.4.58.4s.48-.13.54-.44c.1-.52.06-2.09.06-2.65 0-.61.04-1.13.04-1.77V8.82c1.03.54 1.62.77 2.62 1.49.15.11.25.18.39.29.6.45.61.49 1.13.95l.36.32c1.24 1.24 2.38 2.89 3.07 4.51a15.35 15.35 0 011 3.15c.07.35.11.78.19 1.16.08.38.15.54.43.59.27.05.94.03 1.25.03v1.32H15.18v-1.32zM30.45 6.5h1.95c.47.02.95.06 1.6.17.51.08.98.2 1.45.33.45.12.92.28 1.33.44.22.08.41.15.62.24 1.2.54 1.74.82 2.85 1.56.49.33 1.52 1.14 1.95 1.56.4.39.95.95 1.3 1.38 1.2 1.48 1.56 2.13 2.36 3.79.51 1.07.91 2.55 1.12 3.75.02.09.06.24.07.35.47 0 .99-.04 1.35.09.21.07.31.15.34.37.03.17.04.43.05.72v1.8c0 .43-.24.75-.41.75H14.43c-.1 0-.27-.2-.32-.28-.08-.13-.1-.28-.1-.47V21c.01-.33.04-.59.08-.66.2-.3 1.3-.31 1.65-.31 0-.22.09-.54.14-.77.05-.25.1-.49.16-.71.13-.51.25-.89.41-1.36.34-1.02.64-1.53 1.08-2.42.39-.77.9-1.5 1.39-2.16.71-.95 1.4-1.52 2.15-2.26.1-.1.15-.12.25-.21 1.17-1.1 3.22-2.21 4.72-2.75 1.28-.46 2.93-.9 4.38-.9h.05zM17.27 25.51c0 4.08.78 6.43 2.52 9.56.06.11.12.2.18.31.08.11.11.19.19.3.47.72.69 1.03 1.22 1.72.58.74 1.18 1.38 1.84 2.05l.77.7c.43.42 1.42 1.13 1.95 1.48.95.63 2.21 1.24 3.34 1.56.57.16 1.13.26 1.67.29h.8c1.04-.06 2.05-.34 3.09-.79l1.3-.66c.22-.13.39-.24.6-.38l.61-.41c.11-.07.18-.13.28-.21.11-.08.18-.12.28-.21l2.07-1.85 1.39-1.59c1.38-1.86 2.18-3.18 3.01-5.36l.37-1.1c.16-.5.29-1.04.4-1.56.26-1.3.3-2.55.3-4.03 0-.6.01-1.06-.64-1.06-.77 0-.46.81-.53 1.43-.03.3-.03.6-.03.95 0 .28-.06.63-.08.91-.15 2.2-1.12 5.08-2.29 7.02l-.98 1.51c-.26.38-1.24 1.59-1.54 1.89-.09.09-.15.15-.25.24-.34.34-.64.64-1 .96l-1.09.87c-.41.28-.76.52-1.18.78-2.15 1.29-4.47 1.91-6.98.97-.21-.08-.49-.18-.7-.28-.23-.11-.45-.19-.66-.32-.7-.42-.95-.49-1.81-1.14l-.83-.64c-1.08-.91-1.77-1.68-2.64-2.75-.15-.18-.29-.37-.42-.56-.53-.78-1.06-1.58-1.49-2.43-.32-.62-.65-1.39-.89-2.05-.73-2.01-.99-3.71-.99-5.88 0-.29.01-1.11-.16-1.31-.19-.22-.92-.3-1 .26-.04.25-.05.56-.05.82z" fill="#59656c"/><path fill="none" d="M0 0h62.77v49.12H0z"/></svg>