<svg xmlns="http://www.w3.org/2000/svg" width="126.736" height="161.847" viewBox="0 0 5.12 6.53" shape-rendering="geometricPrecision" text-rendering="geometricPrecision" image-rendering="optimizeQuality" fill-rule="evenodd" clip-rule="evenodd"><defs><style>.fil0{fill:#59656c;fill-rule:nonzero}</style></defs><g id="Слой_x0020_1"><g id="_1757658640"><path class="fil0" d="M2.56 2.88c.51 0 .96.2 1.29.54.33.33.54.79.54 1.29 0 .51-.2.96-.54 1.29-.33.33-.79.54-1.29.54-.51 0-.96-.2-1.29-.54a1.83 1.83 0 01-.54-1.29c0-.51.2-.96.54-1.29.33-.33.79-.54 1.29-.54zm1.19.64c-.3-.3-.72-.49-1.19-.49-.46 0-.88.19-1.19.49-.3.3-.49.72-.49 1.19 0 .46.19.88.49 1.19.3.3.72.49 1.19.49.46 0 .88-.19 1.19-.49.3-.3.49-.72.49-1.19 0-.46-.19-.88-.49-1.19zM.82 2.61c.24-.2.52-.36.82-.47.29-.11.6-.16.93-.16.32 0 .63.06.92.16.3.11.57.26.81.46l-.1.12a2.566 2.566 0 00-1.64-.59 2.566 2.566 0 00-1.65.59l-.1-.12zM.4 1.62c.3-.2.64-.36 1.02-.47.36-.1.75-.16 1.15-.16.4 0 .78.06 1.14.16.37.11.71.26 1.01.46l-.08.13c-.28-.19-.61-.34-.97-.44a3.9 3.9 0 00-1.1-.15c-.39 0-.76.05-1.11.15-.36.1-.69.26-.97.45l-.08-.13zM0 .63C.35.43.76.27 1.2.16 1.63.06 2.09 0 2.56 0c.47 0 .93.06 1.35.16.44.11.84.26 1.2.46l-.07.13C4.7.56 4.31.41 3.88.31 3.47.21 3.03.16 2.56.16c-.47 0-.91.05-1.33.16C.8.42.41.58.06.77L-.01.64z"/><path class="fil0" d="M2.31 5.52v-.53c.05.01.12.02.19.02.23 0 .43-.07.55-.2a.53.53 0 00.14-.39c0-.16-.06-.29-.16-.38-.11-.1-.28-.15-.51-.15-.12 0-.22.01-.3.02-.18.02-.15 0-.15.17v1.48c0 .25.23.27.23-.03zm0-1.43c.04-.01.12-.02.22-.02.26 0 .43.12.43.36 0 .25-.17.39-.46.39a.92.92 0 01-.19-.02v-.71z"/></g></g></svg>