<svg xmlns="http://www.w3.org/2000/svg" width="60mm" height="60mm" viewBox="0 0 16.36 16.36" shape-rendering="geometricPrecision" text-rendering="geometricPrecision" image-rendering="optimizeQuality" fill-rule="evenodd" clip-rule="evenodd"><defs><style>.str0{stroke:#59656c;stroke-width:.27;stroke-miterlimit:22.9256}.fil0{fill:none}</style></defs><g id="Слой_x0020_1"><g id="_4701178896"><circle class="fil0 str0" cx="8.18" cy="10.75" r="3.13"/><path class="fil0 str0" d="M5.16 7.12c.82-.69 1.88-1.1 3.03-1.1 1.14 0 2.19.41 3.01 1.08M4.4 5.35c1.03-.69 2.35-1.1 3.8-1.1 1.43 0 2.74.41 3.77 1.08m-8.3-1.75c1.22-.69 2.8-1.1 4.52-1.1 1.7 0 3.27.41 4.49 1.08"/><path d="M7.73 12.21v-.95c.1.02.21.03.34.03.41 0 .77-.12.99-.36.16-.17.25-.4.25-.69 0-.29-.11-.52-.28-.68-.19-.17-.5-.27-.91-.27-.21 0-.39.01-.54.03-.31.03-.26 0-.26.3v2.65c0 .44.42.48.42-.05zm0-2.56c.07-.02.21-.03.39-.03.46 0 .77.21.77.64 0 .45-.31.69-.81.69-.14 0-.26-.01-.35-.03V9.66z" fill="#59656c" fill-rule="nonzero"/></g><path class="fil0" d="M0 0h16.36v16.36H0z"/></g></svg>