<svg xmlns="http://www.w3.org/2000/svg" width="60mm" height="60mm" viewBox="0 0 13.57 13.57" shape-rendering="geometricPrecision" text-rendering="geometricPrecision" image-rendering="optimizeQuality" fill-rule="evenodd" clip-rule="evenodd"><path d="M11.06 9.84h1.04V8.8a.1.1 0 01.2 0v1.16c-.02.03-.04.05-.08.05h-1.15a.1.1 0 010-.2zm0-6.11h1.04v1.04a.1.1 0 00.2 0V3.61c-.02-.03-.04-.05-.08-.05h-1.15a.1.1 0 000 .2zM2.5 9.84H1.46V8.8a.1.1 0 00-.2 0v1.16c.02.03.04.05.08.05h1.15a.1.1 0 000-.2zm0-6.11H1.46v1.04a.1.1 0 01-.2 0V3.61c.02-.03.04-.05.08-.05h1.15a.1.1 0 010 .2zm1.92 4.33l1.13.01V4.84c-.09-.02-1.06-.02-1.14 0v3.22zm4.09.01h1.13V4.83H8.51zm-5.39.66h.58v-3.9h-.58zm3.63-.66h.57l.01-3.24h-.58zm3.35.67h.34V4.83h-.34zm-4.31-.67h.38l.01-3.24h-.39zm1.73 0h.29V4.83h-.29zm.47 0h.29V4.83h-.29zM3.9 4.89v3.18h.29V4.83H3.9zm5.89 0v3.18h.17V4.83h-.17z" fill="#59656c"/><path fill="none" d="M0 0h13.57v13.57H0z"/></svg>