<svg xmlns="http://www.w3.org/2000/svg" width="60mm" height="60mm" viewBox="0 0 42.55 42.55" shape-rendering="geometricPrecision" text-rendering="geometricPrecision" image-rendering="optimizeQuality" fill-rule="evenodd" clip-rule="evenodd"><defs><style>.fil0{fill:#59656c}</style></defs><g id="Слой_x0020_1"><g id="_705208176"><path class="fil0" d="M21.4 33.85c.43-1.84.36-4.42-.19-6.22-.3-.98-.82-.63-1.99-.27-.37.11-.97.34-1.42.34-.09-.35-.99-1.43-1.23-1.67-.42-.42-1.21-.93-1.76-1.23.4-1.73 1.23-2.75.55-3.27-.23-.18-.8-.36-1.14-.44-1.52-.36-3.98-.24-5.47.11.37-.55 2.11-1.62 2.81-2.03 1.88-1.08 3.43-1.51 5.64-1.74 1.33-.14.97.02 1.68-.78 1.59-1.79 2.83-3.36 4.97-4.79 1.05-.7 1.94-1.25 3.09-1.83 1.76-.88 5.14-2.11 7.73-2.11-.01.5-.17 1.61-.27 2.1-.14.68-.24 1.41-.42 2.04-.83 2.99-2.33 5.71-4.22 8.08-.41.51-.71.82-1.18 1.28-.91.91-1.51 1.53-2.54 2.3-.16.12-.61.4-.71.52-.17.21-.32 2.17-.56 3.13-.26 1.02-.62 2.3-1.11 3.2-.39.72-1.71 2.9-2.27 3.27zM7.25 21.81c0 .46.42.33.77.25 2.49-.57 1.92-.51 4.68-.51.95 0 1.54.27 2.28.44-.04.45-.48 1.58-.65 2.07-.39 1.16-.15 1.09.67 1.6.59.37 1.06.71 1.49 1.23 1.41 1.74.49 1.77 2.68 1.12.44-.13 1-.24 1.35-.41.61 1.26.62 4.24.29 5.91l-.42 1.4c-.01.3.14.39.39.38.53-.02 2-2.15 2.35-2.62 1.23-1.65 1.95-3.61 2.38-5.62.09-.42.14-.69.2-1.12.24-1.72-.24-.89 1.6-2.44 1.65-1.38 2.59-2.36 3.88-4.21 2.46-3.55 4.09-7.53 4.09-11.99-1.84-.43-6.56 1.12-8.41 2.05-3.37 1.69-5.8 3.57-8.18 6.49-.22.27-.46.69-.75.83-.25.12-.7.11-.93.12-.33.02-.9.1-1.17.15-2.17.36-3.96 1.17-5.73 2.35-.24.16-2.85 2.07-2.85 2.51z"/><path class="fil0" d="M14.55 30.07zm0 0c-.18.66-1.93 1.67-2.83 1.92-.3.08-1.05.19-1.39.19.18-.37 0-1.04.79-2.55.32-.61.95-1.48 1.5-1.84-.11.46-.5 1.53-.15 2.08.34.52 1.39.2 2.08.2zm-4.83 2.2v.53c1.91 0 2.8-.16 4.28-1.25.66-.49 2.03-1.86 2.04-2.7-.3.03-.43.09-.67.2-.27.12-.39.17-.7.27-.38.13-1.24.23-1.71.23 0-1.78.79-2.19.79-3.08-.89.02-2.33 1.51-2.76 2.16-.66 1-1.28 2.34-1.28 3.64zm17.31-18.98c3.21 0 3.32 4.66-.09 4.66-1.84 0-2.97-2.54-1.52-3.98.37-.37.9-.68 1.61-.68zm-2.9 2.11c0 3.18 3.34 3.97 4.99 2.44.95-.88 1.31-2.35.67-3.53-1.68-3.15-5.66-1.37-5.66 1.09z"/></g><path fill="none" d="M0 0h42.55v42.55H0z"/></g></svg>