<svg xmlns="http://www.w3.org/2000/svg" width="184.773" height="109.142" viewBox="0 0 9.01 5.32" shape-rendering="geometricPrecision" text-rendering="geometricPrecision" image-rendering="optimizeQuality" fill-rule="evenodd" clip-rule="evenodd"><path d="M7.99 5.15h.85V4.3c0-.05.04-.08.08-.08.05 0 .08.04.08.08v.95c-.01.02-.04.04-.06.04h-.93c-.05 0-.08-.04-.08-.08 0-.05.04-.08.08-.08zm0-4.98h.85v.85c0 .05.04.08.08.08.05 0 .08-.04.08-.08V.07C8.99.05 8.96.03 8.94.03h-.93c-.05 0-.08.04-.08.08 0 .05.04.08.08.08zM1.02 5.15H.17V4.3c0-.05-.04-.08-.08-.08-.05 0-.08.04-.08.08v.95c.01.02.04.04.06.04H1c.05 0 .08-.04.08-.08 0-.05-.04-.08-.08-.08zm0-4.98H.17v.85c0 .05-.04.08-.08.08-.05 0-.08-.04-.08-.08V.07C.02.05.05.03.07.03H1c.05 0 .08.04.08.08 0 .05-.04.08-.08.08zM2.58 3.7h.92V1.07c-.08-.01-.86-.01-.93 0V3.7zm3.33.01h.92l.01-2.64h-.93zm-4.39.54h.47V1.07h-.47zm2.95-.54h.48V1.07h-.48zm2.74.55h.28V1.07h-.28zm-3.52-.55h.32V1.07h-.32zm1.42 0h.23V1.07h-.23zm.38 0h.23l.01-2.64h-.24zM2.16 1.12v2.59h.23V1.07h-.23zm4.79 0v2.54l.01.05h.13l.01-.06V1.07h-.15z" fill="#59656c"/></svg>