<svg xmlns="http://www.w3.org/2000/svg" width="125.444" height="81.239" viewBox="0 0 7.43 4.81" shape-rendering="geometricPrecision" text-rendering="geometricPrecision" image-rendering="optimizeQuality" fill-rule="evenodd" clip-rule="evenodd"><g fill="#59656c"><path d="M3.29.63c0-.16.11-.32.23-.38.4-.2.81.26.54.63-.12.17-.17.05-.17.24 0 .35.13.6.33.84.06.07.2.18.28.23.49.3 1.2.31 1.68 0 .17-.11.41-.39.41-.58 0-.04-.06-.06-.12-.15a.424.424 0 01.05-.54c.28-.26.71-.04.71.26 0 .13 0 .18-.08.3-.05.07-.1.09-.17.13-.08.04-.08.1-.11.2L6.53 3l-.27.95c-.04.15-.08.35-.16.45-.09.1-.22.21-.4.21H1.77c-.18 0-.32-.11-.4-.21-.09-.12-.12-.28-.17-.45L.59 1.8c-.02-.08-.03-.16-.1-.2a.463.463 0 01-.18-.13.426.426 0 01.03-.56C.5.75.77.75.93.9c.18.17.16.48-.01.62-.03.03-.06.03-.06.08 0 .18.24.46.4.57.51.34 1.28.3 1.78-.06.1-.07.18-.15.26-.25.17-.23.26-.49.26-.81 0-.09-.08-.06-.17-.18a.49.49 0 01-.1-.26zM3.13.62c0 .16.06.3.16.4l.05.05c.06.05.05.02.05.07 0 .16-.05.34-.11.45-.06.11-.14.25-.24.33-.06.05-.1.08-.16.12-.43.25-1.04.27-1.46.03a.762.762 0 01-.3-.29c-.11-.19-.06-.12.04-.3.19-.32-.02-.85-.54-.85-.3 0-.57.27-.57.56 0 .21.07.37.22.49.17.13.09-.04.22.43.06.19.6 2.15.66 2.28.01.03.04.07.06.1.03.05.11.13.16.16.1.07.23.13.36.13h3.99c.19 0 .35-.1.44-.2.14-.14.16-.23.22-.43l.65-2.28c.01-.03.01-.04.02-.06.02-.08 0-.02.13-.12.43-.32.21-1.05-.37-1.05-.13 0-.25.05-.33.11-.05.03-.08.06-.12.11-.03.03-.07.09-.09.14-.16.41.13.63.13.65 0 .12-.22.36-.36.44-.31.16-.46.18-.8.18-.31 0-.6-.14-.82-.32-.21-.17-.36-.52-.36-.81 0-.05.4-.25.21-.73C4.24.33 4.2.3 4.16.24A.61.61 0 004 .12c-.38-.19-.86.08-.86.52z"/><path d="M3.25.63c0-.08.03-.16.07-.23.05-.08.11-.14.18-.17a.48.48 0 01.37-.02c.08.03.15.08.2.14.05.06.09.14.1.22.02.11-.01.23-.09.35-.06.08-.1.1-.13.12-.02.01-.03.02-.03.1 0 .17.03.31.09.45.06.13.14.25.23.37.02.03.07.07.11.11.06.05.12.09.16.12.24.15.54.23.83.23.29 0 .58-.07.81-.22.09-.06.2-.16.28-.28.07-.09.11-.19.11-.27 0-.01-.01-.02-.03-.04a.47.47 0 01-.16-.39c.01-.11.06-.21.13-.28.09-.09.2-.13.31-.13.07 0 .13.01.19.04s.11.06.16.11c.07.07.11.16.11.26 0 .14 0 .19-.09.31-.03.04-.05.06-.08.09-.03.02-.06.04-.1.06-.05.03-.06.07-.08.13 0 .01-.01.03-.01.05l-.34 1.19c-.07.24-.14.48-.21.73L6.28 4c-.01.03-.02.06-.02.09-.04.14-.08.29-.15.37-.05.06-.12.12-.2.17-.07.03-.14.06-.23.06H1.75c-.09 0-.16-.02-.23-.06a.507.507 0 01-.19-.16c-.08-.1-.11-.23-.15-.36l-.03-.09-.61-2.15c0-.02-.01-.03-.01-.05-.01-.06-.03-.11-.07-.14l-.03-.01a.377.377 0 01-.16-.12c-.07-.09-.1-.2-.09-.31.01-.11.05-.21.13-.29C.4.86.51.82.63.82s.24.04.32.12l.04.04c.07.09.1.2.1.31 0 .11-.04.22-.11.29l-.03.03-.02.02c-.01.01-.03.02-.03.04 0 .08.05.17.11.26.08.11.19.22.28.28.25.16.56.24.87.23.32-.01.63-.11.88-.29l.14-.11c.04-.04.08-.08.12-.13.08-.11.15-.23.19-.36.04-.13.06-.27.06-.43 0-.03-.02-.04-.04-.05a.536.536 0 01-.2-.25.353.353 0 01-.03-.14zm.13-.2a.36.36 0 00-.04.32c.02.04.04.09.07.12.04.05.07.07.1.09.04.03.07.04.07.11 0 .16-.02.31-.07.45-.04.14-.11.26-.2.38-.04.05-.08.1-.12.14-.04.04-.09.08-.14.12-.26.19-.59.29-.91.3-.32.01-.65-.07-.9-.24-.09-.06-.21-.18-.29-.3a.576.576 0 01-.12-.3c0-.06.02-.08.05-.1.01 0 .01-.01.02-.01l.03-.03c.06-.06.09-.15.1-.25 0-.09-.02-.19-.08-.26L.92.94A.43.43 0 00.64.83c-.1 0-.2.04-.27.11s-.11.16-.11.25c-.01.09.02.19.08.27.04.06.08.08.14.11l.03.01c.07.04.09.11.11.18 0 .02.01.03.01.04l.61 2.15c.01.03.02.06.03.1.03.13.07.25.14.34.04.05.1.11.17.14.06.03.12.05.2.05h3.93c.08 0 .14-.02.2-.05.07-.04.13-.09.18-.15.06-.08.1-.22.13-.35.01-.03.02-.06.02-.09l.06-.22c.07-.24.14-.48.21-.73l.34-1.19c0-.01.01-.03.01-.05.02-.08.03-.13.11-.17.04-.02.07-.03.09-.05.02-.02.05-.04.07-.07.08-.11.08-.15.08-.27a.31.31 0 00-.09-.22.502.502 0 00-.14-.1.471.471 0 00-.17-.04c-.09 0-.19.03-.26.11a.36.36 0 00-.11.24c-.01.09.01.18.06.26.03.04.05.06.08.09s.05.05.05.09c0 .1-.05.21-.13.31-.09.12-.2.24-.3.3-.25.16-.55.23-.85.23a1.627 1.627 0 01-1.04-.36.679.679 0 01-.12-.12c-.1-.12-.18-.25-.24-.39s-.09-.29-.09-.47c0-.12.02-.14.07-.16.02-.01.06-.03.11-.1.07-.1.09-.2.08-.3a.372.372 0 00-.09-.19.434.434 0 00-.17-.12.45.45 0 00-.32.02.36.36 0 00-.15.15zm-.22.19c0 .08.01.15.04.21s.06.12.11.17l.02.02.03.03c.02.01.03.02.03.02l.02.02c.01.01.01.02.01.04v.02c0 .08-.01.16-.03.24-.02.09-.05.17-.08.23a1.06 1.06 0 01-.25.34c-.02.01-.03.03-.05.04-.04.03-.07.06-.12.09-.22.13-.49.2-.76.21-.26 0-.53-.05-.74-.18a1.18 1.18 0 01-.18-.13c-.05-.05-.1-.1-.14-.17-.09-.16-.09-.16-.03-.23a.514.514 0 00.13-.35A.574.574 0 00.9.76a.557.557 0 00-.68.08c-.1.1-.16.23-.16.37 0 .1.02.19.05.27.03.08.09.14.16.19.04.03.06.04.08.05.03.01.04.02.05.05.01.02.02.05.04.12.01.05.03.13.06.23.01.04.04.16.09.31.17.61.53 1.87.57 1.96.01.01.01.03.02.04.01.02.02.04.03.05.02.02.05.06.08.09s.05.05.08.07c.05.03.11.07.18.09.05.02.11.03.17.03h3.99c.08 0 .15-.02.22-.05.08-.04.15-.09.2-.14.12-.12.15-.21.2-.39l.66-2.31c.01-.02.01-.05.02-.07.01-.03.01-.04.03-.06.01-.01.01-.01.02-.01.01-.01.04-.02.09-.05.11-.08.17-.18.2-.3.03-.1.02-.21-.01-.31a.514.514 0 00-.18-.26.568.568 0 00-.35-.12c-.06 0-.11.01-.16.03-.06.02-.11.05-.15.07-.02.02-.04.03-.06.05-.02.02-.04.03-.05.05-.01.02-.03.04-.05.07l-.03.06c-.13.33.05.53.11.59.02.02.03.03.03.05 0 .07-.05.16-.12.24-.08.09-.18.18-.26.23-.16.08-.27.13-.4.15a2.5 2.5 0 01-.42.03c-.15 0-.29-.03-.43-.08-.15-.06-.29-.14-.41-.24a.917.917 0 01-.26-.37c-.07-.15-.11-.32-.11-.47 0-.03.02-.05.06-.08.09-.09.29-.28.15-.63C4.23.38 4.2.35 4.16.3L4.14.27C4.13.25 4.1.23 4.08.21 4.05.19 4.01.16 3.99.15a.542.542 0 00-.25-.06c-.1 0-.21.03-.3.08s-.16.13-.21.22c-.04.07-.06.15-.06.24zm-.02.23A.587.587 0 013.1.62c0-.1.02-.19.07-.27a.64.64 0 01.85-.27c.03.01.07.04.1.06.03.02.06.05.07.07l.02.03c.04.05.07.08.1.15.16.4-.06.61-.17.71-.02.02-.04.03-.04.03 0 .14.04.3.1.44.06.14.14.26.24.34.11.09.25.17.39.23.13.05.27.08.41.08.17 0 .29 0 .41-.03.12-.02.23-.07.38-.15.07-.04.17-.12.24-.21.06-.07.11-.15.11-.2 0-.01 0 .01-.01 0-.06-.07-.26-.3-.12-.66.01-.02.02-.05.04-.07.02-.03.04-.06.05-.08L6.4.76c.02-.02.04-.03.07-.05.04-.03.1-.06.17-.08.06-.02.12-.03.19-.03.16 0 .29.05.39.13.1.08.16.18.2.29.04.11.04.24.01.35-.03.13-.1.24-.22.33-.06.04-.08.05-.1.06H7.1s0 .01-.01.03l-.02.07-.65 2.28-.01.03c-.05.19-.08.28-.22.42-.06.06-.13.11-.22.16-.07.03-.16.06-.24.06H1.74c-.06 0-.13-.01-.19-.04-.07-.03-.14-.06-.19-.1-.02-.02-.06-.05-.09-.08a.812.812 0 01-.09-.1c-.01-.02-.03-.04-.04-.06-.01-.02-.02-.04-.03-.05-.04-.1-.4-1.36-.57-1.97L.45 2.1C.42 1.99.4 1.92.38 1.86c-.02-.06-.02-.09-.03-.1 0-.01-.01-.01-.02-.02-.02-.01-.05-.02-.09-.06a.548.548 0 01-.18-.22.653.653 0 01-.06-.29C0 1.01.07.86.18.76.29.65.44.58.6.58c.13 0 .24.03.34.09a.641.641 0 01.31.54c0 .1-.02.2-.07.28-.03.05-.06.08-.08.11-.03.04-.03.04.03.16a.735.735 0 00.3.28c.2.12.45.18.7.17.26 0 .51-.07.72-.2.04-.03.08-.05.11-.08.02-.01.03-.03.05-.04.04-.03.08-.08.12-.12.05-.06.09-.13.12-.19s.06-.13.08-.22c.02-.07.03-.15.03-.22v-.02c-.01-.01-.02-.01-.04-.03l-.03-.03-.02-.02a.64.64 0 01-.13-.19zm.22.27z" fill-rule="nonzero"/></g></svg>