<svg xmlns="http://www.w3.org/2000/svg" width="60mm" height="60mm" viewBox="0 0 14.48 14.48" shape-rendering="geometricPrecision" text-rendering="geometricPrecision" image-rendering="optimizeQuality" fill-rule="evenodd" clip-rule="evenodd"><defs><style>.str0{stroke:#59656c;stroke-width:.24;stroke-miterlimit:22.9256}.fil0{fill:none}.fil1{fill:#fff}</style></defs><g id="Слой_x0020_1"><g id="_4685421824"><path class="fil0 str0" d="M9.25 6.48c0 .19.35.34.45.02l.21-.86c.05-.19.04-.22.04 0-.01.99-.11 1.99-.11 2.98 0 .17.27.34.45.11.08-.09.27-1.68.33-2.05l.34 2.06c.14.19.43.11.46-.14l-.12-2.93c-.01-.17.01-.13.04 0l.28.97c.19.15.37-.02.37-.16s-.26-1.76-.3-1.95c-.03-.15-.07-.22-.16-.29-.11-.09-.38-.2-.53-.23-.17.19-.61.17-.75 0-.17.04-.34.13-.48.21-.21.12-.2.28-.27.7-.03.15-.24 1.45-.24 1.59zm.8-3.3c0 .17.07.32.16.41.3.33.98.19.98-.41 0-.38-.42-.68-.82-.5-.04.02-.13.08-.16.11-.07.07-.17.24-.17.39z"/><path class="fil1 str0" d="M6.19 7.35c0 .23.43.41.55.02L7 6.32c.06-.23.05-.26.05 0-.01 1.21-.14 2.44-.14 3.65 0 .21.33.42.55.13.09-.12.33-2.06.4-2.52l.41 2.53c.18.23.53.13.56-.17l-.15-3.6c-.02-.2.01-.16.05 0l.34 1.18c.24.19.46-.02.46-.2 0-.17-.32-2.15-.37-2.39a.502.502 0 00-.2-.36c-.14-.11-.46-.24-.65-.29-.2.24-.75.21-.92 0-.21.05-.42.16-.59.26-.26.15-.24.34-.33.86-.03.19-.3 1.78-.3 1.94zm.98-4.04c0 .21.09.39.19.51.36.4 1.21.23 1.21-.51 0-.47-.51-.84-1-.61-.05.02-.15.1-.19.13-.09.09-.2.3-.2.47z"/><path class="fil1 str0" d="M2.5 8.35c0 .28.53.5.67.02l.31-1.27c.07-.28.06-.32.06 0-.02 1.47-.17 2.96-.17 4.42 0 .26.4.51.67.16.11-.14.4-2.5.49-3.05l.5 3.06c.21.28.64.16.68-.21l-.19-4.36c-.02-.25.02-.2.06 0L6 8.56c.29.23.56-.03.56-.25 0-.2-.39-2.61-.44-2.9-.04-.22-.1-.32-.24-.44-.17-.14-.56-.29-.79-.35-.25.29-.91.25-1.12 0-.25.06-.5.19-.72.31-.31.18-.29.42-.4 1.04-.04.23-.36 2.16-.36 2.36zm1.18-4.9c0 .26.11.47.23.62.44.49 1.46.28 1.46-.62 0-.57-.62-1.02-1.22-.74-.06.03-.19.12-.23.16-.11.11-.25.36-.25.57z"/></g><path class="fil0" d="M0 0h14.48v14.48H0z"/></g></svg>