<svg xmlns="http://www.w3.org/2000/svg" width="152.335" height="148.246" viewBox="0 0 6.54 6.37" shape-rendering="geometricPrecision" text-rendering="geometricPrecision" image-rendering="optimizeQuality" fill-rule="evenodd" clip-rule="evenodd"><defs><style>.fil1{fill:#fff}.fil0{fill:#59656c;fill-rule:nonzero}</style></defs><g id="Слой_x0020_1"><g id="_2111813040"><path class="fil0" d="M4.7 2.67c0 .01.01.03.03.04.01.01.02.01.04.01h.03c.02-.01.04-.03.05-.06l.14-.57.01-.05c.02-.07.02-.11.09-.11.09-.01.09.04.09.16v.02c0 .32-.02.63-.04.95-.02.35-.04.7-.04 1.05 0 .01.01.02.01.04.01.01.02.02.04.03.01.01.03.01.05 0a.21.21 0 00.06-.04c.02-.03.11-.66.16-1.06.02-.13.03-.23.04-.28l.08-.51.31 1.87c.02.01.03.02.05.02h.03c.01 0 .02-.01.03-.01.02-.01.03-.04.04-.07l-.08-1.96v-.09c.01-.05.04-.08.09-.07.03 0 .06.02.07.05.01.02.02.05.03.09l.18.62c.01.01.02.01.03.01.01 0 .02 0 .03-.01.01 0 .02-.01.02-.02.01-.01.02-.03.02-.04 0-.03-.03-.21-.06-.43-.05-.35-.12-.78-.14-.86a.465.465 0 00-.03-.09.265.265 0 00-.05-.06 1.37 1.37 0 00-.14-.08c-.05-.02-.1-.04-.15-.05-.07.06-.18.09-.28.08-.1 0-.2-.03-.27-.08-.04.01-.08.03-.11.04-.05.02-.1.05-.15.08-.08.05-.09.12-.12.29 0 .03-.01.07-.02.12l-.01.03c-.03.19-.16.94-.16 1.02zm-.06.17c-.06-.04-.1-.1-.1-.17 0-.09.13-.85.16-1.05l.01-.03c.01-.04.01-.08.02-.12.03-.22.05-.32.2-.41.05-.03.11-.06.16-.08.06-.03.12-.05.18-.06l.05-.01.03.04.01.01c.04.03.1.05.17.05s.14-.01.18-.05c.01 0 .01-.01.02-.01l.03-.04.05.01c.06.01.14.04.22.08.07.03.13.06.17.1.04.03.07.06.09.11.02.04.03.08.05.14.02.08.09.52.14.87.03.23.06.42.06.46 0 .05-.02.1-.05.14-.02.02-.05.05-.07.06-.03.02-.06.03-.1.03a.24.24 0 01-.15-.06l-.02-.02-.04-.14.06 1.42v.01c-.01.08-.05.15-.1.19a.3.3 0 01-.08.04c-.03.01-.06.01-.09.01a.253.253 0 01-.17-.1l-.01-.02-.14-.88c-.05.39-.12.83-.16.89-.04.05-.09.09-.14.1-.05.01-.1.01-.15-.01a.284.284 0 01-.11-.08.239.239 0 01-.05-.14c0-.35.02-.7.04-1.06.01-.1.01-.2.02-.31-.03.07-.08.12-.13.14-.04.01-.08.02-.12.01a.3.3 0 01-.1-.04z"/><path class="fil0" d="M5.24.45c0 .04.01.08.02.12.02.04.04.08.06.1.05.06.13.09.22.09.04 0 .08-.01.11-.02.04-.01.07-.03.1-.06a.3.3 0 00.1-.24.334.334 0 00-.14-.25.302.302 0 00-.16-.05c-.04 0-.09.01-.13.03-.01 0-.02.01-.04.03-.02.01-.03.02-.04.03-.02.02-.04.06-.06.1-.01.03-.02.07-.02.1zm-.13.18a.484.484 0 01-.03-.18c0-.06.02-.11.04-.17.03-.06.06-.12.1-.15.01-.01.04-.03.06-.05.02-.02.05-.03.07-.04.07-.03.14-.05.2-.05.09 0 .18.03.25.08s.13.11.17.19c.03.06.04.12.04.19a.464.464 0 01-.3.45.476.476 0 01-.51-.11.377.377 0 01-.09-.15z"/><path class="fil1" d="M2.56 3.26c0 .16.29.28.37.01l.17-.71c.04-.15.04-.18.03 0-.01.81-.09 1.64-.09 2.45 0 .14.22.28.37.09.06-.08.22-1.38.27-1.69l.28 1.7c.12.16.36.09.38-.12l-.1-2.42c-.01-.14.01-.11.03 0l.23.8c.16.13.31-.02.31-.14 0-.11-.22-1.45-.25-1.61-.02-.12-.05-.18-.13-.24-.09-.08-.31-.16-.44-.19-.14.16-.51.14-.62 0-.14.03-.28.1-.4.17-.17.1-.16.23-.22.58-.02.13-.2 1.2-.2 1.31z"/><path class="fil0" d="M2.64 3.26c0 .02.02.05.04.06.02.01.03.02.05.02h.05c.03-.01.05-.04.07-.09l.17-.7.02-.07c.02-.08.03-.12.09-.12.09-.01.09.05.09.17v.03c0 .39-.03.78-.05 1.16-.02.43-.05.86-.05 1.29 0 .02.01.04.02.05.01.02.03.03.06.04.02.01.04.01.07 0 .03-.01.05-.03.08-.06.03-.04.14-.82.21-1.31.02-.15.04-.28.05-.34l.08-.51.36 2.19c.02.02.05.04.08.04h.05c.02 0 .03-.01.04-.02.03-.02.05-.05.05-.1l-.1-2.41v-.11c.01-.05.04-.08.09-.07.03 0 .06.02.07.05.01.02.02.06.03.1l.22.76c.02.01.04.02.06.02.01 0 .03 0 .04-.01l.03-.03c.02-.02.03-.04.03-.06 0-.04-.03-.27-.07-.54-.07-.43-.15-.96-.17-1.05a.337.337 0 00-.04-.12.5.5 0 00-.07-.08.872.872 0 00-.17-.09c-.07-.03-.13-.05-.19-.07-.09.07-.22.1-.34.1a.53.53 0 01-.32-.1c-.05.01-.1.03-.15.06-.07.03-.13.06-.19.1-.11.06-.12.16-.16.37-.01.04-.01.09-.02.15L2.84 2c-.04.22-.19 1.16-.19 1.26zm-.05.2a.243.243 0 01-.11-.2c0-.11.16-1.06.19-1.28l.01-.04c.01-.05.02-.1.02-.15.04-.26.06-.38.24-.49.06-.04.13-.07.2-.1s.15-.06.22-.08l.05-.01.03.04c0 .01.01.01.02.02.05.04.13.07.22.07s.18-.02.24-.06c.01-.01.02-.01.02-.02l.03-.04.05.01c.07.02.17.05.26.09.08.04.16.08.21.12a.6.6 0 01.11.12c.03.05.04.1.05.17.02.1.11.63.17 1.06.04.28.08.51.08.56 0 .06-.02.12-.06.17-.02.03-.05.05-.09.07-.03.02-.07.03-.12.03-.06 0-.12-.02-.18-.07l-.02-.02-.09-.32L4.42 5v.01c-.01.09-.06.17-.12.22-.03.02-.06.04-.1.05-.04.01-.07.01-.11.01a.305.305 0 01-.2-.12l-.01-.02-.19-1.19c-.07.5-.16 1.13-.21 1.2-.05.06-.11.1-.17.11-.06.02-.12.01-.17-.01a.38.38 0 01-.13-.09.227.227 0 01-.06-.16c0-.43.02-.86.05-1.3l.03-.54-.03.11c-.03.11-.1.17-.17.2-.04.02-.09.02-.13.01-.04-.01-.08-.02-.12-.05zm.56-.93h.02-.02z"/><path class="fil1" d="M3.22.54c0 .14.06.26.13.34.24.27.81.16.81-.34a.47.47 0 00-.67-.41c-.03.01-.1.07-.13.09-.06.06-.14.2-.14.32z"/><path class="fil0" d="M3.3.54c0 .06.01.11.03.15.02.05.05.1.08.13.07.08.17.12.28.12.05 0 .1-.01.14-.02.05-.02.09-.04.12-.07A.413.413 0 004.04.4.364.364 0 003.9.24a.37.37 0 00-.21-.06c-.06 0-.11.01-.17.04-.01.01-.03.02-.05.03-.02.01-.04.03-.05.04-.03.03-.06.07-.08.13-.02.04-.03.09-.03.13zm-.12.21a.654.654 0 01-.04-.21.627.627 0 01.24-.44A.533.533 0 014 .08a.55.55 0 01.25.45c0 .19-.07.33-.18.42-.05.05-.11.08-.18.11-.06.02-.13.03-.2.03-.15 0-.3-.06-.4-.17a.784.784 0 01-.11-.18z"/><path class="fil1" d="M.08 3.93c0 .19.35.34.45.02l.21-.86c.05-.18.04-.22.04 0-.01.99-.11 1.99-.11 2.97 0 .17.27.34.45.11.08-.09.27-1.68.33-2.05l.34 2.06c.14.19.43.11.46-.14l-.12-2.93c-.01-.17.01-.13.04 0l.28.97c.19.15.37-.02.37-.16s-.26-1.76-.3-1.95c-.03-.15-.07-.22-.16-.29-.11-.09-.38-.2-.53-.23-.17.19-.61.17-.75 0-.17.04-.34.13-.48.21-.21.12-.2.28-.27.7C.3 2.51.09 3.81.09 3.95z"/><path class="fil0" d="M.16 3.93c0 .03.02.07.06.09.02.01.05.02.07.03.02 0 .05 0 .07-.01.04-.01.07-.05.09-.12l.21-.85.02-.08c.02-.08.03-.13.09-.13.09-.01.09.06.09.19v.04C.85 3.56.83 4.03.8 4.5.77 5.02.74 5.54.74 6.07c0 .03.01.05.03.08.02.02.05.04.08.06.03.01.06.01.09 0 .04-.01.07-.03.11-.08.04-.05.17-1 .25-1.6.02-.18.05-.34.06-.41l.08-.51.42 2.55c.03.03.07.05.11.06h.06l.06-.03c.04-.03.07-.07.07-.13l-.12-2.92v-.12c.01-.05.04-.08.09-.08.03 0 .06.02.08.05.01.02.02.07.04.12l.27.93c.03.02.06.03.08.03.02 0 .04-.01.06-.01.02-.01.03-.02.05-.04.02-.03.03-.06.03-.09 0-.05-.04-.32-.09-.65-.08-.52-.19-1.17-.21-1.28a.437.437 0 00-.05-.15c-.02-.04-.05-.06-.09-.1-.05-.04-.13-.08-.21-.12-.08-.04-.17-.07-.24-.09l-.01.01c-.1.08-.25.12-.4.12-.15 0-.29-.05-.38-.12-.06.02-.13.04-.19.07-.08.04-.16.08-.23.12-.14.08-.16.2-.2.46-.01.05-.02.11-.03.18l-.01.05C.35 2.71.17 3.84.17 3.96zm-.03.23A.265.265 0 010 3.93c0-.13.19-1.27.23-1.55l.01-.05.03-.18c.05-.32.07-.46.28-.58.08-.04.16-.09.24-.12.09-.04.18-.07.27-.09l.05-.01.03.04.02.02c.06.05.17.08.28.09a.5.5 0 00.3-.08l.03-.03.03-.04.05.01c.09.02.21.06.32.11.1.04.19.09.25.14a.474.474 0 01.19.35c.02.12.13.77.21 1.29.05.34.09.62.09.68 0 .07-.03.14-.07.19-.03.03-.06.06-.1.08-.04.02-.08.03-.13.03a.27.27 0 01-.2-.08l-.02-.02-.15-.52.1 2.44v.01a.37.37 0 01-.14.25c-.03.03-.07.04-.11.06-.04.01-.08.01-.12.01a.303.303 0 01-.23-.14l-.01-.02-.25-1.55c-.08.61-.2 1.47-.27 1.56-.06.07-.13.11-.19.13-.07.02-.13.01-.19-.01a.327.327 0 01-.15-.11.287.287 0 01-.07-.18c0-.52.03-1.05.06-1.57.02-.28.03-.55.04-.83l-.07.31c-.04.13-.11.2-.19.23-.05.02-.1.02-.15.01-.05-.01-.09-.03-.13-.05zM.8 3.02zm-.01 0h.02-.02z"/><path class="fil1" d="M.88.63c0 .17.07.32.16.41.29.33.98.19.98-.41 0-.38-.42-.68-.82-.5-.04.02-.13.08-.16.11C.97.31.87.48.87.63z"/><path class="fil0" d="M.96.63c0 .07.01.14.04.19.03.07.06.12.1.17.09.1.22.15.35.15.06 0 .12-.01.18-.03.06-.02.11-.05.16-.09a.5.5 0 00.16-.38c0-.07-.02-.13-.04-.19a.494.494 0 00-.18-.2.496.496 0 00-.26-.08.63.63 0 00-.22.05c-.01.01-.04.02-.07.04a.38.38 0 00-.06.05c-.03.03-.07.09-.1.16C1 .53.98.58.98.64zM.84.88a.593.593 0 010-.48C.88.31.93.24.98.19c.02-.02.05-.04.09-.07.03-.02.07-.05.09-.06.1-.04.19-.07.29-.07.13 0 .25.04.35.11.1.07.18.16.24.27.04.08.06.17.06.26 0 .22-.08.39-.21.5-.06.06-.13.1-.21.12-.08.03-.16.04-.24.04-.18 0-.35-.07-.47-.2A.675.675 0 01.84.87z"/></g></g></svg>