<svg xmlns="http://www.w3.org/2000/svg" width="60mm" height="60mm" viewBox="0 0 22.14 22.14" shape-rendering="geometricPrecision" text-rendering="geometricPrecision" image-rendering="optimizeQuality" fill-rule="evenodd" clip-rule="evenodd"><defs><style>.str0{stroke:#59656c;stroke-width:.37;stroke-miterlimit:22.9256}.fil0{fill:none}</style></defs><g id="Слой_x0020_1"><g id="_4798179600"><rect class="fil0 str0" x="5.81" y="4.59" width="10.52" height="12.96" rx="1.09" ry="1.09"/><path class="fil0 str0" d="M6.9 4.59h8.35c.6 0 1.09.49 1.09 1.09v1.76H5.82V5.68c0-.6.49-1.09 1.09-1.09z"/><rect class="fil0 str0" x="7.57" y="9.15" width="1.7" height="1.24" rx=".36" ry=".36"/><rect class="fil0 str0" x="10.22" y="9.15" width="1.7" height="1.24" rx=".36" ry=".36"/><rect class="fil0 str0" x="12.87" y="9.15" width="1.7" height="1.24" rx=".36" ry=".36"/><rect class="fil0 str0" x="7.57" y="11.79" width="1.7" height="1.24" rx=".36" ry=".36"/><rect class="fil0 str0" x="10.22" y="11.79" width="1.7" height="1.24" rx=".36" ry=".36"/><rect class="fil0 str0" x="12.87" y="11.79" width="1.7" height="1.24" rx=".36" ry=".36"/><rect class="fil0 str0" x="7.57" y="14.44" width="1.7" height="1.24" rx=".36" ry=".36"/><rect class="fil0 str0" x="10.22" y="14.44" width="1.7" height="1.24" rx=".36" ry=".36"/><rect class="fil0 str0" x="12.87" y="14.44" width="1.7" height="1.24" rx=".36" ry=".36"/></g><path class="fil0" d="M0 0h22.14v22.14H0z"/></g></svg>