<svg xmlns="http://www.w3.org/2000/svg" width="111.518" height="136.541" viewBox="0 0 5.36 6.57" shape-rendering="geometricPrecision" text-rendering="geometricPrecision" image-rendering="optimizeQuality" fill-rule="evenodd" clip-rule="evenodd"><defs><style>.fil0{fill:#59656c;fill-rule:nonzero}</style></defs><g id="Слой_x0020_1"><g id="_1844939456"><path class="fil0" d="M.63 0h4.11c.17 0 .33.07.44.18.11.11.18.27.18.44v5.32c0 .17-.07.33-.18.44-.11.11-.27.18-.44.18H.63c-.17 0-.33-.07-.44-.18a.628.628 0 01-.18-.44V.62C.01.45.08.29.19.18.3.07.46 0 .63 0zm4.11.18H.63C.51.18.4.23.32.31.24.39.19.5.19.62v5.32c0 .12.05.23.13.31.08.08.19.13.31.13h4.11c.12 0 .23-.05.31-.13.08-.08.13-.19.13-.31V.62c0-.12-.05-.23-.13-.31a.439.439 0 00-.31-.13z"/><path class="fil0" d="M.63 0h4.11c.17 0 .33.07.44.18.11.11.18.27.18.44v.96H0V.62C0 .45.07.29.18.18.29.07.45 0 .62 0zm4.11.18H.63C.51.18.4.23.32.31.24.39.19.5.19.62v.78h5V.62c0-.12-.05-.23-.13-.31a.439.439 0 00-.31-.13zM1.13 2.25h.49c.07 0 .14.03.19.08.05.05.08.11.08.19v.26c0 .07-.03.14-.08.19-.05.05-.11.08-.19.08h-.49c-.07 0-.14-.03-.19-.08a.256.256 0 01-.08-.19v-.26c0-.07.03-.14.08-.19.05-.05.11-.08.19-.08zm.49.18h-.49c-.02 0-.04.01-.06.02-.02.02-.02.04-.02.06v.26c0 .02.01.04.02.06.02.02.04.02.06.02h.49c.02 0 .04-.01.06-.02.02-.02.02-.04.02-.06v-.26c0-.02-.01-.04-.02-.06-.02-.02-.04-.02-.06-.02zm.82-.18h.49c.07 0 .14.03.19.08.05.05.08.11.08.19v.26c0 .07-.03.14-.08.19-.05.05-.11.08-.19.08h-.49c-.07 0-.14-.03-.19-.08a.256.256 0 01-.08-.19v-.26c0-.07.03-.14.08-.19.05-.05.11-.08.19-.08zm.49.18h-.49c-.02 0-.04.01-.06.02-.02.02-.02.04-.02.06v.26c0 .02.01.04.02.06.02.02.04.02.06.02h.49c.02 0 .04-.01.06-.02.02-.02.02-.04.02-.06v-.26c0-.02-.01-.04-.02-.06-.02-.02-.04-.02-.06-.02zm.81-.18h.49c.07 0 .14.03.19.08.05.05.08.11.08.19v.26c0 .07-.03.14-.08.19-.05.05-.11.08-.19.08h-.49c-.07 0-.14-.03-.19-.08a.256.256 0 01-.08-.19v-.26c0-.07.03-.14.08-.19.05-.05.11-.08.19-.08zm.49.18h-.49c-.02 0-.04.01-.06.02-.02.02-.02.04-.02.06v.26c0 .02.01.04.02.06.02.02.04.02.06.02h.49c.02 0 .04-.01.06-.02.02-.02.02-.04.02-.06v-.26c0-.02-.01-.04-.02-.06-.02-.02-.04-.02-.06-.02zm-3.1 1.12h.49c.07 0 .14.03.19.08.05.05.08.11.08.19v.26c0 .07-.03.14-.08.19-.05.05-.11.08-.19.08h-.49c-.07 0-.14-.03-.19-.08a.256.256 0 01-.08-.19v-.26c0-.07.03-.14.08-.19.05-.05.11-.08.19-.08zm.49.18h-.49c-.02 0-.04.01-.06.02-.02.02-.02.04-.02.06v.26c0 .02.01.04.02.06.02.02.04.02.06.02h.49c.02 0 .04-.01.06-.02.02-.02.02-.04.02-.06v-.26c0-.02-.01-.04-.02-.06-.02-.02-.04-.02-.06-.02zm.82-.18h.49c.07 0 .14.03.19.08.05.05.08.11.08.19v.26c0 .07-.03.14-.08.19-.05.05-.11.08-.19.08h-.49c-.07 0-.14-.03-.19-.08a.256.256 0 01-.08-.19v-.26c0-.07.03-.14.08-.19.05-.05.11-.08.19-.08zm.49.18h-.49c-.02 0-.04.01-.06.02-.02.02-.02.04-.02.06v.26c0 .02.01.04.02.06.02.02.04.02.06.02h.49c.02 0 .04-.01.06-.02.02-.02.02-.04.02-.06v-.26c0-.02-.01-.04-.02-.06-.02-.02-.04-.02-.06-.02zm.81-.18h.49c.07 0 .14.03.19.08.05.05.08.11.08.19v.26c0 .07-.03.14-.08.19-.05.05-.11.08-.19.08h-.49c-.07 0-.14-.03-.19-.08a.256.256 0 01-.08-.19v-.26c0-.07.03-.14.08-.19.05-.05.11-.08.19-.08zm.49.18h-.49c-.02 0-.04.01-.06.02-.02.02-.02.04-.02.06v.26c0 .02.01.04.02.06.02.02.04.02.06.02h.49c.02 0 .04-.01.06-.02.02-.02.02-.04.02-.06v-.26c0-.02-.01-.04-.02-.06-.02-.02-.04-.02-.06-.02zm-3.1 1.12h.49c.07 0 .14.03.19.08.05.05.08.11.08.19v.26c0 .07-.03.14-.08.19-.05.05-.11.08-.19.08h-.49c-.07 0-.14-.03-.19-.08a.256.256 0 01-.08-.19v-.26c0-.07.03-.14.08-.19.05-.05.11-.08.19-.08zm.49.18h-.49c-.02 0-.04.01-.06.02-.02.02-.02.04-.02.06v.26c0 .02.01.04.02.06.02.02.04.02.06.02h.49c.02 0 .04-.01.06-.02.02-.02.02-.04.02-.06v-.26c0-.02-.01-.04-.02-.06-.02-.02-.04-.02-.06-.02zm.82-.18h.49c.07 0 .14.03.19.08.05.05.08.11.08.19v.26c0 .07-.03.14-.08.19-.05.05-.11.08-.19.08h-.49c-.07 0-.14-.03-.19-.08a.256.256 0 01-.08-.19v-.26c0-.07.03-.14.08-.19.05-.05.11-.08.19-.08zm.49.18h-.49c-.02 0-.04.01-.06.02-.02.02-.02.04-.02.06v.26c0 .02.01.04.02.06.02.02.04.02.06.02h.49c.02 0 .04-.01.06-.02.02-.02.02-.04.02-.06v-.26c0-.02-.01-.04-.02-.06-.02-.02-.04-.02-.06-.02zm.81-.18h.49c.07 0 .14.03.19.08.05.05.08.11.08.19v.26c0 .07-.03.14-.08.19-.05.05-.11.08-.19.08h-.49c-.07 0-.14-.03-.19-.08a.256.256 0 01-.08-.19v-.26c0-.07.03-.14.08-.19.05-.05.11-.08.19-.08zm.49.18h-.49c-.02 0-.04.01-.06.02-.02.02-.02.04-.02.06v.26c0 .02.01.04.02.06.02.02.04.02.06.02h.49c.02 0 .04-.01.06-.02.02-.02.02-.04.02-.06v-.26c0-.02-.01-.04-.02-.06-.02-.02-.04-.02-.06-.02z"/></g></g></svg>