<svg xmlns="http://www.w3.org/2000/svg" width="227.011" height="47mm" viewBox="0 0 57.24 44.79" shape-rendering="geometricPrecision" text-rendering="geometricPrecision" image-rendering="optimizeQuality" fill-rule="evenodd" clip-rule="evenodd"><defs><style>.str0{stroke:#59656c;stroke-width:.95;stroke-miterlimit:22.9256}.fil1{fill:none}</style></defs><g id="Слой_x0020_1"><g id="_1632686848"><rect class="str0" x="11.65" y="5.43" width="33.93" height="33.93" rx="3.4" ry="3.4" fill="#fff"/><path class="fil1 str0" d="M19.91 17.94c-.25-.45-.46-.67-1.13-.66-.46.01-1.09.07-1.39.34-.31.28-.37.9-.04 1.21.17.16.9.48 1.19.55-.11.16-.14.12-.32.31-1.43 1.53-1.43 2.96-.93 5.11.17.74.45 1.17.45 1.94-.01 1.76-.23 2.84 1.97 2.83.66 0 1.72.13 2.23-.22.79-.54.58-1.31.68-1.7.79-.05 2.13.05 2.97.08h6.07c.84-.04 2.17-.13 2.97-.08.1.43-.09 1.2.71 1.73.5.33 2.92.26 3.36.07 1.03-.46.81-1.74.81-2.7 0-.79.28-1.22.46-1.99.94-4.13-.83-4.72-1.26-5.37.33-.08 1.05-.39 1.23-.58.32-.35.27-.94-.1-1.22-.28-.21-1.02-.31-1.42-.31-.64 0-.83.24-1.07.66-.35-.56-.71-1.61-1.02-2.29-.33-.73-.95-1.45-1.59-1.76-1.82-.84-10.68-.81-12.21 0-1.74.93-1.72 2.55-2.61 4.04zm18.19 5.22c.14-.52.04-1.03-.27-1.34-.64-.66-3.62.53-3.85.82-.28.35-.12 1.05.12 1.3.33.34.97.24 1.52.24 1.23 0 2.15.2 2.48-1.02zm-18.98-.12c.34 1.29 1.02 1.14 2.32 1.14.48 0 1.25.1 1.6-.17.29-.22.53-.81.3-1.27-.26-.51-3.23-1.46-3.82-1.02-.31.23-.53.77-.39 1.31zm2.16-4.1c1.34-.03 2.67-.17 4.03-.21 2.3-.06 4.34 0 6.63.01 1.35.01 2.68.15 4.02.19-.43-1.49-.98-2.89-2.34-3.65-1.3-.72-8.6-.73-10 0-1.36.7-1.9 2.22-2.34 3.66z"/><path d="M37.86 33.31h3.36v-3.36c0-.19.15-.34.34-.34.19 0 .34.15.34.34v3.81c0 .01-.01.02-.01.02v.01c0 .01 0 .01-.01.01 0 .01-.01.02-.02.03-.05.09-.14.15-.25.16h-3.74c-.18 0-.34-.15-.34-.34 0-.19.15-.34.34-.34zm0-21.83h3.36v3.36c0 .19.15.34.34.34.19 0 .34-.15.34-.34v-3.81c0-.01-.01-.02-.01-.02V11c0-.01 0-.01-.01-.01 0-.01-.01-.02-.02-.03a.313.313 0 00-.25-.16h-3.74c-.18 0-.34.15-.34.34 0 .19.15.34.34.34zM19.38 33.31h-3.36v-3.36c0-.19-.15-.34-.34-.34-.19 0-.34.15-.34.34v3.81c0 .01.01.02.01.02v.01c0 .01 0 .01.01.01 0 .01.01.02.02.03.05.09.14.15.25.16h3.74c.18 0 .34-.15.34-.34 0-.19-.15-.34-.34-.34zm0-21.83h-3.36v3.36c0 .19-.15.34-.34.34-.19 0-.34-.15-.34-.34v-3.81c0-.01.01-.02.01-.02V11c0-.01 0-.01.01-.01 0-.01.01-.02.02-.03.05-.09.14-.15.25-.16h3.74c.18 0 .34.15.34.34 0 .19-.15.34-.34.34z" fill="#55adad"/></g><path class="fil1" d="M0 0h57.24v44.79H0z"/></g></svg>