<svg xmlns="http://www.w3.org/2000/svg" width="154.054" height="143.803" viewBox="0 0 26.44 24.68" shape-rendering="geometricPrecision" text-rendering="geometricPrecision" image-rendering="optimizeQuality" fill-rule="evenodd" clip-rule="evenodd"><defs><style>.fil1{fill:#59656c;fill-rule:nonzero}</style></defs><g id="Слой_x0020_1"><g id="_1123017264"><rect x=".32" y=".32" width="25.79" height="24.03" rx="2.58" ry="2.41" fill="#fff"/><path class="fil1" d="M2.73 0h20.98c.75 0 1.43.31 1.93.8.5.5.8 1.18.8 1.93v19.22c0 .75-.31 1.43-.8 1.93-.5.5-1.18.8-1.93.8H2.73c-.75 0-1.43-.31-1.93-.8-.49-.49-.8-1.18-.8-1.93V2.73C0 1.98.31 1.3.8.8 1.3.31 1.98 0 2.73 0zm20.98.65H2.73c-.57 0-1.09.23-1.47.61-.38.38-.61.9-.61 1.47v19.22c0 .57.23 1.09.61 1.47.38.38.9.61 1.47.61h20.98c.57 0 1.09-.23 1.47-.61.38-.38.61-.9.61-1.47V2.73c0-.57-.23-1.09-.61-1.47-.38-.38-.9-.61-1.47-.61z"/><path class="fil1" d="M7.28 9.57c-.06-.1-.11-.18-.16-.21-.05-.04-.14-.05-.28-.05-.13 0-.29.01-.44.04-.11.02-.21.05-.26.1-.03.03-.05.09-.06.15 0 .06.01.11.04.15l.01.01c.03.02.13.08.24.13.14.07.3.13.38.15l.47.11-.28.39c-.06.09-.1.12-.16.16-.02.01-.04.03-.08.07-.42.45-.62.87-.69 1.33-.07.48.01 1.03.16 1.69.03.15.08.28.12.41.09.28.18.54.18.92v.59c0 .59.09.93.96.93.1 0 .19 0 .29.01.36.01.8.03.97-.1.25-.17.27-.43.28-.63 0-.1.01-.19.03-.28l.06-.23.24-.02c.41-.03 1.03 0 1.54.03.16.01.3.02.41.02h3.94c.09 0 .21-.01.34-.02.53-.03 1.18-.06 1.61-.04l.24.01.05.23c.02.09.03.18.03.29.01.21.03.47.29.64.09.06.42.09.79.1.48.01.96-.02 1.08-.08.38-.17.36-.7.34-1.18 0-.09-.01-.18-.01-.28 0-.39.08-.64.18-.93.05-.14.09-.28.13-.44.46-2.02-.14-2.59-.5-2.94-.11-.1-.2-.19-.27-.3l-.25-.39.45-.1c.1-.02.26-.08.41-.15.11-.05.2-.1.22-.12l.01-.01c.03-.04.04-.1.04-.16 0-.05-.03-.1-.06-.13l-.01-.01a.655.655 0 00-.25-.08c-.17-.04-.36-.06-.48-.06-.13 0-.21.02-.26.05a.63.63 0 00-.15.21l-.27.48-.29-.47c-.16-.26-.33-.66-.48-1.04-.07-.18-.14-.35-.2-.49-.09-.21-.23-.42-.4-.6-.15-.16-.31-.3-.48-.37-.54-.25-2.2-.37-3.85-.37-1.68 0-3.33.13-3.79.37-.66.35-.88.91-1.11 1.51-.13.33-.26.66-.46 1l-.29.48-.27-.49zm.2-.75l.02.02c.07-.16.14-.32.2-.48.28-.71.54-1.38 1.41-1.85.55-.29 2.32-.44 4.09-.44 1.73 0 3.5.14 4.12.43.25.11.48.3.68.52.21.23.39.5.51.78.07.16.14.33.21.51.07.18.14.36.22.52.16-.11.35-.17.62-.17.17 0 .41.02.62.07.19.04.37.11.49.2a.875.875 0 01.16 1.21c-.01.02-.03.04-.05.06-.08.09-.25.19-.42.27l-.04.02c.46.46 1.05 1.26.56 3.43-.05.2-.1.35-.14.5-.08.23-.15.44-.15.72 0 .08 0 .17.01.26.02.68.05 1.44-.72 1.79-.19.09-.8.14-1.36.13-.47-.01-.93-.07-1.13-.2-.5-.33-.56-.74-.58-1.08-.38 0-.86.02-1.26.04l-.37.02h-3.95c-.15-.01-.28-.01-.43-.02-.39-.02-.83-.04-1.19-.04-.02.32-.07.73-.55 1.06-.35.24-.91.22-1.36.21-.1 0-.2-.01-.27-.01-1.45 0-1.61-.58-1.61-1.57v-.59c0-.27-.07-.48-.14-.71-.05-.14-.1-.29-.14-.47-.17-.73-.26-1.35-.17-1.93.08-.55.3-1.04.72-1.54-.17-.08-.34-.17-.42-.25l-.04-.04a.851.851 0 01-.2-.61c.01-.21.09-.42.23-.57l.04-.04c.15-.13.35-.21.57-.25.18-.04.38-.05.55-.05.29-.01.49.05.65.16zm11.59 3.9a.8.8 0 00.02-.34c-.02-.09-.05-.17-.11-.22-.13-.1-.58-.01-1.03.12-.47.14-.9.32-.99.4-.02.03-.02.09-.02.16.01.11.04.21.08.25.08.08.31.07.55.06.09 0 .18-.01.21-.01.05 0 .18 0 .31.01.5.01.87.02.99-.43zm.65-.46c.04.2.03.41-.03.63-.25.94-.84.92-1.63.91h-.48c-.38.01-.76.02-1.03-.26-.13-.14-.24-.39-.26-.64-.02-.22.02-.46.16-.64.01-.01.02-.03.03-.04.13-.12.69-.39 1.27-.56.62-.18 1.29-.27 1.62 0 .02.02.04.03.05.05.14.15.24.34.28.55zm-12.35.39c.13.51.43.51.96.5h.23c.05 0 .13 0 .23.01.24.01.53.02.62-.05a.35.35 0 00.11-.21c.02-.07.02-.14-.01-.2-.09-.11-.51-.28-.96-.41-.45-.13-.9-.21-1.05-.15-.05.04-.09.11-.12.2-.03.09-.03.2-.01.3zm.97 1.15c-.86.01-1.33.01-1.59-.99-.06-.23-.05-.45.01-.65.07-.23.2-.42.36-.54.02-.02.05-.03.08-.05.3-.15.94-.07 1.53.1.58.17 1.15.43 1.31.65.02.02.03.05.04.07.11.21.12.44.07.65-.06.24-.19.46-.35.58-.28.21-.69.19-1.04.18h-.43zm.57-4.07c.28-.01.58-.03.87-.05.42-.03.84-.05 1.29-.07 1.09-.03 2.1-.02 3.14-.01.39 0 .78.01 1.18.01.51 0 1 .03 1.49.06.23.01.46.03.68.04-.1-.31-.22-.6-.37-.86-.21-.36-.48-.67-.86-.88-.38-.21-1.72-.31-3.08-.31s-2.7.1-3.11.32c-.38.19-.64.51-.85.88-.15.27-.27.56-.37.87zm.91.59c-.44.03-.88.06-1.35.07l-.45.01.13-.43c.15-.48.31-.98.56-1.43.26-.47.61-.88 1.12-1.14.5-.26 1.97-.39 3.41-.39 1.45 0 2.92.13 3.39.39.5.28.85.67 1.11 1.13.25.44.42.93.56 1.44l.12.42-.44-.01c-.4-.01-.78-.03-1.16-.06-.49-.03-.98-.06-1.45-.06-.41 0-.8-.01-1.18-.01-1.03-.01-2.03-.03-3.11.01-.41.01-.84.04-1.27.07z"/><path d="M19.51 19.77h2.28v-2.28c0-.13.1-.23.23-.23s.23.1.23.23v2.62c0 .01 0 .01-.01.02v.02c0 .01-.01.01-.01.02-.04.06-.1.1-.17.11h-2.55c-.13 0-.23-.1-.23-.23s.1-.23.23-.23zm0-14.86h2.28v2.28c0 .13.1.23.23.23s.23-.1.23-.23V4.57c0-.01 0-.01-.01-.02v-.02c0-.01-.01-.01-.01-.02-.04-.06-.1-.1-.17-.11h-2.55c-.13 0-.23.1-.23.23s.1.23.23.23zM6.93 19.77H4.65v-2.28c0-.13-.1-.23-.23-.23s-.23.1-.23.23v2.62c0 .01 0 .01.01.02v.02c0 .01.01.01.01.02.04.06.1.1.17.11h2.55c.13 0 .23-.1.23-.23s-.1-.23-.23-.23zm0-14.86H4.65v2.28c0 .13-.1.23-.23.23s-.23-.1-.23-.23V4.57c0-.01 0-.01.01-.02v-.02c0-.01.01-.01.01-.02.04-.06.1-.1.17-.11h2.55c.13 0 .23.1.23.23s-.1.23-.23.23z" fill="#55adad"/></g></g></svg>