<svg xmlns="http://www.w3.org/2000/svg" width="60mm" height="60mm" viewBox="0 0 16.16 16.16" shape-rendering="geometricPrecision" text-rendering="geometricPrecision" image-rendering="optimizeQuality" fill-rule="evenodd" clip-rule="evenodd"><defs><style>.str0{stroke:#59656c;stroke-width:.27;stroke-miterlimit:22.9256}.fil0{fill:none}</style></defs><g id="Слой_x0020_1"><g id="_4611479840"><path class="fil0 str0" d="M9.88 4.24c0 .32.13.34.28.63.38.73.54 1.26.54 2.12 0 .32-.05.64-.11.9-.03.13-.07.28-.11.4-.25.64-.49 1.07-.99 1.57-.26.26-.54.49-.86.67l-.51.25c-1.03.41-2.02.4-3.06.04-.17-.06-.39-.18-.55-.26-.29-.15-.32-.28-.64-.28-.25 0-.55.35-.28.7.51.67.78.91 1.47 1.37.05.04.07.04.13.07.59.3.93.48 1.64.6.25.04.5.07.75.07h.31c1.04-.03 2-.38 2.87-1.03l.17-.14c.31-.24.67-.65.89-.96.18-.26.3-.48.45-.77.3-.6.46-1.33.47-2.06v-.15c-.01-.5-.08-.99-.23-1.43-.1-.31-.32-.83-.51-1.11l-.33-.48c-.06-.07-.13-.15-.18-.22-.11-.14-.37-.38-.51-.5-.28-.25-.6-.54-.92-.27-.06.06-.13.16-.13.27zm-5.52-.06c0 .1.04.16.11.24l.18.16c.38.39.34.24.28.62-.02.11-.1.49-.08.56.09.33.47.06.62-.02.5-.25.26-.25.75-.01.06.03.13.06.18.09.13.08.36.19.45-.05.03-.08-.01-.19-.02-.28-.12-.73-.19-.5.23-.92.15-.15.29-.21.29-.39 0-.33-.83-.2-.96-.33l-.32-.66c-.05-.08-.11-.13-.18-.14h-.07c-.06.01-.13.05-.17.13l-.32.66c-.12.14-.97 0-.97.34z"/><path class="fil0 str0" d="M5.95 7.52c-.1 0-.55.05-.63.12-.21.19.01.36.11.45l.12.12c.06.05.08.05.12.12-.01.18-.09.39-.09.57 0 .09.12.2.22.2.08 0 .28-.13.35-.17.26-.13.18-.12.35-.04.21.11.38.27.55.16.22-.14-.02-.61.01-.73.03-.05.07-.08.12-.12.16-.12.45-.35.25-.56-.08-.08-.27-.08-.41-.1-.08-.01-.16-.03-.23-.03l-.15-.34c-.06-.13-.11-.25-.27-.25-.15 0-.2.14-.25.25-.04.08-.15.26-.15.34z"/></g><path class="fil0" d="M0 0h16.16v16.16H0z"/></g></svg>