<svg xmlns="http://www.w3.org/2000/svg" width="120.735" height="122.723" viewBox="0 0 3.77 3.83" shape-rendering="geometricPrecision" text-rendering="geometricPrecision" image-rendering="optimizeQuality" fill-rule="evenodd" clip-rule="evenodd"><defs><style>.fil0{fill:#fefefe}.fil1{fill:#59656c;fill-rule:nonzero}</style></defs><g id="Слой_x0020_1"><g id="_2100192096"><path class="fil0" d="M1.07 1.89c-.08 0-.07-.03-.07.15 0 .14-.01 1.5.01 1.55.01.02.14.03.16.04l.48.09c.31.07.85.06 1.17.06.07 0 .2-.02.26-.04.24-.06.34-.18.33-.42-.01-.17.11-.1.19-.26.03-.07.04-.18.01-.26-.04-.09-.12-.1-.01-.18a.24.24 0 00.11-.2.26.26 0 00-.09-.21c-.09-.09.01-.1.05-.18.06-.11 0-.38-.11-.44-.15-.09-.34-.08-.52-.08-.1 0-.54.01-.61 0-.05-.08-.01-.18.02-.25.11-.27.24-.45.24-.74 0-.36-.22-.56-.48-.41-.06.04-.06.16-.07.25-.01.17-.04.37-.16.49a.55.55 0 01-.09.07c-.03.02-.06.05-.09.08l-.17.16c-.17.16-.31.35-.4.58-.05.11-.08.15-.17.15z"/><path class="fil1" d="M1.07 1.95h-.01v.26c0 .39-.01 1.27 0 1.35v-.02c.04.01.1.02.11.02.14.01.34.07.49.09.28.06.75.06 1.08.06h.08c.03 0 .07 0 .12-.01.05-.01.1-.02.13-.02.11-.03.18-.07.23-.12.04-.06.06-.13.06-.24 0-.13.04-.16.1-.19.03-.02.06-.04.09-.1a.36.36 0 00.02-.11c0-.04 0-.07-.01-.1-.01-.02-.02-.03-.03-.05 0-.01-.01-.01-.01-.02-.04-.06-.05-.11.06-.18.02-.02.04-.04.06-.07.01-.03.02-.06.02-.09 0-.04-.01-.07-.02-.1s-.04-.05-.06-.07c-.1-.11-.05-.15.01-.21l.04-.04c.02-.04.02-.12 0-.2-.02-.07-.05-.14-.09-.16-.13-.08-.29-.07-.45-.07H2.4l-.01-.02c-.06-.1-.02-.21.02-.3v-.01c.03-.07.06-.14.09-.2.08-.17.15-.32.15-.51a.58.58 0 00-.06-.28.236.236 0 00-.08-.09.193.193 0 00-.1-.03c-.04 0-.09.01-.14.04-.03.02-.03.11-.04.18v.03c-.01.09-.02.19-.04.28-.03.1-.07.18-.14.25-.02.02-.03.03-.05.04-.02.02-.03.02-.04.04-.01.01-.03.02-.04.03-.02.01-.03.03-.05.04l-.17.16a1.884 1.884 0 00-.39.56c-.03.06-.05.1-.08.13-.04.04-.08.05-.15.05zm-.03-.12h.03c.03 0 .05-.01.07-.02.02-.02.03-.05.05-.1.05-.12.11-.22.18-.32.07-.1.15-.19.23-.27.05-.05.11-.11.17-.16.01-.01.03-.02.05-.04.02-.01.03-.03.05-.04.02-.01.03-.03.04-.03.01-.01.03-.02.04-.04.05-.05.08-.12.11-.19.02-.08.03-.17.04-.25V.34c.01-.1.02-.23.1-.28.07-.04.14-.06.2-.06s.12.02.17.05c.05.03.09.08.12.13.05.09.08.2.08.33 0 .22-.08.38-.16.56-.03.06-.06.13-.09.19v.01c-.02.05-.05.11-.04.16h.61c.17 0 .35 0 .51.09.07.04.12.14.14.24.02.1.02.21-.02.28-.02.03-.04.05-.06.07-.01.01-.02.02 0 .04.03.03.05.06.08.1.02.04.04.09.03.16 0 .05-.02.1-.04.14-.02.05-.06.08-.1.11l-.03.02.01.01c.01.02.03.04.05.07.02.04.03.1.02.15 0 .06-.02.11-.04.16-.04.09-.09.12-.14.15-.03.02-.05.03-.05.09 0 .14-.02.24-.08.32-.06.08-.16.13-.29.16-.04.01-.09.02-.15.03-.05.01-.09.01-.13.01h-.08c-.33 0-.81 0-1.1-.06l-.48-.09c-.02 0-.08-.01-.12-.02-.04-.01-.08-.03-.09-.06-.02-.05-.01-.98-.01-1.39v-.24c0-.05 0-.08.01-.1.02-.05.05-.04.09-.04zm.02 1.73v-.01.01zm0 0v-.01.01z"/><path class="fil0" d="M.08 3.73c.09.01.3 0 .4 0 .09 0 .1 0 .16-.04.04-.03.08-.07.09-.12.01-.06.01-1.55.01-1.63 0-.07-.03-.1-.08-.12C.54 1.79.41 1.8.27 1.8l-.2-.01c-.01.54 0 1.15 0 1.7 0 .07-.02.18.02.22z"/><path class="fil1" d="M.12 3.68c.07.01.17 0 .25 0H.5c.06 0 .07 0 .12-.03.02-.01.03-.02.04-.04.01-.01.02-.03.02-.04 0-.02.01-.22.01-.48V1.96c0-.02 0-.04-.01-.05C.67 1.9.66 1.9.65 1.89c-.09-.02-.19-.02-.29-.02H.28l-.14-.01c-.01.35 0 .72 0 1.09v.73zm.26.12c-.11 0-.24.01-.31-.01H.05l-.01-.02C0 3.72 0 3.63.01 3.56V1.75l.26.01h.08c.11 0 .22 0 .32.02.04.01.07.03.1.06.02.03.03.07.03.11v1.14c0 .27 0 .48-.01.51-.01.03-.02.06-.04.09s-.05.05-.07.07c-.07.05-.09.05-.18.05H.38z"/></g></g></svg>