<svg xmlns="http://www.w3.org/2000/svg" width="60mm" height="60mm" viewBox="0 0 13.29 13.29" shape-rendering="geometricPrecision" text-rendering="geometricPrecision" image-rendering="optimizeQuality" fill-rule="evenodd" clip-rule="evenodd"><path d="M5.11 6.59c-.16 0-.13-.05-.13.28 0 .27-.02 2.82.01 2.91.01.03.26.06.3.07l.9.18c.57.13 1.59.11 2.19.11.14 0 .37-.04.5-.07.45-.11.63-.33.62-.79-.01-.33.21-.18.36-.49.06-.13.08-.34.02-.49-.07-.16-.23-.19-.01-.34.1-.07.2-.21.2-.38.01-.2-.08-.3-.18-.39-.16-.17.03-.2.1-.33.12-.21 0-.71-.2-.83-.29-.17-.65-.15-.97-.15-.19 0-1.02.01-1.14-.01-.09-.15-.01-.33.05-.47.21-.51.46-.84.46-1.38 0-.67-.41-1.05-.9-.77-.12.07-.12.3-.13.48-.02.32-.08.7-.31.91-.06.06-.11.09-.16.14l-.17.14-.31.3c-.31.31-.57.66-.76 1.09-.09.2-.14.29-.33.28zm-1.85 3.46c.17.03.56.01.75.01.17 0 .19.01.31-.07a.38.38 0 00.17-.22c.03-.11.01-2.91.01-3.05 0-.12-.05-.2-.16-.22-.23-.06-.47-.04-.73-.04l-.38-.01c-.02 1.01 0 2.16 0 3.19 0 .13-.03.33.04.42z" fill="#fefefe" stroke="#59656c" stroke-width=".22" stroke-miterlimit="22.926"/><path fill="none" d="M0 0h13.29v13.29H0z"/></svg>