<svg xmlns="http://www.w3.org/2000/svg" width="134.354" height="165.459" viewBox="0 0 8.37 10.31" shape-rendering="geometricPrecision" text-rendering="geometricPrecision" image-rendering="optimizeQuality" fill-rule="evenodd" clip-rule="evenodd"><defs><style>.fil0{fill:#59656c;fill-rule:nonzero}</style></defs><g id="Слой_x0020_1"><g id="_1839450688"><path class="fil0" d="M4.62 9.9c.02.08.07.13.12.16.02.01.04.02.06.02.02 0 .04 0 .06-.01.04-.01.08-.04.11-.09.09-.45.12-.97.1-1.45-.02-.43-.08-.82-.2-1.05-.05-.09-.14-.26-.26-.45-.24-.42-.55-.94-.56-1.12-.01-.15.02-.68.07-1.18.05-.46.11-.9.15-.99l.06-.12.11.07c.19.12.35.28.51.44.16.16.33.32.5.42.06.03.44.12.84.15.19.02.38.02.53-.01.12-.02.2-.05.22-.1v-.04c-.01-.11-.28-.18-.63-.26-.31-.07-.66-.16-.98-.32l-.03-.01-.02-.02c-.21-.3-.4-.55-.56-.75-.15-.18-.27-.31-.35-.36-.13-.09-.52-.19-.93-.25-.37-.06-.75-.08-.91-.02-.21.07-.42.12-.62.16-.42.09-.79.17-1.01.48-.07.1-.12.16-.17.23-.11.15-.22.29-.33.45-.1.14-.2.28-.24.41-.04.1-.04.18.02.24s.18-.03.32-.17c.12-.12.24-.28.35-.43.2-.26.38-.5.55-.56.05-.02.5-.12.87-.16.23-.03.43-.03.53.01l.05.02.01.05c.06.23-.01.72-.06 1.14-.02.17-.04.32-.05.44-.01.09-.02.19-.03.27-.04.42-.07.71.19 1.07.16.22.38.46.58.68.06.07.12.13.2.22.67.75.68 1.2.69 1.75.01.3.01.62.14 1.05zm.01.37a.5.5 0 01-.24-.3c-.14-.46-.15-.8-.15-1.11-.01-.5-.02-.91-.63-1.6-.05-.06-.12-.13-.19-.21-.2-.22-.42-.47-.59-.7-.31-.44-.28-.76-.23-1.23.01-.08.02-.17.03-.27.01-.11.03-.28.06-.45.05-.35.1-.76.08-.98-.08-.01-.21 0-.35.02-.35.04-.77.13-.81.14-.1.04-.27.26-.45.49-.12.16-.25.32-.37.45-.23.24-.45.36-.65.17C0 4.55 0 4.38.06 4.2c.06-.15.17-.31.27-.46.12-.16.23-.31.33-.45.06-.08.13-.17.17-.23.28-.37.68-.46 1.15-.57.19-.04.39-.09.6-.15.2-.07.61-.05 1.02.01.44.06.87.18 1.03.29.1.07.23.21.4.41.16.19.35.44.56.74.29.14.62.22.91.29.44.1.79.19.81.47 0 .05 0 .09-.01.13-.05.15-.2.23-.4.26-.17.03-.38.03-.59.01-.42-.03-.86-.14-.93-.18-.2-.11-.38-.28-.55-.45-.11-.11-.22-.22-.34-.31-.03.17-.06.46-.09.77-.05.49-.09 1-.07 1.14.01.13.3.62.53 1.02.11.19.21.36.26.46.14.26.21.69.23 1.15.02.5-.02 1.05-.11 1.52v.02l-.01.01c-.06.11-.15.19-.26.22-.05.01-.1.02-.15.02-.05 0-.1-.02-.15-.04z"/><path class="fil0" d="M3.43 7.88a3.56 3.56 0 00-.29-.41c-.07-.09-.15-.18-.21-.24-.13.15-.25.35-.36.54-.04.07-.08.14-.12.2-.31.49-.53.69-1.02 1.11l-.03.02c-.04.03-.09.07-.15.11-.19.14-.46.34-.35.57.08.16.2.17.34.1.15-.07.33-.21.53-.36.14-.1.28-.22.43-.32.33-.22.54-.37.7-.54.16-.17.3-.37.48-.7 0 0 .02-.04.03-.05l.01-.02zm-.11-.56c.15.18.29.39.34.5l.03.05-.02.05-.03.06-.01.02c0 .01-.01.01-.01.03l-.02.04c-.2.35-.34.57-.52.75-.18.18-.39.34-.74.57-.14.1-.29.21-.42.31-.21.16-.4.31-.57.39-.28.13-.5.12-.66-.21-.19-.4.17-.67.43-.86.05-.04.1-.07.13-.1l.03-.02c.47-.41.68-.6.97-1.06.04-.06.08-.13.12-.2.14-.24.29-.49.48-.66l.07-.06.08.05c.09.06.21.2.33.35zM4.11 0c.3 0 .58.12.78.32.2.2.32.47.32.78 0 .3-.12.58-.32.78-.2.2-.47.32-.78.32-.3 0-.58-.12-.78-.32-.2-.2-.32-.47-.32-.78 0-.3.12-.58.32-.78.2-.2.47-.32.78-.32zm.61.49a.87.87 0 00-1.22 0 .87.87 0 000 1.22.87.87 0 001.22 0 .87.87 0 000-1.22zm1.79 4.72h1.41a.445.445 0 01.45.45v1.91a.445.445 0 01-.45.45H6.51c-.12 0-.24-.05-.32-.13a.463.463 0 01-.13-.32V5.66c0-.12.05-.24.13-.32.08-.08.2-.13.32-.13zm1.41.24H6.51a.204.204 0 00-.21.21v1.91c0 .06.02.12.06.15.04.04.09.06.15.06h1.41c.06 0 .12-.02.15-.06.04-.04.06-.09.06-.15V5.66a.204.204 0 00-.21-.21z"/><path class="fil0" d="M7.21 4.63c.17 0 .33.08.44.21.11.13.17.3.17.49v.12H6.6v-.12c0-.19.07-.36.17-.49.11-.13.26-.21.44-.21zm.26.36a.347.347 0 00-.26-.13c-.1 0-.19.05-.26.13-.05.06-.09.13-.1.22h.72a.554.554 0 00-.1-.22z"/></g></g></svg>