<svg xmlns="http://www.w3.org/2000/svg" width="226.772" height="60mm" viewBox="0 0 23.81 23.81" shape-rendering="geometricPrecision" text-rendering="geometricPrecision" image-rendering="optimizeQuality" fill-rule="evenodd" clip-rule="evenodd"><defs><style>.str0{stroke:#59656c;stroke-width:.4;stroke-miterlimit:22.9256}.fil0{fill:none}</style></defs><g id="Слой_x0020_1"><g id="_4936420976"><path class="fil0 str0" d="M12.44 19.96c.16.54.76.57.97.14.29-1.48.27-3.5-.18-4.37-.26-.52-1.33-2.19-1.36-2.57-.04-.47.22-3.29.36-3.56.63.39 1.11 1.11 1.72 1.44.23.13 3.06.69 2.98-.19-.05-.58-1.63-.52-2.83-1.14-.72-1.02-1.29-1.71-1.59-1.92-.46-.33-2.63-.69-3.27-.48-1.19.39-2.24.33-2.85 1.15-.29.39-.56.74-.85 1.15-.34.48-.7 1.02-.35 1.35.6.57 1.68-1.68 2.26-1.91.13-.05 1.87-.4 2.21-.25.13.5-.15 1.95-.2 2.59-.08 1.02-.27 1.6.31 2.4.37.52.91 1.07 1.32 1.53 1.71 1.93.75 2.62 1.36 4.64z"/><path class="fil0 str0" d="M10.85 16.5c-.16-.31-.78-1.16-1.08-1.36-.38.35-.68.94-.98 1.41-.52.82-.88 1.14-1.72 1.87-.33.29-1.21.72-.89 1.38.45.93 1.37-.15 2.48-.91 1.14-.77 1.41-1 2.06-2.16.08-.15.03-.04.12-.23z"/><circle class="fil0 str0" cx="11.77" cy="5.07" r="1.66"/><rect class="fil0 str0" x="15.25" y="12.19" width="3.51" height="4.36" rx=".57" ry=".5"/><path class="fil0 str0" d="M17 11.21c.46 0 .83.44.83.98h-1.65c0-.54.37-.98.83-.98z"/></g><path class="fil0" d="M0 0h23.81v23.81H0z"/></g></svg>