<svg xmlns="http://www.w3.org/2000/svg" width="60mm" height="60mm" viewBox="0 0 21.42 21.42" shape-rendering="geometricPrecision" text-rendering="geometricPrecision" image-rendering="optimizeQuality" fill-rule="evenodd" clip-rule="evenodd"><defs><style>.str0{stroke:#59656c;stroke-width:.36;stroke-miterlimit:22.9256}.fil0{fill:none}</style></defs><g id="Слой_x0020_1"><g id="_1838813120"><path class="fil0 str0" d="M7.41 7.04l.27.18c.09-.05 1.43-1.85 1.55-2.01.08-.1.14-.19.21-.29.21-.26.45-.64.63-.88l.62-.89c.07-.1.15-.17.17-.32a.393.393 0 00-.17-.37c-.33-.21-.52.06-.64.25L8.88 4.52c-.12.19-.24.44-.36.62l-.37.62c-.06.11-.13.2-.19.31-.11.2-.5.8-.55.96z"/><path d="M5.88 8.57c-.05.05-.16.16-.04.3.04.05.2.15.27.19.13.09.43.38.63.2.25-.23-.13-.43-.24-.51-.12-.09-.43-.39-.61-.18z" fill="#59656c"/><path class="fil0 str0" d="M10.84 5.13c0 .43.18.78.39 1.02.72.81 2.42.47 2.42-1.02 0-.94-1.02-1.68-2.01-1.22-.09.04-.31.19-.38.27-.18.18-.41.6-.41.95zm3.23 6.09c-.07-.36.28-3.52.04-3.72-.28-.23-.57-.31-.95-.4-.41.48-1.51.42-1.85 0-.83.19-1.14.57-1.8.94-.13.07-.46.29-.58.32L7.3 7.05c-.71-.58-1.38.13-.62.88.51.51 1.17 1.18 1.69 1.68.13.12.28.24.55.21.21-.02 1.11-.54 1.4-.71.09.7.28 1.47.27 2.03l-1.17 7.31c0 .43.66.84 1.11.27l1.7-5.04 1.54 5.06c.35.47 1.06.26 1.13-.34l-.84-7.21z"/></g><path class="fil0" d="M0 0h21.42v21.42H0z"/></g></svg>