<svg xmlns="http://www.w3.org/2000/svg" width="98.533" height="47.57mm" viewBox="0 0 4.05 7.39" shape-rendering="geometricPrecision" text-rendering="geometricPrecision" image-rendering="optimizeQuality" fill-rule="evenodd" clip-rule="evenodd"><defs><style>.fil0{fill:#59656c;fill-rule:nonzero}</style></defs><g id="Слой_x0020_1"><g id="_1773688976"><path class="fil0" d="M.8 2.07l.01.01c.03-.04.08-.1.14-.18.19-.24.45-.59.48-.64.01-.01.02-.03.03-.04.02-.03.04-.06.06-.08.05-.06.11-.14.16-.22.04-.06.08-.11.11-.16l.27-.39c.01-.01.01-.02.02-.03.02-.02.03-.04.04-.07 0-.02 0-.04-.01-.05C2.1.2 2.09.19 2.08.18 2.04.15 2.01.16 1.99.17c-.03.02-.06.06-.08.09l-.51.79c-.02.03-.05.08-.07.13-.03.05-.05.1-.08.14l-.16.27c-.01.03-.03.05-.04.07-.01.02-.03.04-.04.06-.02.03-.05.08-.08.14-.04.07-.1.16-.12.21zm-.02.17l-.17-.11.02-.05c.02-.06.1-.19.16-.3.03-.06.07-.11.08-.13.01-.03.03-.05.04-.07.01-.02.03-.04.04-.06l.16-.27c.02-.04.05-.08.08-.13s.05-.09.08-.14l.51-.79c.03-.05.07-.1.13-.14.07-.04.15-.05.26.01.04.02.07.06.09.1.02.04.03.08.02.13-.01.08-.04.11-.07.15l-.02.02-.27.39c-.03.04-.07.1-.11.16-.05.08-.11.16-.17.23-.02.03-.04.05-.06.08-.01.01-.02.03-.03.05-.03.05-.29.39-.48.64-.11.14-.19.24-.22.26l-.04.02-.04-.02z"/><path d="M.04 2.77c-.02.02-.07.07-.02.13.02.02.09.06.12.08.06.04.19.17.27.09.11-.1-.05-.19-.11-.22-.05-.04-.19-.17-.27-.08z" fill="#59656c"/><path class="fil0" d="M2.28 1.27c0 .08.01.15.04.21.03.07.07.13.11.18.1.11.24.16.38.16.07 0 .13-.01.2-.03.06-.02.12-.06.17-.1a.546.546 0 00.12-.63.51.51 0 00-.19-.22.553.553 0 00-.29-.09c-.08 0-.16.02-.24.05-.02.01-.05.03-.07.05-.03.02-.06.04-.07.06-.04.04-.08.1-.11.18-.03.06-.04.12-.04.18zm-.11.26a.751.751 0 01-.05-.26c0-.08.02-.17.06-.24.04-.09.1-.17.14-.22.02-.02.06-.05.09-.07.04-.02.07-.05.1-.06a.67.67 0 01.67.04c.11.07.2.17.25.28.04.08.06.18.06.27 0 .23-.09.41-.22.53a.69.69 0 01-.47.17c-.19 0-.37-.07-.5-.21-.05-.06-.1-.14-.14-.23zm1.36 2.39c-.01-.08 0-.31.02-.58.03-.43.06-.96.03-.99a.95.95 0 00-.17-.1c-.05-.02-.11-.03-.17-.05-.01 0-.01.01-.02.01-.11.09-.27.13-.42.12-.16 0-.31-.05-.41-.13l-.01-.01c-.21.06-.34.14-.48.24-.07.05-.15.1-.24.15-.01.01-.03.02-.05.03-.07.04-.17.1-.22.11l-.04.01c-.21-.17-.56-.42-.74-.59-.08-.07-.16-.09-.22-.07-.02.01-.04.02-.05.03-.01.01-.02.03-.02.05-.01.07.02.16.12.25l.19.19c.18.18.38.38.55.54.02.02.05.04.08.06.03.01.06.02.1.02.07-.01.4-.2.55-.28l.13-.08.02.11c.01.1.03.21.05.31.04.21.07.42.07.58v.01l-.51 3.18c0 .03.01.06.03.08.02.03.05.05.09.06.03.01.07.02.11.01.04-.01.08-.03.11-.08l.81-2.41.74 2.42c.04.04.08.06.13.07.02 0 .05 0 .07-.01.02-.01.05-.02.07-.03A.22.22 0 003.91 7l-.37-3.13zm.17-.57c-.02.27-.03.49-.02.54v.01l.37 3.15v.01c-.01.11-.07.2-.14.26-.04.03-.08.05-.12.06-.04.01-.09.02-.13.01a.354.354 0 01-.24-.14l-.01-.01-.61-1.99-.67 1.98-.01.01a.37.37 0 01-.2.14.338.338 0 01-.42-.3l.51-3.19c0-.15-.03-.35-.07-.55l-.03-.2c-.17.1-.45.25-.54.26a.343.343 0 01-.18-.03.273.273 0 01-.12-.09C.9 3.12.7 2.92.52 2.73l-.19-.19C.19 2.4.15 2.26.17 2.15a.262.262 0 01.18-.21c.1-.03.23-.01.36.1l.67.54a1 1 0 00.14-.08c.02-.01.04-.03.06-.03.09-.05.16-.1.23-.14.17-.11.31-.21.58-.27l.05-.01.03.04c.01.01.01.02.02.02.07.06.19.09.31.09s.24-.03.32-.09l.03-.03.03-.04.05.01c.08.02.16.04.23.07.08.03.14.07.21.12.1.08.06.66.03 1.12z"/></g></g></svg>