<svg xmlns="http://www.w3.org/2000/svg" width="137" height="118.459" viewBox="0 0 21.91 18.95" shape-rendering="geometricPrecision" text-rendering="geometricPrecision" image-rendering="optimizeQuality" fill-rule="evenodd" clip-rule="evenodd"><defs><style>.fil0{fill:#fff}.fil2{fill:#55adad;fill-rule:nonzero}</style></defs><g id="Слой_x0020_1"><path class="fil0" d="M2.98 4.58c-.23-.41-.42-.62-1.03-.61-.42.01-1 .07-1.28.31-.29.26-.34.82-.03 1.11.16.15.82.44 1.09.5-.1.14-.13.11-.29.29C.13 7.58.13 8.89.59 10.87c.16.67.41 1.08.41 1.77-.01 1.61-.21 2.6 1.8 2.6.61 0 1.58.12 2.05-.21.72-.49.53-1.2.62-1.56.72-.05 1.95.04 2.72.07h5.57c.77-.04 1.99-.12 2.72-.08.09.4-.09 1.1.65 1.58.46.3 2.67.24 3.08.06.94-.42.75-1.59.74-2.48 0-.73.26-1.12.42-1.82.86-3.78-.76-4.32-1.15-4.93.3-.07.96-.35 1.12-.53.29-.32.24-.86-.1-1.12-.26-.19-.94-.29-1.3-.28-.59 0-.76.22-.98.61-.32-.51-.65-1.47-.93-2.1-.3-.67-.87-1.33-1.46-1.61C14.9.07 6.78.1 5.38.84c-1.6.85-1.57 2.34-2.4 3.7zm16.67 4.78c.13-.48.03-.94-.25-1.23-.59-.61-3.32.49-3.53.75-.26.32-.11.96.11 1.19.3.31.89.22 1.39.22 1.13 0 1.97.19 2.27-.94zM2.26 9.25c.31 1.18.93 1.05 2.12 1.05.44 0 1.14.1 1.47-.15.27-.2.48-.74.27-1.16-.24-.47-2.96-1.33-3.51-.93-.29.21-.49.71-.36 1.2zm1.98-3.76c1.22-.03 2.45-.15 3.69-.19 2.11-.06 3.98 0 6.08.01 1.24.01 2.46.14 3.69.17-.39-1.36-.9-2.65-2.14-3.34-1.2-.66-7.88-.67-9.17 0-1.24.64-1.75 2.04-2.15 3.35z"/><path d="M2.71 4.72c-.09-.16-.17-.29-.28-.36-.1-.07-.25-.1-.49-.1-.19 0-.43.02-.64.06-.18.04-.35.09-.44.17l-.02.02c-.07.08-.12.19-.12.32-.01.12.02.24.1.32l.02.02c.05.05.21.13.38.21.21.1.44.19.57.22l.44.1-.26.37c-.08.11-.13.15-.19.2-.03.02-.07.05-.13.12-.61.65-.91 1.28-1.01 1.97-.1.71.01 1.49.24 2.45.05.22.11.41.18.6.13.39.24.74.24 1.25 0 .14 0 .27-.01.39 0 .15-.01.3 0 .43 0 .92.14 1.47 1.51 1.47.13 0 .27 0 .41.01.53.02 1.17.04 1.47-.16.42-.29.44-.7.46-1.01.01-.14.01-.26.04-.37l.05-.21.22-.01c.57-.04 1.43.01 2.16.05.22.01.43.02.59.03h5.57c.13-.01.31-.01.49-.02.74-.04 1.65-.09 2.25-.05l.23.01.05.22c.03.12.03.24.04.38.02.32.04.74.48 1.02.15.1.65.15 1.19.16.69.01 1.41-.04 1.59-.12.63-.28.6-1.09.57-1.81 0-.13-.01-.26-.01-.39 0-.52.11-.87.24-1.26.06-.2.13-.4.19-.63.67-2.93-.22-3.78-.76-4.3-.14-.14-.26-.25-.35-.39l-.23-.36.42-.1c.15-.03.39-.13.61-.23.17-.08.32-.16.36-.21l.03-.03c.07-.09.09-.21.08-.32a.486.486 0 00-.13-.29l-.03-.02c-.07-.05-.23-.1-.41-.14-.25-.06-.53-.08-.71-.08-.22 0-.36.04-.45.1-.1.07-.17.19-.26.35l-.25.45-.27-.43c-.22-.36-.45-.92-.66-1.44-.1-.25-.2-.5-.29-.7-.14-.31-.35-.63-.59-.89-.22-.25-.47-.45-.72-.56-.79-.37-3.15-.54-5.5-.54-2.39 0-4.75.18-5.42.54-.98.52-1.3 1.34-1.64 2.21-.18.45-.36.92-.64 1.38L3 5.23l-.25-.45zm.06-.86c.06.04.12.09.17.14.14-.29.26-.59.37-.88.38-.98.74-1.9 1.92-2.52.75-.4 3.23-.61 5.7-.61 2.43 0 4.89.19 5.76.6.33.15.64.4.92.7.28.31.53.68.69 1.06.1.22.2.46.3.72.13.32.26.65.39.93.04-.04.09-.08.14-.12.19-.14.44-.21.8-.21.22 0 .55.03.84.09.25.05.49.14.64.25.02.02.05.04.07.06.2.18.31.43.33.69.02.25-.04.52-.2.74-.02.03-.04.06-.06.08-.1.11-.32.24-.55.35-.09.04-.18.08-.26.11.63.61 1.65 1.62.91 4.85-.06.27-.13.49-.2.69-.11.34-.22.65-.21 1.07 0 .11.01.24.01.38.03.91.07 1.93-.93 2.38-.26.11-1.09.19-1.85.17-.64-.01-1.26-.09-1.51-.26-.69-.45-.73-1.04-.75-1.49v-.05c-.56-.01-1.31.03-1.93.06l-.51.03H8.18l-.6-.03c-.6-.03-1.31-.07-1.83-.06v.04c-.02.44-.05 1.02-.72 1.48-.46.31-1.21.29-1.83.27-.14 0-.28-.01-.39-.01C.9 15.56.7 14.8.7 13.49v-.44c0-.13 0-.26.01-.39 0-.41-.1-.72-.21-1.06-.06-.2-.13-.4-.19-.65C.07 9.93-.05 9.08.07 8.28c.11-.8.45-1.52 1.13-2.25-.07-.03-.13-.06-.2-.09-.23-.11-.45-.23-.55-.32L.4 5.57c-.18-.21-.26-.48-.25-.75.01-.26.11-.52.29-.7l.05-.05c.18-.16.45-.26.73-.32.25-.05.52-.07.74-.07.37-.01.63.06.83.19zm16.59 5.41c.05-.19.06-.38.03-.55a.8.8 0 00-.2-.4l-.01-.01c-.23-.18-.92-.06-1.6.14-.7.21-1.35.49-1.48.61-.06.08-.07.21-.06.34.02.19.08.36.16.44.15.16.53.15.89.14.11 0 .23-.01.29-.01.1 0 .27 0 .43.01.78.02 1.35.03 1.55-.72zm.62-.67c.05.26.04.54-.04.82-.32 1.2-1.1 1.19-2.15 1.16h-.69c-.5.01-1 .03-1.34-.32-.16-.17-.3-.49-.33-.81-.03-.28.02-.57.2-.79.01-.01.02-.03.04-.04.17-.16.94-.52 1.73-.76.83-.25 1.73-.36 2.15-.03l.06.06c.18.19.3.43.36.7zm-17.43.56c.22.84.68.83 1.51.83h.32c.07 0 .19 0 .31.01.36.01.8.03.97-.1.09-.07.18-.22.22-.38a.61.61 0 00-.03-.4c-.13-.18-.77-.45-1.45-.64-.68-.2-1.36-.31-1.6-.19h-.01c-.1.07-.19.21-.23.37-.05.16-.06.33-.01.51zm1.51 1.43c-1.13.01-1.76.02-2.1-1.28-.08-.29-.06-.58.01-.83.09-.29.25-.54.46-.68l.09-.06c.39-.19 1.24-.08 2.04.15.79.23 1.56.58 1.77.87.02.03.04.05.05.08.13.26.14.55.08.81-.07.3-.24.58-.44.73-.34.26-.9.24-1.36.22-.09 0-.18-.01-.29-.01h-.32zm.59-5.43c.48-.02.96-.05 1.45-.08.6-.04 1.19-.08 1.82-.09 1.54-.04 2.95-.03 4.42-.01.55.01 1.1.01 1.67.02.71 0 1.4.05 2.09.09.4.02.8.05 1.19.07-.16-.52-.35-1.02-.6-1.46-.31-.53-.71-.99-1.28-1.3-.56-.31-2.48-.46-4.42-.46s-3.87.15-4.47.46c-.56.29-.96.76-1.26 1.3-.25.45-.44.96-.61 1.47zm1.49.52c-.63.04-1.25.08-1.9.1l-.42.01.12-.4c.21-.67.44-1.37.78-1.99.36-.64.83-1.19 1.51-1.55.68-.35 2.73-.53 4.74-.53 2.03 0 4.07.18 4.71.54.68.38 1.15.91 1.51 1.53.35.61.58 1.29.78 1.99l.11.4-.41-.01c-.56-.02-1.09-.05-1.63-.08-.69-.04-1.38-.09-2.06-.09-.58 0-1.13-.01-1.67-.02-1.46-.02-2.86-.04-4.4.01-.59.02-1.19.06-1.8.09z" fill="#59656c" fill-rule="nonzero"/><circle class="fil0" cx="12.26" cy="11.6" r="4.79"/><path class="fil2" d="M12.26 6.51a5.088 5.088 0 015.09 5.09 5.088 5.088 0 01-5.09 5.09 5.088 5.088 0 01-5.09-5.09 5.088 5.088 0 015.09-5.09zm3.17 1.92a4.466 4.466 0 00-3.17-1.31c-1.24 0-2.36.5-3.17 1.31s-1.31 1.93-1.31 3.17.5 2.36 1.31 3.17 1.93 1.31 3.17 1.31 2.36-.5 3.17-1.31 1.31-1.93 1.31-3.17-.5-2.36-1.31-3.17z"/><path d="M19.54 18.5l-3.71-3.71c-.12.12-.23.24-.36.35l3.71 3.71c.06.06.19.03.29-.07.1-.1.13-.23.07-.29z" fill="#55adad"/><path class="fil2" d="M19.49 18.54l-3.67-3.67-.13.13-.14.13 3.67 3.67c.01.01.04.02.07.01.04-.01.09-.04.13-.08.04-.04.07-.09.08-.13.01-.03.01-.06-.01-.07zm-3.63-3.8l3.71 3.71c.05.05.06.11.04.19-.01.06-.05.13-.11.19s-.12.09-.19.11c-.07.02-.14.01-.19-.04l-3.76-3.76.04-.04.18-.18c.06-.06.12-.12.17-.18l.04-.04.04.04z"/></g></svg>