<svg xmlns="http://www.w3.org/2000/svg" width="227.011" height="47mm" viewBox="0 0 59.92 46.89" shape-rendering="geometricPrecision" text-rendering="geometricPrecision" image-rendering="optimizeQuality" fill-rule="evenodd" clip-rule="evenodd"><defs><style>.fil0{fill:#fff}</style></defs><g id="Слой_x0020_1"><g id="_1635690256"><path class="fil0" d="M16.79 16.16c-.38-.67-.7-1.02-1.71-1-.7.01-1.65.11-2.11.51-.48.42-.56 1.36-.06 1.83.26.25 1.35.72 1.81.83-.17.24-.22.19-.48.47-2.16 2.32-2.16 4.48-1.4 7.74.26 1.11.68 1.77.68 2.93-.02 2.66-.35 4.29 2.97 4.29 1 0 2.6.19 3.38-.34 1.19-.81.88-1.98 1.02-2.57 1.19-.08 3.22.07 4.49.12h9.19c1.27-.06 3.29-.2 4.49-.12.15.65-.14 1.82 1.08 2.61.76.5 4.41.4 5.08.1 1.56-.7 1.23-2.63 1.22-4.09-.01-1.2.43-1.84.69-3.01 1.42-6.24-1.26-7.14-1.9-8.13.5-.12 1.59-.58 1.86-.87.48-.53.4-1.43-.16-1.84-.42-.31-1.55-.47-2.15-.47-.97 0-1.26.36-1.61 1-.52-.84-1.07-2.43-1.54-3.46-.49-1.1-1.43-2.2-2.41-2.66-2.76-1.28-16.15-1.23-18.47.01-2.63 1.4-2.6 3.86-3.95 6.11zm27.52 7.89c.21-.79.06-1.56-.41-2.03-.97-1-5.48.81-5.83 1.24-.42.52-.18 1.59.19 1.97.49.51 1.46.37 2.3.37 1.86 0 3.25.31 3.75-1.54zm-28.71-.19c.51 1.95 1.54 1.73 3.51 1.73.73 0 1.88.16 2.42-.25.44-.34.8-1.23.45-1.92-.39-.78-4.89-2.2-5.79-1.54-.47.35-.8 1.17-.59 1.98zm3.26-6.21c2.02-.05 4.04-.26 6.09-.31 3.49-.1 6.57-.01 10.03.02 2.04.01 4.06.23 6.09.28-.65-2.25-1.48-4.38-3.54-5.52-1.97-1.09-13-1.11-15.13 0-2.05 1.06-2.88 3.36-3.54 5.53z" stroke="#59656c" stroke-miterlimit="22.926"/><circle class="fil0" cx="32.11" cy="27.76" r="7.91" stroke="#55adad" stroke-miterlimit="22.926"/><path d="M44.13 39.14L38 33.01c-.19.2-.39.39-.59.58l6.13 6.13c.1.1.31.05.47-.11.16-.16.21-.37.11-.47z" fill="#55adad"/></g><path fill="none" d="M0 0h59.92v46.89H0z"/></g></svg>