<svg xmlns="http://www.w3.org/2000/svg" width="60mm" height="60mm" viewBox="0 0 13.43 13.43" shape-rendering="geometricPrecision" text-rendering="geometricPrecision" image-rendering="optimizeQuality" fill-rule="evenodd" clip-rule="evenodd"><defs><style>.fil1{fill:none}</style></defs><g id="Слой_x0020_1"><g id="_4611825408"><path d="M8.88 9.25h2.61c.06 0 .11.05.11.11s-.05.11-.11.11H8.75a.161.161 0 01-.07-.04c-.01-.01-.01-.02-.02-.03V3.29c0-.06.05-.11.11-.11s.11.05.11.11v5.99zm-.22.11z" fill="#59656c"/><path class="fil1" d="M2.72 6.27c-.32.06-.81-.12-.93.19-.04.11-.02 1.02-.02 1.29 0 .35-.09.81.29.82l5.92-.02.01-1.15c0-.17-.05-.22-.12-.34L5.99 3.95c-.13-.23-.19-.38-.53-.38H3.65c-.29 0-.62-.05-.79.12-.18.17-.13.49-.13.78 0 .59.02 1.22 0 1.81zm6.91-2.42c-.1.06-.06.33-.06.46 0 .25-.02 1.49.02 1.56.06.11.31.07.45.07.25 0 1.49.02 1.56-.02.11-.05.07-.31.07-.45 0-.25.02-1.5-.02-1.57-.06-.11-.32-.07-.45-.07-.24 0-1.51-.02-1.56.02zm-.06 2.79v1.75c0 .12.05.17.17.17h1.75c.13 0 .18-.04.18-.17V6.64c0-.14-.04-.18-.18-.18H9.74c-.14 0-.17.04-.17.18zM6.84 9.82c.11-.38-.16-.68-.44-.76-.36-.1-.67.16-.75.43-.22.79.96 1.13 1.19.33zm-3.95-.09c.04.33.32.58.68.55.32-.03.6-.32.55-.68-.04-.31-.32-.59-.68-.55-.31.03-.59.32-.55.68z" stroke="#59656c" stroke-width=".22" stroke-miterlimit="22.926"/></g><path class="fil1" d="M0 0h13.43v13.43H0z"/></g></svg>