<svg xmlns="http://www.w3.org/2000/svg" width="171.393" height="122.407" viewBox="0 0 7.67 5.48" shape-rendering="geometricPrecision" text-rendering="geometricPrecision" image-rendering="optimizeQuality" fill-rule="evenodd" clip-rule="evenodd"><g fill="#59656c"><path d="M5.48 4.62h1.97c.05 0 .08.04.08.08 0 .05-.04.08-.08.08H5.38c-.02 0-.04-.02-.05-.03 0-.01-.01-.01-.01-.02V.11c0-.05.04-.08.08-.08.05 0 .08.04.08.08v4.53zm-.17.08z"/><path d="M.83 2.44c-.09.02-.19.01-.29.01-.16-.01-.32-.02-.36.08-.02.05-.01.49-.01.77v.32c-.01.19-.02.4.15.4L4.71 4l.01-.79c0-.09-.02-.12-.05-.17-.01-.01-.02-.03-.03-.04L3.22.65 3.2.61C3.13.48 3.08.4 2.89.4h-1.5C1.22.39 1.06.39.98.47.9.55.9.71.91.87v.56c0 .31.01.63 0 .93v.07l-.07.01zm-.28-.16c.06 0 .13.01.18 0 .01-.28.01-.56 0-.85V.87C.72.67.72.47.85.34s.33-.13.54-.12h1.49c.29 0 .35.11.45.29l.02.04L4.77 2.9c.01.02.02.03.02.04.05.08.08.13.08.26 0 .32-.01.64-.01.96-1.52.01-3.04.02-4.57.02-.33-.02-.32-.3-.31-.58v-.31c0-.29-.01-.75.02-.83.08-.21.3-.2.52-.19zM6.09.61c-.02.01-.01.12-.01.2v.24c0 .33-.01.94 0 .96.01.02.11.01.19.01h.25c.33 0 .95.01.97-.01.02-.01.01-.11.01-.19v-.25c0-.33.01-.95-.01-.98C7.48.57 7.38.58 7.3.58h-.24c-.32 0-.96-.01-.98 0zm-.18.21C5.9.7 5.9.53 6 .47c.05-.03.73-.03 1.07-.03h.23c.13-.01.29-.02.35.1.03.06.03.71.02 1.05v.24c.01.13.01.29-.1.35-.06.03-.71.02-1.05.02h-.24c-.13.01-.28.01-.35-.1-.03-.06-.03-.71-.03-1.05V.82zm.17 1.83v1.32c0 .02 0 .04.01.04 0 0 .02.01.04.01H7.5V2.61H6.09v.05zm-.17 1.32V2.65c0-.07.01-.12.05-.16.04-.04.09-.06.17-.06h1.32c.08 0 .13.02.17.06.04.04.05.09.05.17v1.32c0 .07-.02.13-.06.16-.04.04-.09.05-.16.05H6.13c-.07 0-.12-.02-.16-.06a.211.211 0 01-.06-.16zM3.85 5.03v-.01a.32.32 0 00-.05-.29.385.385 0 00-.22-.16h-.01a.34.34 0 00-.28.04c-.09.05-.16.14-.18.23-.05.18.01.31.12.4.04.03.09.06.15.07.05.02.11.02.16.01.13-.02.26-.1.31-.28zm.17.03v.01c-.07.25-.26.38-.45.4a.6.6 0 01-.43-.12.54.54 0 01-.18-.57c.04-.13.13-.26.26-.33.11-.07.26-.09.41-.05h.01c.12.04.24.12.32.23.08.12.12.27.07.43zm-2.99-.09a.376.376 0 00.42.34h.01c.1-.01.18-.06.25-.13.06-.07.1-.17.09-.28v-.01a.375.375 0 00-.42-.34c-.1.01-.19.06-.25.14a.38.38 0 00-.09.28zm.03.39a.568.568 0 01-.2-.37c-.02-.16.04-.3.13-.41.09-.11.22-.18.36-.19.16-.02.3.03.4.12.11.09.19.23.21.37v.01c.01.16-.04.3-.13.4-.09.11-.22.18-.36.19h-.01c-.16.01-.3-.03-.4-.12z" fill-rule="nonzero"/></g></svg>