<svg xmlns="http://www.w3.org/2000/svg" width="152.495" height="152.495" viewBox="0 0 9.86 9.86" shape-rendering="geometricPrecision" text-rendering="geometricPrecision" image-rendering="optimizeQuality" fill-rule="evenodd" clip-rule="evenodd"><g fill="#59656c"><path d="M4.93 0c1.36 0 2.59.55 3.49 1.44a4.91 4.91 0 011.44 3.49c0 1.36-.55 2.59-1.44 3.49a4.91 4.91 0 01-3.49 1.44c-1.36 0-2.59-.55-3.49-1.44A4.91 4.91 0 010 4.93c0-1.36.55-2.59 1.44-3.49A4.91 4.91 0 014.93 0zm3.31 1.62A4.663 4.663 0 004.93.25c-1.29 0-2.46.52-3.31 1.37C.77 2.47.25 3.64.25 4.93s.52 2.46 1.37 3.31c.85.85 2.02 1.37 3.31 1.37s2.46-.52 3.31-1.37c.85-.85 1.37-2.02 1.37-3.31s-.52-2.46-1.37-3.31z" fill-rule="nonzero"/><path d="M4.93 1.74c.09 0 .61.07.6.16l-.44 4.67c-.01.09-.07.16-.16.16s-.15-.07-.16-.16L4.33 1.9c-.01-.09.51-.16.6-.16zm0 5.73c.18 0 .32.15.32.32 0 .18-.15.32-.32.32-.18 0-.32-.15-.32-.32 0-.18.15-.32.32-.32z"/></g></svg>