<svg xmlns="http://www.w3.org/2000/svg" width="227.011" height="47mm" viewBox="0 0 62.71 49.07" shape-rendering="geometricPrecision" text-rendering="geometricPrecision" image-rendering="optimizeQuality" fill-rule="evenodd" clip-rule="evenodd"><defs><style>.str1{stroke:#59656c;stroke-width:1.04;stroke-miterlimit:22.9256}.fil0{fill:none}</style></defs><g id="Слой_x0020_1"><g id="_1635689968"><path class="fil0" d="M31.93 37.45h.57c.03 1.06.1 2.24.56 3.75.37 1.22 1.73 1.29 2.21.33.25-1.26.39-2.68.43-4.08h11.81l5.22 7.73H26.71l5.22-7.73z" stroke="#55adad" stroke-width=".78" stroke-miterlimit="22.926"/><path class="fil0 str1" d="M33.06 41.2c.37 1.22 1.73 1.29 2.21.33.66-3.37.62-7.96-.4-9.95-.59-1.17-3.02-4.99-3.09-5.85-.09-1.06.51-7.48.81-8.09 1.43.89 2.52 2.53 3.92 3.28.53.29 6.95 1.58 6.77-.44-.12-1.31-3.7-1.19-6.43-2.58-1.64-2.32-2.94-3.88-3.61-4.36-1.05-.74-5.99-1.57-7.44-1.1-2.7.88-5.1.75-6.47 2.61-.66.88-1.28 1.68-1.94 2.61-.78 1.09-1.58 2.33-.8 3.08 1.35 1.3 3.82-3.83 5.14-4.35.29-.11 4.26-.91 5.02-.57.3 1.14-.35 4.43-.47 5.89-.19 2.32-.61 3.64.7 5.46.85 1.18 2.06 2.43 2.99 3.48 3.89 4.39 1.71 5.95 3.1 10.55z"/><path class="fil0 str1" d="M29.43 33.33c-.37-.71-1.77-2.63-2.45-3.09-.87.81-1.55 2.15-2.22 3.2-1.18 1.87-2.01 2.59-3.91 4.26-.74.66-2.74 1.65-2.03 3.14 1.01 2.11 3.11-.35 5.65-2.07 2.59-1.76 3.21-2.28 4.69-4.92.19-.35.06-.1.26-.52zM28.08 7.25c0 1.06.43 1.93.95 2.51C30.82 11.75 35 10.91 35 7.25c0-2.32-2.53-4.15-4.96-3.01-.23.11-.76.48-.95.67-.45.45-1.01 1.48-1.01 2.34z"/></g><path class="fil0" d="M0 0h62.71v49.07H0z"/></g></svg>