<svg xmlns="http://www.w3.org/2000/svg" width="136.636" height="152.79" viewBox="0 0 22.84 25.54" shape-rendering="geometricPrecision" text-rendering="geometricPrecision" image-rendering="optimizeQuality" fill-rule="evenodd" clip-rule="evenodd"><defs><style>.fil1{fill:#59656c;fill-rule:nonzero}</style></defs><g id="Слой_x0020_1"><g id="_1264025120"><path d="M9.81 20.39h.58l.01.23c.01.31.02.65.07 1.01s.12.75.26 1.2c.06.19.17.32.29.38.05.03.11.04.16.05.05 0 .11 0 .16-.02.11-.03.2-.11.27-.22.07-.36.13-.75.17-1.14.04-.41.07-.84.08-1.25l.01-.23h7.5l3.48 5.15H6.22L9.7 20.4h.13zm.18 1.3c-.04-.29-.06-.56-.07-.82l-2.83 4.19h14.85l-2.84-4.2h-6.79c-.01.36-.04.71-.08 1.06-.04.42-.11.84-.18 1.22l-.01.03-.01.03c-.13.26-.34.42-.57.49-.11.03-.22.04-.34.04a.954.954 0 01-.33-.09c-.24-.12-.44-.34-.54-.67-.14-.47-.22-.89-.27-1.27z" fill="#55adad" fill-rule="nonzero"/><path class="fil1" d="M10.79 22.8c.05.17.15.28.25.33.04.02.09.03.13.04.05 0 .09 0 .13-.01.08-.03.16-.08.22-.18.2-1.03.28-2.25.24-3.34-.04-1-.19-1.89-.46-2.43-.11-.21-.33-.6-.59-1.05-.56-.97-1.27-2.18-1.31-2.6-.03-.35.05-1.59.17-2.75.11-1.08.25-2.1.35-2.31l.15-.31.3.18c.44.28.82.65 1.2 1.02s.75.74 1.15.96c.13.07 1.02.27 1.93.34.44.04.88.04 1.22-.02.26-.04.44-.11.47-.21.01-.02.01-.04.01-.07-.02-.22-.64-.37-1.43-.56-.71-.17-1.54-.37-2.29-.75l-.07-.04-.04-.06c-.49-.7-.94-1.28-1.31-1.73-.35-.42-.63-.71-.8-.84-.29-.21-1.2-.43-2.13-.57-.86-.13-1.72-.17-2.09-.05-.5.16-.98.27-1.44.37-.98.22-1.81.4-2.32 1.09l-.4.54c-.26.34-.51.68-.77 1.04-.22.31-.45.65-.56.94-.08.21-.09.4.03.52.13.12.38-.08.68-.38.27-.28.55-.64.82-.99.46-.6.9-1.17 1.29-1.32.12-.05 1.17-.27 2.03-.37.53-.06 1.02-.07 1.25.03l.14.06.04.15c.14.54-.02 1.69-.15 2.65-.05.39-.1.75-.12 1.02l-.06.64c-.1.97-.17 1.63.43 2.46.37.52.88 1.07 1.34 1.58.14.16.28.31.45.5 1.56 1.76 1.59 2.81 1.61 4.08.02.68.03 1.43.33 2.42zm-.03.9c-.25-.13-.47-.37-.58-.72-.32-1.06-.34-1.86-.36-2.59-.03-1.14-.05-2.09-1.46-3.68-.11-.12-.28-.31-.45-.49-.47-.52-.98-1.08-1.38-1.64-.74-1.02-.66-1.78-.54-2.89.02-.18.04-.38.06-.62.02-.27.07-.64.13-1.05.11-.79.24-1.72.19-2.23-.17-.01-.46.01-.77.05-.82.09-1.77.29-1.87.33-.22.09-.61.59-1.02 1.12-.28.37-.58.75-.86 1.05-.55.57-1.09.86-1.57.4-.35-.33-.35-.75-.19-1.19.14-.36.39-.73.63-1.08.27-.38.52-.72.78-1.05.15-.2.3-.4.4-.53.65-.88 1.59-1.09 2.69-1.33.44-.1.9-.2 1.38-.36.47-.15 1.43-.11 2.37.03 1.02.15 2.04.42 2.41.68.23.16.54.49.93.95.36.44.8 1.01 1.29 1.7.66.32 1.42.51 2.08.66 1.04.25 1.85.44 1.91 1.12.01.12 0 .22-.04.32-.12.36-.48.55-.96.64-.4.07-.89.07-1.38.03-.99-.08-2.01-.32-2.18-.42-.48-.26-.88-.66-1.29-1.06-.24-.23-.48-.47-.73-.67-.06.4-.14 1.03-.2 1.7-.11 1.13-.2 2.32-.17 2.63.02.28.69 1.43 1.23 2.34.26.44.49.83.61 1.08.32.62.49 1.6.53 2.69.05 1.16-.05 2.45-.26 3.53l-.01.04-.02.04c-.14.28-.36.46-.62.53-.12.04-.24.05-.37.04a.925.925 0 01-.36-.1z"/><path class="fil1" d="M7.94 18.14c-.15-.24-.4-.61-.66-.94-.16-.2-.31-.38-.45-.51-.29.34-.56.78-.81 1.2-.1.16-.19.32-.28.47-.73 1.15-1.23 1.6-2.36 2.6l-.06.05c-.1.09-.22.17-.34.27-.44.32-1.05.77-.81 1.26.17.35.42.36.74.2.34-.16.76-.49 1.21-.84.31-.24.65-.5 1.01-.74.77-.52 1.24-.86 1.62-1.25.38-.39.68-.85 1.11-1.62l.05-.09.03-.06zm-.17-1.33c.34.43.67.92.8 1.17l.07.14-.07.14c-.04.08-.06.12-.07.15l-.02.04-.03.06-.05.08c-.46.82-.79 1.32-1.21 1.75-.42.43-.92.79-1.72 1.33-.33.22-.66.48-.97.72-.48.37-.92.71-1.33.91-.66.32-1.2.28-1.58-.5-.47-.97.38-1.59 1-2.04.12-.09.23-.17.3-.23l.06-.05c1.08-.96 1.57-1.39 2.25-2.46.09-.15.18-.3.28-.46.33-.55.68-1.14 1.12-1.54l.18-.17.21.14c.21.14.5.47.78.82zm.02-14.46c0 .26.05.49.13.7.09.24.22.45.37.61.32.35.79.53 1.27.53.22 0 .45-.04.66-.11.21-.08.4-.19.57-.34.34-.3.56-.77.56-1.39 0-.25-.06-.48-.15-.69-.14-.3-.37-.56-.65-.74-.28-.18-.61-.29-.96-.29-.26 0-.52.06-.79.18-.05.02-.15.09-.25.16s-.19.14-.23.19c-.12.12-.27.34-.37.59-.09.2-.15.42-.15.61zm-.46.92c-.11-.28-.17-.59-.17-.92 0-.28.08-.58.2-.86.14-.32.33-.61.51-.78.07-.07.19-.17.32-.25.12-.09.26-.17.35-.21C8.9.08 9.25.01 9.6.01c.48 0 .93.14 1.31.39.38.24.68.59.87 1 .14.3.22.62.22.96 0 .82-.31 1.44-.77 1.86-.23.2-.49.36-.78.46-.28.1-.58.15-.87.15-.65 0-1.3-.25-1.74-.74-.19-.21-.37-.49-.49-.81z"/></g></g></svg>