<svg xmlns="http://www.w3.org/2000/svg" width="60mm" height="60mm" viewBox="0 0 13.57 13.57" shape-rendering="geometricPrecision" text-rendering="geometricPrecision" image-rendering="optimizeQuality" fill-rule="evenodd" clip-rule="evenodd"><defs><style>.fil0{fill:#59656c}</style></defs><g id="Слой_x0020_1"><g id="_4726791856"><path class="fil0" d="M9.79 5.04l.18.01v.71c0 .07.06.13.13.13s.13-.06.13-.13v-.85c0-.04-.01-.07-.04-.09-.03-.03-.07-.04-.12-.04h-.82c-.07 0-.13.06-.13.13s.06.13.13.13h.52zm-6.52 5.23h7.14c.06 0 .11.05.11.11s-.05.11-.11.11H3.13a.161.161 0 01-.07-.04c-.01-.01-.01-.02-.02-.03v-7.2c0-.06.05-.11.11-.11s.11.05.11.11v7.08zm-.23.11z"/><rect class="fil0" transform="scale(-1.2422 1.2422) rotate(-45 3.523 9.126)" width=".18" height="3.07" rx=".09" ry=".09"/><rect class="fil0" transform="scale(-1.24224 1.24224) rotate(-45 .692 11.946)" width=".18" height="3.07" rx=".09" ry=".09"/><path class="fil0" d="M6.5 6.33c-.06.03-.05.11-.01.16l.97 1.08c.04.05.12.05.16.01.04-.04.05-.11.01-.16l-.97-1.08c-.04-.05-.1-.04-.16-.01z"/></g><path fill="none" d="M0 0h13.57v13.57H0z"/></g></svg>