<svg xmlns="http://www.w3.org/2000/svg" width="125.074" height="124.07" viewBox="0 0 4.13 4.1" shape-rendering="geometricPrecision" text-rendering="geometricPrecision" image-rendering="optimizeQuality" fill-rule="evenodd" clip-rule="evenodd"><defs><style>.fil0{fill:#59656c}</style></defs><g id="Слой_x0020_1"><path class="fil0" d="M3.73 1.09h.1v.39c0 .04.03.07.07.07.04 0 .07-.03.07-.07v-.47c0-.02-.01-.04-.02-.05-.02-.02-.04-.02-.06-.02h-.45c-.04 0-.07.03-.07.07 0 .04.03.07.07.07h.29zM.12 3.97h3.94c.03 0 .06.03.06.06s-.03.06-.06.06H.04c-.02 0-.03-.01-.04-.02 0 0-.01-.01-.01-.02V.08c0-.03.03-.06.06-.06s.06.03.06.06v3.91zM0 4.03z"/><rect class="fil0" transform="scale(-1.24224 1.24224) rotate(-45 .972 2.723)" width=".1" height="1.7" rx=".05" ry=".05"/><rect class="fil0" transform="scale(-1.2422 1.2422) rotate(-45 -.59 4.281)" width=".1" height="1.7" rx=".05" ry=".05"/><path class="fil0" d="M1.91 1.8c-.03.02-.03.06 0 .09l.53.6c.02.03.06.03.09 0 .02-.02.03-.06 0-.09L2 1.8c-.02-.03-.06-.02-.09 0z"/></g></svg>