<svg xmlns="http://www.w3.org/2000/svg" width="109.433" height="109.433" viewBox="0 0 37.11 37.11" shape-rendering="geometricPrecision" text-rendering="geometricPrecision" image-rendering="optimizeQuality" fill-rule="evenodd" clip-rule="evenodd"><defs><style>.fil1{fill:#6b757a;fill-opacity:.321569}</style></defs><g id="Слой_x0020_1"><g id="_1255354640"><path d="M18.55 0C28.8 0 37.1 8.31 37.1 18.55c0 10.25-8.31 18.55-18.55 18.55C8.3 37.1 0 28.79 0 18.55 0 8.3 8.31 0 18.55 0z" fill="#fff" fill-opacity=".322"/><path class="fil1" d="M9.61 22.57c0 .77.87 1.2 1.51.56l.96-.95c.28-.28.55-.59.85-.86l2.78-2.78s.04-.03.04-.04c.37-.34.71-.71 1.06-1.06l.2-.21c.3-.3.59-.62.91-.9.04-.04.04-.03.08-.08l.27-.27c.1-.1.2-.18.28-.29.16.11 1.13 1.11 1.38 1.36l4.11 4.11.01.01.01.01.01.01 1.66 1.67c.37.37.65.7 1.2.51.49-.16.74-.77.44-1.22-.13-.2-1.74-1.78-1.93-1.97l-.48-.48c-.04-.04-.04-.03-.08-.08l-.01-.01-3.63-3.63-.01-.01-.12-.12-.06-.06-.03-.03-.01-.01-.04-.04-.15-.16c-.42-.4-.84-.8-1.23-1.22l-.05-.05c-.27-.28-.53-.64-.97-.64-.16 0-.32.05-.43.11l-.16.12c-.02.02-.03.04-.06.07l-1.01 1.01c-.02.02-.01.02-.04.04l-.29.28c-.25.23-.5.47-.72.72l-.38.4c-.59.62-1.24 1.17-1.82 1.8l-.01.01c-.05.06-.09.09-.14.14l-1.07 1.07c-.32.3-.66.6-.94.94a.5.5 0 01-.07.08c-.44.48-.94.92-1.4 1.39-.18.18-.41.36-.41.72z"/><path class="fil1" d="M18.55 0C28.8 0 37.1 8.31 37.1 18.55c0 10.25-8.31 18.55-18.55 18.55C8.3 37.1 0 28.79 0 18.55 0 8.3 8.31 0 18.55 0zm0 1.54c9.4 0 17.02 7.62 17.02 17.02 0 9.4-7.62 17.02-17.02 17.02-9.4 0-17.02-7.62-17.02-17.02 0-9.4 7.62-17.02 17.02-17.02z"/></g></g></svg>