<svg xmlns="http://www.w3.org/2000/svg" width="707.006" height="341.972" viewBox="0 0 2954.53 1429.08" shape-rendering="geometricPrecision" text-rendering="geometricPrecision" image-rendering="optimizeQuality" fill-rule="evenodd" clip-rule="evenodd"><defs><style>.fil0{fill:#d9e3f2}</style></defs><g id="Слой_x0020_1"><g id="_4305671648"><circle class="fil0" cx="25.89" cy="25.88" r="25.88"/><circle class="fil0" cx="163.94" cy="25.88" r="25.88"/><circle class="fil0" cx="301.99" cy="25.88" r="25.88"/><circle class="fil0" cx="440.04" cy="25.88" r="25.88"/><circle class="fil0" cx="578.09" cy="25.88" r="25.88"/><circle class="fil0" cx="716.14" cy="25.88" r="25.88"/><circle class="fil0" cx="854.2" cy="25.88" r="25.88"/><circle class="fil0" cx="992.25" cy="25.88" r="25.88"/><circle class="fil0" cx="1130.3" cy="25.88" r="25.88"/><circle class="fil0" cx="1268.35" cy="25.88" r="25.88"/><circle class="fil0" cx="1406.4" cy="25.88" r="25.88"/><circle class="fil0" cx="1544.45" cy="25.88" r="25.88"/><circle class="fil0" cx="1682.51" cy="25.88" r="25.88"/><circle class="fil0" cx="1820.56" cy="25.88" r="25.88"/><circle class="fil0" cx="25.89" cy="163.94" r="25.88"/><circle class="fil0" cx="163.94" cy="163.94" r="25.88"/><circle class="fil0" cx="301.99" cy="163.94" r="25.88"/><circle class="fil0" cx="440.04" cy="163.94" r="25.88"/><circle class="fil0" cx="578.09" cy="163.94" r="25.88"/><circle class="fil0" cx="716.14" cy="163.94" r="25.88"/><circle class="fil0" cx="854.2" cy="163.94" r="25.88"/><circle class="fil0" cx="992.25" cy="163.94" r="25.88"/><circle class="fil0" cx="1130.3" cy="163.94" r="25.88"/><circle class="fil0" cx="1268.35" cy="163.94" r="25.88"/><circle class="fil0" cx="1406.4" cy="163.94" r="25.88"/><circle class="fil0" cx="1544.45" cy="163.94" r="25.88"/><circle class="fil0" cx="1682.51" cy="163.94" r="25.88"/><circle class="fil0" cx="1820.56" cy="163.94" r="25.88"/><circle class="fil0" cx="25.89" cy="301.99" r="25.88"/><circle class="fil0" cx="163.94" cy="301.99" r="25.88"/><circle class="fil0" cx="301.99" cy="301.99" r="25.88"/><circle class="fil0" cx="440.04" cy="301.99" r="25.88"/><circle class="fil0" cx="578.09" cy="301.99" r="25.88"/><circle class="fil0" cx="716.14" cy="301.99" r="25.88"/><circle class="fil0" cx="854.2" cy="301.99" r="25.88"/><circle class="fil0" cx="992.25" cy="301.99" r="25.88"/><circle class="fil0" cx="1130.3" cy="301.99" r="25.88"/><circle class="fil0" cx="1268.35" cy="301.99" r="25.88"/><circle class="fil0" cx="1406.4" cy="301.99" r="25.88"/><circle class="fil0" cx="1544.45" cy="301.99" r="25.88"/><circle class="fil0" cx="1682.51" cy="301.99" r="25.88"/><circle class="fil0" cx="1820.56" cy="301.99" r="25.88"/><circle class="fil0" cx="25.89" cy="440.04" r="25.88"/><circle class="fil0" cx="163.94" cy="440.04" r="25.88"/><circle class="fil0" cx="301.99" cy="440.04" r="25.88"/><circle class="fil0" cx="440.04" cy="440.04" r="25.88"/><circle class="fil0" cx="578.09" cy="440.04" r="25.88"/><circle class="fil0" cx="716.14" cy="440.04" r="25.88"/><circle class="fil0" cx="854.2" cy="440.04" r="25.88"/><circle class="fil0" cx="992.25" cy="440.04" r="25.88"/><circle class="fil0" cx="1130.3" cy="440.04" r="25.88"/><circle class="fil0" cx="1268.35" cy="440.04" r="25.88"/><circle class="fil0" cx="1406.4" cy="440.04" r="25.88"/><circle class="fil0" cx="1544.45" cy="440.04" r="25.88"/><circle class="fil0" cx="1682.51" cy="440.04" r="25.88"/><circle class="fil0" cx="1820.56" cy="440.04" r="25.88"/><circle class="fil0" cx="25.89" cy="578.09" r="25.88"/><circle class="fil0" cx="163.94" cy="578.09" r="25.88"/><circle class="fil0" cx="301.99" cy="578.09" r="25.88"/><circle class="fil0" cx="440.04" cy="578.09" r="25.88"/><circle class="fil0" cx="578.09" cy="578.09" r="25.88"/><circle class="fil0" cx="716.14" cy="578.09" r="25.88"/><circle class="fil0" cx="854.2" cy="578.09" r="25.88"/><circle class="fil0" cx="992.25" cy="578.09" r="25.88"/><circle class="fil0" cx="1130.3" cy="578.09" r="25.88"/><circle class="fil0" cx="1268.35" cy="578.09" r="25.88"/><circle class="fil0" cx="1406.4" cy="578.09" r="25.88"/><circle class="fil0" cx="1544.45" cy="578.09" r="25.88"/><circle class="fil0" cx="1682.51" cy="578.09" r="25.88"/><circle class="fil0" cx="1820.56" cy="578.09" r="25.88"/><circle class="fil0" cx="25.89" cy="712.93" r="25.88"/><circle class="fil0" cx="163.94" cy="712.93" r="25.88"/><circle class="fil0" cx="301.99" cy="712.93" r="25.88"/><circle class="fil0" cx="440.04" cy="712.93" r="25.88"/><circle class="fil0" cx="578.09" cy="712.93" r="25.88"/><circle class="fil0" cx="716.14" cy="712.93" r="25.88"/><circle class="fil0" cx="854.2" cy="712.93" r="25.88"/><circle class="fil0" cx="992.25" cy="712.93" r="25.88"/><circle class="fil0" cx="1130.3" cy="712.93" r="25.88"/><circle class="fil0" cx="1268.35" cy="712.93" r="25.88"/><circle class="fil0" cx="1406.4" cy="712.93" r="25.88"/><circle class="fil0" cx="1544.45" cy="712.93" r="25.88"/><circle class="fil0" cx="1682.51" cy="712.93" r="25.88"/><circle class="fil0" cx="1820.56" cy="712.93" r="25.88"/><circle class="fil0" cx="25.89" cy="850.98" r="25.88"/><circle class="fil0" cx="163.94" cy="850.98" r="25.88"/><circle class="fil0" cx="301.99" cy="850.98" r="25.88"/><circle class="fil0" cx="440.04" cy="850.98" r="25.88"/><circle class="fil0" cx="578.09" cy="850.98" r="25.88"/><circle class="fil0" cx="716.14" cy="850.98" r="25.88"/><circle class="fil0" cx="854.2" cy="850.98" r="25.88"/><circle class="fil0" cx="992.25" cy="850.98" r="25.88"/><circle class="fil0" cx="1130.3" cy="850.98" r="25.88"/><circle class="fil0" cx="1268.35" cy="850.98" r="25.88"/><circle class="fil0" cx="1406.4" cy="850.98" r="25.88"/><circle class="fil0" cx="1544.45" cy="850.98" r="25.88"/><circle class="fil0" cx="1682.51" cy="850.98" r="25.88"/><circle class="fil0" cx="1820.56" cy="850.98" r="25.88"/><circle class="fil0" cx="25.89" cy="989.04" r="25.88"/><circle class="fil0" cx="163.94" cy="989.04" r="25.88"/><circle class="fil0" cx="301.99" cy="989.04" r="25.88"/><circle class="fil0" cx="440.04" cy="989.04" r="25.88"/><circle class="fil0" cx="578.09" cy="989.04" r="25.88"/><circle class="fil0" cx="716.14" cy="989.04" r="25.88"/><circle class="fil0" cx="854.2" cy="989.04" r="25.88"/><circle class="fil0" cx="992.25" cy="989.04" r="25.88"/><circle class="fil0" cx="1130.3" cy="989.04" r="25.88"/><circle class="fil0" cx="1268.35" cy="989.04" r="25.88"/><circle class="fil0" cx="1406.4" cy="989.04" r="25.88"/><circle class="fil0" cx="1544.45" cy="989.04" r="25.88"/><circle class="fil0" cx="1682.51" cy="989.04" r="25.88"/><circle class="fil0" cx="1820.56" cy="989.04" r="25.88"/><circle class="fil0" cx="25.89" cy="1127.09" r="25.88"/><circle class="fil0" cx="163.94" cy="1127.09" r="25.88"/><circle class="fil0" cx="301.99" cy="1127.09" r="25.88"/><circle class="fil0" cx="440.04" cy="1127.09" r="25.88"/><circle class="fil0" cx="578.09" cy="1127.09" r="25.88"/><circle class="fil0" cx="716.14" cy="1127.09" r="25.88"/><circle class="fil0" cx="854.2" cy="1127.09" r="25.88"/><circle class="fil0" cx="992.25" cy="1127.09" r="25.88"/><circle class="fil0" cx="1130.3" cy="1127.09" r="25.88"/><circle class="fil0" cx="1268.35" cy="1127.09" r="25.88"/><circle class="fil0" cx="1406.4" cy="1127.09" r="25.88"/><circle class="fil0" cx="1544.45" cy="1127.09" r="25.88"/><circle class="fil0" cx="1682.51" cy="1127.09" r="25.88"/><circle class="fil0" cx="1820.56" cy="1127.09" r="25.88"/><circle class="fil0" cx="25.89" cy="1265.14" r="25.88"/><circle class="fil0" cx="163.94" cy="1265.14" r="25.88"/><circle class="fil0" cx="301.99" cy="1265.14" r="25.88"/><circle class="fil0" cx="440.04" cy="1265.14" r="25.88"/><circle class="fil0" cx="578.09" cy="1265.14" r="25.88"/><circle class="fil0" cx="716.14" cy="1265.14" r="25.88"/><circle class="fil0" cx="854.2" cy="1265.14" r="25.88"/><circle class="fil0" cx="992.25" cy="1265.14" r="25.88"/><circle class="fil0" cx="1130.3" cy="1265.14" r="25.88"/><circle class="fil0" cx="1268.35" cy="1265.14" r="25.88"/><circle class="fil0" cx="1406.4" cy="1265.14" r="25.88"/><circle class="fil0" cx="1544.45" cy="1265.14" r="25.88"/><circle class="fil0" cx="1682.51" cy="1265.14" r="25.88"/><circle class="fil0" cx="1820.56" cy="1265.14" r="25.88"/><circle class="fil0" cx="25.89" cy="1403.19" r="25.88"/><circle class="fil0" cx="163.94" cy="1403.19" r="25.88"/><circle class="fil0" cx="301.99" cy="1403.19" r="25.88"/><circle class="fil0" cx="440.04" cy="1403.19" r="25.88"/><circle class="fil0" cx="578.09" cy="1403.19" r="25.88"/><circle class="fil0" cx="716.14" cy="1403.19" r="25.88"/><circle class="fil0" cx="854.2" cy="1403.19" r="25.88"/><circle class="fil0" cx="992.25" cy="1403.19" r="25.88"/><circle class="fil0" cx="1130.3" cy="1403.19" r="25.88"/><circle class="fil0" cx="1268.35" cy="1403.19" r="25.88"/><circle class="fil0" cx="1406.4" cy="1403.19" r="25.88"/><circle class="fil0" cx="1544.45" cy="1403.19" r="25.88"/><circle class="fil0" cx="1682.51" cy="1403.19" r="25.88"/><circle class="fil0" cx="1820.56" cy="1403.19" r="25.88"/><circle class="fil0" cx="1962.28" cy="25.88" r="25.88"/><circle class="fil0" cx="2100.33" cy="25.88" r="25.88"/><circle class="fil0" cx="2238.38" cy="25.88" r="25.88"/><circle class="fil0" cx="2376.44" cy="25.88" r="25.88"/><circle class="fil0" cx="2514.49" cy="25.88" r="25.88"/><circle class="fil0" cx="2652.54" cy="25.88" r="25.88"/><circle class="fil0" cx="2790.59" cy="25.88" r="25.88"/><circle class="fil0" cx="2928.64" cy="25.88" r="25.88"/><circle class="fil0" cx="1962.28" cy="163.94" r="25.88"/><circle class="fil0" cx="2100.33" cy="163.94" r="25.88"/><circle class="fil0" cx="2238.38" cy="163.94" r="25.88"/><circle class="fil0" cx="2376.44" cy="163.94" r="25.88"/><circle class="fil0" cx="2514.49" cy="163.94" r="25.88"/><circle class="fil0" cx="2652.54" cy="163.94" r="25.88"/><circle class="fil0" cx="2790.59" cy="163.94" r="25.88"/><circle class="fil0" cx="2928.64" cy="163.94" r="25.88"/><circle class="fil0" cx="1962.28" cy="301.99" r="25.88"/><circle class="fil0" cx="2100.33" cy="301.99" r="25.88"/><circle class="fil0" cx="2238.38" cy="301.99" r="25.88"/><circle class="fil0" cx="2376.44" cy="301.99" r="25.88"/><circle class="fil0" cx="2514.49" cy="301.99" r="25.88"/><circle class="fil0" cx="2652.54" cy="301.99" r="25.88"/><circle class="fil0" cx="2790.59" cy="301.99" r="25.88"/><circle class="fil0" cx="2928.64" cy="301.99" r="25.88"/><circle class="fil0" cx="1962.28" cy="440.04" r="25.88"/><circle class="fil0" cx="2100.33" cy="440.04" r="25.88"/><circle class="fil0" cx="2238.38" cy="440.04" r="25.88"/><circle class="fil0" cx="2376.44" cy="440.04" r="25.88"/><circle class="fil0" cx="2514.49" cy="440.04" r="25.88"/><circle class="fil0" cx="2652.54" cy="440.04" r="25.88"/><circle class="fil0" cx="2790.59" cy="440.04" r="25.88"/><circle class="fil0" cx="2928.64" cy="440.04" r="25.88"/><circle class="fil0" cx="1962.28" cy="578.09" r="25.88"/><circle class="fil0" cx="2100.33" cy="578.09" r="25.88"/><circle class="fil0" cx="2238.38" cy="578.09" r="25.88"/><circle class="fil0" cx="2376.44" cy="578.09" r="25.88"/><circle class="fil0" cx="2514.49" cy="578.09" r="25.88"/><circle class="fil0" cx="2652.54" cy="578.09" r="25.88"/><circle class="fil0" cx="2790.59" cy="578.09" r="25.88"/><circle class="fil0" cx="2928.64" cy="578.09" r="25.88"/><circle class="fil0" cx="1962.28" cy="712.93" r="25.88"/><circle class="fil0" cx="2100.33" cy="712.93" r="25.88"/><circle class="fil0" cx="2238.38" cy="712.93" r="25.88"/><circle class="fil0" cx="2376.44" cy="712.93" r="25.88"/><circle class="fil0" cx="2514.49" cy="712.93" r="25.88"/><circle class="fil0" cx="2652.54" cy="712.93" r="25.88"/><circle class="fil0" cx="2790.59" cy="712.93" r="25.88"/><circle class="fil0" cx="2928.64" cy="712.93" r="25.88"/><circle class="fil0" cx="1962.28" cy="850.98" r="25.88"/><circle class="fil0" cx="2100.33" cy="850.98" r="25.88"/><circle class="fil0" cx="2238.38" cy="850.98" r="25.88"/><circle class="fil0" cx="2376.44" cy="850.98" r="25.88"/><circle class="fil0" cx="2514.49" cy="850.98" r="25.88"/><circle class="fil0" cx="2652.54" cy="850.98" r="25.88"/><circle class="fil0" cx="2790.59" cy="850.98" r="25.88"/><circle class="fil0" cx="2928.64" cy="850.98" r="25.88"/><circle class="fil0" cx="1962.28" cy="989.04" r="25.88"/><circle class="fil0" cx="2100.33" cy="989.04" r="25.88"/><circle class="fil0" cx="2238.38" cy="989.04" r="25.88"/><circle class="fil0" cx="2376.44" cy="989.04" r="25.88"/><circle class="fil0" cx="2514.49" cy="989.04" r="25.88"/><circle class="fil0" cx="2652.54" cy="989.04" r="25.88"/><circle class="fil0" cx="2790.59" cy="989.04" r="25.88"/><circle class="fil0" cx="2928.64" cy="989.04" r="25.88"/><circle class="fil0" cx="1962.28" cy="1127.09" r="25.88"/><circle class="fil0" cx="2100.33" cy="1127.09" r="25.88"/><circle class="fil0" cx="2238.38" cy="1127.09" r="25.88"/><circle class="fil0" cx="2376.44" cy="1127.09" r="25.88"/><circle class="fil0" cx="2514.49" cy="1127.09" r="25.88"/><circle class="fil0" cx="2652.54" cy="1127.09" r="25.88"/><circle class="fil0" cx="2790.59" cy="1127.09" r="25.88"/><circle class="fil0" cx="2928.64" cy="1127.09" r="25.88"/><circle class="fil0" cx="1962.28" cy="1265.14" r="25.88"/><circle class="fil0" cx="2100.33" cy="1265.14" r="25.88"/><circle class="fil0" cx="2238.38" cy="1265.14" r="25.88"/><circle class="fil0" cx="2376.44" cy="1265.14" r="25.88"/><circle class="fil0" cx="2514.49" cy="1265.14" r="25.88"/><circle class="fil0" cx="2652.54" cy="1265.14" r="25.88"/><circle class="fil0" cx="2790.59" cy="1265.14" r="25.88"/><circle class="fil0" cx="2928.64" cy="1265.14" r="25.88"/><circle class="fil0" cx="1962.28" cy="1403.19" r="25.88"/><circle class="fil0" cx="2100.33" cy="1403.19" r="25.88"/><circle class="fil0" cx="2238.38" cy="1403.19" r="25.88"/><circle class="fil0" cx="2376.44" cy="1403.19" r="25.88"/><circle class="fil0" cx="2514.49" cy="1403.19" r="25.88"/><circle class="fil0" cx="2652.54" cy="1403.19" r="25.88"/><circle class="fil0" cx="2790.59" cy="1403.19" r="25.88"/><circle class="fil0" cx="2928.64" cy="1403.19" r="25.88"/></g><path d="M1721.75 1147c-6.24 21.16-38.7 13.04-32.4-9.28 6.17-21.85 38.43-11.18 32.4 9.28zm-107.33-16.39c-6.16-19.22 22.66-25 26.88-8.35 4.71 18.59-21.71 24.49-26.88 8.35zm77.72-200.7c22.25-8.91 31.87 23.42 12.99 30.94-21.49 8.57-33.62-22.69-12.99-30.94zm-146.01-13.87c21.08-8.1 31.89 24.17 11.93 31.37-22.22 8.02-32.26-23.56-11.93-31.37zm-128.61-71.89c26.13-8.93 35.55 29.8 13.17 37.63-25.3 8.85-38.68-28.91-13.17-37.63zm497.19-4.53c19.5-9.15 31.96 21.13 13.47 30.55-9.44 4.81-20.19-.48-23.43-8.84-4.73-12.22 2.8-18.35 9.96-21.71zm-182.51 78.34c1.72-4.11 8.18-12.03 11.49-15.7l72.38-95.16c1.46-1.96.85-1.42 2.76-3.51 2.2-2.42.59-1.1 3.15-2.86 10.72 6.92 20.26 13.75 31.59 21.12 8.84 5.75 23.63 14.45 31.49 21.43l-.97 18.04-151.9 56.65zm-270.33-40.66c.37-5.78 2.16-9.66 1.69-16.4-.59-8.49-2.65-7.83 2.13-13.47l102.88-111.36c4.19-3.85 5.19-4.58 7.94-8.06l15.09 1.72c3.12 12.9 38.78 82.26 37.65 87.09l-47.65 60.87c-5.21 6.51-10.94 13.52-14.94 20.08-16.68-3.32-31.35-3.28-40.42 8.68-8.26-1.45-53.25-23.63-64.36-29.13zm-261.1-89.9c22.37-4.99 26.69 28.67 7.09 32.88-22.21 4.78-29.51-27.89-7.09-32.88zm497.43-27.27c32.37 7.96 30.77 3.4 51.94-7.62l54.25 36.58c-1.91 5.08-71.78 95.12-80.85 106.99-3.32 4.35-8.48 10.69-11.27 15.14-8.25-1.63-9.46-2.11-19.29-2.09l-40.03-89.8 45.26-59.21zm11.88-70.86c17.06-5.41 31.9 5.56 35.66 18.5 5.08 17.48-6.51 31.84-18.77 35.42-36.1 10.54-52.53-42.61-16.89-53.92zm-124.1-4.22c18.04-4.14 23.7 24.03 6.04 27.83-18.58 4-24.93-23.5-6.04-27.83zm308.51 19.06c4.46-5.87 15.91-23.95 22.19-24.98l-4.74 139.65c-2.95 1.77-13.52 7.06-15.61 7.93l-62.59-41.76 60.75-80.84zM1056 674.66c13.62-4.12 103.32-37.11 108.08-36.88 5.17.25 12.38 10.48 19.76 16.93l112.04 105.98c11.56 13.08 33.96 31.1 46.75 43.97 3.44 3.46 5 5.81 8.59 9.01 5.48 4.89 35.12 32.03 35.21 34.86-.9.35-.84.48-2.91.5-2.33.02-.58.04-1.99-.15-.77-.11-3.84-1.06-4.93-1.37-2.99-.86-5.76-1.54-8.97-2.42-38.02-10.4-94.17-24.04-127.53-34.73 3.87-49.06-51.56-51.71-64.49-28.86l-108.13-77.24c-4.56-3.44-11.06-8.46-15.27-10.73 2.04-7.48 2.52-10.3 3.8-18.87zm-42.1-13.44c22.57-7.29 29.44 26.2 10.37 32.06-21.31 6.56-31.58-25.21-10.37-32.06zm883.42 6.19l-80.39 105.64c-8.72-4.37-19.24-12.56-27.55-18.15-6.7-4.5-20.16-14.41-26.96-17.32 1.35-9.23 3.26-13.67 4.27-24.89l130.63-45.28zm24.95-38.28c20.27-8.78 31.95 24.63 10.69 31.55-10.18 3.31-18.73-3.18-21.27-10.48-4.03-11.56 3.25-17.9 10.58-21.07zm-735.39 1.18c1.44-1.27-1.3.4 2.18-1.49l12.95-4.64c27.29-9.65 87.39-31.66 108.3-37.42 10.69 9.66 5.91 18.73 42.55 25.15 2.94 17.83 32.41 137.9 38.8 163.89 2.84 11.55 22.47 70.18 1.95 51.01l-19.99-19.1c-9.1-8.05-17.27-16.99-26.44-25.23-20.14-18.11-47.29-46.35-67.15-63.89l-66.63-63.17c-9.86-10.05-15.93-13.6-26.52-25.1zm-154.89-119.25c10.91 8.77 17.6 16.82 28.89 27.12 5.31 4.84 10.21 8.78 15.24 13.78l28.59 28.11c4.97 4.65 41.67 37.43 43.69 41.92l-98.97 33.98c-4.34-3.18-6.15-6.9-11.8-10.07-5.28-2.96-9.87-3.45-14.86-5.51l.11-125.94 9.11-3.4zm577.78 211.25c23.3-32.66-2.08-27 12.33-43.53l84.98-92.72c5.16 2.43 8.47 6.93 15.58 8.68l-8.17 73.36c-20.53 3.38-32.75 12.75-39.64 28.08-10.84 24.09-.12 38.64 7.66 52.6-7.12 11.63-32.84 39.63-37.71 49.63-5.64-4.88-34.16-73.2-35.03-76.09zm-57.9-152.67l145.47-2.6c-3.48 7-29.19 31.9-35.94 40.08l-23.38 25.81c-5.52 5.67-32.71 33.72-34.77 38.22-16.65-4.43-26.95-4.31-37.06 7.11-14.88 16.8-5.85 28.28-4.84 38.17-5.95 3.95-14.37 14.48-21.9 22.07l-33.89 36.65c-7.93 8.79-48.43 55.89-55.95 58.61-.6-6.09 16.24-45.21 19.95-54.38 26.35-70.27 54.77-139.93 82.32-209.75zm-120.5 253.94l-7.65-.63c-2.79-4.38-33.4-137.14-39.03-161.19-4.07-17.35-9.34-36.35-12.74-54.36 13.69-4.54 24.47-18.1 28.09-34.93l130.56-2.38-27.68 71.42-71.54 182.08zm-86.7-286.73c17.04-5.85 31.8 5.81 35.51 18.47 5.11 17.46-6.32 31.84-18.71 35.41-35.65 10.27-52.99-41.45-16.79-53.89zm387.16-1.15c12.29-3.47 23.35 5.34 25.89 15.25 3.15 12.3-4.94 23.21-14.31 26.09-26.91 8.28-41.34-32.93-11.58-41.34zm91.38-17.93l7 7.27c10.61 9.75 15.88 9.8 30.81 10.25l41.42 82.43c-7.42 9.71-10.93 13.06-11.4 30.25-7.26 4.69-123.46 44.05-129.58 45.57-8.41-9.7-12.06-18.08-27.69-22.79l8.28-72.62c7.67-4.07 22.46-4.38 31.77-23.5 8.82-18.11 2.81-27.3-3.26-42.51l52.64-14.33zm-262.81 31.71c4.55-14.08 11.77-30.53 17.54-44.72 6.08-14.96 11.59-29.22 17.47-44.33 11.59-29.78 23.11-60.51 35.46-89.04l9.36-.27c5.89 10.56 12.79 26.96 18.02 38.53 7.18 15.89 50.56 107.47 52.34 114.81-15.73 16.69-7.57 11.5-14.65 22.97l-135.53 2.05zm291.64-67.19c21.51-4.6 28.23 28.22 7.28 32.86-22.18 4.92-29.97-28.02-7.28-32.86zm-789.34 30.18c-4.15-3.74-12.09-9.98-14.59-14.01 14.86 2.36 165.88 41.64 194.01 48.8 10.63 2.7 21.46 5.37 32.27 8.14 9.75 2.49 46.38 7.78 23.68 14.8l-25.34 8.7c-20 6.67-93.87 34.32-103.99 35.15l-106.03-101.58zm-55.72-48.53c21.39-8.91 31.83 23.11 12.8 30.93-15.5 6.37-28.37-9.74-21.9-23.23 2.49-5.2 4.53-5.8 9.1-7.7zm302.05 79.59c-8.13-.72-185.89-46.36-199.78-50.11l-58.19-14.9c-.78-.62-4.39-2.19-.01-6.4l220.17-111.61c14.16 12.59 19.89 8.3 23.72 11.66 1.88 2.54 34.84 138.32 35.59 148.51-4.59 4.1-7.93 4.87-12.63 10.14-3.78 4.23-5.15 7.26-8.88 12.71zm86.98-1.43c3.66-5.15 102.64-84.32 107.24-88 30.55-24.42 78.8-65.94 107.87-87.02l-72.29 183.27-138.91 2.41-3.91-10.66zm-80.81-175.17c3.99-3.57 7.05-5.34 10.6-9.7 3.19-3.92 4.58-9.4 7.18-12.43 23.36-1.36 262.15-1.05 265.87.79 2.51 4.03.57 5.14-2.26 7.63-2.77 2.44-4.48 3.25-7.13 5.48-47.59 40.08-101.79 82.71-150.74 122.78l-55.32 44.55c-16.37-8.5-11.82-7.84-33.49-10.74l-34.69-148.36zm314.42-48.02c20.46-7.35 31.05 25.82 10.04 32.08-20.62 6.15-32.6-23.98-10.04-32.08zm-340.72 31.2c-4.26-2.25-7.94-6.15-8.56-11.33-.6-10.58 2.33-15.84 9.2-19.05 7.49-3.5 15.86-1.39 20.68 4.42 10.34 12.47-.13 31.87-21.32 25.96zm410.57 19.57c-6.55-4.77-24.48-19.89-30.38-22.65 2.34-11.81 2.71-22.15-3.64-31.55-16.01-23.71-53.3-25.08-66.38 9.59l-266.09-.04c-2.76-3.55-12.92-33.35-44.79-25.59-19.52 4.75-28.7 19.84-26.94 43.89L1040.6 454.85c-17.08-18.58-45.26-14.89-58.34 4.98-14.24 21.64.06 50.26 21.05 54.21l-.06 128.88c-2.74 4.14-7.69 5.72-11.09 9.55-18.11 20.42-9.02 52 15.82 59.52 16.37 4.95 19.45-.63 31.35-3.47l49.14 35.21c16.16 11.42 32.63 22.93 48.46 34.77 37.18 27.79 28.09 15.55 31.38 32.91 2.85 15.06 15.97 27.46 32.65 28.74 15.9 1.23 21.75-5.28 30.06-11.72l153.53 41.36c3.8 22.64 25.78 36.46 47.5 32.11 9.38-1.88 11.69-5.66 18.14-8.18l65.69 29.88c-2.02 28.12 12.19 44.75 39.93 44.62l52.07 133.43c-7.08 11.15-17.47 22.35-5.85 40.91 17.53 27.99 64.78 10.72 55.16-24.77-2.1-7.76-6.72-13.19-11.45-16.39-8.65-5.84-11.42-3.64-19.55-6.81l-52.05-133.93c16.1-13.11 17.72-29 7.57-50.57l42.69-55.14c4.79-5.99 10.02-13.26 14.85-17.96 10.17 26.18 25.06 52.55 35.33 79.4-6.42 11.21-16.04 16.86-11.89 36.85 3.02 14.55 11.81 20.99 23.03 26.48l9.31 126.97-3.43 1.94c-1.02.53-1.59.74-2.54 1.24-14.53 7.66-22.12 21.57-19.66 38.37 5.96 40.64 67.11 41.26 72.23-1.19 3.26-27.04-16.28-34.1-26.84-40.35l-9.14-124.77 7.24-3.2c2.58-1.09 3.72-1.83 5.7-3.07 13.44-8.43 16.46-20.45 16.01-36.58 6.41-4.1 152.13-58.83 159.7-59.85 4.67 8.3 17.78 13.15 30.88 11.77 23.57-2.48 38.27-27.67 28.57-50.96-6.06-14.53-15.31-15.4-22.27-20.7l4.67-138.27c3-2.23 8.22-3.43 12.13-6.3 20.9-15.34 21.12-43.56.82-59.46-8.32-6.52-16.27-7.46-28.87-6.68l-40.99-81.67c2.93-4.53 4.71-4.39 7.96-10.36 12.72-23.33-2.57-52.12-28.67-54.11-14.48-1.1-18.52 3.92-27.39 8.31l-131.68-101.14zm117.87 115.35c.21.19.52.48.72.66 3.08 2.85 2.15 1.91.56 12.74-13.03 4.74-29.87 8.29-43.37 12.04-42.8 11.88-15.51 3.48-46.77 5.34l-35.16-76.87c-12.26-25-22.96-51.33-34.72-75.49l158.75 121.59z" fill="#75bdbd"/></g></svg>