<svg xmlns="http://www.w3.org/2000/svg" width="508.135" height="240.8" viewBox="0 0 337.05 159.72" shape-rendering="geometricPrecision" text-rendering="geometricPrecision" image-rendering="optimizeQuality" fill-rule="evenodd" clip-rule="evenodd"><defs><style>.fil0{fill:#d9e3f2}</style></defs><g id="Слой_x0020_1"><g id="_1572830096"><circle class="fil0" cx="2.08" cy="2.08" r="2.08"/><circle class="fil0" cx="13.15" cy="2.08" r="2.08"/><circle class="fil0" cx="24.22" cy="2.08" r="2.08"/><circle class="fil0" cx="35.29" cy="2.08" r="2.08"/><circle class="fil0" cx="46.36" cy="2.08" r="2.08"/><circle class="fil0" cx="57.44" cy="2.08" r="2.08"/><circle class="fil0" cx="68.51" cy="2.08" r="2.08"/><circle class="fil0" cx="79.58" cy="2.08" r="2.08"/><circle class="fil0" cx="90.65" cy="2.08" r="2.08"/><circle class="fil0" cx="101.73" cy="2.08" r="2.08"/><circle class="fil0" cx="112.8" cy="2.08" r="2.08"/><circle class="fil0" cx="123.87" cy="2.08" r="2.08"/><circle class="fil0" cx="134.94" cy="2.08" r="2.08"/><circle class="fil0" cx="2.08" cy="13.15" r="2.08"/><circle class="fil0" cx="13.15" cy="13.15" r="2.08"/><circle class="fil0" cx="24.22" cy="13.15" r="2.08"/><circle class="fil0" cx="35.29" cy="13.15" r="2.08"/><circle class="fil0" cx="46.36" cy="13.15" r="2.08"/><circle class="fil0" cx="57.44" cy="13.15" r="2.08"/><circle class="fil0" cx="68.51" cy="13.15" r="2.08"/><circle class="fil0" cx="79.58" cy="13.15" r="2.08"/><circle class="fil0" cx="90.65" cy="13.15" r="2.08"/><circle class="fil0" cx="101.73" cy="13.15" r="2.08"/><circle class="fil0" cx="112.8" cy="13.15" r="2.08"/><circle class="fil0" cx="123.87" cy="13.15" r="2.08"/><circle class="fil0" cx="134.94" cy="13.15" r="2.08"/><circle class="fil0" cx="2.08" cy="24.22" r="2.08"/><circle class="fil0" cx="13.15" cy="24.22" r="2.08"/><circle class="fil0" cx="24.22" cy="24.22" r="2.08"/><circle class="fil0" cx="35.29" cy="24.22" r="2.08"/><circle class="fil0" cx="46.36" cy="24.22" r="2.08"/><circle class="fil0" cx="57.44" cy="24.22" r="2.08"/><circle class="fil0" cx="68.51" cy="24.22" r="2.08"/><circle class="fil0" cx="79.58" cy="24.22" r="2.08"/><circle class="fil0" cx="90.65" cy="24.22" r="2.08"/><circle class="fil0" cx="101.73" cy="24.22" r="2.08"/><circle class="fil0" cx="112.8" cy="24.22" r="2.08"/><circle class="fil0" cx="123.87" cy="24.22" r="2.08"/><circle class="fil0" cx="134.94" cy="24.22" r="2.08"/><circle class="fil0" cx="2.08" cy="35.03" r="2.08"/><circle class="fil0" cx="13.15" cy="35.03" r="2.08"/><circle class="fil0" cx="24.22" cy="35.03" r="2.08"/><circle class="fil0" cx="35.29" cy="35.03" r="2.08"/><circle class="fil0" cx="46.36" cy="35.03" r="2.08"/><circle class="fil0" cx="57.44" cy="35.03" r="2.08"/><circle class="fil0" cx="68.51" cy="35.03" r="2.08"/><circle class="fil0" cx="79.58" cy="35.03" r="2.08"/><circle class="fil0" cx="90.65" cy="35.03" r="2.08"/><circle class="fil0" cx="101.73" cy="35.03" r="2.08"/><circle class="fil0" cx="112.8" cy="35.03" r="2.08"/><circle class="fil0" cx="123.87" cy="35.03" r="2.08"/><circle class="fil0" cx="134.94" cy="35.03" r="2.08"/><circle class="fil0" cx="2.08" cy="46.11" r="2.08"/><circle class="fil0" cx="13.15" cy="46.11" r="2.08"/><circle class="fil0" cx="24.22" cy="46.11" r="2.08"/><circle class="fil0" cx="35.29" cy="46.11" r="2.08"/><circle class="fil0" cx="46.36" cy="46.11" r="2.08"/><circle class="fil0" cx="57.44" cy="46.11" r="2.08"/><circle class="fil0" cx="68.51" cy="46.11" r="2.08"/><circle class="fil0" cx="79.58" cy="46.11" r="2.08"/><circle class="fil0" cx="90.65" cy="46.11" r="2.08"/><circle class="fil0" cx="101.73" cy="46.11" r="2.08"/><circle class="fil0" cx="112.8" cy="46.11" r="2.08"/><circle class="fil0" cx="123.87" cy="46.11" r="2.08"/><circle class="fil0" cx="134.94" cy="46.11" r="2.08"/><circle class="fil0" cx="2.08" cy="57.18" r="2.08"/><circle class="fil0" cx="13.15" cy="57.18" r="2.08"/><circle class="fil0" cx="24.22" cy="57.18" r="2.08"/><circle class="fil0" cx="35.29" cy="57.18" r="2.08"/><circle class="fil0" cx="46.36" cy="57.18" r="2.08"/><circle class="fil0" cx="57.44" cy="57.18" r="2.08"/><circle class="fil0" cx="68.51" cy="57.18" r="2.08"/><circle class="fil0" cx="79.58" cy="57.18" r="2.08"/><circle class="fil0" cx="90.65" cy="57.18" r="2.08"/><circle class="fil0" cx="101.73" cy="57.18" r="2.08"/><circle class="fil0" cx="112.8" cy="57.18" r="2.08"/><circle class="fil0" cx="123.87" cy="57.18" r="2.08"/><circle class="fil0" cx="134.94" cy="57.18" r="2.08"/><circle class="fil0" cx="2.08" cy="68.25" r="2.08"/><circle class="fil0" cx="13.15" cy="68.25" r="2.08"/><circle class="fil0" cx="24.22" cy="68.25" r="2.08"/><circle class="fil0" cx="35.29" cy="68.25" r="2.08"/><circle class="fil0" cx="46.36" cy="68.25" r="2.08"/><circle class="fil0" cx="57.44" cy="68.25" r="2.08"/><circle class="fil0" cx="68.51" cy="68.25" r="2.08"/><circle class="fil0" cx="79.58" cy="68.25" r="2.08"/><circle class="fil0" cx="90.65" cy="68.25" r="2.08"/><circle class="fil0" cx="101.73" cy="68.25" r="2.08"/><circle class="fil0" cx="112.8" cy="68.25" r="2.08"/><circle class="fil0" cx="123.87" cy="68.25" r="2.08"/><circle class="fil0" cx="134.94" cy="68.25" r="2.08"/><circle class="fil0" cx="2.08" cy="79.32" r="2.08"/><circle class="fil0" cx="13.15" cy="79.32" r="2.08"/><circle class="fil0" cx="24.22" cy="79.32" r="2.08"/><circle class="fil0" cx="35.29" cy="79.32" r="2.08"/><circle class="fil0" cx="46.36" cy="79.32" r="2.08"/><circle class="fil0" cx="57.44" cy="79.32" r="2.08"/><circle class="fil0" cx="68.51" cy="79.32" r="2.08"/><circle class="fil0" cx="79.58" cy="79.32" r="2.08"/><circle class="fil0" cx="90.65" cy="79.32" r="2.08"/><circle class="fil0" cx="101.73" cy="79.32" r="2.08"/><circle class="fil0" cx="112.8" cy="79.32" r="2.08"/><circle class="fil0" cx="123.87" cy="79.32" r="2.08"/><circle class="fil0" cx="134.94" cy="79.32" r="2.08"/><circle class="fil0" cx="2.08" cy="90.4" r="2.08"/><circle class="fil0" cx="13.15" cy="90.4" r="2.08"/><circle class="fil0" cx="24.22" cy="90.4" r="2.08"/><circle class="fil0" cx="35.29" cy="90.4" r="2.08"/><circle class="fil0" cx="46.36" cy="90.4" r="2.08"/><circle class="fil0" cx="57.44" cy="90.4" r="2.08"/><circle class="fil0" cx="68.51" cy="90.4" r="2.08"/><circle class="fil0" cx="79.58" cy="90.4" r="2.08"/><circle class="fil0" cx="90.65" cy="90.4" r="2.08"/><circle class="fil0" cx="101.73" cy="90.4" r="2.08"/><circle class="fil0" cx="112.8" cy="90.4" r="2.08"/><circle class="fil0" cx="123.87" cy="90.4" r="2.08"/><circle class="fil0" cx="134.94" cy="90.4" r="2.08"/><circle class="fil0" cx="2.08" cy="101.47" r="2.08"/><circle class="fil0" cx="13.15" cy="101.47" r="2.08"/><circle class="fil0" cx="24.22" cy="101.47" r="2.08"/><circle class="fil0" cx="35.29" cy="101.47" r="2.08"/><circle class="fil0" cx="46.36" cy="101.47" r="2.08"/><circle class="fil0" cx="57.44" cy="101.47" r="2.08"/><circle class="fil0" cx="68.51" cy="101.47" r="2.08"/><circle class="fil0" cx="79.58" cy="101.47" r="2.08"/><circle class="fil0" cx="90.65" cy="101.47" r="2.08"/><circle class="fil0" cx="101.73" cy="101.47" r="2.08"/><circle class="fil0" cx="112.8" cy="101.47" r="2.08"/><circle class="fil0" cx="123.87" cy="101.47" r="2.08"/><circle class="fil0" cx="134.94" cy="101.47" r="2.08"/><circle class="fil0" cx="2.08" cy="112.54" r="2.08"/><circle class="fil0" cx="13.15" cy="112.54" r="2.08"/><circle class="fil0" cx="24.22" cy="112.54" r="2.08"/><circle class="fil0" cx="35.29" cy="112.54" r="2.08"/><circle class="fil0" cx="46.36" cy="112.54" r="2.08"/><circle class="fil0" cx="57.44" cy="112.54" r="2.08"/><circle class="fil0" cx="68.51" cy="112.54" r="2.08"/><circle class="fil0" cx="79.58" cy="112.54" r="2.08"/><circle class="fil0" cx="90.65" cy="112.54" r="2.08"/><circle class="fil0" cx="101.73" cy="112.54" r="2.08"/><circle class="fil0" cx="112.8" cy="112.54" r="2.08"/><circle class="fil0" cx="123.87" cy="112.54" r="2.08"/><circle class="fil0" cx="134.94" cy="112.54" r="2.08"/><circle class="fil0" cx="2.08" cy="123.61" r="2.08"/><circle class="fil0" cx="13.15" cy="123.61" r="2.08"/><circle class="fil0" cx="24.22" cy="123.61" r="2.08"/><circle class="fil0" cx="35.29" cy="123.61" r="2.08"/><circle class="fil0" cx="46.36" cy="123.61" r="2.08"/><circle class="fil0" cx="57.44" cy="123.61" r="2.08"/><circle class="fil0" cx="68.51" cy="123.61" r="2.08"/><circle class="fil0" cx="79.58" cy="123.61" r="2.08"/><circle class="fil0" cx="90.65" cy="123.61" r="2.08"/><circle class="fil0" cx="101.73" cy="123.61" r="2.08"/><circle class="fil0" cx="112.8" cy="123.61" r="2.08"/><circle class="fil0" cx="123.87" cy="123.61" r="2.08"/><circle class="fil0" cx="134.94" cy="123.61" r="2.08"/><circle class="fil0" cx="146.31" cy="2.08" r="2.08"/><circle class="fil0" cx="157.38" cy="2.08" r="2.08"/><circle class="fil0" cx="168.45" cy="2.08" r="2.08"/><circle class="fil0" cx="179.52" cy="2.08" r="2.08"/><circle class="fil0" cx="190.6" cy="2.08" r="2.08"/><circle class="fil0" cx="201.67" cy="2.08" r="2.08"/><circle class="fil0" cx="212.74" cy="2.08" r="2.08"/><circle class="fil0" cx="223.81" cy="2.08" r="2.08"/><circle class="fil0" cx="234.89" cy="2.08" r="2.08"/><circle class="fil0" cx="245.96" cy="2.08" r="2.08"/><circle class="fil0" cx="257.03" cy="2.08" r="2.08"/><circle class="fil0" cx="268.1" cy="2.08" r="2.08"/><circle class="fil0" cx="279.17" cy="2.08" r="2.08"/><circle class="fil0" cx="290.25" cy="2.08" r="2.08"/><circle class="fil0" cx="301.32" cy="2.08" r="2.08"/><circle class="fil0" cx="312.39" cy="2.08" r="2.08"/><circle class="fil0" cx="146.31" cy="13.15" r="2.08"/><circle class="fil0" cx="157.38" cy="13.15" r="2.08"/><circle class="fil0" cx="168.45" cy="13.15" r="2.08"/><circle class="fil0" cx="179.52" cy="13.15" r="2.08"/><circle class="fil0" cx="190.6" cy="13.15" r="2.08"/><circle class="fil0" cx="201.67" cy="13.15" r="2.08"/><circle class="fil0" cx="212.74" cy="13.15" r="2.08"/><circle class="fil0" cx="223.81" cy="13.15" r="2.08"/><circle class="fil0" cx="234.89" cy="13.15" r="2.08"/><circle class="fil0" cx="245.96" cy="13.15" r="2.08"/><circle class="fil0" cx="257.03" cy="13.15" r="2.08"/><circle class="fil0" cx="268.1" cy="13.15" r="2.08"/><circle class="fil0" cx="279.17" cy="13.15" r="2.08"/><circle class="fil0" cx="290.25" cy="13.15" r="2.08"/><circle class="fil0" cx="301.32" cy="13.15" r="2.08"/><circle class="fil0" cx="312.39" cy="13.15" r="2.08"/><circle class="fil0" cx="146.31" cy="24.22" r="2.08"/><circle class="fil0" cx="157.38" cy="24.22" r="2.08"/><circle class="fil0" cx="168.45" cy="24.22" r="2.08"/><circle class="fil0" cx="179.52" cy="24.22" r="2.08"/><circle class="fil0" cx="190.6" cy="24.22" r="2.08"/><circle class="fil0" cx="201.67" cy="24.22" r="2.08"/><circle class="fil0" cx="212.74" cy="24.22" r="2.08"/><circle class="fil0" cx="223.81" cy="24.22" r="2.08"/><circle class="fil0" cx="234.89" cy="24.22" r="2.08"/><circle class="fil0" cx="245.96" cy="24.22" r="2.08"/><circle class="fil0" cx="257.03" cy="24.22" r="2.08"/><circle class="fil0" cx="268.1" cy="24.22" r="2.08"/><circle class="fil0" cx="279.17" cy="24.22" r="2.08"/><circle class="fil0" cx="290.25" cy="24.22" r="2.08"/><circle class="fil0" cx="301.32" cy="24.22" r="2.08"/><circle class="fil0" cx="312.39" cy="24.22" r="2.08"/><circle class="fil0" cx="146.31" cy="35.03" r="2.08"/><circle class="fil0" cx="157.38" cy="35.03" r="2.08"/><circle class="fil0" cx="168.45" cy="35.03" r="2.08"/><circle class="fil0" cx="179.52" cy="35.03" r="2.08"/><circle class="fil0" cx="190.6" cy="35.03" r="2.08"/><circle class="fil0" cx="201.67" cy="35.03" r="2.08"/><circle class="fil0" cx="212.74" cy="35.03" r="2.08"/><circle class="fil0" cx="223.81" cy="35.03" r="2.08"/><circle class="fil0" cx="234.89" cy="35.03" r="2.08"/><circle class="fil0" cx="245.96" cy="35.03" r="2.08"/><circle class="fil0" cx="257.03" cy="35.03" r="2.08"/><circle class="fil0" cx="268.1" cy="35.03" r="2.08"/><circle class="fil0" cx="279.17" cy="35.03" r="2.08"/><circle class="fil0" cx="290.25" cy="35.03" r="2.08"/><circle class="fil0" cx="301.32" cy="35.03" r="2.08"/><circle class="fil0" cx="312.39" cy="35.03" r="2.08"/><circle class="fil0" cx="146.31" cy="46.11" r="2.08"/><circle class="fil0" cx="157.38" cy="46.11" r="2.08"/><circle class="fil0" cx="168.45" cy="46.11" r="2.08"/><circle class="fil0" cx="179.52" cy="46.11" r="2.08"/><circle class="fil0" cx="190.6" cy="46.11" r="2.08"/><circle class="fil0" cx="201.67" cy="46.11" r="2.08"/><circle class="fil0" cx="212.74" cy="46.11" r="2.08"/><circle class="fil0" cx="223.81" cy="46.11" r="2.08"/><circle class="fil0" cx="234.89" cy="46.11" r="2.08"/><circle class="fil0" cx="245.96" cy="46.11" r="2.08"/><circle class="fil0" cx="257.03" cy="46.11" r="2.08"/><circle class="fil0" cx="268.1" cy="46.11" r="2.08"/><circle class="fil0" cx="279.17" cy="46.11" r="2.08"/><circle class="fil0" cx="290.25" cy="46.11" r="2.08"/><circle class="fil0" cx="301.32" cy="46.11" r="2.08"/><circle class="fil0" cx="312.39" cy="46.11" r="2.08"/><circle class="fil0" cx="146.31" cy="57.18" r="2.08"/><circle class="fil0" cx="157.38" cy="57.18" r="2.08"/><circle class="fil0" cx="168.45" cy="57.18" r="2.08"/><circle class="fil0" cx="179.52" cy="57.18" r="2.08"/><circle class="fil0" cx="190.6" cy="57.18" r="2.08"/><circle class="fil0" cx="201.67" cy="57.18" r="2.08"/><circle class="fil0" cx="212.74" cy="57.18" r="2.08"/><circle class="fil0" cx="223.81" cy="57.18" r="2.08"/><circle class="fil0" cx="234.89" cy="57.18" r="2.08"/><circle class="fil0" cx="245.96" cy="57.18" r="2.08"/><circle class="fil0" cx="257.03" cy="57.18" r="2.08"/><circle class="fil0" cx="268.1" cy="57.18" r="2.08"/><circle class="fil0" cx="279.17" cy="57.18" r="2.08"/><circle class="fil0" cx="290.25" cy="57.18" r="2.08"/><circle class="fil0" cx="301.32" cy="57.18" r="2.08"/><circle class="fil0" cx="312.39" cy="57.18" r="2.08"/><circle class="fil0" cx="146.31" cy="68.25" r="2.08"/><circle class="fil0" cx="157.38" cy="68.25" r="2.08"/><circle class="fil0" cx="168.45" cy="68.25" r="2.08"/><circle class="fil0" cx="179.52" cy="68.25" r="2.08"/><circle class="fil0" cx="190.6" cy="68.25" r="2.08"/><circle class="fil0" cx="201.67" cy="68.25" r="2.08"/><circle class="fil0" cx="212.74" cy="68.25" r="2.08"/><circle class="fil0" cx="223.81" cy="68.25" r="2.08"/><circle class="fil0" cx="234.89" cy="68.25" r="2.08"/><circle class="fil0" cx="245.96" cy="68.25" r="2.08"/><circle class="fil0" cx="257.03" cy="68.25" r="2.08"/><circle class="fil0" cx="268.1" cy="68.25" r="2.08"/><circle class="fil0" cx="279.17" cy="68.25" r="2.08"/><circle class="fil0" cx="290.25" cy="68.25" r="2.08"/><circle class="fil0" cx="301.32" cy="68.25" r="2.08"/><circle class="fil0" cx="312.39" cy="68.25" r="2.08"/><circle class="fil0" cx="146.31" cy="79.32" r="2.08"/><circle class="fil0" cx="157.38" cy="79.32" r="2.08"/><circle class="fil0" cx="168.45" cy="79.32" r="2.08"/><circle class="fil0" cx="179.52" cy="79.32" r="2.08"/><circle class="fil0" cx="190.6" cy="79.32" r="2.08"/><circle class="fil0" cx="201.67" cy="79.32" r="2.08"/><circle class="fil0" cx="212.74" cy="79.32" r="2.08"/><circle class="fil0" cx="223.81" cy="79.32" r="2.08"/><circle class="fil0" cx="234.89" cy="79.32" r="2.08"/><circle class="fil0" cx="245.96" cy="79.32" r="2.08"/><circle class="fil0" cx="257.03" cy="79.32" r="2.08"/><circle class="fil0" cx="268.1" cy="79.32" r="2.08"/><circle class="fil0" cx="279.17" cy="79.32" r="2.08"/><circle class="fil0" cx="290.25" cy="79.32" r="2.08"/><circle class="fil0" cx="301.32" cy="79.32" r="2.08"/><circle class="fil0" cx="312.39" cy="79.32" r="2.08"/><circle class="fil0" cx="146.31" cy="90.4" r="2.08"/><circle class="fil0" cx="157.38" cy="90.4" r="2.08"/><circle class="fil0" cx="168.45" cy="90.4" r="2.08"/><circle class="fil0" cx="179.52" cy="90.4" r="2.08"/><circle class="fil0" cx="190.6" cy="90.4" r="2.08"/><circle class="fil0" cx="201.67" cy="90.4" r="2.08"/><circle class="fil0" cx="212.74" cy="90.4" r="2.08"/><circle class="fil0" cx="223.81" cy="90.4" r="2.08"/><circle class="fil0" cx="234.89" cy="90.4" r="2.08"/><circle class="fil0" cx="245.96" cy="90.4" r="2.08"/><circle class="fil0" cx="257.03" cy="90.4" r="2.08"/><circle class="fil0" cx="268.1" cy="90.4" r="2.08"/><circle class="fil0" cx="279.17" cy="90.4" r="2.08"/><circle class="fil0" cx="290.25" cy="90.4" r="2.08"/><circle class="fil0" cx="301.32" cy="90.4" r="2.08"/><circle class="fil0" cx="312.39" cy="90.4" r="2.08"/><circle class="fil0" cx="146.31" cy="101.47" r="2.08"/><circle class="fil0" cx="157.38" cy="101.47" r="2.08"/><circle class="fil0" cx="168.45" cy="101.47" r="2.08"/><circle class="fil0" cx="179.52" cy="101.47" r="2.08"/><circle class="fil0" cx="190.6" cy="101.47" r="2.08"/><circle class="fil0" cx="201.67" cy="101.47" r="2.08"/><circle class="fil0" cx="212.74" cy="101.47" r="2.08"/><circle class="fil0" cx="223.81" cy="101.47" r="2.08"/><circle class="fil0" cx="234.89" cy="101.47" r="2.08"/><circle class="fil0" cx="245.96" cy="101.47" r="2.08"/><circle class="fil0" cx="257.03" cy="101.47" r="2.08"/><circle class="fil0" cx="268.1" cy="101.47" r="2.08"/><circle class="fil0" cx="279.17" cy="101.47" r="2.08"/><circle class="fil0" cx="290.25" cy="101.47" r="2.08"/><circle class="fil0" cx="301.32" cy="101.47" r="2.08"/><circle class="fil0" cx="312.39" cy="101.47" r="2.08"/><circle class="fil0" cx="146.31" cy="112.54" r="2.08"/><circle class="fil0" cx="157.38" cy="112.54" r="2.08"/><circle class="fil0" cx="168.45" cy="112.54" r="2.08"/><circle class="fil0" cx="179.52" cy="112.54" r="2.08"/><circle class="fil0" cx="190.6" cy="112.54" r="2.08"/><circle class="fil0" cx="201.67" cy="112.54" r="2.08"/><circle class="fil0" cx="212.74" cy="112.54" r="2.08"/><circle class="fil0" cx="223.81" cy="112.54" r="2.08"/><circle class="fil0" cx="234.89" cy="112.54" r="2.08"/><circle class="fil0" cx="245.96" cy="112.54" r="2.08"/><circle class="fil0" cx="257.03" cy="112.54" r="2.08"/><circle class="fil0" cx="268.1" cy="112.54" r="2.08"/><circle class="fil0" cx="279.17" cy="112.54" r="2.08"/><circle class="fil0" cx="290.25" cy="112.54" r="2.08"/><circle class="fil0" cx="301.32" cy="112.54" r="2.08"/><circle class="fil0" cx="312.39" cy="112.54" r="2.08"/><circle class="fil0" cx="146.31" cy="123.61" r="2.08"/><circle class="fil0" cx="157.38" cy="123.61" r="2.08"/><circle class="fil0" cx="168.45" cy="123.61" r="2.08"/><circle class="fil0" cx="179.52" cy="123.61" r="2.08"/><circle class="fil0" cx="190.6" cy="123.61" r="2.08"/><circle class="fil0" cx="201.67" cy="123.61" r="2.08"/><circle class="fil0" cx="212.74" cy="123.61" r="2.08"/><circle class="fil0" cx="223.81" cy="123.61" r="2.08"/><circle class="fil0" cx="234.89" cy="123.61" r="2.08"/><circle class="fil0" cx="245.96" cy="123.61" r="2.08"/><circle class="fil0" cx="257.03" cy="123.61" r="2.08"/><circle class="fil0" cx="268.1" cy="123.61" r="2.08"/><circle class="fil0" cx="279.17" cy="123.61" r="2.08"/><circle class="fil0" cx="290.25" cy="123.61" r="2.08"/><circle class="fil0" cx="301.32" cy="123.61" r="2.08"/><circle class="fil0" cx="312.39" cy="123.61" r="2.08"/><circle class="fil0" cx="2.08" cy="135.5" r="2.08"/><circle class="fil0" cx="13.15" cy="135.5" r="2.08"/><circle class="fil0" cx="24.22" cy="135.5" r="2.08"/><circle class="fil0" cx="35.29" cy="135.5" r="2.08"/><circle class="fil0" cx="46.36" cy="135.5" r="2.08"/><circle class="fil0" cx="57.44" cy="135.5" r="2.08"/><circle class="fil0" cx="68.51" cy="135.5" r="2.08"/><circle class="fil0" cx="79.58" cy="135.5" r="2.08"/><circle class="fil0" cx="90.65" cy="135.5" r="2.08"/><circle class="fil0" cx="101.73" cy="135.5" r="2.08"/><circle class="fil0" cx="112.8" cy="135.5" r="2.08"/><circle class="fil0" cx="123.87" cy="135.5" r="2.08"/><circle class="fil0" cx="134.94" cy="135.5" r="2.08"/><circle class="fil0" cx="2.08" cy="146.58" r="2.08"/><circle class="fil0" cx="13.15" cy="146.58" r="2.08"/><circle class="fil0" cx="24.22" cy="146.58" r="2.08"/><circle class="fil0" cx="35.29" cy="146.58" r="2.08"/><circle class="fil0" cx="46.36" cy="146.58" r="2.08"/><circle class="fil0" cx="57.44" cy="146.58" r="2.08"/><circle class="fil0" cx="68.51" cy="146.58" r="2.08"/><circle class="fil0" cx="79.58" cy="146.58" r="2.08"/><circle class="fil0" cx="90.65" cy="146.58" r="2.08"/><circle class="fil0" cx="101.73" cy="146.58" r="2.08"/><circle class="fil0" cx="112.8" cy="146.58" r="2.08"/><circle class="fil0" cx="123.87" cy="146.58" r="2.08"/><circle class="fil0" cx="134.94" cy="146.58" r="2.08"/><circle class="fil0" cx="2.08" cy="157.65" r="2.08"/><circle class="fil0" cx="13.15" cy="157.65" r="2.08"/><circle class="fil0" cx="24.22" cy="157.65" r="2.08"/><circle class="fil0" cx="35.29" cy="157.65" r="2.08"/><circle class="fil0" cx="46.36" cy="157.65" r="2.08"/><circle class="fil0" cx="57.44" cy="157.65" r="2.08"/><circle class="fil0" cx="68.51" cy="157.65" r="2.08"/><circle class="fil0" cx="79.58" cy="157.65" r="2.08"/><circle class="fil0" cx="90.65" cy="157.65" r="2.08"/><circle class="fil0" cx="101.73" cy="157.65" r="2.08"/><circle class="fil0" cx="112.8" cy="157.65" r="2.08"/><circle class="fil0" cx="123.87" cy="157.65" r="2.08"/><circle class="fil0" cx="134.94" cy="157.65" r="2.08"/><circle class="fil0" cx="146.31" cy="135.5" r="2.08"/><circle class="fil0" cx="157.38" cy="135.5" r="2.08"/><circle class="fil0" cx="168.45" cy="135.5" r="2.08"/><circle class="fil0" cx="179.52" cy="135.5" r="2.08"/><circle class="fil0" cx="190.6" cy="135.5" r="2.08"/><circle class="fil0" cx="201.67" cy="135.5" r="2.08"/><circle class="fil0" cx="212.74" cy="135.5" r="2.08"/><circle class="fil0" cx="223.81" cy="135.5" r="2.08"/><circle class="fil0" cx="234.89" cy="135.5" r="2.08"/><circle class="fil0" cx="245.96" cy="135.5" r="2.08"/><circle class="fil0" cx="257.03" cy="135.5" r="2.08"/><circle class="fil0" cx="268.1" cy="135.5" r="2.08"/><circle class="fil0" cx="279.17" cy="135.5" r="2.08"/><circle class="fil0" cx="290.25" cy="135.5" r="2.08"/><circle class="fil0" cx="301.32" cy="135.5" r="2.08"/><circle class="fil0" cx="312.39" cy="135.5" r="2.08"/><circle class="fil0" cx="146.31" cy="146.58" r="2.08"/><circle class="fil0" cx="157.38" cy="146.58" r="2.08"/><circle class="fil0" cx="168.45" cy="146.58" r="2.08"/><circle class="fil0" cx="179.52" cy="146.58" r="2.08"/><circle class="fil0" cx="190.6" cy="146.58" r="2.08"/><circle class="fil0" cx="201.67" cy="146.58" r="2.08"/><circle class="fil0" cx="212.74" cy="146.58" r="2.08"/><circle class="fil0" cx="223.81" cy="146.58" r="2.08"/><circle class="fil0" cx="234.89" cy="146.58" r="2.08"/><circle class="fil0" cx="245.96" cy="146.58" r="2.08"/><circle class="fil0" cx="257.03" cy="146.58" r="2.08"/><circle class="fil0" cx="268.1" cy="146.58" r="2.08"/><circle class="fil0" cx="279.17" cy="146.58" r="2.08"/><circle class="fil0" cx="290.25" cy="146.58" r="2.08"/><circle class="fil0" cx="301.32" cy="146.58" r="2.08"/><circle class="fil0" cx="312.39" cy="146.58" r="2.08"/><circle class="fil0" cx="146.31" cy="157.65" r="2.08"/><circle class="fil0" cx="157.38" cy="157.65" r="2.08"/><circle class="fil0" cx="168.45" cy="157.65" r="2.08"/><circle class="fil0" cx="179.52" cy="157.65" r="2.08"/><circle class="fil0" cx="190.6" cy="157.65" r="2.08"/><circle class="fil0" cx="201.67" cy="157.65" r="2.08"/><circle class="fil0" cx="212.74" cy="157.65" r="2.08"/><circle class="fil0" cx="223.81" cy="157.65" r="2.08"/><circle class="fil0" cx="234.89" cy="157.65" r="2.08"/><circle class="fil0" cx="245.96" cy="157.65" r="2.08"/><circle class="fil0" cx="257.03" cy="157.65" r="2.08"/><circle class="fil0" cx="268.1" cy="157.65" r="2.08"/><circle class="fil0" cx="279.17" cy="157.65" r="2.08"/><circle class="fil0" cx="290.25" cy="157.65" r="2.08"/><circle class="fil0" cx="301.32" cy="157.65" r="2.08"/><circle class="fil0" cx="312.39" cy="157.65" r="2.08"/><circle class="fil0" cx="323.9" cy="2.08" r="2.08"/><circle class="fil0" cx="334.97" cy="2.08" r="2.08"/><circle class="fil0" cx="323.9" cy="13.15" r="2.08"/><circle class="fil0" cx="334.97" cy="13.15" r="2.08"/><circle class="fil0" cx="323.9" cy="24.22" r="2.08"/><circle class="fil0" cx="334.97" cy="24.22" r="2.08"/><circle class="fil0" cx="323.9" cy="35.03" r="2.08"/><circle class="fil0" cx="334.97" cy="35.03" r="2.08"/><circle class="fil0" cx="323.9" cy="46.11" r="2.08"/><circle class="fil0" cx="334.97" cy="46.11" r="2.08"/><circle class="fil0" cx="323.9" cy="57.18" r="2.08"/><circle class="fil0" cx="334.97" cy="57.18" r="2.08"/><circle class="fil0" cx="323.9" cy="68.25" r="2.08"/><circle class="fil0" cx="334.97" cy="68.25" r="2.08"/><circle class="fil0" cx="323.9" cy="79.32" r="2.08"/><circle class="fil0" cx="334.97" cy="79.32" r="2.08"/><circle class="fil0" cx="323.9" cy="90.4" r="2.08"/><circle class="fil0" cx="334.97" cy="90.4" r="2.08"/><circle class="fil0" cx="323.9" cy="101.47" r="2.08"/><circle class="fil0" cx="334.97" cy="101.47" r="2.08"/><circle class="fil0" cx="323.9" cy="112.54" r="2.08"/><circle class="fil0" cx="334.97" cy="112.54" r="2.08"/><circle class="fil0" cx="323.9" cy="123.61" r="2.08"/><circle class="fil0" cx="334.97" cy="123.61" r="2.08"/><circle class="fil0" cx="323.9" cy="135.5" r="2.08"/><circle class="fil0" cx="334.97" cy="135.5" r="2.08"/><circle class="fil0" cx="323.9" cy="146.58" r="2.08"/><circle class="fil0" cx="334.97" cy="146.58" r="2.08"/><circle class="fil0" cx="323.9" cy="157.65" r="2.08"/><circle class="fil0" cx="334.97" cy="157.65" r="2.08"/><path d="M193.81 126.66c-.71 2.4-4.4 1.48-3.68-1.05.7-2.48 4.37-1.27 3.68 1.05zm-12.2-1.86c-.7-2.18 2.58-2.84 3.05-.95.53 2.11-2.47 2.78-3.05.95zm8.83-22.81c2.53-1.01 3.62 2.66 1.48 3.52-2.44.97-3.82-2.58-1.48-3.52zm-16.59-1.58c2.4-.92 3.62 2.75 1.36 3.56-2.53.91-3.67-2.68-1.36-3.56zm-14.61-8.17c2.97-1.02 4.04 3.39 1.5 4.28-2.87 1.01-4.4-3.29-1.5-4.28zm56.5-.51c2.22-1.04 3.63 2.4 1.53 3.47-1.07.55-2.29-.05-2.66-1-.54-1.39.32-2.09 1.13-2.47zm-20.74 8.9c.2-.47.93-1.37 1.31-1.78l8.23-10.81c.17-.22.1-.16.31-.4.25-.27.07-.13.36-.33 1.22.79 2.3 1.56 3.59 2.4 1 .65 2.69 1.64 3.58 2.44l-.11 2.05-17.26 6.44zm-30.72-4.62c.04-.66.25-1.1.19-1.86-.07-.96-.3-.89.24-1.53l11.69-12.65c.48-.44.59-.52.9-.92l1.72.2c.35 1.47 4.41 9.35 4.28 9.9l-5.42 6.92c-.59.74-1.24 1.54-1.7 2.28-1.9-.38-3.56-.37-4.59.99-.94-.16-6.05-2.68-7.31-3.31zm-29.67-10.22c2.54-.57 3.03 3.26.81 3.74-2.52.54-3.35-3.17-.81-3.74zm56.53-3.1c3.68.9 3.5.39 5.9-.87l6.16 4.16c-.22.58-8.16 10.81-9.19 12.16-.38.49-.96 1.22-1.28 1.72-.94-.19-1.08-.24-2.19-.24l-4.55-10.2 5.14-6.73zm1.35-8.05c1.94-.61 3.62.63 4.05 2.1.58 1.99-.74 3.62-2.13 4.02-4.1 1.2-5.97-4.84-1.92-6.13zm-14.1-.48c2.05-.47 2.69 2.73.69 3.16-2.11.45-2.83-2.67-.69-3.16zm35.06 2.17c.51-.67 1.81-2.72 2.52-2.84l-.54 15.87c-.34.2-1.54.8-1.77.9l-7.11-4.75 6.9-9.19zm-95.28-3.35c1.55-.47 11.74-4.22 12.28-4.19.59.03 1.41 1.19 2.25 1.92l12.73 12.04c1.31 1.49 3.86 3.53 5.31 5 .39.39.57.66.98 1.02.62.55 3.99 3.64 4 3.96-.1.04-.1.05-.33.06-.26 0-.07.01-.23-.02-.09-.01-.44-.12-.56-.16-.34-.1-.65-.17-1.02-.27-4.32-1.18-10.7-2.73-14.49-3.95.44-5.58-5.86-5.88-7.33-3.28l-12.29-8.78c-.52-.39-1.26-.96-1.74-1.22.23-.85.29-1.17.43-2.14zm-4.78-1.53c2.56-.83 3.35 2.98 1.18 3.64-2.42.75-3.59-2.86-1.18-3.64zm100.39.7l-9.14 12c-.99-.5-2.19-1.43-3.13-2.06-.76-.51-2.29-1.64-3.06-1.97.15-1.05.37-1.55.49-2.83l14.84-5.15zm2.84-4.35c2.3-1 3.63 2.8 1.22 3.58-1.16.38-2.13-.36-2.42-1.19-.46-1.31.37-2.03 1.2-2.39zm-83.57.13c.16-.14-.15.05.25-.17l1.47-.53c3.1-1.1 9.93-3.6 12.31-4.25 1.22 1.1.67 2.13 4.84 2.86.33 2.03 3.68 15.67 4.41 18.62.32 1.31 2.55 7.97.22 5.8l-2.27-2.17c-1.03-.91-1.96-1.93-3-2.87-2.29-2.06-5.37-5.27-7.63-7.26l-7.57-7.18c-1.12-1.14-1.81-1.55-3.01-2.85zm-17.6-13.55c1.24 1 2 1.91 3.28 3.08.6.55 1.16 1 1.73 1.57l3.25 3.19c.56.53 4.74 4.25 4.97 4.76l-11.25 3.86c-.49-.36-.7-.78-1.34-1.14-.6-.34-1.12-.39-1.69-.63l.01-14.31 1.03-.39zm65.66 24.01c2.65-3.71-.24-3.07 1.4-4.95l9.66-10.54c.59.28.96.79 1.77.99l-.93 8.34c-2.33.38-3.72 1.45-4.51 3.19-1.23 2.74-.01 4.39.87 5.98-.81 1.32-3.73 4.5-4.29 5.64-.64-.55-3.88-8.32-3.98-8.65zm-6.58-17.35l16.53-.3c-.4.8-3.32 3.63-4.08 4.55l-2.66 2.93c-.63.64-3.72 3.83-3.95 4.34-1.89-.5-3.06-.49-4.21.81-1.69 1.91-.66 3.21-.55 4.34-.68.45-1.63 1.65-2.49 2.51l-3.85 4.17c-.9 1-5.5 6.35-6.36 6.66-.07-.69 1.85-5.14 2.27-6.18 2.99-7.99 6.22-15.9 9.35-23.83zM160.84 89.9l-.87-.07c-.32-.5-3.8-15.58-4.44-18.32-.46-1.97-1.06-4.13-1.45-6.18 1.56-.52 2.78-2.06 3.19-3.97l14.84-.27-3.15 8.12-8.13 20.69zm-9.85-32.58c1.94-.67 3.61.66 4.03 2.1.58 1.98-.72 3.62-2.13 4.02-4.05 1.17-6.02-4.71-1.91-6.12zm44-.13c1.4-.39 2.65.61 2.94 1.73.36 1.4-.56 2.64-1.63 2.96-3.06.94-4.7-3.74-1.32-4.7zm10.38-2.04l.8.83c1.21 1.11 1.8 1.11 3.5 1.16l4.71 9.37c-.84 1.1-1.24 1.48-1.3 3.44-.83.53-14.03 5.01-14.72 5.18-.96-1.1-1.37-2.05-3.15-2.59l.94-8.25c.87-.46 2.55-.5 3.61-2.67 1-2.06.32-3.1-.37-4.83l5.98-1.63zm-29.87 3.6c.52-1.6 1.34-3.47 1.99-5.08.69-1.7 1.32-3.32 1.99-5.04 1.32-3.38 2.63-6.88 4.03-10.12l1.06-.03c.67 1.2 1.45 3.06 2.05 4.38.82 1.81 5.75 12.21 5.95 13.05-1.79 1.9-.86 1.31-1.66 2.61l-15.4.23zm33.14-7.64c2.44-.52 3.21 3.21.83 3.73-2.52.56-3.41-3.18-.83-3.73zm-89.7 3.43c-.47-.42-1.37-1.13-1.66-1.59 1.69.27 18.85 4.73 22.05 5.54 1.21.31 2.44.61 3.67.92 1.11.28 5.27.88 2.69 1.68l-2.88.99c-2.27.76-10.67 3.9-11.82 3.99l-12.05-11.54zm-6.33-5.51c2.43-1.01 3.62 2.63 1.45 3.51-1.76.72-3.22-1.11-2.49-2.64.28-.59.51-.66 1.03-.88zm34.32 9.04c-.92-.08-21.12-5.27-22.7-5.69l-6.61-1.69c-.09-.07-.5-.25 0-.73l25.02-12.68c1.61 1.43 2.26.94 2.7 1.32.21.29 3.96 15.72 4.04 16.88-.52.47-.9.55-1.44 1.15-.43.48-.59.82-1.01 1.44zm9.88-.16c.42-.59 11.66-9.58 12.19-10 3.47-2.78 8.95-7.49 12.26-9.89l-8.21 20.83-15.79.27-.44-1.21zM147.63 38c.45-.41.8-.61 1.2-1.1.36-.44.52-1.07.82-1.41 2.65-.15 29.79-.12 30.21.09.29.46.06.58-.26.87-.31.28-.51.37-.81.62-5.41 4.55-11.57 9.4-17.13 13.95l-6.29 5.06c-1.86-.97-1.34-.89-3.81-1.22L147.62 38zm35.73-5.46c2.33-.84 3.53 2.93 1.14 3.65-2.34.7-3.7-2.73-1.14-3.65zm-38.72 3.55c-.48-.26-.9-.7-.97-1.29-.07-1.2.26-1.8 1.05-2.16.85-.4 1.8-.16 2.35.5 1.18 1.42-.01 3.62-2.42 2.95zm46.66 2.22c-.74-.54-2.78-2.26-3.45-2.57.27-1.34.31-2.52-.41-3.59-1.82-2.69-6.06-2.85-7.54 1.09h-30.24c-.31-.4-1.47-3.79-5.09-2.91-2.22.54-3.26 2.25-3.06 4.99l-25.07 12.67c-1.94-2.11-5.14-1.69-6.63.57-1.62 2.46.01 5.71 2.39 6.16l-.01 14.65c-.31.47-.87.65-1.26 1.08-2.06 2.32-1.03 5.91 1.8 6.76 1.86.56 2.21-.07 3.56-.39l5.58 4c1.84 1.3 3.71 2.61 5.51 3.95 4.23 3.16 3.19 1.77 3.57 3.74.32 1.71 1.82 3.12 3.71 3.27 1.81.14 2.47-.6 3.42-1.33l17.45 4.7c.43 2.57 2.93 4.14 5.4 3.65 1.07-.21 1.33-.64 2.06-.93l7.46 3.4c-.23 3.2 1.38 5.08 4.54 5.07l5.92 15.16c-.8 1.27-1.99 2.54-.66 4.65 1.99 3.18 7.36 1.22 6.27-2.81-.24-.88-.76-1.5-1.3-1.86-.98-.66-1.3-.41-2.22-.77l-5.91-15.22c1.83-1.49 2.01-3.29.86-5.75l4.85-6.27c.54-.68 1.14-1.51 1.69-2.04 1.16 2.98 2.85 5.97 4.01 9.02-.73 1.27-1.82 1.92-1.35 4.19.34 1.65 1.34 2.38 2.62 3.01l1.06 14.43-.39.22c-.12.06-.18.08-.29.14-1.65.87-2.51 2.45-2.23 4.36.68 4.62 7.63 4.69 8.21-.14.37-3.07-1.85-3.88-3.05-4.59l-1.04-14.18.82-.36c.29-.12.42-.21.65-.35 1.53-.96 1.87-2.32 1.82-4.16.73-.47 17.29-6.69 18.15-6.8.53.94 2.02 1.49 3.51 1.34 2.68-.28 4.35-3.14 3.25-5.79-.69-1.65-1.74-1.75-2.53-2.35l.53-15.71c.34-.25.93-.39 1.38-.72 2.37-1.74 2.4-4.95.09-6.76-.95-.74-1.85-.85-3.28-.76l-4.66-9.28c.33-.51.53-.5.9-1.18 1.45-2.65-.29-5.92-3.26-6.15-1.65-.13-2.1.45-3.11.94l-14.96-11.49zm13.39 13.11c.02.02.06.05.08.07.35.32.24.22.06 1.45-1.48.54-3.39.94-4.93 1.37-4.86 1.35-1.76.4-5.31.61l-4-8.73c-1.39-2.84-2.61-5.83-3.95-8.58l18.04 13.82z" fill="#75bdbd"/></g></g></svg>