<svg xmlns="http://www.w3.org/2000/svg" width="707.006" height="341.972" viewBox="0 0 7237.22 3500.57" shape-rendering="geometricPrecision" text-rendering="geometricPrecision" image-rendering="optimizeQuality" fill-rule="evenodd" clip-rule="evenodd"><defs><style>.fil1{fill:#75bdbd}.fil0{fill:#d9e3f2}.fil2{fill:#75bdbd;fill-rule:nonzero}</style></defs><g id="Слой_x0020_1"><g id="_1805317840"><circle class="fil0" cx="63.41" cy="63.4" r="63.41"/><circle class="fil0" cx="401.57" cy="63.4" r="63.41"/><circle class="fil0" cx="739.73" cy="63.4" r="63.41"/><circle class="fil0" cx="1077.89" cy="63.4" r="63.41"/><circle class="fil0" cx="1416.06" cy="63.4" r="63.41"/><circle class="fil0" cx="1754.22" cy="63.4" r="63.41"/><circle class="fil0" cx="2092.38" cy="63.4" r="63.41"/><circle class="fil0" cx="2430.55" cy="63.4" r="63.41"/><circle class="fil0" cx="2768.71" cy="63.4" r="63.41"/><circle class="fil0" cx="3106.87" cy="63.4" r="63.41"/><circle class="fil0" cx="3445.03" cy="63.4" r="63.41"/><circle class="fil0" cx="3783.2" cy="63.4" r="63.41"/><circle class="fil0" cx="4121.36" cy="63.4" r="63.41"/><circle class="fil0" cx="4459.52" cy="63.4" r="63.41"/><circle class="fil0" cx="63.41" cy="401.57" r="63.41"/><circle class="fil0" cx="401.57" cy="401.57" r="63.41"/><circle class="fil0" cx="739.73" cy="401.57" r="63.41"/><circle class="fil0" cx="1077.89" cy="401.57" r="63.41"/><circle class="fil0" cx="1416.06" cy="401.57" r="63.41"/><circle class="fil0" cx="1754.22" cy="401.57" r="63.41"/><circle class="fil0" cx="2092.38" cy="401.57" r="63.41"/><circle class="fil0" cx="2430.55" cy="401.57" r="63.41"/><circle class="fil0" cx="2768.71" cy="401.57" r="63.41"/><circle class="fil0" cx="3106.87" cy="401.57" r="63.41"/><circle class="fil0" cx="3445.03" cy="401.57" r="63.41"/><circle class="fil0" cx="3783.2" cy="401.57" r="63.41"/><circle class="fil0" cx="4121.36" cy="401.57" r="63.41"/><circle class="fil0" cx="4459.52" cy="401.57" r="63.41"/><circle class="fil0" cx="63.41" cy="739.73" r="63.41"/><circle class="fil0" cx="401.57" cy="739.73" r="63.41"/><circle class="fil0" cx="739.73" cy="739.73" r="63.41"/><circle class="fil0" cx="1077.89" cy="739.73" r="63.41"/><circle class="fil0" cx="1416.06" cy="739.73" r="63.41"/><circle class="fil0" cx="1754.22" cy="739.73" r="63.41"/><circle class="fil0" cx="2092.38" cy="739.73" r="63.41"/><circle class="fil0" cx="2430.55" cy="739.73" r="63.41"/><circle class="fil0" cx="2768.71" cy="739.73" r="63.41"/><circle class="fil0" cx="3106.87" cy="739.73" r="63.41"/><circle class="fil0" cx="3445.03" cy="739.73" r="63.41"/><circle class="fil0" cx="3783.2" cy="739.73" r="63.41"/><circle class="fil0" cx="4121.36" cy="739.73" r="63.41"/><circle class="fil0" cx="4459.52" cy="739.73" r="63.41"/><circle class="fil0" cx="63.41" cy="1077.89" r="63.41"/><circle class="fil0" cx="401.57" cy="1077.89" r="63.41"/><circle class="fil0" cx="739.73" cy="1077.89" r="63.41"/><circle class="fil0" cx="1077.89" cy="1077.89" r="63.41"/><circle class="fil0" cx="1416.06" cy="1077.89" r="63.41"/><circle class="fil0" cx="1754.22" cy="1077.89" r="63.41"/><circle class="fil0" cx="2092.38" cy="1077.89" r="63.41"/><circle class="fil0" cx="2430.55" cy="1077.89" r="63.41"/><circle class="fil0" cx="2768.71" cy="1077.89" r="63.41"/><circle class="fil0" cx="3106.87" cy="1077.89" r="63.41"/><circle class="fil0" cx="3445.03" cy="1077.89" r="63.41"/><circle class="fil0" cx="3783.2" cy="1077.89" r="63.41"/><circle class="fil0" cx="4121.36" cy="1077.89" r="63.41"/><circle class="fil0" cx="4459.52" cy="1077.89" r="63.41"/><circle class="fil0" cx="63.41" cy="1416.05" r="63.41"/><circle class="fil0" cx="401.57" cy="1416.05" r="63.41"/><circle class="fil0" cx="739.73" cy="1416.05" r="63.41"/><circle class="fil0" cx="1077.89" cy="1416.05" r="63.41"/><circle class="fil0" cx="1416.06" cy="1416.05" r="63.41"/><circle class="fil0" cx="1754.22" cy="1416.05" r="63.41"/><circle class="fil0" cx="2092.38" cy="1416.05" r="63.41"/><circle class="fil0" cx="2430.55" cy="1416.05" r="63.41"/><circle class="fil0" cx="2768.71" cy="1416.05" r="63.41"/><circle class="fil0" cx="3106.87" cy="1416.05" r="63.41"/><circle class="fil0" cx="3445.03" cy="1416.05" r="63.41"/><circle class="fil0" cx="3783.2" cy="1416.05" r="63.41"/><circle class="fil0" cx="4121.36" cy="1416.05" r="63.41"/><circle class="fil0" cx="4459.52" cy="1416.05" r="63.41"/><circle class="fil0" cx="63.41" cy="1746.35" r="63.41"/><circle class="fil0" cx="401.57" cy="1746.35" r="63.41"/><circle class="fil0" cx="739.73" cy="1746.35" r="63.41"/><circle class="fil0" cx="1077.89" cy="1746.35" r="63.41"/><circle class="fil0" cx="1416.06" cy="1746.35" r="63.41"/><circle class="fil0" cx="1754.22" cy="1746.35" r="63.41"/><circle class="fil0" cx="2092.38" cy="1746.35" r="63.41"/><circle class="fil0" cx="2430.55" cy="1746.35" r="63.41"/><circle class="fil0" cx="2768.71" cy="1746.35" r="63.41"/><circle class="fil0" cx="3106.87" cy="1746.35" r="63.41"/><circle class="fil0" cx="3445.03" cy="1746.35" r="63.41"/><circle class="fil0" cx="3783.2" cy="1746.35" r="63.41"/><circle class="fil0" cx="4121.36" cy="1746.35" r="63.41"/><circle class="fil0" cx="4459.52" cy="1746.35" r="63.41"/><circle class="fil0" cx="63.41" cy="2084.51" r="63.41"/><circle class="fil0" cx="401.57" cy="2084.51" r="63.41"/><circle class="fil0" cx="739.73" cy="2084.51" r="63.41"/><circle class="fil0" cx="1077.89" cy="2084.51" r="63.41"/><circle class="fil0" cx="1416.06" cy="2084.51" r="63.41"/><circle class="fil0" cx="1754.22" cy="2084.51" r="63.41"/><circle class="fil0" cx="2092.38" cy="2084.51" r="63.41"/><circle class="fil0" cx="2430.55" cy="2084.51" r="63.41"/><circle class="fil0" cx="2768.71" cy="2084.51" r="63.41"/><circle class="fil0" cx="3106.87" cy="2084.51" r="63.41"/><circle class="fil0" cx="3445.03" cy="2084.51" r="63.41"/><circle class="fil0" cx="3783.2" cy="2084.51" r="63.41"/><circle class="fil0" cx="4121.36" cy="2084.51" r="63.41"/><circle class="fil0" cx="4459.52" cy="2084.51" r="63.41"/><circle class="fil0" cx="63.41" cy="2422.68" r="63.41"/><circle class="fil0" cx="401.57" cy="2422.68" r="63.41"/><circle class="fil0" cx="739.73" cy="2422.68" r="63.41"/><circle class="fil0" cx="1077.89" cy="2422.68" r="63.41"/><circle class="fil0" cx="1416.06" cy="2422.68" r="63.41"/><circle class="fil0" cx="1754.22" cy="2422.68" r="63.41"/><circle class="fil0" cx="2092.38" cy="2422.68" r="63.41"/><circle class="fil0" cx="2430.55" cy="2422.68" r="63.41"/><circle class="fil0" cx="2768.71" cy="2422.68" r="63.41"/><circle class="fil0" cx="3106.87" cy="2422.68" r="63.41"/><circle class="fil0" cx="3445.03" cy="2422.68" r="63.41"/><circle class="fil0" cx="3783.2" cy="2422.68" r="63.41"/><circle class="fil0" cx="4121.36" cy="2422.68" r="63.41"/><circle class="fil0" cx="4459.52" cy="2422.68" r="63.41"/><circle class="fil0" cx="63.41" cy="2760.84" r="63.41"/><circle class="fil0" cx="401.57" cy="2760.84" r="63.41"/><circle class="fil0" cx="739.73" cy="2760.84" r="63.41"/><circle class="fil0" cx="1077.89" cy="2760.84" r="63.41"/><circle class="fil0" cx="1416.06" cy="2760.84" r="63.41"/><circle class="fil0" cx="1754.22" cy="2760.84" r="63.41"/><circle class="fil0" cx="2092.38" cy="2760.84" r="63.41"/><circle class="fil0" cx="2430.55" cy="2760.84" r="63.41"/><circle class="fil0" cx="2768.71" cy="2760.84" r="63.41"/><circle class="fil0" cx="3106.87" cy="2760.84" r="63.41"/><circle class="fil0" cx="3445.03" cy="2760.84" r="63.41"/><circle class="fil0" cx="3783.2" cy="2760.84" r="63.41"/><circle class="fil0" cx="4121.36" cy="2760.84" r="63.41"/><circle class="fil0" cx="4459.52" cy="2760.84" r="63.41"/><circle class="fil0" cx="63.41" cy="3099" r="63.41"/><circle class="fil0" cx="401.57" cy="3099" r="63.41"/><circle class="fil0" cx="739.73" cy="3099" r="63.41"/><circle class="fil0" cx="1077.89" cy="3099" r="63.41"/><circle class="fil0" cx="1416.06" cy="3099" r="63.41"/><circle class="fil0" cx="1754.22" cy="3099" r="63.41"/><circle class="fil0" cx="2092.38" cy="3099" r="63.41"/><circle class="fil0" cx="2430.55" cy="3099" r="63.41"/><circle class="fil0" cx="2768.71" cy="3099" r="63.41"/><circle class="fil0" cx="3106.87" cy="3099" r="63.41"/><circle class="fil0" cx="3445.03" cy="3099" r="63.41"/><circle class="fil0" cx="3783.2" cy="3099" r="63.41"/><circle class="fil0" cx="4121.36" cy="3099" r="63.41"/><circle class="fil0" cx="4459.52" cy="3099" r="63.41"/><circle class="fil0" cx="63.41" cy="3437.17" r="63.41"/><circle class="fil0" cx="401.57" cy="3437.17" r="63.41"/><circle class="fil0" cx="739.73" cy="3437.17" r="63.41"/><circle class="fil0" cx="1077.89" cy="3437.17" r="63.41"/><circle class="fil0" cx="1416.06" cy="3437.17" r="63.41"/><circle class="fil0" cx="1754.22" cy="3437.17" r="63.41"/><circle class="fil0" cx="2092.38" cy="3437.17" r="63.41"/><circle class="fil0" cx="2430.55" cy="3437.17" r="63.41"/><circle class="fil0" cx="2768.71" cy="3437.17" r="63.41"/><circle class="fil0" cx="3106.87" cy="3437.17" r="63.41"/><circle class="fil0" cx="3445.03" cy="3437.17" r="63.41"/><circle class="fil0" cx="3783.2" cy="3437.17" r="63.41"/><circle class="fil0" cx="4121.36" cy="3437.17" r="63.41"/><circle class="fil0" cx="4459.52" cy="3437.17" r="63.41"/><circle class="fil0" cx="4806.68" cy="63.4" r="63.41"/><circle class="fil0" cx="5144.84" cy="63.4" r="63.41"/><circle class="fil0" cx="5483" cy="63.4" r="63.41"/><circle class="fil0" cx="5821.16" cy="63.4" r="63.41"/><circle class="fil0" cx="6159.33" cy="63.4" r="63.41"/><circle class="fil0" cx="6497.49" cy="63.4" r="63.41"/><circle class="fil0" cx="6835.65" cy="63.4" r="63.41"/><circle class="fil0" cx="7173.81" cy="63.4" r="63.41"/><circle class="fil0" cx="4806.68" cy="401.57" r="63.41"/><circle class="fil0" cx="5144.84" cy="401.57" r="63.41"/><circle class="fil0" cx="5483" cy="401.57" r="63.41"/><circle class="fil0" cx="5821.16" cy="401.57" r="63.41"/><circle class="fil0" cx="6159.33" cy="401.57" r="63.41"/><circle class="fil0" cx="6497.49" cy="401.57" r="63.41"/><circle class="fil0" cx="6835.65" cy="401.57" r="63.41"/><circle class="fil0" cx="7173.81" cy="401.57" r="63.41"/><circle class="fil0" cx="4806.68" cy="739.73" r="63.41"/><circle class="fil0" cx="5144.84" cy="739.73" r="63.41"/><circle class="fil0" cx="5483" cy="739.73" r="63.41"/><circle class="fil0" cx="5821.16" cy="739.73" r="63.41"/><circle class="fil0" cx="6159.33" cy="739.73" r="63.41"/><circle class="fil0" cx="6497.49" cy="739.73" r="63.41"/><circle class="fil0" cx="6835.65" cy="739.73" r="63.41"/><circle class="fil0" cx="7173.81" cy="739.73" r="63.41"/><circle class="fil0" cx="4806.68" cy="1077.89" r="63.41"/><circle class="fil0" cx="5144.84" cy="1077.89" r="63.41"/><circle class="fil0" cx="5483" cy="1077.89" r="63.41"/><circle class="fil0" cx="5821.16" cy="1077.89" r="63.41"/><circle class="fil0" cx="6159.33" cy="1077.89" r="63.41"/><circle class="fil0" cx="6497.49" cy="1077.89" r="63.41"/><circle class="fil0" cx="6835.65" cy="1077.89" r="63.41"/><circle class="fil0" cx="7173.81" cy="1077.89" r="63.41"/><circle class="fil0" cx="4806.68" cy="1416.05" r="63.41"/><circle class="fil0" cx="5144.84" cy="1416.05" r="63.41"/><circle class="fil0" cx="5483" cy="1416.05" r="63.41"/><circle class="fil0" cx="5821.16" cy="1416.05" r="63.41"/><circle class="fil0" cx="6159.33" cy="1416.05" r="63.41"/><circle class="fil0" cx="6497.49" cy="1416.05" r="63.41"/><circle class="fil0" cx="6835.65" cy="1416.05" r="63.41"/><circle class="fil0" cx="7173.81" cy="1416.05" r="63.41"/><circle class="fil0" cx="4806.68" cy="1746.35" r="63.41"/><circle class="fil0" cx="5144.84" cy="1746.35" r="63.41"/><circle class="fil0" cx="5483" cy="1746.35" r="63.41"/><circle class="fil0" cx="5821.16" cy="1746.35" r="63.41"/><circle class="fil0" cx="6159.33" cy="1746.35" r="63.41"/><circle class="fil0" cx="6497.49" cy="1746.35" r="63.41"/><circle class="fil0" cx="6835.65" cy="1746.35" r="63.41"/><circle class="fil0" cx="7173.81" cy="1746.35" r="63.41"/><circle class="fil0" cx="4806.68" cy="2084.51" r="63.41"/><circle class="fil0" cx="5144.84" cy="2084.51" r="63.41"/><circle class="fil0" cx="5483" cy="2084.51" r="63.41"/><circle class="fil0" cx="5821.16" cy="2084.51" r="63.41"/><circle class="fil0" cx="6159.33" cy="2084.51" r="63.41"/><circle class="fil0" cx="6497.49" cy="2084.51" r="63.41"/><circle class="fil0" cx="6835.65" cy="2084.51" r="63.41"/><circle class="fil0" cx="7173.81" cy="2084.51" r="63.41"/><circle class="fil0" cx="4806.68" cy="2422.68" r="63.41"/><circle class="fil0" cx="5144.84" cy="2422.68" r="63.41"/><circle class="fil0" cx="5483" cy="2422.68" r="63.41"/><circle class="fil0" cx="5821.16" cy="2422.68" r="63.41"/><circle class="fil0" cx="6159.33" cy="2422.68" r="63.41"/><circle class="fil0" cx="6497.49" cy="2422.68" r="63.41"/><circle class="fil0" cx="6835.65" cy="2422.68" r="63.41"/><circle class="fil0" cx="7173.81" cy="2422.68" r="63.41"/><circle class="fil0" cx="4806.68" cy="2760.84" r="63.41"/><circle class="fil0" cx="5144.84" cy="2760.84" r="63.41"/><circle class="fil0" cx="5483" cy="2760.84" r="63.41"/><circle class="fil0" cx="5821.16" cy="2760.84" r="63.41"/><circle class="fil0" cx="6159.33" cy="2760.84" r="63.41"/><circle class="fil0" cx="6497.49" cy="2760.84" r="63.41"/><circle class="fil0" cx="6835.65" cy="2760.84" r="63.41"/><circle class="fil0" cx="7173.81" cy="2760.84" r="63.41"/><circle class="fil0" cx="4806.68" cy="3099" r="63.41"/><circle class="fil0" cx="5144.84" cy="3099" r="63.41"/><circle class="fil0" cx="5483" cy="3099" r="63.41"/><circle class="fil0" cx="5821.16" cy="3099" r="63.41"/><circle class="fil0" cx="6159.33" cy="3099" r="63.41"/><circle class="fil0" cx="6497.49" cy="3099" r="63.41"/><circle class="fil0" cx="6835.65" cy="3099" r="63.41"/><circle class="fil0" cx="7173.81" cy="3099" r="63.41"/><circle class="fil0" cx="4806.68" cy="3437.17" r="63.41"/><circle class="fil0" cx="5144.84" cy="3437.17" r="63.41"/><circle class="fil0" cx="5483" cy="3437.17" r="63.41"/><circle class="fil0" cx="5821.16" cy="3437.17" r="63.41"/><circle class="fil0" cx="6159.33" cy="3437.17" r="63.41"/><circle class="fil0" cx="6497.49" cy="3437.17" r="63.41"/><circle class="fil0" cx="6835.65" cy="3437.17" r="63.41"/><circle class="fil0" cx="7173.81" cy="3437.17" r="63.41"/></g><path class="fil1" d="M2446.46 1719.53h793.02c16.61 0 30.19 13.61 30.19 30.19 0 16.58-13.61 30.19-30.19 30.19h-794.15l86.44 86.44c11.74 11.74 11.74 30.95 0 42.7-11.74 11.74-30.95 11.74-42.7 0l-134.8-134.8c-.96-.75-1.89-1.57-2.78-2.45-5.89-5.89-8.83-13.66-8.81-21.43v-.64c0-10.18 5.11-19.22 12.89-24.7l133.5-133.5c11.74-11.74 30.95-11.74 42.7 0 11.74 11.74 11.74 30.95 0 42.7l-85.31 85.31z"/><path class="fil2" d="M2450.02 1718.06h789.46c8.7 0 16.62 3.57 22.36 9.3 5.74 5.74 9.31 13.66 9.31 22.36 0 8.69-3.57 16.62-9.31 22.36-5.74 5.74-13.66 9.31-22.35 9.31H2448.9l83.92 83.93c6.16 6.16 9.24 14.28 9.24 22.39 0 8.11-3.08 16.23-9.24 22.39s-14.28 9.24-22.39 9.24c-8.11 0-16.23-3.08-22.39-9.24l-134.75-134.75-1.4-1.16-1.86-1.77a31.689 31.689 0 01-6.42-9.85c-1.6-3.89-2.39-8.05-2.38-12.19v-.62c0-5.26 1.29-10.21 3.57-14.58 2.33-4.49 5.73-8.36 9.83-11.27l133.41-133.41c6.16-6.16 14.28-9.24 22.39-9.24 8.11 0 16.24 3.09 22.39 9.24 6.16 6.16 9.24 14.28 9.24 22.39 0 8.11-3.08 16.23-9.24 22.39l-82.79 82.8zm789.46 2.95h-796.57l87.82-87.83c5.58-5.58 8.37-12.95 8.37-20.31 0-7.36-2.79-14.72-8.37-20.31-5.58-5.58-12.95-8.37-20.31-8.37-7.36 0-14.73 2.79-20.31 8.37-31.63 31.63-103.1 111.31-133.69 133.66a29.09 29.09 0 00-9.03 10.3 28.305 28.305 0 00-3.23 13.19v.64c-.01 3.77.71 7.55 2.15 11.07 1.39 3.39 3.47 6.57 6.22 9.32l1.3 1.22c42.07 34.94 95.74 95.49 136.28 136.03 5.58 5.58 12.95 8.37 20.31 8.37 7.36 0 14.73-2.79 20.31-8.37 5.58-5.58 8.37-12.95 8.37-20.31 0-7.36-2.79-14.72-8.37-20.31l-88.95-88.96h797.7c7.88 0 15.07-3.24 20.27-8.44 5.21-5.2 8.45-12.38 8.45-20.27 0-7.89-3.24-15.08-8.44-20.28-5.2-5.2-12.38-8.44-20.28-8.44z"/><path class="fil1" d="M4790.76 1719.53h-793.02c-16.61 0-30.19 13.61-30.19 30.19 0 16.58 13.61 30.19 30.19 30.19h794.15l-86.44 86.44c-11.74 11.74-11.74 30.95 0 42.7 11.74 11.74 30.95 11.74 42.7 0l134.8-134.8c.96-.75 1.89-1.57 2.78-2.45 5.89-5.89 8.82-13.66 8.8-21.43v-.64c0-10.18-5.11-19.22-12.89-24.7l-133.5-133.5c-11.74-11.74-30.95-11.74-42.7 0-11.74 11.74-11.74 30.95 0 42.7l85.31 85.31z"/><path class="fil2" d="M4790.76 1721.01h-793.02c-7.89 0-15.07 3.24-20.27 8.44-5.21 5.2-8.44 12.39-8.44 20.28 0 7.89 3.24 15.07 8.44 20.28 5.2 5.2 12.39 8.44 20.27 8.44h797.71l-88.96 88.96c-5.58 5.58-8.37 12.95-8.37 20.31 0 7.36 2.8 14.73 8.37 20.31 5.58 5.58 12.95 8.37 20.31 8.37 7.36 0 14.73-2.79 20.31-8.37 40.68-40.68 94.06-100.87 136.28-136.04l1.3-1.21c2.75-2.76 4.83-5.94 6.22-9.32 1.44-3.52 2.16-7.3 2.15-11.08v-.64c0-4.76-1.17-9.25-3.23-13.2a29.188 29.188 0 00-9.03-10.3c-27.19-19.14-104.5-104.47-133.69-133.66-5.58-5.58-12.95-8.37-20.31-8.37-7.36 0-14.73 2.79-20.31 8.37-5.58 5.58-8.37 12.95-8.37 20.31 0 7.36 2.8 14.73 8.37 20.31l87.82 87.83h-3.55zm-793.02-2.95h789.46l-82.8-82.8c-6.15-6.15-9.24-14.28-9.24-22.39 0-8.11 3.08-16.23 9.24-22.39s14.28-9.24 22.39-9.24c8.11 0 16.24 3.09 22.39 9.24l133.41 133.41c4.1 2.91 7.5 6.79 9.84 11.27 2.27 4.37 3.57 9.32 3.57 14.55v.64c.01 4.14-.79 8.3-2.38 12.19a31.386 31.386 0 01-6.85 10.28l-1.43 1.34-1.4 1.16-134.75 134.75c-6.16 6.16-14.28 9.24-22.39 9.24-8.11 0-16.23-3.08-22.39-9.24-6.15-6.15-9.24-14.28-9.24-22.39 0-8.11 3.08-16.23 9.24-22.39l83.93-83.93h-790.59c-8.69 0-16.62-3.57-22.35-9.31-5.74-5.74-9.31-13.66-9.31-22.35 0-8.69 3.57-16.62 9.31-22.36 5.73-5.74 13.65-9.31 22.35-9.31z"/><path class="fil1" d="M3587.85 2922.43v-793.02c0-16.61 13.61-30.19 30.19-30.19 16.58 0 30.19 13.61 30.19 30.19v794.15l86.44-86.44c11.74-11.74 30.95-11.74 42.7 0 11.74 11.74 11.74 30.95 0 42.7l-134.8 134.8c-.75.96-1.57 1.89-2.45 2.78-5.89 5.89-13.66 8.83-21.43 8.81h-.64c-10.18 0-19.22-5.11-24.7-12.89l-133.5-133.5c-11.74-11.74-11.74-30.95 0-42.7 11.74-11.74 30.95-11.74 42.69 0l85.31 85.31z"/><path class="fil2" d="M3586.38 2918.88v-789.46c0-8.7 3.57-16.62 9.3-22.35 5.75-5.74 13.67-9.31 22.36-9.31 8.7 0 16.62 3.57 22.36 9.31 5.74 5.74 9.31 13.66 9.31 22.35v790.59l83.93-83.93c6.16-6.16 14.28-9.24 22.39-9.24 8.11 0 16.24 3.09 22.39 9.24 6.16 6.16 9.24 14.28 9.24 22.39 0 8.11-3.08 16.23-9.24 22.39l-134.71 134.71-1.21 1.45-1.76 1.85a31.732 31.732 0 01-9.86 6.42c-3.89 1.6-8.05 2.39-12.19 2.38h-.62c-5.26 0-10.21-1.29-14.58-3.57a31.867 31.867 0 01-11.27-9.83l-133.41-133.41c-6.15-6.15-9.24-14.28-9.24-22.39 0-8.11 3.08-16.23 9.24-22.39l.43-.44c6.11-5.87 14.04-8.81 21.96-8.81 8.11 0 16.22 3.08 22.38 9.24l82.81 82.8zm2.95-789.46V2926l-87.83-87.83c-5.58-5.58-12.95-8.37-20.31-8.37-7.36 0-14.72 2.79-20.3 8.37l-.39.39c-5.33 5.53-7.99 12.73-7.99 19.92 0 7.36 2.8 14.73 8.37 20.31 29.19 29.19 114.53 106.5 133.66 133.69a29.09 29.09 0 0010.3 9.03c3.94 2.07 8.44 3.23 13.19 3.23h.64c3.77.01 7.55-.71 11.07-2.15 3.39-1.39 6.57-3.47 9.32-6.22l1.2-1.28c34.85-42.01 95.56-95.81 136.05-136.3 5.58-5.58 8.37-12.95 8.37-20.31 0-7.36-2.79-14.72-8.37-20.31-5.58-5.58-12.95-8.37-20.31-8.37-7.36 0-14.73 2.79-20.31 8.37l-88.96 88.96v-797.71c0-7.88-3.24-15.07-8.44-20.27-5.2-5.2-12.39-8.44-20.27-8.44-7.89 0-15.08 3.23-20.28 8.44-5.2 5.2-8.44 12.38-8.44 20.28z"/><path class="fil1" d="M3587.85 578.14v793.02c0 16.61 13.61 30.19 30.19 30.19 16.58 0 30.19-13.61 30.19-30.19V577.01l86.44 86.44c11.74 11.74 30.95 11.74 42.7 0 11.74-11.74 11.74-30.95 0-42.7l-134.8-134.8c-.75-.96-1.57-1.89-2.45-2.78-5.89-5.89-13.66-8.83-21.43-8.81h-.64c-10.18 0-19.22 5.11-24.7 12.89l-133.5 133.5c-11.74 11.74-11.74 30.95 0 42.7 11.74 11.74 30.95 11.74 42.69 0l85.31-85.31z"/><path class="fil2" d="M3589.33 578.14v793.02c0 7.89 3.24 15.08 8.44 20.28 5.2 5.2 12.39 8.44 20.28 8.44 7.89 0 15.07-3.23 20.28-8.44 5.2-5.21 8.44-12.39 8.44-20.28v-797.7l88.96 88.95c5.58 5.58 12.95 8.37 20.31 8.37 7.36 0 14.73-2.79 20.31-8.37 5.58-5.58 8.37-12.95 8.37-20.31 0-7.36-2.79-14.72-8.37-20.31-40.15-40.15-101.76-94.68-136.05-136.3l-1.21-1.28a28.426 28.426 0 00-9.32-6.22c-3.52-1.45-7.3-2.17-11.07-2.16h-.64c-4.76 0-9.25 1.17-13.2 3.23a29.188 29.188 0 00-10.3 9.03c-22.35 30.59-102.03 102.06-133.66 133.69-5.58 5.58-8.37 12.95-8.37 20.31 0 7.24 2.71 14.49 8.1 20.03l.27.27c5.58 5.58 12.94 8.37 20.3 8.37 7.36 0 14.73-2.79 20.31-8.36l87.83-87.83v3.56zm-2.95 793.02V581.7l-82.8 82.79c-6.17 6.16-14.28 9.24-22.39 9.24-7.92 0-15.85-2.94-21.94-8.81l-.44-.43c-6.15-6.15-9.24-14.28-9.24-22.39 0-8.11 3.08-16.23 9.24-22.39l133.41-133.41c2.91-4.11 6.79-7.51 11.27-9.84 4.37-2.27 9.32-3.57 14.55-3.57h.64c4.14-.01 8.29.79 12.19 2.39 3.57 1.47 6.92 3.61 9.85 6.42l1.78 1.85 1.21 1.45 134.71 134.71c6.16 6.16 9.24 14.28 9.24 22.39 0 8.11-3.08 16.23-9.24 22.39s-14.28 9.24-22.39 9.24c-8.11 0-16.23-3.08-22.39-9.24l-83.93-83.92v790.59c0 8.69-3.57 16.62-9.31 22.35-5.74 5.74-13.66 9.31-22.35 9.31-8.7 0-16.62-3.57-22.36-9.31-5.73-5.73-9.3-13.66-9.3-22.36z"/><path class="fil1" d="M2983.17 2342.23l265.44-265.44c11.74-11.74 30.96-11.73 42.7 0 11.73 11.73 11.73 30.96 0 42.7l-266.24 266.24h122.25c16.61 0 30.19 13.59 30.19 30.19 0 16.61-13.58 30.19-30.19 30.19h-190.64c-1.21.15-2.45.23-3.7.23-8.33 0-15.9-3.42-21.38-8.93l-.29-.29-.16-.15c-7.2-7.2-9.99-17.2-8.36-26.58v-188.8c0-16.61 13.59-30.19 30.19-30.19 16.61 0 30.19 13.58 30.19 30.19v120.65z"/><path class="fil2" d="M2984.65 2338.67l262.93-262.93c6.15-6.15 14.28-9.24 22.39-9.24 8.11 0 16.24 3.09 22.39 9.24 6.16 6.16 9.24 14.28 9.24 22.39 0 8.11-3.08 16.23-9.23 22.38l-263.73 263.73h118.69c8.7 0 16.63 3.57 22.36 9.3 5.73 5.75 9.3 13.66 9.3 22.37 0 8.7-3.57 16.63-9.3 22.36s-13.66 9.3-22.36 9.3h-190.56l-1.82.17-1.96.06c-4.28 0-8.38-.87-12.12-2.43-3.88-1.62-7.38-4-10.3-6.94l-.44-.44a31.371 31.371 0 01-7.79-12.83 32.209 32.209 0 01-1.02-14.91v-188.69c0-8.7 3.57-16.63 9.3-22.36 5.75-5.73 13.66-9.3 22.37-9.3 8.7 0 16.62 3.57 22.36 9.3 5.74 5.73 9.3 13.66 9.3 22.36v117.1zm265.01-260.85l-267.96 267.96v-124.21c0-7.9-3.23-15.08-8.43-20.28-5.2-5.2-12.39-8.43-20.28-8.43-7.9 0-15.08 3.23-20.28 8.43-5.2 5.2-8.43 12.38-8.43 20.28 0 41.75 5.7 155.65-.02 189.05-.79 4.54-.49 9.26.9 13.68a28.46 28.46 0 007.05 11.61l.45.45c2.65 2.67 5.83 4.84 9.35 6.31 3.38 1.41 7.1 2.19 10.99 2.19l1.77-.05c54.48-5.04 135.21-.17 192.57-.17 7.89 0 15.08-3.24 20.28-8.44 5.2-5.2 8.43-12.38 8.43-20.28s-3.23-15.08-8.43-20.28c-5.2-5.2-12.39-8.43-20.28-8.43h-125.81l268.76-268.76c5.58-5.58 8.37-12.95 8.37-20.31 0-7.37-2.79-14.73-8.36-20.3-5.58-5.58-12.95-8.38-20.31-8.38-7.36 0-14.73 2.8-20.31 8.37z"/><path class="fil1" d="M4210.55 1114.85l-265.44 265.44c-11.74 11.74-11.73 30.96 0 42.7 11.73 11.73 30.96 11.73 42.7 0l266.24-266.24V1279c0 16.61 13.59 30.19 30.19 30.19 16.61 0 30.19-13.58 30.19-30.19v-190.64c.15-1.21.23-2.45.23-3.7 0-8.33-3.42-15.9-8.93-21.38l-.29-.29-.15-.16c-7.2-7.2-17.2-9.99-26.58-8.36h-188.8c-16.61 0-30.19 13.59-30.19 30.19 0 16.61 13.58 30.19 30.19 30.19h120.65z"/><path class="fil2" d="M4211.59 1115.89l-265.44 265.44c-5.58 5.58-8.37 12.95-8.37 20.31 0 7.37 2.8 14.73 8.37 20.31 5.58 5.58 12.94 8.37 20.31 8.37 7.36 0 14.73-2.79 20.31-8.36l268.76-268.77V1279c0 7.9 3.23 15.08 8.43 20.28 5.2 5.2 12.38 8.43 20.28 8.43s15.08-3.23 20.28-8.43c5.2-5.2 8.44-12.39 8.44-20.28 0-57.29-4.88-138.17.17-192.56l.05-1.78c0-3.89-.79-7.61-2.19-10.99a28.88 28.88 0 00-6.3-9.35l-.45-.45a28.569 28.569 0 00-11.61-7.05 29.106 29.106 0 00-13.68-.9c-33.39 5.73-147.29.02-189.05.02-7.9 0-15.08 3.23-20.28 8.43-5.2 5.2-8.43 12.38-8.43 20.28s3.23 15.08 8.43 20.29c5.2 5.2 12.38 8.43 20.28 8.43h124.21l-2.51 2.51zm-267.53 263.36l262.93-262.93h-117.1c-8.7 0-16.63-3.57-22.36-9.3-5.73-5.75-9.3-13.66-9.3-22.37 0-8.7 3.57-16.62 9.3-22.36 5.73-5.74 13.66-9.3 22.36-9.3h188.69c4.96-.84 10.09-.5 14.91 1.02 4.7 1.48 9.12 4.07 12.82 7.77l.45.45c2.94 2.92 5.32 6.43 6.94 10.31a31.44 31.44 0 012.43 12.12l-.06 1.96-.17 1.82V1279c-.01 8.7-3.57 16.63-9.3 22.36s-13.66 9.3-22.36 9.3-16.62-3.57-22.36-9.3c-5.74-5.73-9.3-13.66-9.3-22.36v-118.69l-263.73 263.73c-6.16 6.16-14.28 9.24-22.39 9.24-8.11 0-16.23-3.08-22.39-9.23-6.16-6.16-9.24-14.28-9.24-22.39 0-8.11 3.09-16.24 9.24-22.39z"/><path class="fil1" d="M4253.82 2342.23l-265.44-265.44c-11.74-11.74-30.96-11.73-42.7 0-11.73 11.73-11.73 30.96 0 42.7l266.24 266.24h-122.25c-16.61 0-30.19 13.59-30.19 30.19 0 16.61 13.59 30.19 30.19 30.19h190.64c1.21.15 2.45.23 3.7.23 8.33 0 15.9-3.42 21.38-8.93l.3-.29.16-.15c7.2-7.2 9.98-17.2 8.35-26.58v-188.8c0-16.61-13.58-30.19-30.19-30.19s-30.19 13.58-30.19 30.19v120.65z"/><path class="fil2" d="M4252.78 2343.27l-265.44-265.44c-5.58-5.58-12.95-8.37-20.31-8.37-7.37 0-14.73 2.8-20.31 8.37-5.58 5.58-8.37 12.94-8.37 20.31 0 7.36 2.79 14.73 8.36 20.31l268.76 268.76h-125.8c-7.9 0-15.08 3.23-20.28 8.43-5.2 5.2-8.44 12.38-8.44 20.28s3.23 15.08 8.43 20.28c5.21 5.2 12.39 8.44 20.28 8.44 57.29 0 138.17-4.88 192.56.17l1.78.05c3.89 0 7.61-.79 10.99-2.19a28.88 28.88 0 009.35-6.3l.46-.45c3.35-3.36 5.71-7.37 7.04-11.61 1.39-4.42 1.69-9.13.9-13.68-5.73-33.39-.02-147.29-.02-189.05 0-7.9-3.23-15.08-8.43-20.28-5.2-5.2-12.38-8.43-20.28-8.43s-15.08 3.23-20.28 8.43c-5.2 5.2-8.43 12.38-8.43 20.28v124.2l-2.51-2.51zm-263.36-267.53l262.93 262.93v-117.1c0-8.7 3.57-16.63 9.3-22.36s13.66-9.3 22.36-9.3c8.71 0 16.63 3.57 22.37 9.3 5.73 5.73 9.3 13.66 9.3 22.36v188.69c.84 4.96.5 10.09-1.02 14.91a31.398 31.398 0 01-7.77 12.82l-.47.46a31.707 31.707 0 01-10.29 6.93 31.44 31.44 0 01-12.12 2.43l-1.96-.06-1.82-.17h-190.56c-8.7-.01-16.62-3.57-22.36-9.3-5.74-5.73-9.3-13.66-9.3-22.36s3.57-16.62 9.3-22.36c5.74-5.74 13.66-9.31 22.36-9.31h118.69l-263.73-263.73c-6.16-6.16-9.24-14.28-9.24-22.39 0-8.11 3.08-16.23 9.23-22.39 6.16-6.16 14.28-9.24 22.39-9.24 8.11 0 16.24 3.09 22.39 9.24z"/><path class="fil1" d="M3026.45 1114.85l265.44 265.44c11.74 11.74 11.73 30.96 0 42.7-11.73 11.73-30.96 11.73-42.7 0l-266.24-266.24V1279c0 16.61-13.58 30.19-30.19 30.19s-30.19-13.58-30.19-30.19v-190.64c-.15-1.21-.23-2.45-.23-3.7 0-8.33 3.42-15.9 8.93-21.38l.3-.29.15-.16c7.2-7.2 17.2-9.99 26.58-8.36h188.8c16.61 0 30.19 13.59 30.19 30.19 0 16.61-13.58 30.19-30.19 30.19h-120.65z"/><path class="fil2" d="M3030 1116.33l262.93 262.93c6.15 6.15 9.24 14.28 9.24 22.39 0 8.11-3.09 16.24-9.24 22.39-6.16 6.16-14.28 9.24-22.39 9.24-8.11 0-16.24-3.08-22.39-9.24l-263.73-263.73V1279c0 8.7-3.57 16.63-9.3 22.36s-13.66 9.3-22.36 9.3c-8.71 0-16.63-3.57-22.37-9.3-5.73-5.73-9.3-13.66-9.3-22.36v-190.56l-.17-1.82-.06-1.96c0-4.28.87-8.38 2.43-12.12 1.62-3.88 4-7.38 6.94-10.31l.44-.44c3.71-3.72 8.13-6.31 12.83-7.79 4.83-1.51 9.96-1.85 14.91-1.02h188.69c8.7 0 16.63 3.57 22.37 9.3 5.73 5.73 9.3 13.66 9.3 22.36s-3.57 16.62-9.3 22.36c-5.75 5.74-13.66 9.3-22.37 9.3h-117.09zm260.85 265.01l-267.96-267.96h124.2c7.9 0 15.08-3.23 20.29-8.43 5.2-5.2 8.43-12.39 8.43-20.29 0-7.9-3.23-15.08-8.43-20.28-5.2-5.2-12.39-8.44-20.28-8.44-40.81 0-156.93 5.64-189.05-.02-4.54-.79-9.25-.49-13.68.9a28.46 28.46 0 00-11.61 7.05l-.46.46a29.013 29.013 0 00-6.29 9.35c-1.41 3.38-2.19 7.1-2.19 10.99l.05 1.77c5.04 54.48.17 135.21.17 192.57 0 7.9 3.23 15.08 8.43 20.28 5.2 5.2 12.38 8.43 20.28 8.43s15.08-3.23 20.28-8.43c5.2-5.2 8.43-12.38 8.43-20.28v-125.8l268.76 268.76c5.58 5.58 12.94 8.37 20.31 8.37 7.37 0 14.74-2.79 20.31-8.36 5.58-5.58 8.37-12.95 8.37-20.31 0-7.36-2.8-14.73-8.37-20.31z"/></g></svg>