<svg xmlns="http://www.w3.org/2000/svg" width="34.689" height="26.003" viewBox="0 0 26.75 20.05" shape-rendering="geometricPrecision" text-rendering="geometricPrecision" image-rendering="optimizeQuality" fill-rule="evenodd" clip-rule="evenodd"><path d="M2.12 18.78c.63-.66 1.77-1.61 2.47-2.26.2-.19.28-.28.48-.45l.97-.91c1.12-.93 2.98-2.81 3.94-3.57.36.43.81.91 1.37 1.24 1.31.76 2.78.72 4.08-.02.73-.42.9-.8 1.34-1.2.22.14.3.25.51.45.17.17.34.28.5.44l2.95 2.68c.44.45 1.6 1.42 1.96 1.8l1.48 1.34c.13.11.37.34.46.46-.34.14-.76.15-1.19.15H6.75c-.94 0-4.02.11-4.63-.15zm15.42-7.96c.14-.29 2.06-2.27 2.47-2.77.16-.2.34-.34.5-.54l4.95-5.4c.15.29.16.58.16.92v13.93c0 .38-.12 1.11-.17.98 0-.01-.02.02-.03.03l-2.47-2.24c-.2-.2-.3-.28-.5-.44l-4.91-4.47zM1.13 4.13c0-.62-.08-1.55.16-2.02.94.94 2.03 2.27 2.99 3.24.18.18.3.38.49.56.23.22 4.34 4.7 4.45 4.91-.26.15-3.8 3.44-3.95 3.56-.18.15-.29.3-.48.45l-3.46 3.14-.13-.26c-.15-.51-.06-12.02-.06-13.59zm16.18 5.24c-.24.23-.39.48-.64.71-.94.87-1.51 2.2-3.34 2.18-1.41-.02-1.92-.79-2.66-1.56L5.35 4.91c-.21-.23-.44-.47-.64-.72L2.08 1.31c.43-.31 2.04-.19 2.69-.19h17.21c.5 0 2.19-.08 2.58.13.07.04.06.04.1.07-.09.13-.25.27-.36.39-.12.14-.18.24-.32.36l-1.02 1.12c-.09.1-.25.25-.33.34l-2.66 2.92c-.67.68-2.11 2.4-2.66 2.92zM.05 17.59c.09.87.6 1.48 1.05 1.85.68.56 1.29.6 2.32.6h17.53c.97 0 1.96.02 2.92 0 .91-.02 1.63-.38 2.07-.84.48-.51.79-1.17.79-2.13.01-1.53.05-13.86-.03-14.58-.11-.92-.57-1.48-1.05-1.87-.64-.53-1.32-.61-2.32-.6H5.8c-.96 0-1.96-.02-2.92 0C1.96.04 1.25.4.81.87.3 1.41.02 1.99.01 2.99c-.01.97 0 1.95 0 2.92C.02 7.1-.05 16.75.04 17.6z" fill="#fff"/></svg>