<svg xmlns="http://www.w3.org/2000/svg" width="707.006" height="341.972" viewBox="0 0 6906.11 3340.42" shape-rendering="geometricPrecision" text-rendering="geometricPrecision" image-rendering="optimizeQuality" fill-rule="evenodd" clip-rule="evenodd"><defs><style>.fil1{fill:#75bdbd}.fil0{fill:#d9e3f2}</style></defs><g id="Слой_x0020_1"><g id="_1903595600"><circle class="fil0" cx="60.51" cy="60.5" r="60.5"/><circle class="fil0" cx="383.2" cy="60.5" r="60.5"/><circle class="fil0" cx="705.89" cy="60.5" r="60.5"/><circle class="fil0" cx="1028.58" cy="60.5" r="60.5"/><circle class="fil0" cx="1351.27" cy="60.5" r="60.5"/><circle class="fil0" cx="1673.96" cy="60.5" r="60.5"/><circle class="fil0" cx="1996.65" cy="60.5" r="60.5"/><circle class="fil0" cx="2319.35" cy="60.5" r="60.5"/><circle class="fil0" cx="2642.04" cy="60.5" r="60.5"/><circle class="fil0" cx="2964.73" cy="60.5" r="60.5"/><circle class="fil0" cx="3287.42" cy="60.5" r="60.5"/><circle class="fil0" cx="3610.11" cy="60.5" r="60.5"/><circle class="fil0" cx="3932.8" cy="60.5" r="60.5"/><circle class="fil0" cx="4255.49" cy="60.5" r="60.5"/><circle class="fil0" cx="60.51" cy="383.19" r="60.5"/><circle class="fil0" cx="383.2" cy="383.19" r="60.5"/><circle class="fil0" cx="705.89" cy="383.19" r="60.5"/><circle class="fil0" cx="1028.58" cy="383.19" r="60.5"/><circle class="fil0" cx="1351.27" cy="383.19" r="60.5"/><circle class="fil0" cx="1673.96" cy="383.19" r="60.5"/><circle class="fil0" cx="1996.65" cy="383.19" r="60.5"/><circle class="fil0" cx="2319.35" cy="383.19" r="60.5"/><circle class="fil0" cx="2642.04" cy="383.19" r="60.5"/><circle class="fil0" cx="2964.73" cy="383.19" r="60.5"/><circle class="fil0" cx="3287.42" cy="383.19" r="60.5"/><circle class="fil0" cx="3610.11" cy="383.19" r="60.5"/><circle class="fil0" cx="3932.8" cy="383.19" r="60.5"/><circle class="fil0" cx="4255.49" cy="383.19" r="60.5"/><circle class="fil0" cx="60.51" cy="705.89" r="60.5"/><circle class="fil0" cx="383.2" cy="705.89" r="60.5"/><circle class="fil0" cx="705.89" cy="705.89" r="60.5"/><circle class="fil0" cx="1028.58" cy="705.89" r="60.5"/><circle class="fil0" cx="1351.27" cy="705.89" r="60.5"/><circle class="fil0" cx="1673.96" cy="705.89" r="60.5"/><circle class="fil0" cx="1996.65" cy="705.89" r="60.5"/><circle class="fil0" cx="2319.35" cy="705.89" r="60.5"/><circle class="fil0" cx="2642.04" cy="705.89" r="60.5"/><circle class="fil0" cx="2964.73" cy="705.89" r="60.5"/><circle class="fil0" cx="3287.42" cy="705.89" r="60.5"/><circle class="fil0" cx="3610.11" cy="705.89" r="60.5"/><circle class="fil0" cx="3932.8" cy="705.89" r="60.5"/><circle class="fil0" cx="4255.49" cy="705.89" r="60.5"/><circle class="fil0" cx="60.51" cy="1028.58" r="60.5"/><circle class="fil0" cx="383.2" cy="1028.58" r="60.5"/><circle class="fil0" cx="705.89" cy="1028.58" r="60.5"/><circle class="fil0" cx="1028.58" cy="1028.58" r="60.5"/><circle class="fil0" cx="1351.27" cy="1028.58" r="60.5"/><circle class="fil0" cx="1673.96" cy="1028.58" r="60.5"/><circle class="fil0" cx="1996.65" cy="1028.58" r="60.5"/><circle class="fil0" cx="2319.35" cy="1028.58" r="60.5"/><circle class="fil0" cx="2642.04" cy="1028.58" r="60.5"/><circle class="fil0" cx="2964.73" cy="1028.58" r="60.5"/><circle class="fil0" cx="3287.42" cy="1028.58" r="60.5"/><circle class="fil0" cx="3610.11" cy="1028.58" r="60.5"/><circle class="fil0" cx="3932.8" cy="1028.58" r="60.5"/><circle class="fil0" cx="4255.49" cy="1028.58" r="60.5"/><circle class="fil0" cx="60.51" cy="1351.27" r="60.5"/><circle class="fil0" cx="383.2" cy="1351.27" r="60.5"/><circle class="fil0" cx="705.89" cy="1351.27" r="60.5"/><circle class="fil0" cx="1028.58" cy="1351.27" r="60.5"/><circle class="fil0" cx="1351.27" cy="1351.27" r="60.5"/><circle class="fil0" cx="1673.96" cy="1351.27" r="60.5"/><circle class="fil0" cx="1996.65" cy="1351.27" r="60.5"/><circle class="fil0" cx="2319.35" cy="1351.27" r="60.5"/><circle class="fil0" cx="2642.04" cy="1351.27" r="60.5"/><circle class="fil0" cx="2964.73" cy="1351.27" r="60.5"/><circle class="fil0" cx="3287.42" cy="1351.27" r="60.5"/><circle class="fil0" cx="3610.11" cy="1351.27" r="60.5"/><circle class="fil0" cx="3932.8" cy="1351.27" r="60.5"/><circle class="fil0" cx="4255.49" cy="1351.27" r="60.5"/><circle class="fil0" cx="60.51" cy="1666.45" r="60.5"/><circle class="fil0" cx="383.2" cy="1666.45" r="60.5"/><circle class="fil0" cx="705.89" cy="1666.45" r="60.5"/><circle class="fil0" cx="1028.58" cy="1666.45" r="60.5"/><circle class="fil0" cx="1351.27" cy="1666.45" r="60.5"/><circle class="fil0" cx="1673.96" cy="1666.45" r="60.5"/><circle class="fil0" cx="1996.65" cy="1666.45" r="60.5"/><circle class="fil0" cx="2319.35" cy="1666.45" r="60.5"/><circle class="fil0" cx="2642.04" cy="1666.45" r="60.5"/><circle class="fil0" cx="2964.73" cy="1666.45" r="60.5"/><circle class="fil0" cx="3287.42" cy="1666.45" r="60.5"/><circle class="fil0" cx="3610.11" cy="1666.45" r="60.5"/><circle class="fil0" cx="3932.8" cy="1666.45" r="60.5"/><circle class="fil0" cx="4255.49" cy="1666.45" r="60.5"/><circle class="fil0" cx="60.51" cy="1989.15" r="60.5"/><circle class="fil0" cx="383.2" cy="1989.15" r="60.5"/><circle class="fil0" cx="705.89" cy="1989.15" r="60.5"/><circle class="fil0" cx="1028.58" cy="1989.15" r="60.5"/><circle class="fil0" cx="1351.27" cy="1989.15" r="60.5"/><circle class="fil0" cx="1673.96" cy="1989.15" r="60.5"/><circle class="fil0" cx="1996.65" cy="1989.15" r="60.5"/><circle class="fil0" cx="2319.35" cy="1989.15" r="60.5"/><circle class="fil0" cx="2642.04" cy="1989.15" r="60.5"/><circle class="fil0" cx="2964.73" cy="1989.15" r="60.5"/><circle class="fil0" cx="3287.42" cy="1989.15" r="60.5"/><circle class="fil0" cx="3610.11" cy="1989.15" r="60.5"/><circle class="fil0" cx="3932.8" cy="1989.15" r="60.5"/><circle class="fil0" cx="4255.49" cy="1989.15" r="60.5"/><circle class="fil0" cx="60.51" cy="2311.84" r="60.5"/><circle class="fil0" cx="383.2" cy="2311.84" r="60.5"/><circle class="fil0" cx="705.89" cy="2311.84" r="60.5"/><circle class="fil0" cx="1028.58" cy="2311.84" r="60.5"/><circle class="fil0" cx="1351.27" cy="2311.84" r="60.5"/><circle class="fil0" cx="1673.96" cy="2311.84" r="60.5"/><circle class="fil0" cx="1996.65" cy="2311.84" r="60.5"/><circle class="fil0" cx="2319.35" cy="2311.84" r="60.5"/><circle class="fil0" cx="2642.04" cy="2311.84" r="60.5"/><circle class="fil0" cx="2964.73" cy="2311.84" r="60.5"/><circle class="fil0" cx="3287.42" cy="2311.84" r="60.5"/><circle class="fil0" cx="3610.11" cy="2311.84" r="60.5"/><circle class="fil0" cx="3932.8" cy="2311.84" r="60.5"/><circle class="fil0" cx="4255.49" cy="2311.84" r="60.5"/><circle class="fil0" cx="60.51" cy="2634.53" r="60.5"/><circle class="fil0" cx="383.2" cy="2634.53" r="60.5"/><circle class="fil0" cx="705.89" cy="2634.53" r="60.5"/><circle class="fil0" cx="1028.58" cy="2634.53" r="60.5"/><circle class="fil0" cx="1351.27" cy="2634.53" r="60.5"/><circle class="fil0" cx="1673.96" cy="2634.53" r="60.5"/><circle class="fil0" cx="1996.65" cy="2634.53" r="60.5"/><circle class="fil0" cx="2319.35" cy="2634.53" r="60.5"/><circle class="fil0" cx="2642.04" cy="2634.53" r="60.5"/><circle class="fil0" cx="2964.73" cy="2634.53" r="60.5"/><circle class="fil0" cx="3287.42" cy="2634.53" r="60.5"/><circle class="fil0" cx="3610.11" cy="2634.53" r="60.5"/><circle class="fil0" cx="3932.8" cy="2634.53" r="60.5"/><circle class="fil0" cx="4255.49" cy="2634.53" r="60.5"/><circle class="fil0" cx="60.51" cy="2957.22" r="60.5"/><circle class="fil0" cx="383.2" cy="2957.22" r="60.5"/><circle class="fil0" cx="705.89" cy="2957.22" r="60.5"/><circle class="fil0" cx="1028.58" cy="2957.22" r="60.5"/><circle class="fil0" cx="1351.27" cy="2957.22" r="60.5"/><circle class="fil0" cx="1673.96" cy="2957.22" r="60.5"/><circle class="fil0" cx="1996.65" cy="2957.22" r="60.5"/><circle class="fil0" cx="2319.35" cy="2957.22" r="60.5"/><circle class="fil0" cx="2642.04" cy="2957.22" r="60.5"/><circle class="fil0" cx="2964.73" cy="2957.22" r="60.5"/><circle class="fil0" cx="3287.42" cy="2957.22" r="60.5"/><circle class="fil0" cx="3610.11" cy="2957.22" r="60.5"/><circle class="fil0" cx="3932.8" cy="2957.22" r="60.5"/><circle class="fil0" cx="4255.49" cy="2957.22" r="60.5"/><circle class="fil0" cx="60.51" cy="3279.91" r="60.5"/><circle class="fil0" cx="383.2" cy="3279.91" r="60.5"/><circle class="fil0" cx="705.89" cy="3279.91" r="60.5"/><circle class="fil0" cx="1028.58" cy="3279.91" r="60.5"/><circle class="fil0" cx="1351.27" cy="3279.91" r="60.5"/><circle class="fil0" cx="1673.96" cy="3279.91" r="60.5"/><circle class="fil0" cx="1996.65" cy="3279.91" r="60.5"/><circle class="fil0" cx="2319.35" cy="3279.91" r="60.5"/><circle class="fil0" cx="2642.04" cy="3279.91" r="60.5"/><circle class="fil0" cx="2964.73" cy="3279.91" r="60.5"/><circle class="fil0" cx="3287.42" cy="3279.91" r="60.5"/><circle class="fil0" cx="3610.11" cy="3279.91" r="60.5"/><circle class="fil0" cx="3932.8" cy="3279.91" r="60.5"/><circle class="fil0" cx="4255.49" cy="3279.91" r="60.5"/><circle class="fil0" cx="4586.77" cy="60.5" r="60.5"/><circle class="fil0" cx="4909.46" cy="60.5" r="60.5"/><circle class="fil0" cx="5232.15" cy="60.5" r="60.5"/><circle class="fil0" cx="5554.84" cy="60.5" r="60.5"/><circle class="fil0" cx="5877.53" cy="60.5" r="60.5"/><circle class="fil0" cx="6200.22" cy="60.5" r="60.5"/><circle class="fil0" cx="6522.91" cy="60.5" r="60.5"/><circle class="fil0" cx="6845.61" cy="60.5" r="60.5"/><circle class="fil0" cx="4586.77" cy="383.19" r="60.5"/><circle class="fil0" cx="4909.46" cy="383.19" r="60.5"/><circle class="fil0" cx="5232.15" cy="383.19" r="60.5"/><circle class="fil0" cx="5554.84" cy="383.19" r="60.5"/><circle class="fil0" cx="5877.53" cy="383.19" r="60.5"/><circle class="fil0" cx="6200.22" cy="383.19" r="60.5"/><circle class="fil0" cx="6522.91" cy="383.19" r="60.5"/><circle class="fil0" cx="6845.61" cy="383.19" r="60.5"/><circle class="fil0" cx="4586.77" cy="705.89" r="60.5"/><circle class="fil0" cx="4909.46" cy="705.89" r="60.5"/><circle class="fil0" cx="5232.15" cy="705.89" r="60.5"/><circle class="fil0" cx="5554.84" cy="705.89" r="60.5"/><circle class="fil0" cx="5877.53" cy="705.89" r="60.5"/><circle class="fil0" cx="6200.22" cy="705.89" r="60.5"/><circle class="fil0" cx="6522.91" cy="705.89" r="60.5"/><circle class="fil0" cx="6845.61" cy="705.89" r="60.5"/><circle class="fil0" cx="4586.77" cy="1028.58" r="60.5"/><circle class="fil0" cx="4909.46" cy="1028.58" r="60.5"/><circle class="fil0" cx="5232.15" cy="1028.58" r="60.5"/><circle class="fil0" cx="5554.84" cy="1028.58" r="60.5"/><circle class="fil0" cx="5877.53" cy="1028.58" r="60.5"/><circle class="fil0" cx="6200.22" cy="1028.58" r="60.5"/><circle class="fil0" cx="6522.91" cy="1028.58" r="60.5"/><circle class="fil0" cx="6845.61" cy="1028.58" r="60.5"/><circle class="fil0" cx="4586.77" cy="1351.27" r="60.5"/><circle class="fil0" cx="4909.46" cy="1351.27" r="60.5"/><circle class="fil0" cx="5232.15" cy="1351.27" r="60.5"/><circle class="fil0" cx="5554.84" cy="1351.27" r="60.5"/><circle class="fil0" cx="5877.53" cy="1351.27" r="60.5"/><circle class="fil0" cx="6200.22" cy="1351.27" r="60.5"/><circle class="fil0" cx="6522.91" cy="1351.27" r="60.5"/><circle class="fil0" cx="6845.61" cy="1351.27" r="60.5"/><circle class="fil0" cx="4586.77" cy="1666.45" r="60.5"/><circle class="fil0" cx="4909.46" cy="1666.45" r="60.5"/><circle class="fil0" cx="5232.15" cy="1666.45" r="60.5"/><circle class="fil0" cx="5554.84" cy="1666.45" r="60.5"/><circle class="fil0" cx="5877.53" cy="1666.45" r="60.5"/><circle class="fil0" cx="6200.22" cy="1666.45" r="60.5"/><circle class="fil0" cx="6522.91" cy="1666.45" r="60.5"/><circle class="fil0" cx="6845.61" cy="1666.45" r="60.5"/><circle class="fil0" cx="4586.77" cy="1989.15" r="60.5"/><circle class="fil0" cx="4909.46" cy="1989.15" r="60.5"/><circle class="fil0" cx="5232.15" cy="1989.15" r="60.5"/><circle class="fil0" cx="5554.84" cy="1989.15" r="60.5"/><circle class="fil0" cx="5877.53" cy="1989.15" r="60.5"/><circle class="fil0" cx="6200.22" cy="1989.15" r="60.5"/><circle class="fil0" cx="6522.91" cy="1989.15" r="60.5"/><circle class="fil0" cx="6845.61" cy="1989.15" r="60.5"/><circle class="fil0" cx="4586.77" cy="2311.84" r="60.5"/><circle class="fil0" cx="4909.46" cy="2311.84" r="60.5"/><circle class="fil0" cx="5232.15" cy="2311.84" r="60.5"/><circle class="fil0" cx="5554.84" cy="2311.84" r="60.5"/><circle class="fil0" cx="5877.53" cy="2311.84" r="60.5"/><circle class="fil0" cx="6200.22" cy="2311.84" r="60.5"/><circle class="fil0" cx="6522.91" cy="2311.84" r="60.5"/><circle class="fil0" cx="6845.61" cy="2311.84" r="60.5"/><circle class="fil0" cx="4586.77" cy="2634.53" r="60.5"/><circle class="fil0" cx="4909.46" cy="2634.53" r="60.5"/><circle class="fil0" cx="5232.15" cy="2634.53" r="60.5"/><circle class="fil0" cx="5554.84" cy="2634.53" r="60.5"/><circle class="fil0" cx="5877.53" cy="2634.53" r="60.5"/><circle class="fil0" cx="6200.22" cy="2634.53" r="60.5"/><circle class="fil0" cx="6522.91" cy="2634.53" r="60.5"/><circle class="fil0" cx="6845.61" cy="2634.53" r="60.5"/><circle class="fil0" cx="4586.77" cy="2957.22" r="60.5"/><circle class="fil0" cx="4909.46" cy="2957.22" r="60.5"/><circle class="fil0" cx="5232.15" cy="2957.22" r="60.5"/><circle class="fil0" cx="5554.84" cy="2957.22" r="60.5"/><circle class="fil0" cx="5877.53" cy="2957.22" r="60.5"/><circle class="fil0" cx="6200.22" cy="2957.22" r="60.5"/><circle class="fil0" cx="6522.91" cy="2957.22" r="60.5"/><circle class="fil0" cx="6845.61" cy="2957.22" r="60.5"/><circle class="fil0" cx="4586.77" cy="3279.91" r="60.5"/><circle class="fil0" cx="4909.46" cy="3279.91" r="60.5"/><circle class="fil0" cx="5232.15" cy="3279.91" r="60.5"/><circle class="fil0" cx="5554.84" cy="3279.91" r="60.5"/><circle class="fil0" cx="5877.53" cy="3279.91" r="60.5"/><circle class="fil0" cx="6200.22" cy="3279.91" r="60.5"/><circle class="fil0" cx="6522.91" cy="3279.91" r="60.5"/><circle class="fil0" cx="6845.61" cy="3279.91" r="60.5"/></g><path class="fil1" d="M3120.24 1734.98c40.42-15.88 54.71 44.18 21.36 56.54-37.93 14.07-61.22-40.88-21.36-56.54zm323.08-146.07c41.63-16.08 53.98 45.61 22.62 56.15-38.76 13.02-62.04-40.92-22.62-56.15zm365-12.62c42.16-14.51 53.44 47.56 18.6 57.21-37.51 10.39-58.72-43.39-18.6-57.21zm-578.71-152.31c37-10.85 51 49.45 13.61 58.88-38.71 9.77-57.46-46.03-13.61-58.88zm407.62-30.14c42.01-14.94 54 49.99 16.99 58.1-38.04 8.33-54.82-44.64-16.99-58.1zm-314.29 91.06c108.77-10.62 103.92 23.9 103.08-104.11-.42-64.82-3.97-136.1.37-200.2 45.8-15.91 146.87 12.14 189.22 23.98l-.18 127.08c-2.69 11.56-72.43 28.95-59.79 105.55 7 42.36 42.99 77.31 91.04 77.24 87.8-.13 134.42-122.6 41.79-172.55-10.38-5.6-7.08-1.36-11.11-10.24l-.01-98.57c40.61 10.08 117.48 78.11 148.93 115.42 141.95 168.44 162.17 402.32 43.07 587.48-36.53 56.8-111.32 136.06-177.98 165.92-5.7-29-1.81-109.09-1.62-143.13l.93-179c1.78-14.1 3.76-11.81 14.06-20.09 17.05-13.72 62.83-69.24 71.95-70.57 12.94-1.88 29.54 12.66 59.36 5.45 84.27-20.39 95.85-130.35 25.85-170.74-38.35-22.12-83.55-10.4-109.76 14.53-45.03 42.83-22.75 84.89-20.9 109.14-12.6 8.72-26.19 25.59-37.69 37.42-13.07 13.45-17.59 13.01-36.81 35.4-12.68 14.78-26.12 19.95-27.33 47.61-4.71 107.23 6.03 239.67-.25 364.2-46.12 13.02-91.49 30.62-144.49 30.97l-.01-459.21c100.82-38.35 67.9-181.39-34.31-177.66-47.06 1.72-80.7 36.04-87.58 78.7-10.89 67.56 45.04 88.83 60.24 100.83l-.47 456.47c-29.78 4.02-129.79-15.13-142.45-33.8-10.68-20.62 7.99-220.79-4.4-257.84-8.9-26.6-58.77-53.11-60.22-70.72-.97-11.91 10.99-28.46 5.31-56.77-18.17-90.75-157.33-102.15-180.55-1.07-9.2 40.05 11.61 76.75 32.28 91.92 39.66 29.08 54.66 18.39 101.14 12.27 35.02 44.24 46.84 23.49 45.13 106.88-.61 29.62 2.34 128.44-2.99 149.02-7.48-6.01-21.11-11.91-29.82-17.6-41.78-27.28-99.01-78.9-126.37-119.18-13.29-19.58-26.4-38.85-38.61-59.58-97.62-165.65-72.26-376.64 38.19-531.92 7.23-10.16 14.55-19.02 21.47-27.73 54.17-68.14 196.2-152.53 283.74-160.23l.02 236.49-42.24-.79c-11.9-24.75-15.82-33.43-36.87-46.24-18.54-11.28-41.32-17.44-66.57-12.48-42.2 8.29-73.82 41.54-73.82 90.2 0 48.23 32.75 83.67 75.99 91.02 52.49 8.92 80.77-21.06 102.04-59.16zm97.86-368.54c-128.36 16.41-202.6 38.85-304.05 112.77-14.46 10.53-25.64 21.48-37.21 32.13-62.05 57.12-110.4 124.56-141.74 204.96-79.26 203.3-35.35 420.8 106.49 578 55.36 61.36 118.61 106.97 204.47 142.23 144.77 59.45 321.44 49.08 457.14-21.11 88.81-45.93 165.22-114.58 217.24-198.64 125.45-202.7 111.77-443.93-29.04-634.02l-66.38-72.36c-45.03-40.15-101.05-79.43-170.74-106.55-59.1-23-167.43-46.18-236.17-37.4z"/><path class="fil1" d="M3355.52 894.22c336.34-24.79 619.93 76.77 859.4 212.79 115.19 65.42 210.57 143.6 309.86 227.38l55.3 48.77c6.12 5.18 11.47 9.18 17.14 14.73 23.8 23.34 43.08 46 65.98 66.88 23.8 21.72 41.58 49.2 63.78 71.98 21.41 21.99 73.66 86.79 88.91 113.28 13.17 22.87 9.91 22.63-3.14 45.03-18.15 31.14-64.26 80.96-89.38 112.84l-63.3 69.6c-32.21 35.23-67.79 64.05-86.45 84.04l-87.02 77.59c-128.57 103.24-162.59 131.15-317.82 219.5-177.19 100.84-407.09 171.64-617.79 186.99-389.3 28.36-743.17-115.72-1019.5-318.84-101.91-74.91-274.59-224.64-351.09-322.1-28.48-36.28-66.86-74.89-88.74-113.44-13.42-23.64-12.38-21.42 1.07-44.68 18.08-31.25 94.05-120.31 119.96-148.79 50.24-55.2 150.89-152.76 205.43-196.03 166.33-131.96 279.75-218.37 500.42-305.64 134.75-53.29 276.85-90.08 436.98-101.88zm1525.8 795.81c10.97-43.18-17.25-79.38-34.95-105.13-18.64-27.11-87.42-112.35-112.09-136.45-7.5-7.33-10.97-9.84-17.45-17.12-33.95-38.13-137.91-137.54-182.51-172.84-72.91-57.71-116.29-95.96-201.68-150.85-258.1-165.93-530.92-274.92-856.37-280.14-349.9-5.6-636.19 115.45-873.9 262.62-60.47 37.43-113.89 77.54-167.78 118.23-27.65 20.87-51.48 42.55-78.04 63.5l-74.13 67.4c-71.69 70.33-140.96 141.84-204.42 220.4-65.35 80.91-75.37 113.31-18.34 195.32 31.44 45.22 123.64 147.86 164.64 190.77l185.99 166.49c52.23 42.22 105.11 81.78 163.56 119.61 569.69 368.71 1152.46 375.28 1730.24 17.73 121.91-75.44 216.06-154.67 320.58-248.51 23.49-21.09 130.5-134.8 155.02-165.68l32.41-37.01c26.79-28.4 58.4-65.71 69.23-108.33z"/></g></svg>