<svg xmlns="http://www.w3.org/2000/svg" width="159.66" height="159.66" viewBox="0 0 858.24 858.24" shape-rendering="geometricPrecision" text-rendering="geometricPrecision" image-rendering="optimizeQuality" fill-rule="evenodd" clip-rule="evenodd"><path fill="#fff" d="M0 0h858.24v858.24H0z"/><path d="M392.23 346.5l-.08 33.6-29.41.01-.06 49.04 29.41.01.03 142.58h58.91v-142.6h39.33l5.18-49.1-44.44-.03c-.5-6.58-.03-15.06-.01-21.84.05-18.07 1.72-22.42 21.85-22.42h22.14c.46-1.94.46-45.4.11-49.16-13.52 0-27.17-.17-40.68.03-22.92.35-43.68 5.75-54.84 26.45-4.44 8.23-7.75 22.53-7.44 33.45z" fill="#404c55"/></svg>