<svg xmlns="http://www.w3.org/2000/svg" width="138.357" height="138.357" viewBox="0 0 21.34 21.34" shape-rendering="geometricPrecision" text-rendering="geometricPrecision" image-rendering="optimizeQuality" fill-rule="evenodd" clip-rule="evenodd"><defs><style>.fil1{fill:#59656c;fill-rule:nonzero}</style></defs><g id="Слой_x0020_1"><g id="_2023679504"><rect x=".29" y=".29" width="20.76" height="20.76" rx="2.08" ry="2.08" fill="#fff"/><path class="fil1" d="M2.37 0h16.6c.65 0 1.25.27 1.68.7.43.43.7 1.02.7 1.68v16.6c0 .65-.27 1.25-.7 1.68-.43.43-1.02.7-1.68.7H2.37c-.65 0-1.25-.27-1.68-.7-.43-.43-.7-1.02-.7-1.68V2.38c0-.65.27-1.25.7-1.68C1.12.27 1.71 0 2.37 0zm16.6.58H2.37c-.49 0-.94.2-1.26.53-.32.32-.53.77-.53 1.26v16.6c0 .49.2.94.53 1.26.32.32.77.53 1.26.53h16.6c.49 0 .94-.2 1.26-.53.32-.32.53-.77.53-1.26V2.37c0-.49-.2-.94-.53-1.26-.32-.32-.77-.53-1.26-.53z"/><path class="fil1" d="M15.77 16.04c0-.17 0-.48.01-.76.01-.99.02-1.5-.2-1.83-.24-.36-.84-.61-2.1-1.13l-.28-.12c-.08-.03-.17-.08-.27-.13-.3-.15-.72-.36-.82-.29l-.03.02c-.71.5-1.3.9-2.49.22-.14-.08-.22-.15-.29-.21-.12-.1-.13-.11-1.44.5-.35.17-.66.3-.92.41-1.33.57-1.36.59-1.36 2.76v.49c0 .07.04.07.37.06.16 0 .36-.01.51-.01h8.88c.07 0 .13 0 .18.01.05 0 .1.01.16.01.05 0 .09 0 .09-.01zm.59-.76v.76c0 .51-.3.59-.68.59-.05 0-.12 0-.19-.01-.06 0-.12-.01-.16-.01H6.45c-.25 0-.39 0-.5.01-.85.02-.94.02-.96-.62v-.51c0-2.56.04-2.57 1.71-3.29.26-.11.55-.24.91-.4 1.63-.76 1.66-.74 2.05-.43.05.04.12.1.22.15.87.5 1.32.19 1.87-.19l.03-.02c.38-.27.98.03 1.41.24.09.05.17.09.24.11l.28.12c1.36.57 2.02.84 2.36 1.35.32.47.31 1.05.3 2.15zM10.67 4.31c.82 0 1.56.38 2.09 1 .52.6.85 1.44.85 2.35 0 .92-.32 1.75-.85 2.35-.53.62-1.27 1-2.09 1-.82 0-1.56-.38-2.09-1-.52-.6-.85-1.44-.85-2.35 0-.92.32-1.75.85-2.35.53-.62 1.27-1 2.09-1zm1.65 1.38c-.42-.49-1.01-.8-1.65-.8-.64 0-1.23.3-1.65.8-.43.5-.7 1.2-.7 1.97s.27 1.47.7 1.97c.42.49 1.01.8 1.65.8.64 0 1.23-.3 1.65-.8.43-.5.7-1.2.7-1.97s-.27-1.47-.7-1.97z"/><path d="M13.24 10.82h2.05V8.77c0-.11.09-.21.21-.21.11 0 .21.09.21.21v2.36s0 .01-.01.01v.01c0 .01-.01.01-.01.02-.03.05-.09.09-.15.1h-2.3c-.11 0-.21-.09-.21-.21 0-.11.09-.21.21-.21zm0-6.91h2.05v2.05c0 .11.09.21.21.21.11 0 .21-.09.21-.21V3.6s0-.01-.01-.01v-.01c0-.01-.01-.01-.01-.02a.226.226 0 00-.15-.1h-2.3c-.11 0-.21.09-.21.21 0 .11.09.21.21.21zM8.1 10.82H6.05V8.77c0-.11-.09-.21-.21-.21-.11 0-.21.09-.21.21v2.36s0 .01.01.01v.01c0 .01.01.01.01.02.03.05.09.09.15.1h2.3c.11 0 .21-.09.21-.21 0-.11-.09-.21-.21-.21zm0-6.91H6.05v2.05c0 .11-.09.21-.21.21-.11 0-.21-.09-.21-.21V3.6s0-.01.01-.01v-.01c0-.01.01-.01.01-.02.03-.05.09-.09.15-.1h2.3c.11 0 .21.09.21.21 0 .11-.09.21-.21.21z" fill="#55adad"/></g></g></svg>