<svg xmlns="http://www.w3.org/2000/svg" width="159.66" height="159.66" viewBox="0 0 30807.55 30807.55" shape-rendering="geometricPrecision" text-rendering="geometricPrecision" image-rendering="optimizeQuality" fill-rule="evenodd" clip-rule="evenodd"><defs><style>.fil1{fill:#404c55}</style></defs><g id="Слой_x0020_1"><g id="_4976904224"><path fill="#fff" d="M-.13-.02h30807.58v30807.58H-.13z"/><path class="fil1" d="M10517.51 17808.57v-4809.58c0-598.09 237.6-1280.19 640.53-1679.04 15.46-15.39 25.53-24.5 40.33-40.62l39.67-41.2c28.3-25.82 49.74-47.84 77.38-75.55 183.56-184.8 419.92-318.84 655.41-432.18 289.89-140.1 699.75-212.81 1028.08-212.81h4800.76c334.31 0 723.96 70.81 1021.81 209.67 39.97 18.52 61.99 30.48 104.51 48.42 65.78 27.71 229.8 130.69 288.65 169.71 205.51 135.94 400.67 330.81 555.28 523.77 327.01 409.86 511.16 965.14 511.16 1493.66v4872.81c0 520.71-158.91 977.39-438.81 1395.49-64.83 96.92-260.65 331.46-357.57 406.36-74.9 57.91-135.06 125.58-253.72 204.93-403.88 270.06-845.46 438.81-1395.42 438.81h-4872.81c-329.64 0-604.73-64.25-897.46-172.18-246.21-91.02-561.26-286.46-749.85-473.16l-85.62-76.14c-198.29-197.71-389.66-477.25-499.2-732.5-124.05-289.02-213.1-609.76-213.1-1018.67zm-890.24-4962.52v5106.4c0 127.77 13.56 256.86 32.09 372.67 27.42 170.29 62.35 339.7 113.04 498.32 39.02 123.1 117.42 323.59 175.61 444.79 120.55 251.17 234.25 410.81 392.21 623.54 82.85 111.8 240.52 285.22 341.23 378.06 159.93 147.97 336.49 279.9 521 396l261.89 151.76c202.09 108.88 530.7 222.51 750.44 274.5 207.12 48.79 472.51 88.1 730.02 88.1h4899.87c528.52 0 995.99-133.17 1360.49-302.8l527.57-299.66c96.05-68.04 201.14-143.89 289.6-222.58l269.76-260.65c91.96-104.51 251.24-299.01 315.42-403.88 241.47-393.45 367.34-635.87 481.04-1092.62 52.22-211.49 91.6-485.34 91.6-744.46v-4908.69c0-802.07-343.42-1648.56-860.92-2204.71-112.09-120.26-158.69-181.01-309.15-302.22-21.08-16.7-31.14-29.61-52.58-46.31-261.6-202.38-378.65-287.05-689.4-443.48-144.47-73.07-451.36-185.09-598.67-219.44-214.7-50.03-457.99-101.37-717.11-101.37h-5106.4c-266.63 0-460.18 46.97-701.94 98.24-55.72 11.96-105.46 30.56-153.95 43.76-138.78 38.73-450.12 164.67-573.22 236.07l-248.32 147.32c-301.27 183.85-623.91 487.02-839.85 769.33-87.22 113.99-174.74 238.91-247.74 363.62-27.42 46.24-44.41 80.22-69.87 128.06-226.08 421.24-383.75 956.02-383.75 1432.32z"/><path class="fil1" d="M17619.9 15399.22c0 460.25-143.52 886.74-393.74 1260.72-208.72 311.92-556.88 611.95-906.29 757.07-300.32 124.64-557.18 203.03-911.61 203.03-318.55 0-606.26-68.33-861.87-172.18-24.21-9.77-40.91-19.54-67.02-31.8l-138.2-68.63c-27.71-15.46-42.52-21.73-69.57-38.07-130.03-79.05-253.72-161.83-362.31-267.28-34.35-33.04-60.17-42.15-107.64-99.18-107.06-128.06-175.39-197.05-270.78-349.69-52.51-84.09-110.49-174.74-150.74-271.66-183.85-442.61-263.49-935.82-146.08-1406.14 58.85-234.54 124.05-415.48 232.64-603.41 51.34-89.12 101.95-167.15 164.02-249.64 177.51-236.07 405.7-438.81 663.21-586.42 423.42-243.07 853.41-322.71 1357.35-279.54 236.07 20.42 599.99 129.67 796.09 246.79 45.95 27.71 87.81 49.37 129.67 77.09 134.12 88.75 361.07 251.24 454.57 372.37 31.8 41.28 62.65 71.18 95.1 111.8 309.44 387.76 493.22 886.74 493.22 1394.76zm-5331.46-71.76c0 614.43 108.01 1021.15 344.66 1498.4 94.44 190.13 243.66 407.31 377.48 566.58l282.67 292.74c99.77 100.42 307.18 259.7 423.06 332.12 41.2 25.82 75.19 46.89 116.76 72.05 418.98 250.58 999.42 420.58 1476.37 420.58 478.12 0 701.65-35.59 1133.82-178.46 89.41-29.61 190.13-69.57 268.52-109.25 199.24-100.42 416.13-217.18 586.42-357.64l153-125.58c99.77-88.1 192.97-185.39 283.26-282.96 20.2-21.73 23.63-31.8 45.07-54.19 103.19-108.23 237.02-316 312.86-442.24 243.95-405.12 417.37-995.62 417.37-1470.32 0-476.01-35.22-701.65-178.46-1134.19-112.38-338.68-381.2-797.99-641.85-1057.32l-134.7-143.89c-91.6-90.65-263.49-224.77-365.15-300.32-186.04-138.2-398.19-242.05-610.05-333.65-306.96-132.51-754.52-231.4-1099.55-231.4-416.79 0-742.56 39.09-1115.88 178.53-172.84 64.54-361.36 141.04-518.82 236.73-117.42 71.76-230.67 142.28-339.26 226.95-207.19 161.76-407.67 365.45-571.4 570.38-29.24 36.54-53.46 71.47-79.93 109.25-139.44 198-178.17 283.91-278.3 485.34-147.61 296.89-288 787.63-288 1231.77zm6221.34-3506.35c0 97.58.95 135.94 44.71 225.06l65.2 96.92c6.27 6.93 5.98 6.93 12.54 14.22l8.82 9.12c263.78 265.68 758.97 106.04 758.97-336.2 0-373.69-476.59-578.54-758.02-308.2-62.94 60.46-132.22 178.53-132.22 299.08z"/></g></g></svg>