<svg xmlns="http://www.w3.org/2000/svg" width="125.082" height="39.49" viewBox="0 0 181.39 57.27" shape-rendering="geometricPrecision" text-rendering="geometricPrecision" image-rendering="optimizeQuality" fill-rule="evenodd" clip-rule="evenodd"><defs><style>.fil0{fill:#fff}</style></defs><g id="Слой_x0020_1"><g id="_1572856048"><path class="fil0" d="M55.46 54.21L71.49 2.33h12.24l10.49 27.69 10.93-27.25h11.22l19.96 51h-15.01l-12.24-29.01-12.09 29.16h-5.83L79.65 24.77 68.87 54.21zM181.39 2.19l-20.93 51.73-11.71-.14-20.26-51h15.01l11.25 30.79 12.47-31.29zM27.58 0c13.06 0 24.07 8.74 27.51 20.68l-13.35 3.68c-1.83-6.09-7.48-10.52-14.16-10.52-6.77 0-12.47 4.55-14.23 10.75L0 20.91C3.37 8.85 14.44 0 27.58 0zM55.1 36.56c-3.44 11.96-14.46 20.7-27.52 20.7C14.43 57.26 3.36 48.4 0 36.32l13.32-3.77c1.72 6.26 7.45 10.87 14.26 10.87 6.73 0 12.4-4.49 14.2-10.63l13.32 3.77z"/><path class="fil0" d="M14.72 28.19l12.86-6.94 12.8 6.94-12.8 7.73z"/></g></g></svg>