<svg xmlns="http://www.w3.org/2000/svg" width="195.123" height="150.814" viewBox="0 0 30.54 23.6" shape-rendering="geometricPrecision" text-rendering="geometricPrecision" image-rendering="optimizeQuality" fill-rule="evenodd" clip-rule="evenodd"><defs><style>.fil0{fill:#59656c;fill-rule:nonzero}</style></defs><g id="Слой_x0020_1"><path class="fil0" d="M.61 6.34c-.01.47-.02.94-.02 1.41 0 .49 0 .98.01 1.48.01.42.08.68.22.82.12.13.32.17.59.16.27-.01.53-.19.81-.38.44-.3.91-.61 1.58-.54l.2.03c.62.13 1.15.48 1.51.97.36.49.54 1.1.46 1.73l-.03.2c-.09.45-.33.89-.64 1.25-.32.37-.74.66-1.16.81-.73.25-1.28-.07-1.83-.4-.15-.09-.3-.18-.44-.25-.32-.16-.66-.29-.91-.23-.2.05-.35.29-.37.87-.01.49-.01.98-.01 1.47 0 .48 0 .96.01 1.45.09.45.52.46 1.09.47h.11c.24 0 .5-.01.77-.01 1.36-.04 2.85-.09 2.95 1.24.05.7-.22 1-.51 1.31-.16.18-.33.37-.39.67-.04.19-.05.37-.04.54.03.41.19.75.45 1.01.27.27.63.45 1.05.53.21.04.44.06.68.04.49-.12.94-.34 1.24-.68.24-.27.37-.63.33-1.08-.05-.55-.29-.86-.5-1.13-.09-.12-.18-.24-.26-.38-.17-.3-.25-.57-.24-.8 0-.22.07-.4.18-.56.1-.15.25-.27.41-.36.47-.27 1.17-.35 1.69-.34h1.9c.26 0 .46-.03.6-.11.11-.07.18-.2.19-.41l.01-.08c0-.26-.01-.53-.01-.79v-1.12c0-.11 0-.22.01-.32 0-.19.01-.37.01-.56.03-.92.36-1.31.81-1.43.41-.1.89.06 1.31.27.17.09.33.18.48.27.44.26.87.52 1.34.35.32-.11.65-.35.91-.64.25-.29.44-.63.51-.98.01-.05.02-.1.02-.15.06-.48-.08-.95-.35-1.32-.27-.37-.68-.64-1.15-.74a.68.68 0 00-.15-.02c-.46-.05-.83.2-1.18.44s-.69.47-1.12.48c-.44.02-.79-.08-1.04-.34-.24-.25-.37-.64-.38-1.22-.01-.5-.01-.99-.01-1.49s.01-1 .02-1.49v-.02c-.15-.3-.53-.3-1.14-.29h-.48c-.11 0-.28.01-.46.02-.99.05-2.51.12-2.81-.95-.07-.24-.07-.47-.02-.69.05-.21.13-.4.24-.58.09-.14.17-.26.25-.38.24-.36.46-.67.43-1.2-.02-.37-.17-.69-.4-.95a1.81 1.81 0 00-.96-.55C6.42.54 5.93.6 5.54.78c-.32.15-.57.38-.74.65-.17.27-.26.59-.25.92.01.37.16.76.46 1.11.18.21.37.48.46.8.1.35.08.73-.21 1.11-.44.59-1.06.58-1.83.58h-.2c-.22 0-.45-.01-.68-.03-.79-.05-1.64-.1-1.96.43zM0 7.75c0-.5.01-1 .02-1.49v-.07l.03-.06c.47-.92 1.55-.86 2.55-.8.23.01.45.03.64.03h.2c.6 0 1.09.01 1.36-.34.15-.2.17-.41.11-.59-.06-.22-.21-.42-.34-.58-.4-.46-.59-.98-.6-1.48-.02-.44.11-.88.34-1.25.23-.37.57-.67.99-.87C5.81.01 6.43-.07 7.12.1c.5.12.94.38 1.26.73.31.35.51.8.55 1.3.05.73-.22 1.12-.53 1.57-.08.11-.16.23-.23.35-.08.13-.14.27-.17.41-.03.13-.03.26.01.41.17.61 1.41.55 2.21.51.19-.01.35-.02.5-.02h.47c.93-.01 1.49-.02 1.74.79l.04.12-.04.08c-.01.47-.02.94-.02 1.41 0 .49 0 .98.01 1.48.01.42.08.68.22.82.12.13.32.17.59.16.27-.01.53-.19.81-.38.44-.3.91-.61 1.58-.54l.2.03c.62.13 1.15.48 1.51.97.36.49.54 1.1.46 1.73l-.03.2c-.09.45-.33.89-.64 1.25-.32.37-.74.66-1.16.81-.73.25-1.28-.07-1.83-.4-.15-.09-.3-.18-.44-.25-.32-.16-.66-.29-.91-.23-.2.05-.35.29-.37.87 0 .19-.01.37-.01.56 0 .1-.01.2-.01.3v1.12c0 .27 0 .53.01.81v.02c0 .03-.01.06-.01.09-.03.42-.2.7-.46.87-.24.16-.55.21-.92.21H9.6c-.44 0-1.03.06-1.39.27-.09.05-.17.12-.22.19-.04.06-.07.14-.07.23 0 .13.05.3.17.51.06.1.13.2.22.31.26.34.55.72.61 1.44.06.63-.13 1.13-.47 1.52-.39.44-.96.72-1.57.87l-.03.01h-.02c-.3.02-.58 0-.85-.05-.54-.1-1.01-.35-1.36-.7-.36-.36-.58-.83-.62-1.39-.02-.22 0-.45.05-.69.09-.47.32-.72.53-.96.2-.22.39-.43.36-.87-.06-.77-1.25-.73-2.34-.69-.27.01-.54.02-.79.01H1.7c-.85-.01-1.51-.02-1.67-.97v-.05c-.01-.49-.01-.99-.01-1.48s0-.99.01-1.48c.03-.92.36-1.31.81-1.43.41-.1.89.06 1.31.27.17.09.33.18.48.27.44.26.87.52 1.34.35.32-.11.65-.35.91-.64.25-.29.44-.63.51-.98.01-.05.02-.1.02-.15.06-.48-.08-.95-.35-1.32-.27-.37-.68-.64-1.15-.74a.68.68 0 00-.15-.02c-.46-.05-.83.2-1.18.44s-.69.47-1.12.48c-.44.02-.79-.08-1.04-.34-.24-.25-.37-.64-.38-1.22-.01-.5-.01-.99-.01-1.49z"/><path class="fil0" d="M12.91 6.34c-.01.47-.02.94-.02 1.41 0 .49 0 .98.01 1.48.01.42.08.68.22.82.12.13.32.17.59.16.27-.01.53-.19.81-.38.44-.3.91-.61 1.58-.54l.2.03c.62.13 1.15.48 1.51.97.36.49.54 1.1.46 1.73l-.03.2c-.09.45-.33.89-.64 1.25-.32.37-.74.66-1.16.81-.73.25-1.28-.07-1.83-.4-.15-.09-.3-.18-.44-.25-.32-.16-.66-.29-.91-.23-.2.05-.35.29-.37.87-.01.49-.01.98-.01 1.47 0 .48 0 .96.01 1.45.09.45.52.46 1.09.47h.11c.24 0 .5-.01.77-.01 1.36-.04 2.85-.09 2.95 1.24.05.7-.22 1-.51 1.31-.16.18-.33.37-.39.67-.04.19-.05.37-.04.54.03.41.19.75.45 1.01.27.27.63.45 1.05.53.21.04.44.06.68.04.49-.12.94-.34 1.24-.68.24-.27.37-.63.33-1.08-.05-.55-.29-.86-.5-1.13-.09-.12-.18-.24-.26-.38-.17-.3-.25-.57-.24-.8 0-.22.07-.4.18-.56.1-.15.25-.27.41-.36.47-.27 1.17-.35 1.69-.34h1.9c.26 0 .46-.03.6-.11.11-.07.18-.2.19-.41.03-.37.02-.83.01-1.3-.02-.92-.04-1.88.2-2.38.14-.31.4-.53.7-.64.29-.11.63-.11.96.01.3.11.52.29.74.46.32.26.65.52 1.24.45.32-.04.61-.2.85-.45.27-.27.48-.64.62-1.05.04-.42.04-.45 0-.83l-.01-.08c-.17-.55-.4-.92-.72-1.14-.32-.21-.76-.28-1.34-.22-.22.09-.47.26-.71.41-.36.23-.7.45-.99.48-1.11.1-1.46-.63-1.55-1.63-.04-.46-.02-.97-.01-1.48.01-.27.02-.55.02-.8 0-1.02-.32-1.02-1.12-1.01H23c-.11 0-.28.01-.46.02-.99.05-2.51.12-2.81-.95-.07-.24-.07-.47-.02-.69.05-.21.13-.4.24-.58.09-.14.17-.26.25-.38.24-.36.46-.67.43-1.2-.02-.37-.17-.69-.4-.95a1.81 1.81 0 00-.96-.55c-.56-.13-1.05-.07-1.44.11-.32.15-.57.38-.74.65-.17.27-.26.59-.25.92.01.37.16.76.46 1.11.18.21.37.48.46.8.1.35.08.73-.21 1.11-.44.59-1.06.58-1.83.58h-.2c-.22 0-.45-.01-.68-.03-.79-.05-1.64-.1-1.96.43zm-.61 1.41c0-.5.01-1 .02-1.49v-.07l.03-.06c.47-.92 1.55-.86 2.55-.8.23.01.45.03.64.03h.2c.6 0 1.09.01 1.36-.34.15-.2.17-.41.11-.59-.06-.22-.21-.42-.34-.58-.4-.46-.59-.98-.6-1.48-.02-.44.11-.88.34-1.25.23-.37.57-.67.99-.87.51-.24 1.13-.32 1.82-.15.5.12.94.38 1.26.73.31.35.51.8.55 1.3.05.73-.22 1.12-.53 1.57-.08.11-.16.23-.23.35-.08.13-.14.27-.17.41-.03.13-.03.26.01.41.17.61 1.41.55 2.21.51.19-.01.35-.02.5-.02h.47c1.23-.01 1.71-.02 1.72 1.6 0 .27-.01.54-.02.82-.02.49-.03.99 0 1.41.06.67.27 1.15.91 1.1.14-.01.42-.19.72-.39.28-.18.57-.37.85-.48l.04-.02h.04c.74-.09 1.32.01 1.77.31.45.3.76.79.97 1.48l.01.02.02.14c.05.44.05.47 0 .98v.03l-.01.03c-.16.52-.43.98-.77 1.32-.33.34-.74.56-1.2.62-.84.11-1.27-.24-1.68-.57-.18-.15-.37-.29-.57-.37a.83.83 0 00-.56-.01c-.16.06-.29.18-.37.34-.18.38-.16 1.27-.14 2.12.01.49.02.98-.01 1.36-.03.42-.2.7-.46.87-.24.16-.55.21-.92.21h-1.91c-.44 0-1.03.06-1.39.27-.09.05-.17.12-.22.19-.04.06-.07.14-.07.23 0 .13.05.3.17.51.06.1.13.2.22.31.26.34.55.72.61 1.44.06.63-.13 1.13-.47 1.52-.39.44-.96.72-1.57.87l-.03.01h-.02c-.3.02-.58 0-.85-.05-.54-.1-1.01-.35-1.36-.7-.36-.36-.58-.83-.62-1.39-.02-.22 0-.45.05-.69.09-.47.32-.72.53-.96.2-.22.39-.43.36-.87-.06-.77-1.25-.73-2.34-.69-.27.01-.54.02-.79.01h-.11c-.85-.01-1.51-.02-1.67-.97v-.05c-.01-.49-.01-.99-.01-1.48s0-.99.01-1.48c.03-.92.36-1.31.81-1.43.41-.1.89.06 1.31.27.17.09.33.18.48.27.44.26.87.52 1.34.35.32-.11.65-.35.91-.64.25-.29.44-.63.51-.98.01-.05.02-.1.02-.15.06-.48-.08-.95-.35-1.32-.27-.37-.68-.64-1.15-.74a.68.68 0 00-.15-.02c-.46-.05-.83.2-1.18.44s-.69.47-1.12.48c-.44.02-.79-.08-1.04-.34-.24-.25-.37-.64-.38-1.22-.01-.5-.01-.99-.01-1.49z"/></g></svg>