<svg xmlns="http://www.w3.org/2000/svg" width="190.245" height="112.083" viewBox="0 0 29.98 17.66" shape-rendering="geometricPrecision" text-rendering="geometricPrecision" image-rendering="optimizeQuality" fill-rule="evenodd" clip-rule="evenodd"><defs><style>.fil0{fill:#59656c}</style></defs><g id="Слой_x0020_1"><g id="_1812484016"><path class="fil0" d="M11.5 9.51c.42-.17.57.46.22.59-.4.15-.64-.43-.22-.59zm3.38-1.53c.44-.17.57.48.24.59-.41.14-.65-.43-.24-.59zm3.82-.13c.44-.15.56.5.19.6-.39.11-.62-.45-.19-.6zm-6.06-1.6c.39-.11.53.52.14.62-.41.1-.6-.48-.14-.62zm4.27-.32c.44-.16.57.52.18.61-.4.09-.57-.47-.18-.61zm-3.29.95c1.14-.11 1.09.25 1.08-1.09 0-.68-.04-1.43 0-2.1.48-.17 1.54.13 1.98.25v1.33c-.03.12-.76.3-.63 1.11.07.44.45.81.95.81.92 0 1.41-1.28.44-1.81-.11-.06-.07-.01-.12-.11V4.24c.43.11 1.23.82 1.56 1.21 1.49 1.76 1.7 4.22.45 6.16-.38.6-1.17 1.43-1.86 1.74-.06-.3-.02-1.14-.02-1.5l.01-1.88c.02-.15.04-.12.15-.21.18-.14.66-.73.75-.74.14-.02.31.13.62.06.88-.21 1-1.37.27-1.79-.4-.23-.88-.11-1.15.15-.47.45-.24.89-.22 1.14-.13.09-.27.27-.39.39-.14.14-.18.14-.39.37-.13.15-.27.21-.29.5-.05 1.12.06 2.51 0 3.82-.48.14-.96.32-1.51.32V9.17c1.06-.4.71-1.9-.36-1.86-.49.02-.85.38-.92.82-.11.71.47.93.63 1.06v4.78c-.31.04-1.36-.16-1.49-.35-.11-.22.08-2.31-.05-2.7-.09-.28-.62-.56-.63-.74-.01-.12.12-.3.06-.59-.19-.95-1.65-1.07-1.89-.01-.1.42.12.8.34.96.42.3.57.19 1.06.13.37.46.49.25.47 1.12-.01.31.02 1.35-.03 1.56-.08-.06-.22-.12-.31-.18-.44-.29-1.04-.83-1.32-1.25-.14-.21-.28-.41-.4-.62-1.02-1.74-.76-3.95.4-5.57.08-.11.15-.2.22-.29.57-.71 2.06-1.6 2.97-1.68v2.48l-.44-.01c-.12-.26-.17-.35-.39-.48a.962.962 0 00-.7-.13c-.44.09-.77.44-.77.95s.34.88.8.95c.55.09.85-.22 1.07-.62zm1.03-3.86c-1.34.17-2.12.41-3.19 1.18-.15.11-.27.23-.39.34-.65.6-1.16 1.31-1.48 2.15-.83 2.13-.37 4.41 1.12 6.06.58.64 1.24 1.12 2.14 1.49 1.52.62 3.37.51 4.79-.22a5.86 5.86 0 002.28-2.08c1.31-2.12 1.17-4.65-.3-6.64l-.7-.76a6.02 6.02 0 00-1.79-1.12c-.62-.24-1.75-.48-2.47-.39z"/><path class="fil0" d="M13.97.7c3.52-.26 6.5.8 9 2.23 1.21.69 2.21 1.5 3.25 2.38l.58.51.18.15c.25.24.45.48.69.7.25.23.44.52.67.75.22.23.77.91.93 1.19.14.24.1.24-.03.47-.19.33-.67.85-.94 1.18l-.66.73c-.34.37-.71.67-.91.88l-.91.81c-1.35 1.08-1.7 1.37-3.33 2.3-1.86 1.06-4.27 1.8-6.47 1.96-4.08.3-7.79-1.21-10.68-3.34-1.07-.78-2.88-2.35-3.68-3.37-.3-.38-.7-.78-.93-1.19-.14-.25-.13-.22.01-.47.19-.33.99-1.26 1.26-1.56.53-.58 1.58-1.6 2.15-2.05 1.74-1.38 2.93-2.29 5.24-3.2 1.41-.56 2.9-.94 4.58-1.07zm15.99 8.34c.11-.45-.18-.83-.37-1.1-.2-.28-.92-1.18-1.17-1.43-.08-.08-.11-.1-.18-.18-.36-.4-1.44-1.44-1.91-1.81-.76-.6-1.22-1.01-2.11-1.58C21.52 1.2 18.66.06 15.25 0c-3.67-.06-6.67 1.21-9.16 2.75-.63.39-1.19.81-1.76 1.24-.29.22-.54.45-.82.67l-.78.71c-.75.74-1.48 1.49-2.14 2.31-.68.85-.79 1.19-.19 2.05.33.47 1.3 1.55 1.72 2l1.95 1.74c.55.44 1.1.86 1.71 1.25 5.97 3.86 12.07 3.93 18.13.19 1.28-.79 2.26-1.62 3.36-2.6.25-.22 1.37-1.41 1.62-1.74l.34-.39c.28-.3.61-.69.73-1.14z"/></g></g></svg>