<svg xmlns="http://www.w3.org/2000/svg" width="160.924" height="160.924" viewBox="0 0 20.16 20.16" shape-rendering="geometricPrecision" text-rendering="geometricPrecision" image-rendering="optimizeQuality" fill-rule="evenodd" clip-rule="evenodd"><defs><style>.fil0,.fil1{fill:#59656c}.fil1{fill-rule:nonzero}</style></defs><g id="Слой_x0020_1"><g id="_1941499424"><path class="fil0" d="M.84 9.84h6.25c.13 0 .24.11.24.24s-.11.24-.24.24H.83l.68.68c.09.09.09.24 0 .34-.09.09-.24.09-.34 0L.11 10.28l-.02-.02a.234.234 0 01-.07-.17c0-.08.04-.15.1-.19l1.05-1.05c.09-.09.24-.09.34 0 .09.09.09.24 0 .34l-.67.67z"/><path class="fil1" d="M.9 9.81h6.19c.07 0 .14.03.18.08.05.05.08.11.08.18 0 .07-.03.14-.08.18a.25.25 0 01-.18.08H.89l.64.64c.05.05.08.12.08.19s-.03.13-.08.18l-.01.01c-.05.05-.11.07-.18.07a.25.25 0 01-.18-.08L.1 10.28l-.02-.02c-.02-.02-.04-.05-.06-.08a.355.355 0 01-.02-.1v-.01c0-.04.01-.08.03-.12.02-.04.05-.07.08-.09l1.05-1.05c.05-.05.12-.08.19-.08s.13.03.18.08c.05.05.08.12.08.19s-.03.13-.08.19l-.63.63zm6.19.05H.78l.71-.71c.04-.04.06-.1.06-.15a.22.22 0 00-.06-.15.22.22 0 00-.15-.06.22.22 0 00-.15.06c-.23.23-.84.9-1.06 1.05-.03.02-.05.05-.07.08-.02.03-.02.06-.02.1v.01c0 .03.01.06.02.08.01.03.03.05.05.07l.01.01c.33.27.76.76 1.07 1.07.04.04.1.06.15.06.05 0 .11-.02.15-.06.04-.04.06-.1.06-.15a.22.22 0 00-.06-.15l-.72-.72h6.32a.204.204 0 00.21-.21.204.204 0 00-.21-.21z"/><path class="fil0" d="M19.32 9.84h-6.25c-.13 0-.24.11-.24.24s.11.24.24.24h6.26l-.68.68c-.09.09-.09.24 0 .34.09.09.24.09.34 0l1.06-1.06.02-.02c.05-.05.07-.11.07-.17 0-.08-.04-.15-.1-.19l-1.05-1.05a.248.248 0 00-.34 0c-.09.09-.09.24 0 .34l.67.67z"/><path class="fil1" d="M19.32 9.86h-6.25a.204.204 0 00-.21.21.204.204 0 00.21.21h6.32l-.72.72a.22.22 0 00-.06.15c0 .05.02.11.06.15.04.04.1.06.15.06.05 0 .11-.02.15-.06.32-.32.75-.8 1.07-1.07l.01-.01a.18.18 0 00.05-.07c.01-.03.02-.05.02-.08v-.01c0-.04-.01-.07-.02-.1a.27.27 0 00-.07-.08c-.23-.17-.81-.81-1.06-1.05a.22.22 0 00-.15-.06.22.22 0 00-.15.06.22.22 0 00-.06.15c0 .05.02.11.06.15l.71.71h-.06zm-6.25-.05h6.19l-.63-.63a.273.273 0 01-.08-.19c0-.06.02-.13.07-.18l.01-.01c.05-.05.12-.08.18-.08.07 0 .13.03.18.08l1.05 1.05c.03.02.06.06.08.09.02.04.03.08.03.12v.01c0 .03-.01.07-.02.1s-.03.06-.06.09l-.02.02-1.06 1.06c-.05.05-.12.08-.19.08a.25.25 0 01-.18-.08.273.273 0 01-.08-.19c0-.07.03-.13.08-.18l.64-.64h-6.2c-.07 0-.14-.03-.18-.08a.25.25 0 01-.08-.18c0-.07.03-.14.08-.18a.25.25 0 01.18-.08z"/><path class="fil0" d="M9.84 19.32v-6.25c0-.13.11-.24.24-.24s.24.11.24.24v6.26l.68-.68c.09-.09.24-.09.34 0 .09.09.09.24 0 .34l-1.06 1.06-.02.02c-.05.05-.11.07-.17.07-.08 0-.15-.04-.19-.1l-1.05-1.05a.248.248 0 010-.34c.09-.09.24-.09.34 0l.67.67z"/><path class="fil1" d="M9.81 19.26v-6.19c0-.07.03-.14.08-.18a.25.25 0 01.18-.08c.07 0 .14.03.18.08.05.05.08.11.08.18v6.2l.64-.64c.05-.05.12-.08.19-.08s.13.03.18.08c.05.05.08.12.08.19s-.03.13-.08.19l-1.06 1.06-.02.02c-.02.02-.05.04-.08.06-.03.01-.07.02-.1.02h-.01c-.04 0-.08-.01-.12-.03a.236.236 0 01-.09-.08l-1.05-1.05a.273.273 0 01-.08-.19c0-.07.03-.13.08-.18.05-.05.12-.08.19-.08s.13.03.18.08l.63.63zm.05-6.19v6.31l-.71-.71a.22.22 0 00-.15-.06.22.22 0 00-.15.06.22.22 0 00-.06.15c0 .05.02.11.06.15.22.22.92.86 1.05 1.06.02.03.05.05.08.07.03.02.06.02.1.02h.01c.03 0 .06-.01.08-.02.03-.01.05-.03.07-.05l.01-.01c.27-.33.76-.76 1.07-1.07.04-.04.06-.1.06-.15a.22.22 0 00-.06-.15.22.22 0 00-.15-.06.22.22 0 00-.15.06l-.72.72v-6.32a.204.204 0 00-.21-.21.204.204 0 00-.21.21z"/><path class="fil0" d="M9.84.84v6.25c0 .13.11.24.24.24s.24-.11.24-.24V.83l.68.68c.09.09.24.09.34 0 .09-.09.09-.24 0-.34L10.28.11l-.02-.02a.234.234 0 00-.17-.07c-.08 0-.15.04-.19.1L8.85 1.17c-.09.09-.09.24 0 .34.09.09.24.09.34 0l.67-.67z"/><path class="fil1" d="M9.86.84v6.25a.204.204 0 00.21.21.204.204 0 00.21-.21V.77l.72.72c.04.04.1.06.15.06.05 0 .11-.02.15-.06.04-.04.06-.1.06-.15a.22.22 0 00-.06-.15c-.31-.31-.81-.75-1.07-1.07l-.01-.01a.18.18 0 00-.07-.05c-.03-.01-.05-.02-.08-.02h-.01c-.04 0-.07.01-.1.02a.27.27 0 00-.08.07c-.15.21-.83.83-1.05 1.06a.22.22 0 00-.06.15c0 .05.02.11.06.15.04.04.1.06.15.06.05 0 .11-.02.15-.06l.71-.71v.06zm-.05 6.25V.9l-.63.63c-.05.05-.12.08-.19.08a.25.25 0 01-.18-.08.273.273 0 01-.08-.19c0-.07.03-.13.08-.18L9.86.11c.02-.03.06-.06.09-.08.04-.02.08-.03.12-.03h.01c.03 0 .07.01.1.02s.06.03.09.06l.02.02 1.06 1.06c.05.05.08.12.08.19s-.03.13-.08.18c-.05.05-.12.08-.19.08s-.13-.03-.19-.08l-.64-.64v6.2c0 .07-.03.14-.08.18a.25.25 0 01-.18.08c-.07 0-.14-.03-.18-.08a.25.25 0 01-.08-.18z"/><path class="fil0" d="M5.07 14.74l2.09-2.09c.09-.09.24-.09.34 0 .09.09.09.24 0 .34l-2.1 2.1h.96c.13 0 .24.11.24.24s-.11.24-.24.24H4.83c-.07 0-.13-.03-.17-.07a.247.247 0 01-.07-.21V13.8c0-.13.11-.24.24-.24s.24.11.24.24v.95z"/><path class="fil1" d="M5.1 14.69l2.05-2.05c.05-.05.12-.08.19-.08s.13.03.18.08c.05.05.08.12.08.19s-.03.13-.08.18l-2.06 2.06h.91c.07 0 .14.03.18.08.05.05.08.11.08.18 0 .07-.03.14-.08.18a.25.25 0 01-.18.08H4.84c-.04 0-.07-.01-.1-.02a.236.236 0 01-.09-.06.238.238 0 01-.06-.11c-.01-.04-.02-.08-.01-.12v-1.49c0-.07.03-.14.08-.18a.25.25 0 01.18-.08c.07 0 .14.03.18.08.05.05.08.11.08.18v.89zm2.09-2.02L5.06 14.8v-1.01a.204.204 0 00-.21-.21.204.204 0 00-.21.21c0 .33.05 1.22 0 1.49-.01.03 0 .07.01.1s.03.06.05.09c.02.02.04.04.07.05.03.01.05.02.08.02.5-.01 1.03 0 1.53 0a.204.204 0 00.21-.21.204.204 0 00-.21-.21H5.36l2.14-2.14c.04-.04.06-.1.06-.15a.22.22 0 00-.06-.15.22.22 0 00-.15-.06.22.22 0 00-.15.06z"/><path class="fil0" d="M14.74 5.07l-2.09 2.09c-.09.09-.09.24 0 .34.09.09.24.09.34 0l2.1-2.1v.96c0 .13.11.24.24.24s.24-.11.24-.24V4.83c0-.07-.03-.13-.07-.17a.247.247 0 00-.21-.07H13.8c-.13 0-.24.11-.24.24s.11.24.24.24h.95z"/><path class="fil1" d="M14.76 5.09l-2.09 2.09a.22.22 0 00-.06.15c0 .05.02.11.06.15.04.04.1.06.15.06.05 0 .11-.02.15-.06l2.14-2.14v1.02a.204.204 0 00.21.21.204.204 0 00.21-.21c0-.51-.01-1.03 0-1.53 0-.03-.01-.06-.02-.08-.01-.03-.03-.05-.05-.07a.405.405 0 00-.09-.05c-.03-.01-.07-.01-.1-.01-.26.05-1.17 0-1.49 0a.204.204 0 00-.21.21.204.204 0 00.21.21h1.01l-.04.04zm-2.13 2.06l2.05-2.05h-.89c-.07 0-.14-.03-.18-.08a.25.25 0 01-.08-.18c0-.07.03-.14.08-.18a.25.25 0 01.18-.08h1.49c.04-.01.08 0 .12.01.04.01.08.03.11.06.02.02.04.05.06.09.01.03.02.06.02.1v1.53c0 .07-.03.14-.08.18a.25.25 0 01-.18.08c-.07 0-.14-.03-.18-.08a.25.25 0 01-.08-.18v-.91l-2.06 2.06c-.05.05-.12.08-.19.08a.25.25 0 01-.18-.08.269.269 0 01-.08-.18c0-.07.03-.13.08-.19z"/><path class="fil0" d="M15.09 14.74L13 12.65a.248.248 0 00-.34 0c-.09.09-.09.24 0 .34l2.1 2.1h-.96c-.13 0-.24.11-.24.24s.11.24.24.24h1.53c.07 0 .13-.03.17-.07.06-.06.08-.14.07-.21V13.8c0-.13-.11-.24-.24-.24s-.24.11-.24.24v.95z"/><path class="fil1" d="M15.07 14.76l-2.09-2.09a.22.22 0 00-.15-.06.22.22 0 00-.15.06.22.22 0 00-.06.15c0 .05.02.11.06.15l2.14 2.14H13.8a.204.204 0 00-.21.21.204.204 0 00.21.21c.51 0 1.03-.01 1.53 0 .03 0 .06-.01.08-.02.03-.01.05-.03.07-.05.02-.03.04-.06.05-.09.01-.03.01-.07.01-.1-.05-.26 0-1.17 0-1.49a.204.204 0 00-.21-.21.204.204 0 00-.21.21v1.01l-.04-.04zm-2.06-2.13l2.05 2.05v-.89c0-.07.03-.14.08-.18a.25.25 0 01.18-.08c.07 0 .14.03.18.08.05.05.08.11.08.18v1.49c.01.04 0 .08-.01.12-.01.04-.03.08-.06.11-.02.02-.05.04-.09.06-.03.01-.06.02-.1.02h-1.53c-.07 0-.14-.03-.18-.08a.25.25 0 01-.08-.18c0-.07.03-.14.08-.18a.25.25 0 01.18-.08h.91l-2.06-2.06a.269.269 0 01-.08-.18c0-.07.03-.13.08-.19.05-.05.12-.08.18-.08.07 0 .13.03.19.08z"/><path class="fil0" d="M5.41 5.07L7.5 7.16c.09.09.09.24 0 .34-.09.09-.24.09-.34 0l-2.1-2.1v.96c0 .13-.11.24-.24.24s-.24-.11-.24-.24V4.83c0-.07.03-.13.07-.17.06-.06.14-.08.21-.07h1.49c.13 0 .24.11.24.24s-.11.24-.24.24H5.4z"/><path class="fil1" d="M5.47 5.1l2.05 2.05c.05.05.08.12.08.19s-.03.13-.08.18c-.05.05-.12.08-.19.08a.25.25 0 01-.18-.08L5.09 5.46v.91c0 .07-.03.14-.08.18a.25.25 0 01-.18.08c-.07 0-.14-.03-.18-.08a.25.25 0 01-.08-.18V4.84c0-.04.01-.07.02-.1s.03-.06.06-.09.07-.05.11-.06c.04-.01.08-.02.12-.01h1.49c.07 0 .14.03.18.08.05.05.08.11.08.18 0 .07-.03.14-.08.18a.25.25 0 01-.18.08h-.89zm2.02 2.09L5.36 5.06h1.01a.204.204 0 00.21-.21.204.204 0 00-.21-.21c-.33 0-1.22.05-1.49 0-.03-.01-.07 0-.1.01s-.06.03-.09.05a.18.18 0 00-.05.07c-.01.03-.02.05-.02.08.01.5 0 1.03 0 1.53a.204.204 0 00.21.21.204.204 0 00.21-.21V5.36L7.18 7.5c.04.04.1.06.15.06.05 0 .11-.02.15-.06.04-.04.06-.1.06-.15a.22.22 0 00-.06-.15z"/></g></g></svg>