<svg xmlns="http://www.w3.org/2000/svg" width="149.409" height="149.599" viewBox="0 0 18.51 18.54" shape-rendering="geometricPrecision" text-rendering="geometricPrecision" image-rendering="optimizeQuality" fill-rule="evenodd" clip-rule="evenodd"><defs><style>.fil0{fill:#59656c}</style></defs><g id="Слой_x0020_1"><g id="_1969044544"><path class="fil0" d="M9.34 17.57c.28-1.21.24-2.92-.13-4.11-.2-.64-.54-.42-1.32-.18-.24.07-.64.22-.94.22-.06-.23-.65-.95-.81-1.11-.28-.28-.8-.62-1.16-.81.27-1.14.81-1.81.36-2.16-.15-.12-.53-.24-.75-.29-1-.23-2.63-.16-3.61.07.24-.37 1.39-1.07 1.85-1.34 1.24-.72 2.27-1 3.73-1.15.88-.09.64.01 1.11-.52 1.05-1.18 1.87-2.22 3.28-3.16.69-.46 1.28-.83 2.04-1.21C14.15 1.24 16.38.43 18.1.43c-.01.33-.11 1.07-.18 1.39-.09.45-.16.93-.28 1.35-.55 1.97-1.54 3.77-2.79 5.34-.27.34-.47.54-.78.85-.6.6-1 1.01-1.68 1.52-.11.08-.41.26-.47.34-.11.14-.21 1.43-.37 2.07-.17.67-.41 1.52-.73 2.11-.26.48-1.13 1.91-1.5 2.16zM0 9.62c0 .3.28.22.51.16 1.65-.38 1.27-.34 3.09-.34.63 0 1.01.18 1.51.29-.02.3-.32 1.04-.43 1.37-.26.77-.1.72.44 1.06.39.24.7.47.98.81.93 1.15.32 1.17 1.77.74.29-.09.66-.16.89-.27.4.83.41 2.8.19 3.9l-.27.93c-.01.2.09.26.26.25.35-.02 1.32-1.42 1.55-1.73.82-1.09 1.29-2.39 1.57-3.71.06-.28.09-.45.13-.74.16-1.13-.16-.59 1.06-1.61 1.09-.91 1.71-1.56 2.56-2.78 1.63-2.35 2.7-4.97 2.7-7.92-1.22-.28-4.33.74-5.55 1.35-2.22 1.11-3.83 2.36-5.4 4.29-.14.18-.3.45-.5.55-.16.08-.46.07-.62.08-.22.01-.59.07-.77.1-1.43.23-2.61.77-3.79 1.55C1.72 8.05 0 9.32 0 9.61z"/><path class="fil0" d="M4.82 15.08zm0 0c-.12.44-1.27 1.1-1.87 1.27-.2.05-.69.13-.92.13.12-.24 0-.68.52-1.68.21-.41.63-.98.99-1.22-.07.3-.33 1.01-.1 1.38.22.35.91.13 1.38.13zm-3.19 1.45v.35c1.26 0 1.85-.1 2.83-.83.43-.32 1.34-1.23 1.35-1.78-.2.02-.28.06-.45.14a4.9 4.9 0 01-.46.18c-.25.09-.82.15-1.13.15 0-1.18.52-1.45.52-2.03-.59.01-1.54 1-1.82 1.43-.44.66-.85 1.54-.85 2.4zM13.06 3.99c2.12 0 2.19 3.08-.06 3.08-1.22 0-1.96-1.68-1-2.63.25-.24.59-.45 1.06-.45zm-1.92 1.39c0 2.1 2.21 2.62 3.29 1.61.63-.58.86-1.55.45-2.33-1.11-2.08-3.74-.9-3.74.72z"/></g></g></svg>