<svg xmlns="http://www.w3.org/2000/svg" width="123.409" height="125.889" viewBox="0 0 12.24 12.49" shape-rendering="geometricPrecision" text-rendering="geometricPrecision" image-rendering="optimizeQuality" fill-rule="evenodd" clip-rule="evenodd"><path d="M4.43 3.73c.14-.03 2.57-.01 2.79-.01.81 0 .84-.06.84.57v.7c0 .23-.01.41-.24.45-.14.02-2.58.01-2.79.01-.78 0-.83.07-.83-.57v-.7c0-.23.01-.41.24-.45zm-.07-.4c-.24.05-.41.22-.5.4-.09.19-.06.59-.06.83 0 .23-.03.65.04.85.07.19.27.38.48.43.11.03 3.36.04 3.58.01.21-.03.41-.25.5-.4.1-.17.06-.61.06-.84 0-.2.03-.7-.04-.85-.07-.16-.28-.39-.48-.43-.14-.03-3.41-.03-3.57 0zM4.43.42C4.57.4 7 .41 7.21.41c.78 0 .84-.08.84.57v.7c0 .24-.01.41-.23.45-.15.02-2.58.01-2.79.01-.78 0-.83.07-.83-.57v-.7c0-.23 0-.4.24-.45zm-.1-.4c-.22.04-.41.25-.49.41-.08.17-.05.62-.05.84 0 .23-.03.66.05.84.24.57.81.43 1.37.43.35 0 2.56.02 2.7-.01.2-.03.42-.26.49-.41.09-.18.05-.61.05-.84 0-.21.03-.69-.04-.85-.28-.57-.8-.42-1.38-.42-.33 0-2.57-.02-2.69 0zm.07 7.03c.21-.05 1.1-.02 1.38-.02.21 0 1.95-.02 2.08.02.22.07.19.27.19.52v.7c0 .23.01.43-.21.48-.17.04-2.41.01-2.79.01-.79 0-.87.08-.87-.53v-.7c0-.24-.02-.42.21-.48zm-.1-.4c-.2.05-.4.25-.48.43-.06.15-.03.65-.03.85 0 .23-.04.65.05.83.29.54.77.4 1.4.4.33 0 2.57.02 2.69-.01.19-.05.4-.27.47-.42.07-.14.04-.66.04-.85 0-.25.04-.64-.06-.84-.28-.54-.79-.4-1.41-.4-.46 0-2.52-.03-2.68.01zm.1 3.72c.14-.04 2.43-.02 2.78-.02.82 0 .88-.08.88.54v.7c0 .23.01.43-.21.48-.21.05-1.11.01-1.39.01-.22 0-1.94.02-2.07-.02-.22-.06-.19-.28-.19-.51v-.7c0-.24-.02-.42.21-.48zm-.6 1.55c.02.19.21.41.4.51.21.11.57.06.83.06h2.7c.31 0 .47-.14.59-.3.18-.24.13-.42.13-.76 0-.27.02-.63 0-.89-.02-.22-.25-.44-.4-.52-.17-.1-.61-.06-.84-.06h-2.7c-.19 0-.24 0-.37.09-.42.27-.35.61-.35.98 0 .27-.02.64 0 .89zm5.95-4.11c.12-.19.29-.26.4-.48.1-.19-.05-.6-.61.06l-.22.23c-.23.24-.31.23-.33.36-.01.1 0 .13.04.19.17.21.38.37.57.55l.35.34c.17.11.47-.1.2-.38l-.23-.23c-.08-.08-.15-.13-.21-.24h1.11c.27 0 .83.05 1.03-.07.36-.2.37-.43.37-.73 0-.55.02-1.76 0-2.23-.02-.3-.26-.53-.48-.62-.32-.13-1.71-.07-2.16-.07-.16 0-.37-.02-.5.05-.14.08-.12.31.01.36.09.04 1.94.02 2.18.02.53 0 .55.06.55.58 0 .31.03 2.02-.03 2.17-.1.23-.65.14-.93.14-.25 0-.91.03-1.12-.01zm-7.24-2.9c-.05.15-.33.35-.44.48-.06.07-.16.17-.08.3.2.33.54-.19.75-.39l.35-.34c.03-.04.08-.08.11-.12.13-.16-.04-.33-.16-.43l-.11-.11-.46-.45c-.07-.07-.15-.19-.31-.13-.11.04-.16.18-.09.3.11.18.36.29.45.5H.86c-.19 0-.34 0-.41-.15C.38 4.23.42 2.5.42 2.19c0-.52-.02-.59.52-.59.25 0 2.1.02 2.2-.01.15-.05.16-.25.04-.34-.1-.08-.37-.04-.5-.04-.36 0-1.96-.04-2.17.03-.24.08-.47.32-.48.63-.02.67 0 1.52 0 2.21 0 .99.73.84 1.38.84h1.13zm.01 6.22H1.39c-.33 0-.86.07-.95-.16-.06-.15-.03-1.88-.03-2.19 0-.53 0-.58.54-.57.26 0 2.09.02 2.19-.02.15-.06.14-.27.03-.35-.08-.06-.4-.03-.52-.03-.34 0-2.01-.04-2.19.03a.78.78 0 00-.31.25c-.11.13-.14.21-.14.42v2.21c0 .22-.02.3.1.46.09.12.14.2.28.27.32.16 1.75 0 2.13.08-.27.34-.66.55-.52.77.19.3.48-.13.77-.4.48-.47.65-.57.25-.9l-.35-.34c-.18-.17-.34-.43-.53-.32-.1.06-.14.19-.07.3.12.18.35.28.44.48z" fill="#59656c"/></svg>