<svg xmlns="http://www.w3.org/2000/svg" width="159.66" height="159.66" viewBox="0 0 1873.02 1873.01" shape-rendering="geometricPrecision" text-rendering="geometricPrecision" image-rendering="optimizeQuality" fill-rule="evenodd" clip-rule="evenodd"><path fill="#fff" d="M0 0h1873.01v1873.01H0z"/><path d="M648.52 846.65l.14.16c0-.02-.2-.11-.14-.16zm279.21-51.78c0 13.58-.51 21.88 2.55 35.04-10.7 0-19.91-.27-29.47-1-9.88-.74-18.86-1.53-27.89-3.07-17.17-2.92-34.18-6.47-50.59-11.34-4.28-1.28-7.41-2.33-11.55-3.7-11.43-3.77-21.99-8.5-33.1-13.1-1.99-.83-3.2-1.58-5.1-2.49-5.33-2.56-10.61-4.6-15.71-7.66l-9.85-5.36c-3.41-1.69-6.65-3.75-9.99-5.74-12.9-7.7-24.92-16-36.65-24.8-3.01-2.24-5.65-4.37-8.62-6.59-19.07-14.21-35.92-31.13-52.75-47.78-1.64-1.62-2.24-2.75-3.79-4.32-1.37-1.39-2.43-2.42-3.82-3.8-4.5-4.44-8.5-9.48-12.69-14.2l-7.07-8.16c-.86-1.03-.86-1.23-1.81-2.26-1.58-1.71-1.92-3.47-4.44-3.68-.5 1.9-2.99 4.87-4.03 6.63-17.26 28.67-20.57 71.14-9.87 103.22 4.07 12.18 7.76 20.33 13.81 30.36 6.06 10.06 13.65 19.09 21.52 27.71l8.82 7.95c1.62 1.26 11.45 8.52 12.39 9.94-13.06 0-42.98-7.93-55.16-13.36-1.76-.8-5.58-2.74-7.28-2.88 0 33.44 8.09 58.64 26.11 83.57 1.12 1.55 2.11 2.93 3.27 4.34 6.93 8.51 14.77 16.51 23.43 23.29 18.56 14.49 36.5 22.08 59.39 27.41-.11.07-.29.02-.34.18l-7.64 1.99c-15.53 3.33-33.38 5.21-49.34 1.87-1.74-.37-3.07-.94-5.12-1 .5 5.98 7.95 19.29 11.07 24.48 1.21 1.99 2.08 3.31 3.36 5.28l3.64 5.49c4.74 6.88 10.15 13.58 16.07 19.45 3.63 3.59 6.74 7.86 10.69 11.16l7.32 6.4c9.69 8.2 19.71 16.11 30.63 22.67 22.96 13.79 49.59 26.93 79.69 26.93-1.15 1.72-7.57 5.95-9.72 7.54-10.17 7.46-20.62 14.75-31.5 21.31-34.98 21.05-64.17 31.36-103.75 36.87-20.6 2.86-42.7 2.29-63.73 2.27-2.63 0-2.43-.41-3.52 1.05 1.77.41 3.68 1.85 5.29 2.82 1.94 1.16 3.22 1.83 5.16 2.99 1.96 1.15 3.4 1.83 5.3 2.82l10.84 5.4c5.65 2.72 10.95 5.37 16.89 7.48l23.98 8.5c1.85.63 4.41 1.33 6.27 1.85 19.78 5.51 40.14 10.58 60.81 12.82 14.49 1.57 30.48 3.89 45.2 4.03 2.97.04 4.18.55 7.59.53l38.59.5c41.08 0 79.76-6.52 117.89-17.15 41.27-11.48 77.18-29.45 112.59-52.9 8.96-5.94 17.42-12.73 25.9-19.29l6.03-5.16c5.6-4.53 13.46-12.83 17.83-16.17 7.34-5.6 23.72-24.67 28.87-31.04l6.83-8.41c9.06-11.16 17.03-22.97 24.92-34.98 2.15-3.27 3.72-6.13 5.74-9.51 6.58-11 15.77-27.57 20.76-39.64l4.44-10.28c1.65-3.71 2.95-7 4.46-10.77 11.73-29.13 20.68-64.28 24.27-96.06 2.84-25.3 2.84-30.43 2.56-57.34-.07-6.81 2.04-5.14 6.45-8.77 2.94-2.4 5.69-4.21 8.64-6.61 8.27-6.72 25.9-22.45 31.13-29.28l20.6-24.59c2.26-3.04 4.57-5.64 6.31-8.92-2.38.2-15.11 5.85-18.29 7.11-12.45 4.93-25.93 8.71-39.37 11.38-7.18 1.42-14.33 3.34-22.05 3.34.75-1.03 3.8-2.72 5.07-3.56 1.8-1.19 3.38-2.27 5.09-3.56l17.97-15.54.25-.25c5.78-6.04 11.25-12.16 16-19.03 5.95-8.62 11.7-17.73 15.61-27.56.64-1.58 2.08-4.55 2.45-6.17l-20.46 10.51c-14.44 7.2-29.05 12.78-44.72 17.2-4.35 1.23-8.42 2.12-12.58 3.17-16.52 4.14-12.3 2.83-17.81-1.78-8.82-7.38-17.92-14.06-27.75-19.98-4.32-2.59-7.86-4.41-12.71-6.58-39.44-17.6-81.41-19.5-121.5-2.17l-11.51 5.72c-14.45 7.47-30.42 20-40.55 32.57-12.83 15.89-23.52 33.1-28.62 53.65-2.24 9.08-4.46 19.04-4.46 30.56z" fill="#404c55"/></svg>