<svg xmlns="http://www.w3.org/2000/svg" width="159.66" height="159.66" viewBox="0 0 1669.95 1669.95" shape-rendering="geometricPrecision" text-rendering="geometricPrecision" image-rendering="optimizeQuality" fill-rule="evenodd" clip-rule="evenodd"><path fill="#fff" d="M-.01 0h1669.95v1669.95H-.01z"/><path d="M709.48 649.11c0 3.56 6.68 2.54 9.11 3.48 2.88 1.11 7.78 2.51 9.37 3.56.94.62 1.69.79 2.83 1.26 1.57.64 1.49.94 2.75 1.67 1.23.71 1.47.78 2.5 1.59 6.43 5.02 5.7 4.5 10.14 11.3 2.79 4.27 4.4 10.74 5.6 15.84 1.35 5.73 1.26 9.27 2.14 14.87l.83 7.68c.08 1.58.36 2.09.35 4.08-.02 3.11.34 4.95.33 8.17 0 5.79.34 10.94.34 17.02v26.89c.01 2.36-.3 3.53-.36 5.44-.06 1.91.08 3.9.02 5.81-.05 1.68-.48 3.96-.64 5.49-.22 2.12-.15 3.29-.49 5.3-.23 1.38-.77 3.18-.9 4.88-.85 10.89-1.8 10.29-2.47 15.23-.76 5.66-1.46 4.85-2.8 8.77-.72 2.11-2.64 6.09-3.93 7.98-1.57 2.28-3.98 4.36-6.53 5.39-5.91 2.39-9.12 1.35-14.8-1.11-1.28-.55-2.06-1.55-3.21-2.23-2.75-1.63-5.27-3.86-7.76-5.85-.62-.49-.95-.63-1.47-1.26-.53-.64-.53-.81-1.21-1.51-2.95-3.04-6.59-6.74-8.95-10.12-2.58-3.7-5.92-6.92-8.28-10.78-2.23-3.63-6.02-7.86-7.95-11.45-2.37-4.43-6.42-9.11-8.5-13.28l-20.5-34.3c-.73-1.84-1.23-2.26-2.08-3.71-.64-1.11-1.06-2.57-1.82-3.63l-2.01-3.43c-.61-1.65-1.33-1.95-2.02-3.42-.62-1.31-.79-2.6-1.64-3.81l-1.9-3.54c-1.13-2.91-6.66-13.17-7.26-14.87-1.6-4.53-4.44-8.95-5.24-11.1-1.05-2.83-2.42-4.59-3.43-7.46l-3.16-8.07c-.7-1.45-1.15-2.1-1.7-3.75-.98-2.94-1.87-3.8-2.55-5.62-.23-.6-.39-1.51-.59-2.13-.62-1.91-1.36-1.99-1.89-3.56-1.41-4.16-1-2.49-2.6-5.57l-2.64-4.17c-.25-.34-.33-.5-.56-.8-1.55-2.07-3.8-3.99-5.96-5.27-1-.6-2.42-1.47-3.44-2-2.39-1.25-5.78-1.75-8.2-2.69-3.43-1.33-6.05-.41-10.15-.75-3.42-.28-7.01-.32-10.91-.32-10.2 0-77.83-.42-82 .05-1.01.11-1.32.37-2.76.3-1.51-.06-1.23-.3-2.75-.37l-8.7.84c-1.28.23-8.8 1.87-9.89 2.71-3.2 2.46-4.05 2.21-6.54 6.06-2.99 4.63-.6 10.9.62 15.6.35 1.34.58 2.68 1.19 3.92l8.49 18.4c.94 1.4.98 2.09 1.51 3.59.6 1.69 1.16 2.07 1.88 3.57.72 1.51.73 2.41 1.59 3.86.81 1.36 1.24 1.82 1.76 3.68.56 1.99.72 1.8 1.7 3.4.8 1.29.88 2.55 1.57 3.87l3.67 7.23c.66 1.15.88 2.45 1.49 3.62.72 1.4 1.36 1.83 1.93 3.51l10.42 21.57c.51 2.32.68 1.68 1.81 3.29.88 1.25.91 2.47 1.6 3.84.52 1.01.55.78 1.11 1.61 1.28 1.9 1.01 2.61 2.93 5.24l13.71 26.11c.49.91.43 1.06.83 1.9l10.32 18.95c.39.67.66.93 1.1 1.62.77 1.25 1.01 2.48 1.73 3.71.77 1.34 1.47 1.59 2.17 3.28l7.65 13.8c.81 1.66.78 1.83 2.02 3.09 1.55 1.57 4.87 7.98 6.03 10.31.65 1.29 1.34 1.98 2.04 3.07 2.43 3.77 4.57 7.95 7.11 11.61l7.25 11.81c.47.83.47.62 1.02 1.36.45.6.64 1.11.97 1.75 1.25 2.47 6.7 9.21 8.63 12.82l8.48 12.63c.43.51.8.98 1.19 1.53 1.85 2.61 4.14 5.08 5.78 7.84 2.11 3.55 11.16 15.45 13.52 18.48l14.42 17.58c2.57 2.77 4.5 6.2 7.16 8.84l15.36 16.29c.05.05.11.13.16.18 3.85 4.16 8.25 7.91 12.39 11.78.57.53.79.85 1.39 1.33l14.44 12.11c1.04.77 2.32 1.42 3.19 2.25l1.2 1.18c.51.39 1.13.75 1.64 1.08l6.23 4.66c4.14 2.2 13.72 9.35 16.35 10.55.64.29 1.1.45 1.64.74l5.2 2.97c2 1.49 4.76 2.79 7 3.89 1.17.59 2.19 1.06 3.34 1.77 1.47.91 2.37.96 3.82 1.63 1.28.59 1.96 1.26 3.54 1.91l11 5c1.3.62 2.68.8 4.05 1.4 1.68.73 1.48 1.08 3.72 1.72 1.41.4 2.78.57 4.01 1.1 1.56.66 1.93 1.19 3.83 1.61 3.16.71 5.05 1.94 8.23 2.66 5.7 1.28 3.62 1.09 8.12 2.44 1.5.45 2.85.5 4.22.88 1.36.38 2.71.99 4.11 1.34 1.89.48 2.06.53 4.33.77l9.21 1.68c1.59.33 3.02.51 4.49.95 2.09.62 16.59 2.43 19.03 2.42l42.56-.01c7.01 0 14.82.81 20.1-.67l7.28-3.27c1.28-.54 2.85-.96 3.89-1.56 2.64-1.54 6.35-5.85 7.21-8.79.97-3.3 2.13-4.93 2.41-8.48l.65-15.01c-.02-2.28.29-3.06.34-5.1.07-3.12.95-6.32 1.34-9.2.4-2.94.67-7.07 1.3-9.6.37-1.51.94-2.23 1.3-3.81.79-3.51.89-5.32 2.52-8.37.73-1.37.6-2.67 1.26-4.19.6-1.4 1.33-1.93 1.92-3.19.7-1.48.79-2.42 1.61-3.83 3.1-5.32 5.46-7.17 10.4-11.05 2.28-1.79 4.51-2.69 7.49-3.4 6.21-1.49 14.56 2.28 19.31 6.17 1.11.92 2.13 1.42 3.29 2.16.72.47.77.65 1.52 1.21l23.94 24.05c.49.55.86.82 1.36 1.36.45.49.66.81 1.05 1.33.43.57.72.91 1.23 1.5 4.15 4.85 8.19 9.72 12.7 14.19 3.34 3.3 6.53 7.56 10.22 11.23l13.27 13.28c1.34 1.36 1.77 1.3 3.16 2.28 1.86 1.32 4.36 3.96 8.98 7.02l6.57 3.98c1.47.8 1.6 1.35 3.36 2.08.72.3 1.29.49 1.9.82l5.95 2.23c4.01 1.14.77 1.26 7.7 2.85 1.7.39 2.35.86 4.13 1.32 2.14.55 2.65.27 4.93.52 6.3.68 13.31-.06 19.79-.05h85.8c4.92 0 10.5.81 15.21-.79l11.98-4.02c2.73-.72 1.7-.2 3.78-1.66 3.83-2.7 1.94.24 7.26-6.01 4.85-5.71 4.32-10.11 4.32-17.13l-3.34-9.59-18.54-29.11-22.12-25.54c-.67-.75-1.38-1.72-1.96-2.47-1.32-1.71-2.95-2.83-4.28-4.57l-5.63-5.6c-.05-.05-.13-.11-.18-.17-.31-.29-.4-.33-.72-.64-.83-.78-1.41-1.4-2.22-2.21-1.51-1.51-2.81-2.64-4.14-4.37-1.78-2.3-6.64-6.55-8.79-8.57-1.53-1.44-3.15-2.64-4.49-4.36-2.25-2.92-5.14-4.82-7.87-7.1l-14.53-13.72c-.94-.93-1.58-1.14-2.4-2.03l-3.15-3.31c-2.11-1.95-11.14-12.06-12.1-13.76-.96-1.72-1.8-2.28-2.44-4.36-.68-2.21-2.19-3.34-2.85-5.66-1.84-6.48-1.76-9.12-.13-15.86.38-1.59.42-2.52 1.12-3.98l2.27-5.22c.43-.79.68-1.02 1.07-1.66l3.64-6.57c2.54-4.06 5.74-7.71 8.31-11.77.35-.55.61-.96.95-1.43l3.47-4.36c.79-.97 1.25-2.01 2.03-3.07.78-1.06 1.28-1.88 2.14-2.97l8.91-11.17c2.19-2.88 3.97-6.19 6.51-8.8l14.29-18.73c.49-.58.73-1.05 1.12-1.6.71-1 1.48-1.78 2.28-2.82.53-.68.45-.76.93-1.45 2.36-3.42 5.26-6.62 7.61-10.09.81-1.19 1.37-1.73 2.18-2.93l3.14-4.34c.51-.73.79-.82 1.27-1.45.83-1.1.91-2.1 1.9-3.21l7.38-10.32c.53-.7.75-.85 1.22-1.5l19.72-31c.79-1.34 1.48-1.74 2.07-3.03.69-1.51.88-2.05 1.68-3.43l6.7-13.72c.7-2.06 1.66-3.11 3.06-7.16 1.05-3.05 2.04-4.15 2.61-7.6.28-1.74.51-2.36 1.13-3.98 1.7-4.46 1.16-8.55 1.16-13.13 0-.7-1.65-2.6-2.08-3.7-1.02-2.6-.52-1.83-2.61-3.52-1.74-1.41-3.72-2.13-5.53-3.32-2.12-1.38-4.28-1.58-6.85-1.99-2.11-.34-2.96-.77-5.01-1.12-4-.7-7.02-.98-11.28-.98h-108.95c-1.78 0-2.55.29-3.76.32-1.28.04-1.94-.32-3.72-.32-15.61 0-9.89 1.16-15.92 2.47-2.55.56-2.59 1.04-5.55 3.98-.34.34-1.02 1.16-1.43 1.63-.87 1.01-1.51 2.54-2.36 3.76-2.72 3.92-3.34 9.07-5.71 13.01-.97 1.62-.99 2.8-1.66 4.47-.72 1.81-1.44 2.27-1.97 4.16-.7 2.46-.73 2.76-1.83 4.64-.85 1.47-1.12 2.84-1.66 4.46l-4.89 10.77c-.39 1.15-.56 1.15-1.23 2.17-1.23 1.87-1.38 4.55-2.71 6.48-.91 1.3-1.15 2.8-2.06 4.07-1.5 2.1-1.72 4.33-3.05 6.48l-3.98 8.27c-.82 1.78-1.25 2.44-2.1 4.02l-5.45 10.21c-1.25 2.7-2.5 5.48-4.29 7.96-.84 1.16-.59.88-1.16 2.25-.81 1.93-1.49 2.2-2.54 3.59l-9.33 15.85c-.49.75-.78 1.11-1.23 1.83l-2.51 3.62c-.47.68-.64 1.26-1.09 1.97-2.83 4.53-7.77 10.63-9.95 14.9-.33.64-.65 1.45-1.02 2.04-.51.81-.9 1.02-1.55 1.85l-5.32 6.94c-.47.7-.83 1.17-1.29 1.77l-2.64 3.48c-.57.7-.96 1.2-1.49 1.91l-10.2 11.59-11.48 10.3c-3.18 2.57-9.14 5.49-13.43 4.83-5.02-.78-5.06-2.06-8.13-4.49-1.3-1.04-4.66-5.45-5.19-7.06-.82-2.51-1.6-2.57-2.1-4.03-.58-1.68-.68-3.47-1.4-5.07-1.37-3.08-1.4-6.75-1.91-10.68-.19-1.44-.29-4.21-.48-5.65-.64-4.88-.85-20.28-.39-24.35l.63-24.56c0-2.04-.01-4.09-.01-6.14 0-2.26.36-3.53.36-6.12-.03-8.54.36-16.29.34-24.5l1.02-41.86c0-2.99-.52-4.79-.68-7.49l-.93-7.59c-.32-1.74-.29-1.7-.92-3.17-.58-1.34-.88-1.72-1.2-3.23-.75-3.62-1.11-3.14-2.81-5.69-2.28-3.4-2.84-4.02-5.57-6.68l-5.31-3.21-9.6-3.33c-2.78-.49-4.57-.23-7.15-1.02-5.74-1.77-16.26-3.03-22.33-3.2-1.4-.04-2.6.11-3.97-.12-1.34-.23-2.06-.53-3.52-.57-2.78-.07-5.73 0-8.53.02-3 .02-4.95-.34-8.17-.34-6.78 0-18.56-.67-24.32.2-5.05.76-10.69-.41-15.66.34-3.53.53-7.42.18-10.99.92-1 .21-2.37.22-3.85.23-9.85.07-15.11 2.44-21 3.17-2.76.35-4.11.6-6.46 1.72-1.19.57-1.64.91-2.93 1.15-1.83.36-7.41 2.38-8.82 3.44-5.08 3.83-15.26 10.05-15.26 17.07z" fill="#404c55"/></svg>