<svg xmlns="http://www.w3.org/2000/svg" width="159.66" height="159.66" viewBox="0 0 577.52 577.52" shape-rendering="geometricPrecision" text-rendering="geometricPrecision" image-rendering="optimizeQuality" fill-rule="evenodd" clip-rule="evenodd"><defs><style>.fil1{fill:#404c55}</style></defs><g id="Слой_x0020_1"><g id="_4976900544"><path fill="#fff" d="M0 0h577.52v577.52H0z"/><path class="fil1" d="M208.09 370.56c.52-2.24 4.63-13.83 5.47-16.35.32-.96 5.44-15.78 5.44-16.39l-3.33-4.99c-1.07-1.75-2.2-3.5-3.13-5.33-4.16-8.2-6.98-15.79-8.78-25.05-4.64-23.86 1.19-48.11 14.36-67.13.78-1.12 1.5-2.05 2.32-3.14.81-1.08 1.56-2.01 2.42-3.04l2.55-2.91c1.49-1.96 6.13-6.03 8.35-8.01 2.28-2.03 6.01-4.85 8.6-6.4 1.99-1.19 3.9-2.52 5.96-3.59l5.46-2.73c4.78-2.42 11.04-4.32 16.2-5.62 15.1-3.81 30.97-3.03 45.91 1.2 1.53.43 2.67.85 4.12 1.34 1.43.48 2.61.95 3.97 1.49.7.28 1.23.53 1.91.82 5.55 2.37 7.86 3.93 12.54 6.69 1.21.72 2.21 1.47 3.35 2.25 1.61 1.1 3.19 2.24 4.64 3.54l2.94 2.51c.6.48.88.85 1.42 1.3l2.86 2.74c1.84 1.84 3.46 3.79 5.18 5.73 1.74 1.95 3.27 4.02 4.71 6.2 2.21 3.34 4.32 6.65 6.12 10.25 1.25 2.5 2.46 4.99 3.43 7.61 2.81 7.62 4.4 13.62 5.52 21.9 1.63 12.05.24 25.99-3.54 37.33-1.09 3.27-2.21 6.55-3.74 9.63l-1.45 3.05c-.98 1.95-1.92 3.91-3.13 5.74-2.04 3.09-3.03 4.82-5.45 8.05-1.99 2.65-7.82 9.52-10.5 11.59-.79.61-1.55 1.5-2.36 2.15-.86.69-1.61 1.35-2.45 2.05-.42.34-.81.61-1.23.95-.45.36-.84.63-1.32.99-4.21 3.17-8.99 6.14-13.79 8.45-8.58 4.12-17.84 7.1-27.35 8.25-3.55.43-6.97.72-10.48.7-.93 0-1.25.14-2.18.14-.91 0-1.25-.14-2.04-.15-2.1-.03-4.19-.28-6.28-.4-6.05-.37-15.91-2.86-21.73-5.14a101.28 101.28 0 01-14.83-7.26c-.33-.2-2.62-1.68-2.74-1.69-.45-.06-14.8 4.65-16.9 5.35l-3.42 1.08c-2.31.64-4.41 1.47-6.73 2.13-.62.17-1.04.34-1.64.54-1.28.43-4.13 1.49-5.23 1.58zm-8.59-29.6c0 .56-11.82 35.27-13.11 39.13l-3.61 10.71c-.29.87-2.31 6.43-2.37 7.18l3.32-1.04c12.18-4.06 24.5-7.75 36.68-11.73l16.64-5.32c.63-.21 1.06-.3 1.67-.52.86-.3.76-.1 1.46.29 3.86 2.13 7.91 3.98 12.03 5.56 6.74 2.58 13.52 4.5 20.75 5.71 15.61 2.6 32.56 1.7 47.72-2.82 3.33-.99 6.55-2.09 9.73-3.36 7.42-2.97 14.85-6.99 21.14-11.46l3.79-2.76c1.9-1.57 4.6-3.47 6.27-5.19l10.43-10.71c2.06-2.31 3.92-4.88 5.7-7.4 1.82-2.58 3.47-5.16 5.12-7.97l2.33-4.21c2.98-5.97 5.64-12.12 7.5-18.56 1.01-3.52 1.83-6.94 2.56-10.54.39-1.9.64-3.64.92-5.63.75-5.28.93-10.94.93-16.53 0-4.12-.32-8-.91-12.05-.58-3.95-1.19-7.46-2.09-11.01-2.23-8.86-5.24-16.66-9.41-24.69-.19-.36-.35-.73-.55-1.09-.4-.68-.77-1.36-1.18-2.09-3.05-5.48-6.86-10.53-10.8-15.39-1.58-1.95-6.12-6.96-7.83-8.4-.39-.32-.51-.38-.88-.75l-1.7-1.57c-1.72-1.74-4.28-3.73-6.24-5.22-3.1-2.37-6.36-4.64-9.73-6.64-4.89-2.9-9.88-5.49-15.17-7.6-8.36-3.34-16.82-5.56-25.91-6.82-12.79-1.77-26.72-1.03-38.98 2.05-5.71 1.43-11.15 3.18-16.53 5.43-.54.23-.96.43-1.51.67-.61.27-1.01.44-1.59.73-.54.27-.96.4-1.5.68-.53.27-.96.48-1.45.73s-.92.46-1.46.73c-5.2 2.6-10.16 5.84-14.81 9.33-.89.67-1.65 1.32-2.53 1.97l-9.26 8.34c-2.01 2.01-3.88 4.14-5.73 6.27l-2.52 3.08c-.67.81-1.26 1.67-1.88 2.49-3.84 5.1-7.15 10.67-9.91 16.42-.26.53-.48.96-.73 1.45-2.85 5.64-4.76 11.69-6.49 17.79-2.54 8.97-3.29 17.56-3.58 27.24l.11 4.22c-.01 1.36.21 2.83.27 4.09.25 5.26 1.22 10.25 2.29 15.31.52 2.45 1.07 4.7 1.82 7.04.7 2.2 1.37 4.39 2.21 6.52l3.25 7.8c.56 1.38 5.3 10.08 5.3 10.11z"/><path class="fil1" d="M237.41 259.8c0 8.55 3.08 16.7 7.37 23.86.62 1.03 1.22 1.99 1.87 3.04l8.03 11.88 4.37 5.59c.81.91 1.57 1.77 2.33 2.72.73.91 1.7 1.73 2.43 2.61 1.23 1.48 4.2 4.43 5.59 5.59.24.2.4.38.62.61l4.02 3.48c2.75 2.45 11.75 8.53 15.13 9.96 2.24.95 4.46 2.1 6.88 3.08 5.24 2.13 8.86 3.67 14.45 5.46 3.78 1.2 7.45 2.16 11.52 1.32 2.95-.61 4.03-.21 7.62-1.66 4.91-1.98 11.78-5.95 13.83-10.99 1.53-3.75 2.34-7.1 2.34-11.58 0-2.46-2.59-3.16-4.68-4.32l-14.82-7.96c-1.8-.89-4.42-2.33-6.49-2.66-2.08-.33-3.22 1.37-4.11 2.56-1.13 1.52-2.33 2.67-3.18 3.78l-3.72 4.19c-.2.24-.38.4-.61.62-1.86 1.85-2.65 3.28-5.98 1.96l-6.01-2.99c-2.69-1.35-7.48-4.4-9.74-6.21l-8.4-7.56c-3.47-3.47-7.35-8.82-9.91-13-1.29-2.1-3.08-4.55-3.08-6.74 0-1.71 2.09-2.97 3.17-4.19.3-.34.34-.48.68-.82.56-.56.89-1.02 1.44-1.56l2.63-3.37c2.74-4.58 1.87-4.57.35-8.82-1.79-5.02-4.02-10.48-5.73-15.41-.65-1.89-1.71-4.81-2.77-6.23-1.05-1.4-1.89-1.75-4.27-1.73-3.59.02-6.26-1.28-9.97.66-1.35.71-3.65 2.7-4.46 3.72-1.07 1.35-1.77 1.58-3.7 4.48-3.15 4.74-5.05 10.54-5.05 16.64z"/></g></g></svg>