<svg xmlns="http://www.w3.org/2000/svg" width="159.66" height="159.66" viewBox="0 0 908.87 908.87" shape-rendering="geometricPrecision" text-rendering="geometricPrecision" image-rendering="optimizeQuality" fill-rule="evenodd" clip-rule="evenodd"><path fill="#fff" d="M0 0h908.87v908.87H0z"/><path d="M499.74 461.52c-2.28 2.55-8.67 4.68-11.89 6.51-2.32 1.32-3.96 2.28-6.16 3.47-2.87 1.56-3.46 2.16-6.25 2.49-1.72 2.51-20.34 11.36-24.35 13.27-4 2.43-7.59 3.83-11.42 6.06-3.09 1.8-8.06 4.48-11.61 5.9-4.63 3.65-10.54 5.21-16.1 8.33l.02-30.05.02-11.78-.1-73.18c3.38.91 27.12 13.31 28.49 15.25 3.9.34 8.06 3.69 11.77 5.73 3.37 1.85 7.09 3.32 10.94 5.57 4.63 2.24 7.71 3.95 12.28 6.18 2.12 1.03 3.98 2.07 6.21 3.35 1.18.68 1.8 1.01 3.06 1.81.97.62.72.47 1.53 1.04l1.01.8c2.25.15 21.79 10.42 22.91 11.88 3.16 1.1 9.58 3.82 11.99 6.19-5.78 3.04-16.03 9.29-22.36 11.17zM380.89 310.81c-3.62 0-6.24.53-9.69-.26l-63.65 3.76-10.08.88c-1.12 1.18-12.28 5.03-14.62 5.93-2.37 2.18-5.27 3.41-8.01 5.75-3.07 2.62-4.51 4.89-6.96 7.22-2.22 3.55-4.34 6.49-6.09 10.86-1.71 4.26-2.85 8.18-4.45 12.24l-2.78 12.99-1.4 11.2c-1.01 14.22-2.5 27.21-2.85 41.95-.34 14.3-.39 28.18-.29 42.58-.53 18.97 1.3 41.45 3.01 60.31l.91 11.38 2.93 11.59c1.82 9.6 5.48 15.59 9.28 23.16l8.42 8.31c1.79 1.63 1.83 1.96 4.34 3.68 1.59 1.09 3.45 2.18 4.53 3.12 2.99.88 8.25 3.01 11.49 4.3l11.5 2.3c7.73.29 15.56 1.66 23.68 2.09 8.4.44 17.23.97 25.61 1l11.74.2 6.21.23 17.05.48 11.68.28c4.53.08 13.25-.99 16.53.85l8.63-.43 11.13.11 11.64.19 13.28-.05 11.82-.15 11.04-.05 12.95-.2 11.25-.41 12.55-.14 35.24-1.15 48.85-3.07 11.3-3.22c8.09-3.36 13.37-7.22 18.23-11.85 6.35-6.06 6.86-9.69 11.32-17.8.52-1.93 3.01-10.68 4.33-12.26-.33-3.75.91-5.3 1.3-9.12l.78-2 .91-11.68c.39-3.68-.02-11.14 1.89-13.52l.01-10.93c.45-5.54-.62-17.72 1.44-21.49l-.49-2.53.23-11.66.01-12.09.01-12.15.39-6.72c-1.59-2.26-.93-13.97-1-17.86l.1-9.68c-1.69-2.74-1.21-9.36-1.52-13.35l-1.25-14.48-4.24-22.21-3.84-11.63c-4.04-7.57-6.2-11.94-11.51-16.73-4.5-4.06-9.95-7.26-16.78-10.67-21.82-7.28-59.87-6.33-85.09-7.22-5.91.08-20.94 1.15-25.11-1.29l-10.09.46-11.11-.15-12.77-.02-35.57-.03-13.04.02-10.53.12-11.11-.42c-2.89 1.6-19 1.34-23.55 1.12z" fill="#404c55"/></svg>